<?xml version="1.0" standalone="no"?>
<!DOCTYPE svg PUBLIC "-//W3C//DTD SVG 1.1//EN" "http://www.w3.org/Graphics/SVG/1.1/DTD/svg11.dtd" >
<svg>
<metadata>
Created by FontForge 20090914 at Tue Aug 25 03:39:00 2020
 By www-data
Copyright 2018 The Hepta Slab Project Authors (https://github.com/mjlagattuta/Hepta-Slab)
</metadata>
<defs>
<font id="HeptaSlab-ExtraLight" horiz-adv-x="0" >
  <font-face 
    font-family="Hepta Slab ExtraLight"
    font-weight="200"
    font-stretch="normal"
    units-per-em="2000"
    panose-1="0 0 0 0 0 0 0 0 0 0"
    ascent="1600"
    descent="-400"
    x-height="1052"
    cap-height="1504"
    bbox="-354 -494 2932 2430"
    underline-thickness="50"
    underline-position="-75"
    unicode-range="U+000D-U+FEFF"
  />
<missing-glyph horiz-adv-x="1714" 
d="M1446 1504v-1504h-1178v1504h1178zM1398 42v1420h-1082v-1420h1082zM1444 1496l-1120 -1492l-54 4l1122 1492zM270 1496l54 4l1120 -1492l-52 -4z" />
    <glyph glyph-name="fi" unicode="fi" horiz-adv-x="1490" 
d="M100 0l-0.000976562 42.001h222v968h-222v42h222v130c0 137.333 37.333 240.666 112 309.999s177.334 104 308.001 104c105.333 0 194 -21.833 266 -65.5s119.333 -108.5 142 -194.5h34l-30 -82c-26.667 100 -73.5 174.333 -140.5 223s-157.5 73 -271.5 73
s-204.5 -29 -271.5 -87s-100.5 -151 -100.5 -279v-132h376v-42h-376v-968h276v-42h-546zM1154 1254v326h48v-326h-48zM1204 42.001h228v-42h-516v42h240v968h-240v42h288v-1010z" />
    <glyph glyph-name="fl" unicode="fl" horiz-adv-x="1444" 
d="M1142 42h244v-42h-538v42h246v1538h48v-1538zM100 0l-0.00195312 42.001h222v968h-222v42h222v148c0 132 36.333 231 109 297s168.334 99 287.001 99c105.333 0 189.333 -23.833 252 -71.5s103.334 -110.5 122.001 -188.5h34l-32 -164
c0 127.333 -34.667 222.166 -104 284.499s-158 93.5 -266 93.5c-104 0 -189 -27.5 -255 -82.5s-99 -142.167 -99 -261.5v-154h386v-42h-386v-968h276v-42h-546z" />
    <glyph glyph-name="f_f" unicode="ff" horiz-adv-x="1650" 
d="M100 0l-0.000976562 42.002h222v968h-222v42h222v150c0 87.333 17.333 160.166 52 218.499s82.667 102.166 144 131.499s132 44 212 44c112 0 201.833 -26.833 269.5 -80.5s109.834 -125.5 126.501 -215.5h36l-44 -132c0 129.333 -35.5 225.333 -106.5 288
s-163.5 94 -277.5 94c-106 0 -193.167 -28 -261.5 -84s-102.5 -144 -102.5 -264v-150h386v-42h-386v-968h276v-42h-546zM895.999 0.00195312v41.999h222v968h-222v42h222v210c0 109.333 29.333 192.333 88 249s140 85 244 85c91.333 0 163.333 -21.333 216 -64
s87.334 -104.667 104.001 -186l-44 -14c-16.667 73.333 -47.667 128 -93 164s-107 54 -185 54c-86.667 0 -155.334 -23.167 -206.001 -69.5s-76 -119.166 -76 -218.499v-210h388v-42h-388v-968h280v-42h-550z" />
    <glyph glyph-name="f_f_i" unicode="ffi" horiz-adv-x="2286" 
d="M100 0l-0.000976562 42.002h222v968h-222v42h222v150c0 87.333 17.333 160.166 52 218.499s82.667 102.166 144 131.499s132 44 212 44c112 0 201.833 -26.833 269.5 -80.5s109.834 -125.5 126.501 -215.5h36l-44 -132c0 129.333 -35.5 225.333 -106.5 288
s-163.5 94 -277.5 94c-106 0 -193.167 -28 -261.5 -84s-102.5 -144 -102.5 -264v-150h386v-42h-386v-968h276v-42h-546zM895.999 0.00195312l-0.000976562 42.001h222v968h-222v42h222v130c0 137.333 37.333 240.666 112 309.999s177.334 104 308.001 104
c105.333 0 194 -21.833 266 -65.5s119.333 -108.5 142 -194.5h34l-30 -82c-26.667 100 -73.5 174.333 -140.5 223s-157.5 73 -271.5 73s-204.5 -29 -271.5 -87s-100.5 -151 -100.5 -279v-132h376v-42h-376v-968h276v-42h-546zM1950 1254v326h48v-326h-48zM2000 42.0029h228
v-42h-516v42h240v968h-240v42h288v-1010z" />
    <glyph glyph-name="f_f_l" unicode="ffl" horiz-adv-x="2240" 
d="M100 0l-0.000976562 42.002h222v968h-222v42h222v150c0 87.333 17.333 160.166 52 218.499s82.667 102.166 144 131.499s132 44 212 44c112 0 201.833 -26.833 269.5 -80.5s109.834 -125.5 126.501 -215.5h36l-44 -132c0 129.333 -35.5 225.333 -106.5 288
s-163.5 94 -277.5 94c-106 0 -193.167 -28 -261.5 -84s-102.5 -144 -102.5 -264v-150h386v-42h-386v-968h276v-42h-546zM1938 42.002h244v-42h-538v42h246v1538h48v-1538zM895.999 0.00195312l-0.00195312 42.001h222v968h-222v42h222v148c0 132 36.333 231 109 297
s168.334 99 287.001 99c105.333 0 189.333 -23.833 252 -71.5s103.334 -110.5 122.001 -188.5h34l-32 -164c0 127.333 -34.667 222.166 -104 284.499s-158 93.5 -266 93.5c-104 0 -189 -27.5 -255 -82.5s-99 -142.167 -99 -261.5v-154h386v-42h-386v-968h276v-42h-546z" />
    <glyph glyph-name="g_j.liga" unicode="gj" horiz-adv-x="1864" 
d="M1194 -290c33.333 -66.667 93.3311 -100 179.998 -100c66 0 118.5 18.667 157.5 56s58.5 95.333 58.5 174v1170h-274v42h322v-1212c0 -92 -23.167 -161 -69.5 -207s-111.166 -69 -194.499 -69c-54 0 -99.167 10.5 -135.5 31.5s-65.166 51.833 -86.499 92.5zM599.998 -434
c-92.667 0 -174.832 8.83496 -246.499 26.502s-127.834 46.5 -168.501 86.5s-61 93.667 -61 161s20.167 120.166 60.5 158.499s93.5 63.5 159.5 75.5v10l172 -12c-84.667 -0.666992 -152.5 -11.334 -203.5 -32.001s-87.833 -48.334 -110.5 -83.001s-34 -73.667 -34 -117
c0 -58.667 18.5 -105.167 55.5 -139.5s88.167 -59 153.5 -74s140.333 -22.5 225 -22.5c172 0 296.667 25.5 374 76.5s116 117.5 116 199.5c0 128 -86 192 -258 192h-410c-74 0 -130.5 13.167 -169.5 39.5s-58.5 63.833 -58.5 112.5c0 47.333 18.5 83.333 55.5 108
s91.833 37.334 164.5 38.001v16l188 -44h-140c-74 0 -129.5 -9.83301 -166.5 -29.5s-55.5 -49.167 -55.5 -88.5c0 -36 15.833 -62.667 47.5 -80s80.5 -26 146.5 -26h398c66 0 121.667 -9.33301 167 -28s79.5 -45.667 102.5 -81s34.5 -78.333 34.5 -129
c0 -60.667 -18.167 -114.667 -54.5 -162s-94 -84.5 -173 -111.5s-182.5 -40.5 -310.5 -40.5zM604 342.002c-80.667 0 -152.67 15 -216.003 45s-113.166 72.167 -149.499 126.5s-54.5 117.833 -54.5 190.5c0 73.333 18 137.5 54 192.5s85.5 97.667 148.5 128
s135.5 45.5 217.5 45.5c87.333 0 164.333 -17.5 231 -52.5s116.334 -83.5 149.001 -145.5c13.333 -24 23.333 -50 30 -78s10 -58 10 -90c0 -72.667 -18 -136.167 -54 -190.5s-85.667 -96.5 -149 -126.5s-135.666 -45 -216.999 -45zM603.997 382.002
c72 0 136.001 13.333 192.001 40s100 64.167 132 112.5s48 104.833 48 169.5c0 65.333 -16 122.5 -48 171.5s-76 87 -132 114s-120 40.5 -192 40.5c-72.667 0 -137.167 -13.5 -193.5 -40.5s-100.5 -65 -132.5 -114s-48 -106.167 -48 -171.5
c0 -64.667 16.333 -121.167 49 -169.5s77.167 -85.833 133.5 -112.5s120.166 -40 191.499 -40zM1024 704.002l-30.001 116l-38 78l16 6c-2 6 -3.5 12.5 -4.5 19.5s-1.5 13.833 -1.5 20.5c0 22 6 44.167 18 66.5s31 40.833 57 55.5s59.667 22 101 22
c9.33301 0 17.833 -0.5 25.5 -1.5s15.834 -2.5 24.501 -4.5v-46c-10 2 -19.167 3.5 -27.5 4.5s-17.166 1.5 -26.499 1.5c-36.667 0 -65.667 -6.66699 -87 -20s-36.5 -29.5 -45.5 -48.5s-13.5 -37.5 -13.5 -55.5c0 -21.333 2.66699 -41 8 -59s10.666 -38.833 15.999 -62.5
s8 -54.5 8 -92.5zM1568 1430h86v-88h-86v88z" />
    <glyph glyph-name="j_j.liga" unicode="jj" horiz-adv-x="1252" 
d="M78 1052h322v-1212c0 -92 -23.167 -161 -69.5 -207s-110.5 -69 -192.5 -69c-72.667 0 -130 17.667 -172 53s-70 86.333 -84 153l44 12c14 -58 38.167 -101.167 72.5 -129.5s80.833 -42.5 139.5 -42.5c65.333 0 117.333 18.667 156 56s58 95.333 58 174v1170h-274v42z
M330 1430h86v-88h-86v88zM704 1052h322v-1212c0 -92 -23.167 -161 -69.5 -207s-110.5 -69 -192.5 -69c-72.667 0 -130 17.667 -172 53s-70 86.333 -84 153l44 12c14 -58 38.167 -101.167 72.5 -129.5s80.833 -42.5 139.5 -42.5c65.333 0 117.333 18.667 156 56
s58 95.333 58 174v1170h-274v42zM956 1430h86v-88h-86v88z" />
    <glyph glyph-name=".notdef" horiz-adv-x="1714" 
d="M1446 1504v-1504h-1178v1504h1178zM1398 42v1420h-1082v-1420h1082zM1444 1496l-1120 -1492l-54 4l1122 1492zM270 1496l54 4l1120 -1492l-52 -4z" />
    <glyph glyph-name="NULL" 
 />
    <glyph glyph-name="NULL" 
 />
    <glyph glyph-name="CR" unicode="&#xd;" horiz-adv-x="634" 
 />
    <glyph glyph-name="space" unicode=" " horiz-adv-x="634" 
 />
    <glyph glyph-name="exclam" unicode="!" horiz-adv-x="460" 
d="M198 1504h58l-10 -1166h-40zM180 98h100v-98h-100v98z" />
    <glyph glyph-name="quotedbl" unicode="&#x22;" horiz-adv-x="430" 
d="M98 1504h46l-6 -468h-34zM286 1504h46l-6 -468h-34z" />
    <glyph glyph-name="numbersign" unicode="#" horiz-adv-x="1244" 
d="M542 1504l-328 -1504h-46l328 1504h46zM1077 1504l-328 -1504h-46l328 1504h46zM1215 1053v-42h-1087v42h1087zM1117 493v-42h-1087v42h1087z" />
    <glyph glyph-name="dollar" unicode="$" horiz-adv-x="1410" 
d="M740 1672v-1856h-48v1856h48zM778 -20c-160 0 -286.33 32.1709 -378.997 96.5039s-153 145.5 -181 243.5h-14l10 136c20 -140 78.667 -247 176 -321s226 -111 386 -111c143.333 0 252.166 30.167 326.499 90.5s111.5 146.833 111.5 259.5c0 72 -16.167 132.5 -48.5 181.5
s-85 89.167 -158 120.5s-170.167 56.666 -291.5 75.999c-131.333 21.333 -237 48.666 -317 81.999s-138.167 75.666 -174.5 126.999s-54.5 114.333 -54.5 189c0 120 41.833 212.333 125.5 277s198.5 97 344.5 97c104.667 0 192.667 -15.167 264 -45.5
s127.666 -71.166 168.999 -122.499s69.666 -108 84.999 -170h14l-12 -138c-20.667 142 -74 249.5 -160 322.5s-204 109.5 -354 109.5c-132 0 -236 -28.167 -312 -84.5s-114 -137.5 -114 -243.5c0 -64.667 15.833 -119.167 47.5 -163.5s84.334 -81.333 158.001 -111
s173.167 -54.834 298.5 -75.501c130 -21.333 234.667 -49.833 314 -85.5s137.166 -81.167 173.499 -136.5s54.5 -123.333 54.5 -204c0 -126.667 -41.833 -224.334 -125.5 -293.001s-204.5 -103 -362.5 -103zM164.003 0.00390625v456h50v-456h-50zM1160 1048v456h50v-456h-50
z" />
    <glyph glyph-name="percent" unicode="%" horiz-adv-x="1610" 
d="M234 0l1082 1504h60l-1082 -1504h-60zM436 762c-58.667 0 -109.5 16.167 -152.5 48.5s-76.333 76.833 -100 133.5s-35.5 122 -35.5 196c0 112 26 203.333 78 274s122 106 210 106c58.667 0 109.667 -16.167 153 -48.5s77 -77 101 -134s36 -122.833 36 -197.5
c0 -74 -12 -139.333 -36 -196s-57.667 -101.167 -101 -133.5s-94.333 -48.5 -153 -48.5zM436 806c49.333 0 92.166 14.167 128.499 42.5s64.333 67.666 84 117.999s29.5 108.166 29.5 173.499c0 66 -9.83301 124.333 -29.5 175s-47.667 90.167 -84 118.5
s-79.166 42.5 -128.499 42.5c-48.667 0 -91 -14.167 -127 -42.5s-63.833 -67.833 -83.5 -118.5s-29.5 -109 -29.5 -175c0 -65.333 9.83301 -123.166 29.5 -173.499s47.5 -89.666 83.5 -117.999s78.333 -42.5 127 -42.5zM1172 -16c-58.667 0 -109.667 16.333 -153 49
s-77 77.5 -101 134.5s-36 122.5 -36 196.5s12 139.5 36 196.5s57.667 101.833 101 134.5s94.333 49 153 49s109.667 -16.333 153 -49s77 -77.5 101 -134.5s36 -122.5 36 -196.5s-12 -139.5 -36 -196.5s-57.667 -101.833 -101 -134.5s-94.333 -49 -153 -49zM1172 28
c49.333 0 92.166 14.332 128.499 42.999s64.333 68.334 84 119.001s29.5 108.667 29.5 174c0 66 -9.83301 124.333 -29.5 175s-47.667 90.167 -84 118.5s-79.166 42.5 -128.499 42.5s-92.166 -14.167 -128.499 -42.5s-64.333 -67.833 -84 -118.5s-29.5 -109 -29.5 -175
s9.83301 -124.167 29.5 -174.5s47.667 -89.833 84 -118.5s79.166 -43 128.499 -43z" />
    <glyph glyph-name="ampersand" unicode="&#x26;" horiz-adv-x="1580" 
d="M1386 46l126 0.00390625v-46h-146l-826 792c-78.667 63.333 -138.5 120.166 -179.5 170.499s-69 96.166 -84 137.499s-22.5 80.666 -22.5 117.999c0 60 14.167 112.667 42.5 158s68.166 80.666 119.499 105.999s111.333 38 180 38l2 -44
c-88.667 0 -160.167 -24 -214.5 -72s-81.5 -110.667 -81.5 -188c0 -32.667 7.33301 -68.167 22 -106.5s41.334 -81 80.001 -128s94 -99.5 166 -157.5zM1358 1052h47.999c-28.667 -218 -78.5 -407 -149.5 -567s-163.5 -283.5 -277.5 -370.5s-250.333 -130.5 -409 -130.5
c-101.333 0 -188.5 18.167 -261.5 54.5s-129 85.333 -168 147s-58.5 130.5 -58.5 206.5c0 99.333 36.667 188 110 266s191.333 137.333 354 178l6 -2c109.333 39.333 193.333 89.333 252 150s88 133.334 88 218.001c0 87.333 -28 154.833 -84 202.5s-126 71.5 -210 71.5
l-2 44c66.667 0 125.834 -12.5 177.501 -37.5s92.334 -61 122.001 -108s44.5 -103.833 44.5 -170.5c0 -96 -32.5 -177.667 -97.5 -245s-156.5 -121.666 -274.5 -162.999h-6c-154.667 -40 -265 -95.5 -331 -166.5s-99 -150.167 -99 -237.5
c0 -68.667 17.833 -130.334 53.5 -185.001s86.167 -97.834 151.5 -129.501s143 -47.5 233 -47.5c149.333 0 277.666 41.667 384.999 125s194.333 201.5 261 354.5s114 333.833 142 542.5z" />
    <glyph glyph-name="quotesingle" unicode="'" horiz-adv-x="242" 
d="M98 1504h46l-6 -468h-34z" />
    <glyph glyph-name="parenleft" unicode="(" horiz-adv-x="656" 
d="M216 582c0 -154.667 13 -293.831 39 -417.498s61 -233.834 105 -330.501s93.333 -181.334 148 -254.001h-60c-82 115.333 -149.5 255.166 -202.5 419.499s-79.5 358.5 -79.5 582.5s26.667 418.333 80 583s122 304.334 206 419.001h56
c-54.667 -72.667 -104 -157.167 -148 -253.5s-79 -206.5 -105 -330.5s-39 -263.333 -39 -418z" />
    <glyph glyph-name="parenright" unicode=")" horiz-adv-x="656" 
d="M440 582c0 154.667 -13 293.831 -39 417.498s-61 233.834 -105 330.501s-93.333 181.334 -148 254.001h60c82 -115.333 149.5 -255.166 202.5 -419.499s79.5 -358.5 79.5 -582.5s-26.667 -418.333 -80 -583s-122 -304.334 -206 -419.001h-56
c54.667 72.667 104 157.167 148 253.5s79 206.5 105 330.5s39 263.333 39 418z" />
    <glyph glyph-name="asterisk" unicode="*" horiz-adv-x="786" 
d="M414 1580l-6 -368l6 -362h-42l6 364l-6 366h42zM698 1414l22 -36l-320 -178l-312 -188l-22 38l320 178zM88 1414l312 -186l320 -178l-22 -38l-312 188l-320 178z" />
    <glyph glyph-name="plus" unicode="+" horiz-adv-x="1178" 
d="M567 319v383h-388v42h388v380h46v-380h388l-2 -42h-386v-383h-46z" />
    <glyph glyph-name="comma" unicode="," horiz-adv-x="298" 
d="M100 98h100v-98h-100v98zM170 98l30.001 0.000976562v-166c0 -36 -9.5 -62.667 -28.5 -80s-43.5 -26 -73.5 -26v28c21.333 1.33301 38.666 8.16602 51.999 20.499s20 31.5 20 57.5v166z" />
    <glyph glyph-name="hyphen" unicode="-" horiz-adv-x="696" 
d="M616 584v-42h-536v42h536z" />
    <glyph glyph-name="period" unicode="." horiz-adv-x="296" 
d="M98 98h100v-98h-100v98z" />
    <glyph glyph-name="slash" unicode="/" horiz-adv-x="702" 
d="M658 1580l-544 -1748h-46l544 1748h46z" />
    <glyph glyph-name="zero" unicode="0" horiz-adv-x="1398" 
d="M698 -16c-116 0 -215 30.667 -297 92s-144.667 149.666 -188 264.999s-65 253.666 -65 414.999c0 159.333 21.667 296 65 410s106 201.5 188 262.5s181 91.5 297 91.5c116.667 0 216.167 -30.5 298.5 -91.5s145.166 -148.5 188.499 -262.5s65 -250.667 65 -410
c0 -161.333 -21.667 -299.666 -65 -414.999s-106.166 -203.666 -188.499 -264.999s-181.833 -92 -298.5 -92zM698 32c160 0 283.333 64 370 192s130 305.333 130 532c0 225.333 -43.333 401 -130 527s-210 189 -370 189c-158.667 0 -281.667 -63 -369 -189
s-131 -301.667 -131 -527c0 -226.667 43.667 -404 131 -532s210.333 -192 369 -192z" />
    <glyph glyph-name="one" unicode="1" horiz-adv-x="964" 
d="M494 1504h30v-1458h348v-46h-744v46h348v1418zM148 1240h85.9971c52.667 0 96.834 9.83301 132.501 29.5s62.834 49 81.501 88s28.667 87.833 30 146.5h22l-10 -156h-18c-12 -52 -38.667 -91 -80 -117s-96.666 -39 -165.999 -39h-78v48z" />
    <glyph glyph-name="two" unicode="2" horiz-adv-x="1328" 
d="M1166 366c0 -122.667 -26.0039 -216.666 -78.0039 -281.999s-126.667 -98 -224 -98c-47.333 0 -88 6 -122 18s-65.667 25.667 -95 41s-60.166 29 -92.499 41s-71.166 18 -116.499 18c-44.667 0 -87 -7.83301 -127 -23.5s-71.667 -42.5 -95 -80.5l-20 8l14 60l16 -8
c21.333 31.333 50.833 54.166 88.5 68.499s79.5 21.5 125.5 21.5c48 0 88.833 -6 122.5 -18s64.834 -25.667 93.501 -41s58.834 -29 90.501 -41s69.5 -18 113.5 -18c85.333 0 149.333 28.167 192 84.5s64 139.5 64 249.5h50zM739.996 636.001
c99.333 69.333 176.833 137.67 232.5 205.003s83.5 148.333 83.5 243c0 72 -15.667 137.167 -47 195.5s-77 104.666 -137 138.999s-132.667 51.5 -218 51.5c-118.667 0 -215.167 -35.167 -289.5 -105.5s-123.166 -166.5 -146.499 -288.5l-48 4
c16 91.333 45.167 169.833 87.5 235.5s97 116.167 164 151.5s145.167 53 234.5 53c95.333 0 176.5 -19.5 243.5 -58.5s118.167 -91.333 153.5 -157s53 -138.5 53 -218.5c0 -70 -13.167 -132.5 -39.5 -187.5s-64.333 -106.333 -114 -154s-109.167 -95.167 -178.5 -142.5
l-282 -196c-64.667 -44 -117.834 -88.833 -159.501 -134.5s-72.5 -91.334 -92.5 -137.001s-30 -90.5 -30 -134.5h-44v4c0 47.333 10.5 95.666 31.5 144.999s53.333 98.833 97 148.5s99.5 98.5 167.5 146.5z" />
    <glyph glyph-name="three" unicode="3" horiz-adv-x="1186" 
d="M74 436l47.998 9.99805c25.333 -126.667 75.833 -227 151.5 -301s182.5 -111 320.5 -111c92.667 0 171.334 16.667 236.001 50s113.834 78.333 147.501 135s50.5 120.334 50.5 191.001c0 74.667 -18.833 139.5 -56.5 194.5s-91.667 97.667 -162 128
s-154.833 45.5 -253.5 45.5v36c108.667 0 202.167 -16.5 280.5 -49.5s138.5 -80 180.5 -141s63 -133.5 63 -217.5c0 -78.667 -19 -149.667 -57 -213s-93.333 -113.666 -166 -150.999s-161 -56 -265 -56c-150.667 0 -268.167 40 -352.5 120s-139.5 190 -165.5 330z
M105.998 1084c12 145.333 59.333 254.334 142 327.001s192 109 328 109c94 0 175.167 -16.167 243.5 -48.5s120.833 -76.833 157.5 -133.5s55 -121.334 55 -194.001c0 -70 -18 -131.667 -54 -185s-89.333 -95 -160 -125s-158 -44.667 -262 -44v36
c93.333 0 171.5 13.333 234.5 40s110.333 63.5 142 110.5s47.5 101.5 47.5 163.5c0 63.333 -16.333 119.833 -49 169.5s-79.167 89 -139.5 118s-132.166 43.833 -215.499 44.5c-124.667 0 -222.834 -32.333 -294.501 -97s-114.167 -163.667 -127.5 -297zM487.998 825.999h68
v-48h-68v48z" />
    <glyph glyph-name="four" unicode="4" horiz-adv-x="1276" 
d="M902 1504v-1458h270v-46h-596v46h276v1414l-16 44h66zM1172 508v-46h-1088v46h1088zM836 1504l46 -20l-754 -1002l-44 26z" />
    <glyph glyph-name="five" unicode="5" horiz-adv-x="1362" 
d="M210 254l47.999 19.9951c37.333 -76 92.333 -135 165 -177s160.334 -63 263.001 -63c99.333 0 185.833 19.5 259.5 58.5s130.834 93.333 171.501 163s61 150.5 61 242.5c0 92.667 -19.833 174.834 -59.5 246.501s-95.667 127.834 -168 168.501s-157.166 61 -254.499 61
c-120.667 0 -220.834 -31.167 -300.501 -93.5s-127.5 -142.5 -143.5 -240.5l8 144l16 -4c15.333 43.333 41.333 83.333 78 120s83.667 66.167 141 88.5s124.333 33.5 201 33.5c108 0 202.167 -22.5 282.5 -67.5s142.666 -107 186.999 -186s66.5 -169.167 66.5 -270.5
s-22.5 -190.666 -67.5 -267.999s-108.5 -137.666 -190.5 -180.999s-178 -65 -288 -65c-116 0 -214.5 24.333 -295.5 73s-141.167 114.334 -180.5 197.001zM367.999 1504l-116 -864l-48 8l114 856h50zM349.999 1458v46h754v-46h-754z" />
    <glyph glyph-name="six" unicode="6" horiz-adv-x="1324" 
d="M692 34c90.667 0 170.497 19.168 239.497 57.501s123 91.666 162 159.999s58.5 147.833 58.5 238.5c0 88.667 -18.833 167.834 -56.5 237.501s-91.167 124.5 -160.5 164.5s-151.666 60 -246.999 60c-89.333 0 -168.666 -18.333 -237.999 -55
s-123.666 -88.834 -162.999 -156.501s-59 -148.5 -59 -242.5l-10 -42l-26 116h16l4 30c10.667 82.667 36.5 153.667 77.5 213s95.333 105 163 137s146.834 48 237.501 48c106.667 0 198.334 -22.167 275.001 -66.5s135.667 -105 177 -182s62 -164.167 62 -261.5
c0 -99.333 -21.333 -187 -64 -263s-102.334 -135.5 -179.001 -178.5s-166.334 -64.5 -269.001 -64.5v50zM691.997 -15.999c-120 0 -223.331 30.8359 -309.998 92.5029s-148 149.5 -184 263.5c-16.667 52 -29.167 112.5 -37.5 181.5s-12.5 146.5 -12.5 232.5
c0 161.333 18.333 299.166 55 413.499s94.667 201.666 174 261.999s183 90.5 311 90.5c117.333 0 216.666 -26.667 297.999 -80s144 -130.666 188 -231.999l-50 -22c-40 95.333 -96.667 166.5 -170 213.5s-162 70.5 -266 70.5c-118 0 -212.833 -28.333 -284.5 -85
s-123.834 -138.334 -156.501 -245.001s-49 -235.334 -49 -386.001c0 -44.667 1.16699 -88.5 3.5 -131.5s7.83301 -93.167 16.5 -150.5l10 26c0 -91.333 19.667 -171.833 59 -241.5s93.833 -124.167 163.5 -163.5s150.167 -59 241.5 -59v-50z" />
    <glyph glyph-name="seven" unicode="7" horiz-adv-x="1192" 
d="M1138 1504l-644 -1504h-56l626 1454l20 50h54zM144 1356c15.333 54 44.168 94.5 86.501 121.5s91.5 40.5 147.5 40.5c46.667 0 86.5 -7.5 119.5 -22.5s64.333 -32.167 94 -51.5s62.667 -36.5 99 -51.5s80.833 -22.5 133.5 -22.5c50 0 99.167 9.66699 147.5 29
s85.833 54.333 112.5 105l-24 -92l-14 6c-28 -34 -62 -58.5 -102 -73.5s-84.667 -22.5 -134 -22.5c-52.667 0 -97.167 7.33301 -133.5 22s-69 31.667 -98 51s-59.333 36.333 -91 51s-69.5 22 -113.5 22c-66.667 0 -122.334 -20.833 -167.001 -62.5s-67 -103.5 -67 -185.5
l-16 136h20zM140.002 1504v-410h-48v410h48z" />
    <glyph glyph-name="eight" unicode="8" horiz-adv-x="1228" 
d="M614 -16c-100.667 0 -189.167 17.667 -265.5 53s-135.833 84 -178.5 146s-64 133 -64 213s21.333 150.667 64 212s102.167 109.333 178.5 144s164.833 52 265.5 52c101.333 0 190.166 -17.333 266.499 -52s135.666 -82.667 177.999 -144s63.5 -132 63.5 -212
s-21.167 -151 -63.5 -213s-101.666 -110.667 -177.999 -146s-165.166 -53 -266.499 -53zM614 34c89.333 0 168.333 15.667 237 47s122.334 74.666 161.001 129.999s58 119 58 191s-19.333 135.5 -58 190.5s-92.334 98 -161.001 129s-147.667 46.5 -237 46.5
s-168.333 -15.5 -237 -46.5s-122.334 -74 -161.001 -129s-58 -118.5 -58 -190.5s19.333 -135.667 58 -191s92.334 -98.666 161.001 -129.999s147.667 -47 237 -47zM614 774c-92.667 0 -174.167 16 -244.5 48s-125.166 76 -164.499 132s-59 120 -59 192
c0 72.667 19.667 137.167 59 193.5s94.166 100.5 164.499 132.5s151.833 48 244.5 48c93.333 0 175.166 -16 245.499 -48s125 -76.167 164 -132.5s58.5 -120.833 58.5 -193.5c0 -72 -19.5 -136 -58.5 -192s-93.667 -100 -164 -132s-152.166 -48 -245.499 -48zM614 812
c81.333 0 153.333 14 216 42s111.667 66.833 147 116.5s53 106.834 53 171.501s-17.667 121.834 -53 171.501s-84.333 88.5 -147 116.5s-134.667 42 -216 42s-153.333 -14 -216 -42s-111.667 -66.833 -147 -116.5s-53 -106.834 -53 -171.501s17.667 -121.834 53 -171.501
s84.333 -88.5 147 -116.5s134.667 -42 216 -42z" />
    <glyph glyph-name="nine" unicode="9" horiz-adv-x="1326" 
d="M634 1476c-90.667 0 -170.497 -19.168 -239.497 -57.501s-123 -91.666 -162 -159.999s-58.5 -147.833 -58.5 -238.5c0 -88.667 18.833 -167.834 56.5 -237.501s91.167 -124.5 160.5 -164.5s151.666 -60 246.999 -60c89.333 0 168.666 18.333 237.999 55
s123.666 88.834 162.999 156.501s59 148.5 59 242.5l10 42l26 -116h-16l-4 -30c-10.667 -82.667 -36.5 -153.667 -77.5 -213s-95.333 -105 -163 -137s-146.834 -48 -237.501 -48c-106.667 0 -198.334 22.167 -275.001 66.5s-135.667 105 -177 182s-62 164.167 -62 261.5
c0 99.333 21.333 187 64 263s102.334 135.5 179.001 178.5s166.334 64.5 269.001 64.5v-50zM634.003 1526c120 0 223.331 -30.8359 309.998 -92.5029s148 -149.5 184 -263.5c16.667 -52 29.167 -112.5 37.5 -181.5s12.5 -146.5 12.5 -232.5
c0 -161.333 -18.333 -299.166 -55 -413.499s-94.667 -201.666 -174 -261.999s-183 -90.5 -311 -90.5c-117.333 0 -216.666 26.667 -297.999 80s-144 130.666 -188 231.999l50 22c40 -95.333 96.667 -166.5 170 -213.5s162 -70.5 266 -70.5c118 0 212.833 28.333 284.5 85
s123.834 138.334 156.501 245.001s49 235.334 49 386.001c0 44.667 -1.16699 88.5 -3.5 131.5s-7.83301 93.167 -16.5 150.5l-10 -26c0 91.333 -19.667 171.833 -59 241.5s-93.833 124.167 -163.5 163.5s-150.167 59 -241.5 59v50z" />
    <glyph glyph-name="colon" unicode=":" horiz-adv-x="296" 
d="M98 98h100v-98h-100v98zM98 762h100v-98h-100v98z" />
    <glyph glyph-name="semicolon" unicode=";" horiz-adv-x="296" 
d="M98 762h100v-98h-100v98zM100 98h100v-98h-100v98zM170 98l30.001 0.000976562v-166c0 -36 -9.5 -62.667 -28.5 -80s-43.5 -26 -73.5 -26v28c21.333 1.33301 38.666 8.16602 51.999 20.499s20 31.5 20 57.5v166z" />
    <glyph glyph-name="less" unicode="&#x3c;" horiz-adv-x="1180" 
d="M966 1082l-792 -360v-2l792 -360v-52l-840 388v50l840 388v-52z" />
    <glyph glyph-name="equal" unicode="=" horiz-adv-x="1200" 
d="M1060 972v-42h-920v42h920zM1060 512v-42h-920v42h920z" />
    <glyph glyph-name="greater" unicode="&#x3e;" horiz-adv-x="1180" 
d="M214 1082l792 -360v-2l-792 -360v-52l840 388v50l-840 388v-52z" />
    <glyph glyph-name="question" unicode="?" horiz-adv-x="1104" 
d="M124 902c-14 29.333 -24.835 59.833 -32.502 91.5s-11.5 63.834 -11.5 96.501c0 80 20.167 152.5 60.5 217.5s96.833 116.667 169.5 155s157.334 57.5 254.001 57.5c98.667 0 184 -20.167 256 -60.5s127.667 -93.5 167 -159.5s59 -137.333 59 -214
c0 -62.667 -11.167 -117.334 -33.5 -164.001s-51.166 -88 -86.499 -124s-73 -69.5 -113 -100.5s-77.667 -62.167 -113 -93.5s-64.166 -65.166 -86.499 -101.499s-33.5 -78.5 -33.5 -126.5v-58h-48v60c0 52 11.167 97.667 33.5 137s51 75.333 86 108s72.167 64.5 111.5 95.5
s76.5 63.833 111.5 98.5s63.667 73.667 86 117s33.5 94 33.5 152c0 67.333 -17.5 130.166 -52.5 188.499s-84.667 105.5 -149 141.5s-140.5 54 -228.5 54c-86.667 0 -162.334 -17 -227.001 -51s-115 -79.667 -151 -137s-54 -121.333 -54 -192c0 -32 3.66699 -62.333 11 -91
s17 -55 29 -79zM511.998 86h86v-86h-86v86z" />
    <glyph glyph-name="at" unicode="@" horiz-adv-x="2142" 
d="M960 -436c-124.667 3.33301 -238.828 26.5 -342.495 69.5s-193 102.667 -268 179s-133 167.166 -174 272.499s-61.5 222.333 -61.5 351c0 159.333 25.5 305.166 76.5 437.499s123.667 246.833 218 343.5s206.333 171.334 336 224.001s272.834 79 429.501 79
c127.333 0 243.666 -20.667 348.999 -62s196.166 -100.166 272.499 -176.499s135.166 -167.166 176.499 -272.499s62 -222.333 62 -351l-50 -2c0 165.333 -34.333 309.333 -103 432s-163.834 217.667 -285.501 285s-262.167 101 -421.5 101
c-149.333 0 -285.833 -24.833 -409.5 -74.5s-230.334 -120.5 -320.001 -212.5s-158.834 -201.5 -207.501 -328.5s-73 -267.833 -73 -422.5c0 -162.667 33.667 -305 101 -427s160.833 -217.833 280.5 -287.5s257.834 -106.834 414.501 -111.501
c109.333 0 211 13.167 305 39.5s178.333 63.833 253 112.5l24 -40c-78.667 -50 -166.834 -88.833 -264.501 -116.5s-203.5 -41.5 -317.5 -41.5zM942.006 28c-64 0 -121.335 15.832 -172.002 47.499s-91.167 78.167 -121.5 139.5s-47.166 136.333 -50.499 225
c-2.66699 81.333 6.83301 158.5 28.5 231.5s54.167 137.667 97.5 194s95.5 100.5 156.5 132.5s128.833 48 203.5 48c70.667 0 132.5 -16 185.5 -48s94.833 -78.5 125.5 -139.5s47.667 -135.167 51 -222.5c0 -26.667 -1.5 -54.167 -4.5 -82.5s-8.16699 -56.166 -15.5 -83.499
l-56 -150l-14 2c-27.333 -61.333 -62.666 -114 -105.999 -158s-91.5 -77.667 -144.5 -101s-107.5 -35 -163.5 -35zM952.004 71.999c66 0 127.165 16.1719 183.498 48.5049s105.333 75.666 147 129.999s73.5 115.166 95.5 182.499s31.333 135.666 28 204.999
c-4 117.333 -34.5 207.333 -91.5 270s-132.5 94 -226.5 94c-90.667 0 -169.667 -25.833 -237 -77.5s-119.166 -120.334 -155.499 -206.001s-52.833 -179.167 -49.5 -280.5c4 -118.667 34.333 -209.334 91 -272.001s128.334 -94 215.001 -94zM1568 28.0039
c-60 0 -108.166 13.6641 -144.499 40.9971s-58.833 68.333 -67.5 123s-2 123.334 20 206.001l58 136l-18 30l116 468h48l-160 -634c-28 -110 -29.5 -191.833 -4.5 -245.5s76.5 -80.5 154.5 -80.5c49.333 0 98.333 11 147 33s93.167 56.333 133.5 103s72.666 107 96.999 181
s36.5 163 36.5 267l50 2c0 -109.333 -13.5 -203.666 -40.5 -282.999s-63.167 -144.666 -108.5 -195.999s-95.5 -89.333 -150.5 -114s-110.5 -37 -166.5 -37z" />
    <glyph glyph-name="A" unicode="A" horiz-adv-x="1714" 
d="M1270 574v-46h-824v46h824zM1508 46h170v-46h-642v46h420l-608 1424l36 -26h-54l34 26l-608 -1424h420v-46h-640v46h170l622 1458h58z" />
    <glyph glyph-name="B" unicode="B" horiz-adv-x="1474" 
d="M578 1458l4 46.001h218c155.333 0 277.5 -30.667 366.5 -92s133.5 -156 133.5 -284c0 -124 -42.167 -215.333 -126.5 -274s-207.5 -88 -369.5 -88h-432v24h436c96.667 0 177.5 12.833 242.5 38.5s113.833 63.167 146.5 112.5s49 109.666 49 180.999
c0 116 -40.333 201 -121 255s-191.667 81 -333 81h-214zM594 46.001l223.999 -0.00195312c151.333 0 269.833 29.667 355.5 89s128.5 147 128.5 263c0 66 -13.667 121.333 -41 166s-64.333 80.334 -111 107.001s-99.667 45.834 -159 57.501s-121 17.5 -185 17.5h-434v30h434
c71.333 0 139.833 -5.83301 205.5 -17.5s124.334 -31.667 176.001 -60s92.667 -67.333 123 -117s45.5 -112.167 45.5 -187.5c0 -128 -46.167 -225.667 -138.5 -293s-219.5 -101 -381.5 -101h-242v46zM53.999 1458v46h614v-46h-282v-1412h282v-46h-614v46h282v1412h-282z
M843.999 779.999h96v-16h-96v16z" />
    <glyph glyph-name="C" unicode="C" horiz-adv-x="1650" 
d="M846 -16c-108 0 -207.332 18.834 -297.999 56.501s-169.334 90.834 -236.001 159.501s-118.334 150.167 -155.001 244.5s-55 198.166 -55 311.499c0 112 17.5 214.667 52.5 308s85.333 174 151 242s144.5 120.667 236.5 158s194.667 56 308 56
c119.333 0 223.833 -19.833 313.5 -59.5s163.5 -94.834 221.5 -165.501s99 -152.334 123 -245.001h20l-16 -136c-34 182 -109.333 320.167 -226 414.5s-262 141.5 -436 141.5c-141.333 0 -264.166 -30.167 -368.499 -90.5s-185 -144.166 -242 -251.499
s-85.5 -231.333 -85.5 -372c0 -106.667 17.167 -204.167 51.5 -292.5s82.5 -164.666 144.5 -228.999s135.167 -113.833 219.5 -148.5s176.5 -52 276.5 -52c115.333 0 219.833 23.167 313.5 69.5s171.5 111.666 233.5 195.999s103.667 183.166 125 296.499l52 -10
c-24 -121.333 -69.333 -227.166 -136 -317.499s-150.167 -160.333 -250.5 -210s-212.833 -74.5 -337.5 -74.5zM1512 914.001v590h48v-590h-48z" />
    <glyph glyph-name="D" unicode="D" horiz-adv-x="1672" 
d="M604 0v46.001h174c150.667 0 281.334 30.167 392.001 90.5s196.334 143.833 257.001 250.5s91 229.667 91 369c0 138 -30.333 259.833 -91 365.5s-146.334 188.167 -257.001 247.5s-241.334 89 -392.001 89h-172v46h172c160.667 0 300.334 -31.833 419.001 -95.5
s210.5 -151.667 275.5 -264s97.5 -241.833 97.5 -388.5c0 -148.667 -32.5 -279.834 -97.5 -393.501s-156.833 -202.5 -275.5 -266.5s-258.334 -96 -419.001 -96h-174zM54 0.000976562v46h282v1412h-282v46h580v-46h-250v-1412h250v-46h-580z" />
    <glyph glyph-name="E" unicode="E" horiz-adv-x="1558" 
d="M1044 782v-46h-682v46h682zM1394 390h48v-390h-1388v46h282v1412h-282v46h1370v-390h-48v344h-992v-1412h1010v344z" />
    <glyph glyph-name="F" unicode="F" horiz-adv-x="1404" 
d="M1000 782v-46h-638v46h638zM1356 1504v-390h-48v344h-924v-1412h316v-46h-646v46h282v1412h-282v46h1302z" />
    <glyph glyph-name="G" unicode="G" horiz-adv-x="1800" 
d="M844 -16c-107.333 0 -206.165 18.833 -296.498 56.5s-168.833 90.834 -235.5 159.501s-118.334 150.167 -155.001 244.5s-55 198.166 -55 311.499c0 112 17.833 214.667 53.5 308s86.667 174 153 242s145.833 120.667 238.5 158s196.334 56 311.001 56
c119.333 0 223.166 -20 311.499 -60s160.833 -95.333 217.5 -166s97 -152 121 -244h20l-16 -136c-34 182 -108 320.167 -222 414.5s-258 141.5 -432 141.5c-142.667 0 -266.667 -30.167 -372 -90.5s-187 -144.166 -245 -251.499s-87 -231.333 -87 -372
c0 -106.667 17.167 -204 51.5 -292s82.5 -164.167 144.5 -228.5s135.167 -114 219.5 -149s176.5 -52.5 276.5 -52.5c119.333 0 227.166 26 323.499 78s175.5 125.167 237.5 219.5s101 205.166 117 332.499l38 -10c-16 -134 -56.833 -251.167 -122.5 -351.5
s-149.667 -178.5 -252 -234.5s-216.833 -84 -343.5 -84zM1538 0l-16 564v132h50v-696h-34zM972.001 654v48h794v-48h-794zM1512 914v590h48v-590h-48z" />
    <glyph glyph-name="H" unicode="H" horiz-adv-x="1834" 
d="M1468 782v-46h-1106v46h1106zM54 1458v46h612v-46h-282v-1412h282v-46h-612v46h282v1412h-282zM1170 1458v46h610v-46h-280v-1412h280v-46h-610v46h282v1412h-282z" />
    <glyph glyph-name="I" unicode="I" horiz-adv-x="720" 
d="M54 1458v46h612v-46h-282v-1412h282v-46h-612v46h282v1412h-282z" />
    <glyph glyph-name="J" unicode="J" horiz-adv-x="1194" 
d="M464 -16c-138.667 0 -242.667 42.167 -312 126.5s-104 205.5 -104 363.5v92h48v-92c0 -142.667 30.833 -251.667 92.5 -327s153.5 -113 275.5 -113c123.333 0 217.166 37.333 281.499 112s96.5 184 96.5 328v984h-336v46h668v-46h-284v-984
c0 -104.667 -16 -193.5 -48 -266.5s-79.667 -128.5 -143 -166.5s-141.666 -57 -234.999 -57z" />
    <glyph glyph-name="K" unicode="K" horiz-adv-x="1798" 
d="M54 1458v46h612v-46h-282v-1412h282v-46h-612v46h282v1412h-282zM852 906l734 -860h176v-46h-728v46h490l-704 824zM356 478l1062 980h-462v46h736v-46h-208l-1110 -1024z" />
    <glyph glyph-name="L" unicode="L" horiz-adv-x="1322" 
d="M54 1458v46h616v-46h-286v-1412h862v-46h-1192v46h282v1412h-282zM1274 494v-494h-50v494h50z" />
    <glyph glyph-name="M" unicode="M" horiz-adv-x="2154" 
d="M1052 0l-668 1468l36 36l666 -1464h-18l666 1464l34 -36l-668 -1468h-48zM54 0v46h282v1412h-282v46h364v-46h-36v-1412h286v-46h-614zM1484 0v46h286v1412h-38v46h368v-46h-282v-1412h282v-46h-616z" />
    <glyph glyph-name="N" unicode="N" horiz-adv-x="1832" 
d="M1448 0l-1096 1504h60l1096 -1504h-60zM54 1460v44h358l-2 -54h-28v-1404h280v-46h-608v46h282v1414h-282zM1164 1458v46h634v-46h-282v-1458h-62l-18 66h34v1392h-306z" />
    <glyph glyph-name="O" unicode="O" horiz-adv-x="1728" 
d="M864 -16c-112.667 0 -215.5 18.667 -308.5 56s-173.333 90.333 -241 159s-120 150.167 -157 244.5s-55.5 198.5 -55.5 312.5c0 112.667 18.5 215.667 55.5 309s89.333 174 157 242s148 120.5 241 157.5s195.833 55.5 308.5 55.5s215.5 -18.5 308.5 -55.5
s173.333 -89.5 241 -157.5s120 -148.667 157 -242s55.5 -196.333 55.5 -309c0 -114 -18.5 -218.167 -55.5 -312.5s-89.333 -175.833 -157 -244.5s-148 -121.667 -241 -159s-195.833 -56 -308.5 -56zM864 32c140.667 0 264.334 30.667 371.001 92
s189.834 146.5 249.501 255.5s89.5 234.5 89.5 376.5c0 140.667 -29.833 264.834 -89.5 372.501s-142.834 191.834 -249.501 252.501s-230.334 91 -371.001 91s-264.334 -30.333 -371.001 -91s-189.834 -144.834 -249.501 -252.501s-89.5 -231.834 -89.5 -372.501
c0 -142 29.833 -267.5 89.5 -376.5s142.834 -194.167 249.501 -255.5s230.334 -92 371.001 -92z" />
    <glyph glyph-name="P" unicode="P" horiz-adv-x="1462" 
d="M54 0v46h282v1412h-282v46h330v-1458h282v-46h-612zM376 736v46h500c154 0 269.5 29.833 346.5 89.5s115.5 142.5 115.5 248.5c0 108 -39 191.333 -117 250s-193 88 -345 88h-506v46h508c170 0 297.5 -33.667 382.5 -101s127.5 -161 127.5 -281
c0 -55.333 -9.83301 -106.5 -29.5 -153.5s-50.167 -87.833 -91.5 -122.5s-94.5 -61.667 -159.5 -81s-142.833 -29 -233.5 -29h-498z" />
    <glyph glyph-name="Q" unicode="Q" horiz-adv-x="1728" 
d="M864 -16c-112.667 0 -215.666 18.833 -308.999 56.5s-173.833 90.834 -241.5 159.501s-119.834 150.167 -156.501 244.5s-55 198.166 -55 311.499c0 112 18.5 214.667 55.5 308s89.333 174 157 242s148 120.667 241 158s195.833 56 308.5 56s215.5 -18.667 308.5 -56
s173.333 -90 241 -158s120 -148.667 157 -242s55.5 -196 55.5 -308c0 -113.333 -18.5 -217.166 -55.5 -311.499s-89.333 -175.833 -157 -244.5s-148 -121.834 -241 -159.501s-195.833 -56.5 -308.5 -56.5zM864.001 34c140.667 0 264.334 30.5 371.001 91.5
s189.834 145.833 249.501 254.5s89.5 234 89.5 376c0 140 -29.833 263.667 -89.5 371s-142.834 191.333 -249.501 252s-230.334 91 -371.001 91s-264.334 -30.333 -371.001 -91s-189.834 -144.667 -249.501 -252s-89.5 -231 -89.5 -371c0 -142 29.833 -267.333 89.5 -376
s142.834 -193.5 249.501 -254.5s230.334 -91.5 371.001 -91.5zM1042 2c-81.333 -17.333 -146 -34.5 -194 -51.5s-82.333 -36.333 -103 -58s-31 -48.5 -31 -80.5c0 -38.667 14.833 -70 44.5 -94s79.5 -36 149.5 -36h622v-46h-624c-86.667 0 -148.667 15.5 -186 46.5
s-56 71.5 -56 121.5c0 60 28 106.667 84 140s154 61.333 294 84v-26z" />
    <glyph glyph-name="R" unicode="R" horiz-adv-x="1598" 
d="M932 768c63.333 -0.666992 109.5 -13 138.5 -37s51.5 -59 67.5 -105l208 -580h178v-46h-212l-214 598c-18.667 52 -41.5 88 -68.5 108s-65.5 30 -115.5 30h-66zM600 1458l0.000976562 46.001h278c170 0 297.5 -33.167 382.5 -99.5s127.5 -154.5 127.5 -264.5
c0 -71.333 -17 -134.5 -51 -189.5s-80.333 -99.5 -139 -133.5s-125.334 -55 -200.001 -63v-12l-90 -6h-532v46h498c100.667 0 185.5 15.5 254.5 46.5s121.167 73.167 156.5 126.5s53 113.666 53 180.999c0 98 -39 176.167 -117 234.5s-193 87.5 -345 87.5h-276zM54.001 1458
v46h612v-46h-282v-1412h282v-46h-612v46h282v1412h-282z" />
    <glyph glyph-name="S" unicode="S" horiz-adv-x="1324" 
d="M734 -20c-160 0 -286.33 32.1709 -378.997 96.5039s-153 145.5 -181 243.5h-14l10 136c20 -140 78.667 -247 176 -321s226 -111 386 -111c143.333 0 252.166 30.167 326.499 90.5s111.5 146.833 111.5 259.5c0 72 -16.167 132.5 -48.5 181.5s-85 89.167 -158 120.5
s-170.167 56.666 -291.5 75.999c-131.333 21.333 -237 48.666 -317 81.999s-138.167 75.666 -174.5 126.999s-54.5 114.333 -54.5 189c0 120 41.833 212.333 125.5 277s198.5 97 344.5 97c104.667 0 192.667 -15.167 264 -45.5s127.666 -71.166 168.999 -122.499
s69.666 -108 84.999 -170h14l-12 -138c-20.667 142 -74 249.5 -160 322.5s-204 109.5 -354 109.5c-132 0 -236 -28.167 -312 -84.5s-114 -137.5 -114 -243.5c0 -64.667 15.833 -119.167 47.5 -163.5s84.334 -81.333 158.001 -111s173.167 -54.834 298.5 -75.501
c130 -21.333 234.667 -49.833 314 -85.5s137.166 -81.167 173.499 -136.5s54.5 -123.333 54.5 -204c0 -126.667 -41.833 -224.334 -125.5 -293.001s-204.5 -103 -362.5 -103zM120.003 0.00390625v456h50v-456h-50zM1116 1048v456h50v-456h-50z" />
    <glyph glyph-name="T" unicode="T" horiz-adv-x="1484" 
d="M1430 1504v-438h-50v392h-614v-1412h280v-46h-612v46h282v1412h-612v-392h-50v438h1376z" />
    <glyph glyph-name="U" unicode="U" horiz-adv-x="1738" 
d="M1102 1504h608v-46h-280v-866c0 -123.333 -18.833 -230.5 -56.5 -321.5s-97.667 -161.5 -180 -211.5s-190.833 -75 -325.5 -75c-134 0 -242 25 -324 75s-141.833 120.5 -179.5 211.5s-56.5 198.167 -56.5 321.5v866h-280v46h610v-46h-280v-866
c0 -114 16.667 -213 50 -297s87.5 -148.833 162.5 -194.5s174.833 -68.5 299.5 -68.5c124 0 223.667 22.833 299 68.5s130 110.5 164 194.5s51 183 51 297v866h-282v46z" />
    <glyph glyph-name="V" unicode="V" horiz-adv-x="1712" 
d="M1506 1458l-620 -1458h-60l-620 1458h-170v46h648v-46h-426l608 -1424l-38 24h54l-34 -24l608 1424h-426v46h646v-46h-170z" />
    <glyph glyph-name="W" unicode="W" horiz-adv-x="2526" 
d="M1890 1504h600v-46h-170l-496 -1458h-62l-518 1458l46 -64h-52l46 64l-522 -1458h-62l-494 1458h-170v46h600v-46h-378l492 -1458l-46 64h54l-46 -64l524 1458h-314v46h684v-46h-312l520 -1458l-48 64h54l-44 -64l496 1458h-382v46z" />
    <glyph glyph-name="X" unicode="X" horiz-adv-x="1674" 
d="M1430 1458l-578 -724l14 42v-50l-12 40l564 -720h226v-46h-620v46h332l-538 688l42 -18h-50l36 16l-542 -686h344v-46h-620v46h216l576 724l-14 -44v52l12 -40l-564 720h-226v46h620v-46h-332l538 -688l-42 18h50l-36 -16l544 686h-346v46h620v-46h-214z" />
    <glyph glyph-name="Y" unicode="Y" horiz-adv-x="1728" 
d="M1500 1458l-612 -766h-46l-614 766h-192v46h608v-46h-354l592 -738l-44 22h54l-40 -22l590 738h-358v46h608v-46h-192zM890 730v-684h280v-46h-612v46h282v684h50z" />
    <glyph glyph-name="Z" unicode="Z" horiz-adv-x="1332" 
d="M82 46l1102 1408v20l64 -16l-1102 -1408v-18zM1248 1504v-46h-1080v-344h-50v390h1130zM1186 390h50v-390h-1154v46h1104v344z" />
    <glyph glyph-name="bracketleft" unicode="[" horiz-adv-x="924" 
d="M874 1584v-46h-452v-1916h470v-46h-520v2008h502z" />
    <glyph glyph-name="backslash" unicode="\" horiz-adv-x="702" 
d="M44 1580h46l544 -1748h-46z" />
    <glyph glyph-name="bracketright" unicode="]" horiz-adv-x="924" 
d="M50 1584v-46h452v-1916h-470v-46h520v2008h-502z" />
    <glyph glyph-name="asciicircum" unicode="^" horiz-adv-x="1162" 
d="M606 1580l305 -606h-50l-279 560h-2l-278 -560h-50l303 606h51z" />
    <glyph glyph-name="underscore" unicode="_" horiz-adv-x="1000" 
d="M1000 -184v-42h-1000v42h1000z" />
    <glyph glyph-name="grave" unicode="`" horiz-adv-x="494" 
d="M111 1520l-30 -38l306 -224l24 32z" />
    <glyph glyph-name="a" unicode="a" horiz-adv-x="1228" 
d="M974 0c-10 0 -17.502 3 -22.502 9s-7.5 14.333 -7.5 25v428l4 20l-2 116l-2 42v86c0 74 -14.667 132.667 -44 176s-70.333 74.5 -123 93.5s-114.334 28.5 -185.001 28.5c-112 0 -196 -20.833 -252 -62.5s-96 -105.5 -120 -191.5l-46 12
c16.667 64 41.834 117.167 75.501 159.5s78.334 74 134.001 95s125.167 31.5 208.5 31.5c82.667 0 153.834 -11 213.501 -33s105.667 -57.833 138 -107.5s48.5 -116.167 48.5 -199.5v-686h170v-42h-188zM451.998 -14c-106 0 -186.5 22.168 -241.5 66.501
s-82.5 111.5 -82.5 201.5c0 87.333 26.333 152.833 79 196.5s131 76.834 235 99.501l518 116v-40l-510 -116c-90 -20 -157.833 -48.833 -203.5 -86.5s-68.5 -93.5 -68.5 -167.5c0 -76.667 23.667 -133.5 71 -170.5s117 -55.5 209 -55.5c90 0 172 18.667 246 56
s132.833 97.666 176.5 180.999s65.5 193.666 65.5 330.999l12 -238h-18c-20.667 -110 -72.667 -199.833 -156 -269.5s-194 -104.5 -332 -104.5z" />
    <glyph glyph-name="b" unicode="b" horiz-adv-x="1418" 
d="M258 -6v1544h-246v42h294v-944l-4 -86v-84l4 -94l-26 -378h-22zM782 -16c-98 0 -184.996 21.3359 -260.996 64.0029s-136.333 102 -181 178s-69.334 163.333 -74.001 262l35 38c0 -96 20.167 -181.5 60.5 -256.5s96.5 -134 168.5 -177s155 -64.5 249 -64.5
c94.667 0 177.834 21.333 249.501 64s127.667 101.667 168 177s60.5 161.333 60.5 258s-20.5 182.5 -61.5 257.5s-97.333 133.833 -169 176.5s-154.167 64 -247.5 64s-176 -21.333 -248 -64s-128.333 -101.5 -169 -176.5s-61 -161.167 -61 -258.5l-6 180h12
c10.667 53.333 35.834 108 75.501 164s93.5 103.167 161.5 141.5s149.333 57.5 244 57.5c75.333 0 144.666 -13.333 207.999 -40s118.166 -64.334 164.499 -113.001s82.166 -106.167 107.499 -172.5s38 -138.833 38 -217.5c0 -104.667 -22.333 -197.834 -67 -279.501
s-106.334 -145.834 -185.001 -192.501s-169.334 -70 -272.001 -70z" />
    <glyph glyph-name="c" unicode="c" horiz-adv-x="1218" 
d="M638 -16c-104 0 -195.332 22.999 -273.999 68.999s-140 109.5 -184 190.5s-66 174.5 -66 280.5c0 80 12.333 153.333 37 220s59.834 124.334 105.501 173.001s100.167 86.334 163.5 113.001s133.333 40 210 40c82.667 0 154.5 -14.667 215.5 -44
s110.333 -68.333 148 -117s62.5 -102.334 74.5 -161.001h16l-12 -122c-10 80 -34.667 150 -74 210s-90.333 106.667 -153 140s-134.334 50 -215.001 50c-92.667 0 -174 -21.5 -244 -64.5s-124.5 -102.167 -163.5 -177.5s-58.5 -162 -58.5 -260
c0 -97.333 19.833 -183.333 59.5 -258s95 -133 166 -175s153.833 -63 248.5 -63c101.333 0 189.666 24.167 264.999 72.5s133 113.5 173 195.5l42 -20c-44.667 -88.667 -107 -159.5 -187 -212.5s-177.667 -79.5 -293 -79.5zM1072 625.999v426h48v-426h-48z" />
    <glyph glyph-name="d" unicode="d" horiz-adv-x="1447" 
d="M1115 0v424l4 44v104l-4 72v894h-324v42h372v-1538h228v-42h-276zM637 1068c98 0 184.827 -22.1689 260.494 -66.502s135.834 -105.666 180.501 -183.999s69 -168.833 73 -271.5l-32 -20c0 96.667 -20.167 182.334 -60.5 257.001s-96.5 133.5 -168.5 176.5
s-155 64.5 -249 64.5c-93.333 0 -176 -21.5 -248 -64.5s-128.167 -101.833 -168.5 -176.5s-60.5 -160.334 -60.5 -257.001s20.333 -182.5 61 -257.5s97 -134 169 -177s154.333 -64.5 247 -64.5c94 0 176.833 21.5 248.5 64.5s127.834 102 168.501 177s61 160.833 61 257.5
l6 -180h-12c-10 -52.667 -35 -107.167 -75 -163.5s-93.833 -103.666 -161.5 -141.999s-149.167 -57.5 -244.5 -57.5c-75.333 0 -144.666 13.333 -207.999 40s-118.166 64.334 -164.499 113.001s-82.166 106.167 -107.499 172.5s-38 138.833 -38 217.5
c0 105.333 22.167 198.666 66.5 279.999s105.833 145.333 184.5 192s169.334 70 272.001 70z" />
    <glyph glyph-name="e" unicode="e" horiz-adv-x="1240" 
d="M638 -16c-104 0 -195.168 22.999 -273.501 68.999s-139.333 109.5 -183 190.5s-65.5 174.5 -65.5 280.5c0 106.667 21.667 201 65 283s103.833 146.333 181.5 193s168.167 70 271.5 70c101.333 0 189.833 -22.667 265.5 -68s134.334 -108 176.001 -188
s62.5 -172 62.5 -276v-13v-11h-48v13.5v14.5c0 94.667 -18.833 178.334 -56.5 251.001s-90.667 129.667 -159 171s-148.5 62 -240.5 62c-93.333 0 -175.333 -21.5 -246 -64.5s-125.667 -102.167 -165 -177.5s-59 -162 -59 -260c0 -97.333 19.833 -183.333 59.5 -258
s95 -133 166 -175s153.833 -63 248.5 -63c100 0 188 24.167 264 72.5s133.333 114.833 172 199.5l46 -18c-42 -92 -105 -164.667 -189 -218s-181.667 -80 -293 -80zM145.999 513.999v42h976l12 -42h-988z" />
    <glyph glyph-name="f" unicode="f" horiz-adv-x="854" 
d="M100 0v41.999h222v968h-222v42h222v210c0 109.333 29.333 192.333 88 249s140 85 244 85c91.333 0 163.333 -21.333 216 -64s87.334 -104.667 104.001 -186l-44 -14c-16.667 73.333 -47.667 128 -93 164s-107 54 -185 54c-86.667 0 -155.334 -23.167 -206.001 -69.5
s-76 -119.166 -76 -218.499v-210h388v-42h-388v-968h280v-42h-550z" />
    <glyph glyph-name="g" unicode="g" horiz-adv-x="1242" 
d="M600 -434c-92.667 0 -174.832 8.83496 -246.499 26.502s-127.834 46.5 -168.501 86.5s-61 93.667 -61 161s20.167 120.166 60.5 158.499s93.5 63.5 159.5 75.5v10l172 -12c-84.667 -0.666992 -152.5 -11.334 -203.5 -32.001s-87.833 -48.334 -110.5 -83.001
s-34 -73.667 -34 -117c0 -58.667 18.5 -105.167 55.5 -139.5s88.167 -59 153.5 -74s140.333 -22.5 225 -22.5c172 0 296.667 25.5 374 76.5s116 117.5 116 199.5c0 128 -86 192 -258 192h-410c-74 0 -130.5 13.167 -169.5 39.5s-58.5 63.833 -58.5 112.5
c0 47.333 18.5 83.333 55.5 108s91.833 37.334 164.5 38.001v16l188 -44h-140c-74 0 -129.5 -9.83301 -166.5 -29.5s-55.5 -49.167 -55.5 -88.5c0 -36 15.833 -62.667 47.5 -80s80.5 -26 146.5 -26h398c66 0 121.667 -9.33301 167 -28s79.5 -45.667 102.5 -81
s34.5 -78.333 34.5 -129c0 -60.667 -18.167 -114.667 -54.5 -162s-94 -84.5 -173 -111.5s-182.5 -40.5 -310.5 -40.5zM604.002 342.002c-80.667 0 -152.67 15 -216.003 45s-113.166 72.167 -149.499 126.5s-54.5 117.833 -54.5 190.5c0 73.333 18 137.5 54 192.5
s85.5 97.667 148.5 128s135.5 45.5 217.5 45.5c87.333 0 164.333 -17.5 231 -52.5s116.334 -83.5 149.001 -145.5c13.333 -24 23.333 -50 30 -78s10 -58 10 -90c0 -72.667 -18 -136.167 -54 -190.5s-85.667 -96.5 -149 -126.5s-135.666 -45 -216.999 -45zM603.999 382.002
c72 0 136.001 13.333 192.001 40s100 64.167 132 112.5s48 104.833 48 169.5c0 65.333 -16 122.5 -48 171.5s-76 87 -132 114s-120 40.5 -192 40.5c-72.667 0 -137.167 -13.5 -193.5 -40.5s-100.5 -65 -132.5 -114s-48 -106.167 -48 -171.5
c0 -64.667 16.333 -121.167 49 -169.5s77.167 -85.833 133.5 -112.5s120.166 -40 191.499 -40zM1024 704.002l-30.001 116l-38 78l16 6c-2 6 -3.5 12.5 -4.5 19.5s-1.5 13.833 -1.5 20.5c0 22 6 44.167 18 66.5s31 40.833 57 55.5s59.667 22 101 22
c9.33301 0 17.833 -0.5 25.5 -1.5s15.834 -2.5 24.501 -4.5v-46c-10 2 -19.167 3.5 -27.5 4.5s-17.166 1.5 -26.499 1.5c-36.667 0 -65.667 -6.66699 -87 -20s-36.5 -29.5 -45.5 -48.5s-13.5 -37.5 -13.5 -55.5c0 -21.333 2.66699 -41 8 -59s10.666 -38.833 15.999 -62.5
s8 -54.5 8 -92.5z" />
    <glyph glyph-name="h" unicode="h" horiz-adv-x="1470" 
d="M374 42h228v-42h-522v42h246v1496h-246v42h294v-1538zM1144 42l-0.000976562 642c0 107.333 -23.833 191.5 -71.5 252.5s-125.167 91.5 -232.5 91.5c-86 0 -164.167 -20.5 -234.5 -61.5s-126.5 -101 -168.5 -180s-63 -175.833 -63 -290.5l-14 212h18
c16.667 70.667 45.334 133.167 86.001 187.5s92.834 97 156.501 128s138.167 46.5 223.5 46.5c125.333 0 214.666 -33.5 267.999 -100.5s80 -160.167 80 -279.5v-648h230v-42h-506v42h228z" />
    <glyph glyph-name="i" unicode="i" horiz-adv-x="690" 
d="M404 42h228v-42h-516v42h240v968h-240v42h288v-1010zM334 1430h86v-88h-86v88z" />
    <glyph glyph-name="j" unicode="j" horiz-adv-x="626" 
d="M78 1052h322v-1212c0 -92 -23.167 -161 -69.5 -207s-110.5 -69 -192.5 -69c-72.667 0 -130 17.667 -172 53s-70 86.333 -84 153l44 12c14 -58 38.167 -101.167 72.5 -129.5s80.833 -42.5 139.5 -42.5c65.333 0 117.333 18.667 156 56s58 95.333 58 174v1170h-274v42z
M330 1430h86v-88h-86v88z" />
    <glyph glyph-name="k" unicode="k" horiz-adv-x="1432" 
d="M374 42h228v-42h-522v42h246v1496h-246v42h294v-1538zM762 662l466 -620h146v-42h-544v42h336l-440 590zM360 308l-12 42l776 660h-372v42h598v-42h-158z" />
    <glyph glyph-name="l" unicode="l" horiz-adv-x="680" 
d="M374 42h248v-42h-542v42h246v1496h-246v42h294v-1538z" />
    <glyph glyph-name="m" unicode="m" horiz-adv-x="2186" 
d="M1632 0l0.000976562 42.002h228v638c0 110 -23.333 195.5 -70 256.5s-120.667 91.5 -222 91.5c-82.667 0 -155.334 -20.833 -218.001 -62.5s-111.667 -101.834 -147 -180.501s-53 -173 -53 -283l-16 214h20c18 119.333 65.667 208.166 143 266.499s169 87.5 275 87.5
c116 0 201 -33.333 255 -100s81 -160.667 81 -282v-646h230v-42h-506zM100.001 0.00195312v42h244v968h-244v42h292v-1010h228v-42h-520zM874.001 0.00195312l0.00195312 42.002h228v638c0 110 -23.167 195.5 -69.5 256.5s-120.5 91.5 -222.5 91.5
c-82.667 0 -155.334 -20.833 -218.001 -62.5s-111.667 -101.834 -147 -180.501s-53 -173 -53 -283l-16 214h20c18 119.333 65.667 208.166 143 266.499s169 87.5 275 87.5c117.333 0 202.666 -33.333 255.999 -100s80 -160.667 80 -282v-646h232v-42h-508z" />
    <glyph glyph-name="n" unicode="n" horiz-adv-x="1492" 
d="M394 42h230v-42h-524v42h246v968h-246v42h294v-1010zM1164 42l0.000976562 641.998c0 107.333 -23.667 191.5 -71 252.5s-125 91.5 -233 91.5c-85.333 0 -163.333 -20.167 -234 -60.5s-127 -99.666 -169 -177.999s-63 -174.166 -63 -287.499l-14 212h20
c16 68 44.167 128.833 84.5 182.5s92.333 96 156 127s138.167 46.5 223.5 46.5c125.333 0 214.666 -33.833 267.999 -101.5s80 -161.167 80 -280.5v-646h232v-42h-508v42h228z" />
    <glyph glyph-name="o" unicode="o" horiz-adv-x="1304" 
d="M652 -16c-107.333 0 -201.5 23 -282.5 69s-144.167 109.5 -189.5 190.5s-68 174.5 -68 280.5s22.667 200.167 68 282.5s108.5 146.833 189.5 193.5s175.167 70 282.5 70s201.5 -23.333 282.5 -70s144.167 -111.167 189.5 -193.5s68 -176.5 68 -282.5
s-22.667 -199.5 -68 -280.5s-108.5 -144.5 -189.5 -190.5s-175.167 -69 -282.5 -69zM652 28c97.333 0 182.833 21 256.5 63s131 100.333 172 175s61.5 160.667 61.5 258s-20.5 183.666 -61.5 258.999s-98.333 134.333 -172 177s-159.167 64 -256.5 64
s-182.833 -21.333 -256.5 -64s-131 -101.667 -172 -177s-61.5 -161.666 -61.5 -258.999s20.5 -183.333 61.5 -258s98.333 -133 172 -175s159.167 -63 256.5 -63z" />
    <glyph glyph-name="p" unicode="p" horiz-adv-x="1485" 
d="M76 -420v42h246v1388h-246v42h294v-428l-2 -58v-76l2 -46v-822h244v-42h-538zM850 -16c-97.333 0 -183.996 22.1709 -259.996 66.5039s-136.167 105.666 -180.5 183.999s-68.833 168.833 -73.5 271.5l32 20c0 -96 20.167 -181.5 60.5 -256.5s96.5 -134 168.5 -177
s155 -64.5 249 -64.5s176.833 21.5 248.5 64.5s127.667 102 168 177s60.5 160.5 60.5 256.5c0 96.667 -20.333 182.5 -61 257.5s-96.834 134 -168.501 177s-154.167 64.5 -247.5 64.5s-176 -21.5 -248 -64.5s-128.333 -102 -169 -177s-61 -160.833 -61 -257.5l-6 180h12
c10.667 53.333 35.834 108 75.501 164s93.5 103.167 161.5 141.5s149.333 57.5 244 57.5c75.333 0 144.666 -13.333 207.999 -40s118.166 -64.334 164.499 -113.001s82.166 -106.167 107.499 -172.5s38 -138.833 38 -217.5c0 -104.667 -22.167 -197.834 -66.5 -279.501
s-105.833 -145.834 -184.5 -192.501s-169.334 -70 -272.001 -70z" />
    <glyph glyph-name="q" unicode="q" horiz-adv-x="1420" 
d="M1162 -378h246v-42h-562v42h268v804l4 40v98l-4 76v74l26 346h22v-1438zM638 1068c98 0 184.994 -21.334 260.994 -64.001s136.5 -101.834 181.5 -177.501s69.5 -163.167 73.5 -262.5l-35 -38c0 96.667 -20.167 182.334 -60.5 257.001s-96.5 133.5 -168.5 176.5
s-155 64.5 -249 64.5s-177 -21.333 -249 -64s-128.167 -101.5 -168.5 -176.5s-60.5 -161.167 -60.5 -258.5c0 -96.667 20.5 -182.5 61.5 -257.5s97.5 -133.833 169.5 -176.5s154.333 -64 247 -64c94 0 176.833 21.333 248.5 64s127.834 101.667 168.501 177
s61 161.333 61 258l6 -180h-12c-10 -52.667 -35 -107.167 -75 -163.5s-93.833 -103.666 -161.5 -141.999s-149.167 -57.5 -244.5 -57.5c-75.333 0 -144.666 13.333 -207.999 40s-118.166 64.334 -164.499 113.001s-82.166 106.167 -107.499 172.5s-38 138.833 -38 217.5
c0 105.333 22.333 198.666 67 279.999s106.334 145.333 185.001 192s169.334 70 272.001 70z" />
    <glyph glyph-name="r" unicode="r" horiz-adv-x="888" 
d="M394 42h234v-42h-528v42h246v968h-246v42h294v-1010zM846 1008c-8.66699 2 -18.168 3.83301 -28.501 5.5s-24.166 2.5 -41.499 2.5c-116 0 -208.667 -46 -278 -138s-104 -218.667 -104 -380l-16 222h20c11.333 61.333 33 118.5 65 171.5s74.333 95.667 127 128
s116 48.5 190 48.5c13.333 0 24.5 -0.5 33.5 -1.5s19.833 -2.5 32.5 -4.5v-54z" />
    <glyph glyph-name="s" unicode="s" horiz-adv-x="1064" 
d="M582 -16c-80.667 0 -147.83 11.667 -201.497 35s-96.334 52.833 -128.001 88.5s-54.5 72.5 -68.5 110.5h-16l12 118c15.333 -92 56.166 -166.667 122.499 -224s157.5 -86 273.5 -86c101.333 0 181.666 21.333 240.999 64s89 103.334 89 182.001
c0 69.333 -27.667 124.666 -83 165.999s-147.666 71.333 -276.999 90c-142 21.333 -244.833 54.166 -308.5 98.499s-95.5 105.5 -95.5 183.5c0 82 31.833 145.5 95.5 190.5s148.5 67.5 254.5 67.5c80.667 0 147 -11.5 199 -34.5s92.167 -51.167 120.5 -84.5
s47.833 -65.666 58.5 -96.999h16l-12 -116c-14.667 86 -52.834 156.167 -114.501 210.5s-150.167 81.5 -265.5 81.5c-92 0 -166 -18.833 -222 -56.5s-84 -91.5 -84 -161.5c0 -66 29 -117 87 -153s150.333 -63.667 277 -83c142 -22 244.167 -57 306.5 -105
s93.5 -113 93.5 -195c0 -90.667 -33.167 -161.667 -99.5 -213s-156.5 -77 -270.5 -77zM132.004 0v336h48v-336h-48zM874.004 736v316h48v-316h-48z" />
    <glyph glyph-name="t" unicode="t" horiz-adv-x="842" 
d="M312 270c0 -76.667 15.498 -135.834 46.498 -177.501s80.833 -62.5 149.5 -62.5c66 0 115.167 20.833 147.5 62.5s48.5 100.834 48.5 177.501v88h48v-88c0 -60.667 -9.16699 -112.334 -27.5 -155.001s-45.666 -75.167 -81.999 -97.5s-81.166 -33.5 -134.499 -33.5
c-56 0 -102 11.167 -138 33.5s-62.667 54.833 -80 97.5s-26 94.334 -26 155.001l2 740h-212v42h212v270h48v-270h432v-42h-432z" />
    <glyph glyph-name="u" unicode="u" horiz-adv-x="1410" 
d="M1060 1010h-232v42h280v-1010h244v-42h-292v1010zM324 1052v-674c0 -110 23.333 -196.167 70 -258.5s124 -93.5 232 -93.5c84.667 0 159.667 20.833 225 62.5s116.5 101.5 153.5 179.5s55.5 172 55.5 282l18 -212h-22c-22 -114.667 -72.5 -202.667 -151.5 -264
s-174.5 -92 -286.5 -92c-122 0 -209.5 34.5 -262.5 103.5s-79.5 163.833 -79.5 284.5v640h-228v42h276z" />
    <glyph glyph-name="v" unicode="v" horiz-adv-x="1268" 
d="M782 1052h456v-42h-132l-442 -1010h-54l-446 1010h-134v42h460v-42h-274l442 -1010l-48 50h50l-42 -50l438 1010h-274v42z" />
    <glyph glyph-name="w" unicode="w" horiz-adv-x="1982" 
d="M1448 1052h494v-42h-160l-374 -1010h-58l-376 1018l40 -54h-48l42 54l-372 -1018h-58l-376 1010h-162v42h484v-42h-270l370 -1010l-42 52h50l-40 -52l372 1010h-226v42h508v-42h-224l376 -1010l-42 52h48l-38 -52l368 1010h-286v42z" />
    <glyph glyph-name="x" unicode="x" horiz-adv-x="1200" 
d="M1020 1010l-408 -496l14 38v-48l-14 40l406 -502h146v-42h-454v42h250l-378 472l36 -18h-44l36 18l-380 -472h254v-42h-448v42h140l408 500l-14 -40v48l14 -38l-400 498h-148v42h452v-42h-246l372 -470l-36 18h46l-36 -18l378 470h-252v42h450v-42h-144z" />
    <glyph glyph-name="y" unicode="y" horiz-adv-x="1302" 
d="M776 1052l496 0.000976562v-42l-176 -2l-484 -1176c-32.667 -80.667 -81.167 -142.834 -145.5 -186.501s-146.5 -65.5 -246.5 -65.5h-94v44h94c88 0 160.5 18.333 217.5 55s100.5 91 130.5 163l78 184l-6 -44l-426 1028h-184v42h504v-42h-266l406 -998l-44 44h46l-26 -28
l398 982h-272v42z" />
    <glyph glyph-name="z" unicode="z" horiz-adv-x="1150" 
d="M130 42l840 966v18l66 -16l-838 -964v-20zM1036 1052v-42h-824v-260h-48v302h872zM978 304h48v-304h-896v42h848v262z" />
    <glyph glyph-name="braceleft" unicode="{" horiz-adv-x="1112" 
d="M782 1546c-84 0 -147.002 -23.666 -189.002 -70.999s-63 -117 -63 -209v-464c0 -74.667 -20.667 -131.334 -62 -170.001s-102.666 -58 -183.999 -58v32c132 0 198 64.667 198 194v462c0 71.333 11.5 131.5 34.5 180.5s56.833 86.167 101.5 111.5s99.334 38 164.001 38
c26 0 54.5 -2.33301 85.5 -7s64.5 -11.667 100.5 -21l-10 -44c-34 10 -65.333 16.833 -94 20.5s-56 5.5 -82 5.5zM239.998 606.001h44v-46h-44v46zM785.998 -385.999c26 0 53 2.16699 81 6.5s58.333 10.833 91 19.5l10 -40c-38 -8.66699 -73.333 -15.5 -106 -20.5
s-62 -7.5 -88 -7.5c-94.667 0 -167 27.833 -217 83.5s-75 136.5 -75 242.5v466c0 65.333 -16.5 114.333 -49.5 147s-82.5 49 -148.5 49v40c82 0 143.5 -19.333 184.5 -58s61.5 -96 61.5 -172v-466c0 -193.333 85.333 -290 256 -290z" />
    <glyph glyph-name="bar" unicode="|" horiz-adv-x="582" 
d="M268 1580h44l2 -1748h-46v1748z" />
    <glyph glyph-name="braceright" unicode="}" horiz-adv-x="1112" 
d="M330 -382c84 0 147.002 23.666 189.002 70.999s63 117 63 209v464c0 74.667 20.667 131.334 62 170.001s102.666 58 183.999 58v-32c-132 0 -198 -64.667 -198 -194v-462c0 -71.333 -11.5 -131.5 -34.5 -180.5s-56.833 -86.167 -101.5 -111.5s-99.334 -38 -164.001 -38
c-26 0 -54.5 2.33301 -85.5 7s-64.5 11.667 -100.5 21l10 44c34 -10 65.333 -16.833 94 -20.5s56 -5.5 82 -5.5zM872.002 557.999h-44v46h44v-46zM326.002 1550c-26 0 -53 -2.16699 -81 -6.5s-58.333 -10.833 -91 -19.5l-10 40c38 8.66699 73.333 15.5 106 20.5
s62 7.5 88 7.5c94.667 0 167 -27.833 217 -83.5s75 -136.5 75 -242.5v-466c0 -65.333 16.5 -114.333 49.5 -147s82.5 -49 148.5 -49v-40c-82 0 -143.5 19.333 -184.5 58s-61.5 96 -61.5 172v466c0 193.333 -85.333 290 -256 290z" />
    <glyph glyph-name="asciitilde" unicode="~" horiz-adv-x="1086" 
d="M960 824l44.002 -4.00098c-16 -76 -45.667 -131.333 -89 -166s-95.666 -52 -156.999 -52c-44 0 -83.333 8.83301 -118 26.5s-72 42.834 -112 75.501c-36.667 30 -69.834 52.5 -99.501 67.5s-62.5 22.5 -98.5 22.5c-48.667 0 -91 -13.833 -127 -41.5
s-61.667 -72.5 -77 -134.5l-44 6c17.333 74 47.166 128.5 89.499 163.5s94.5 52.5 156.5 52.5c45.333 0 85 -8.66699 119 -26s71 -42 111 -74c36 -30 69.333 -52.833 100 -68.5s64 -23.5 100 -23.5c49.333 0 91.666 14.167 126.999 42.5s60.333 72.833 75 133.5z" />
    <glyph glyph-name="uni00A0" unicode="&#xa0;" horiz-adv-x="634" 
 />
    <glyph glyph-name="exclamdown" unicode="&#xa1;" horiz-adv-x="460" 
d="M198 -451h58l-10 1166h-40zM180 955h100v98h-100v-98z" />
    <glyph glyph-name="cent" unicode="&#xa2;" horiz-adv-x="1262" 
d="M642 1504h48v-1504h-48v1504zM1152 506c-44 -90.667 -107.499 -162.334 -190.499 -215.001s-180.167 -79 -291.5 -79c-104 0 -195.167 23 -273.5 69s-139.333 109.833 -183 191.5s-65.5 175.5 -65.5 281.5c0 106.667 21.333 201 64 283s102.667 146.333 180 193
s168 70 272 70c92 0 172.5 -18.833 241.5 -56.5s125 -89.834 168 -156.501s71.167 -143.667 84.5 -231l-50 -2c-13.333 80 -40 150.167 -80 210.5s-91.167 107.333 -153.5 141s-133.166 50.5 -212.499 50.5c-92 0 -172.833 -21.167 -242.5 -63.5
s-124 -101.166 -163 -176.499s-58.5 -162.666 -58.5 -261.999c0 -97.333 20 -183.333 60 -258s95.667 -133 167 -175s153.666 -63 246.999 -63c99.333 0 186.666 23.833 261.999 71.5s133.333 112.5 174 194.5z" />
    <glyph glyph-name="sterling" unicode="&#xa3;" horiz-adv-x="1584" 
d="M1140 800v-46h-864v46h864zM1004 1524c154 0 267.501 -48.167 340.501 -144.5s112.833 -233.5 119.5 -411.5h-48c-6.66699 165.333 -43.5 291.333 -110.5 378s-167.5 130 -301.5 130c-72 0 -131.333 -12.5 -178 -37.5s-83 -59.5 -109 -103.5s-44.333 -95 -55 -153
s-16 -120 -16 -186v-608c0 -64.667 -6.66699 -122 -20 -172s-33.5 -92.167 -60.5 -126.5s-60.833 -60.5 -101.5 -78.5s-88 -27 -142 -27c-80.667 0 -143.834 19 -189.501 57s-68.5 92.333 -68.5 163c0 69.333 23.333 122.5 70 159.5s118 54.5 214 52.5v-42
c-157.333 0 -236 -56.667 -236 -170c0 -58 18.833 -101.833 56.5 -131.5s88.834 -44.5 153.501 -44.5c92 0 160.667 30.833 206 92.5s68 149.5 68 263.5v614c0 72 6.16699 139.667 18.5 203s33.666 119.333 63.999 168s72 86.667 125 114s119.833 41 200.5 41zM1508 570
c3.33301 -20 5.50195 -39.502 6.50195 -58.502s1.5 -39.5 1.5 -61.5c0 -152 -32.5 -268.167 -97.5 -348.5s-168.5 -120.166 -310.5 -119.499c-70.667 0.666992 -129.5 10.5 -176.5 29.5s-87.167 43.333 -120.5 73s-64 61.167 -92 94.5s-58.333 64.333 -91 93l-24 20
c-30.667 24 -66.5 43.667 -107.5 59s-90.5 23 -148.5 23v42c57.333 0 106.666 -6.33301 147.999 -19s78 -29 110 -49l28 -20c38 -28.667 72 -60 102 -94s61 -66.5 93 -97.5s70 -56.5 114 -76.5s99 -30 165 -30c123.333 0 214.166 36.333 272.499 109s87.5 177 87.5 313
c0 18 -0.5 36.833 -1.5 56.5s-3.16699 38.834 -6.5 57.501z" />
    <glyph glyph-name="currency" unicode="&#xa4;" horiz-adv-x="1304" 
d="M652 257c-84 0 -158.167 17.5 -222.5 52.5s-114.666 83.333 -150.999 145s-54.5 132.834 -54.5 213.501c0 82 18.167 154.5 54.5 217.5s86.666 112.333 150.999 148s138.5 53.5 222.5 53.5c84.667 0 159 -17.833 223 -53.5s114.167 -85 150.5 -148
s54.5 -135.5 54.5 -217.5c0 -80.667 -18.167 -151.834 -54.5 -213.501s-86.5 -110 -150.5 -145s-138.333 -52.5 -223 -52.5zM652 302c74.667 0 140.167 15.5 196.5 46.5s100.5 74.167 132.5 129.5s48 118.666 48 189.999c0 74 -16 139 -48 195s-76.167 99.833 -132.5 131.5
s-121.833 47.5 -196.5 47.5c-74 0 -139.333 -15.833 -196 -47.5s-101 -75.5 -133 -131.5s-48 -121 -48 -195c0 -71.333 16 -134.666 48 -189.999s76.333 -98.5 133 -129.5s122 -46.5 196 -46.5zM360 410l32 -32l-202 -204l-32 32zM1114 1162l32 -32l-200 -201l-31 33z
M394 960l-32 -32l-204 202l32 32zM1146 206l-32 -32l-202 204l32 32z" />
    <glyph glyph-name="yen" unicode="&#xa5;" horiz-adv-x="1728" 
d="M1308 722v-46h-860v46h860zM1308 506v-46h-860v46h860zM1500 1458l-612 -766h-46l-614 766h-192v46h608v-46h-354l592 -738l-44 22h54l-40 -22l590 738h-358v46h608v-46h-192zM890 730v-684h280v-46h-612v46h282v684h50z" />
    <glyph glyph-name="brokenbar" unicode="&#xa6;" horiz-adv-x="580" 
d="M268 530h42l2 -726h-44v726zM268 1504h42l2 -726h-44v726z" />
    <glyph glyph-name="section" unicode="&#xa7;" horiz-adv-x="1122" 
d="M452 1304c0 -81.333 13.8359 -152.33 41.5029 -212.997s63.5 -115.834 107.5 -165.501s90.667 -99 140 -148s96 -102.333 140 -160s79.833 -124.834 107.5 -201.501s41.5 -168 41.5 -274c0 -108 -16.167 -199.333 -48.5 -274s-75.833 -134.667 -130.5 -180
s-115.667 -78.333 -183 -99s-136 -31 -206 -31l-22 24c63.333 0 127 9.66699 191 29s122.667 50.5 176 93.5s96.166 100.167 128.499 171.5s48.5 159.333 48.5 264c0 102 -13.833 189.833 -41.5 263.5s-63.334 138.667 -107.001 195s-90.167 108.833 -139.5 157.5
s-95.833 98.667 -139.5 150s-79.334 108.666 -107.001 171.999s-41.5 138 -41.5 224c0 57.333 8.33301 106.833 25 148.5s44.334 73.667 83.001 96s90.667 33.5 156 33.5l-10 18c64 0 119.833 -10.333 167.5 -31s89.834 -51 126.501 -91l-36 -26
c-32.667 34 -68.334 59.833 -107.001 77.5s-83 26.5 -133 26.5c-82.667 0 -141.334 -22.333 -176.001 -67s-52 -105.667 -52 -183zM670.003 -145.997c0 81.333 -13.835 152.001 -41.502 212.001s-63.5 114.833 -107.5 164.5s-90.667 99 -140 148s-96 102.5 -140 160.5
s-79.833 125.5 -107.5 202.5s-41.5 168.5 -41.5 274.5c0 107.333 16.333 198.166 49 272.499s76.334 134.166 131.001 179.499s115.834 78.333 183.501 99s136.5 31 206.5 31l22 -26c-64 0 -128.167 -9.5 -192.5 -28.5s-123.166 -50 -176.499 -93
s-96.166 -100 -128.499 -171s-48.5 -158.167 -48.5 -261.5c0 -102 13.833 -190.167 41.5 -264.5s63.5 -139.666 107.5 -195.999s90.667 -109 140 -158s96 -99 140 -150s79.833 -107.833 107.5 -170.5s41.5 -137 41.5 -223c0 -58.667 -8.5 -108.834 -25.5 -150.501
s-44.833 -73.667 -83.5 -96s-90.334 -33.5 -155.001 -33.5l10 -18c-62.667 0 -117.834 9.5 -165.501 28.5s-90.5 49.5 -128.5 91.5l36 26c32 -34 67.5 -59.5 106.5 -76.5s83.5 -25.5 133.5 -25.5c82 0 140.167 22.333 174.5 67s51.5 106.334 51.5 185.001z" />
    <glyph glyph-name="dieresis" unicode="&#xa8;" horiz-adv-x="524" 
d="M80 1422h80v-80h-80v80zM364 1422h80v-80h-80v80z" />
    <glyph glyph-name="copyright" unicode="&#xa9;" horiz-adv-x="1770" 
d="M886 1520c116 0 221.833 -18.499 317.5 -55.499s178.167 -89.5 247.5 -157.5s122.833 -148.667 160.5 -242s56.5 -196.333 56.5 -309c0 -152 -33 -286 -99 -402s-157.667 -206.667 -275 -272s-253.333 -98 -408 -98c-116 0 -222 18.667 -318 56s-178.667 90.333 -248 159
s-123 150.167 -161 244.5s-57 198.5 -57 312.5c0 113.333 19 216.666 57 309.999s91.833 173.833 161.5 241.5s152.5 120 248.5 157s201.667 55.5 317 55.5zM886 32.001c144 0 270.833 30.665 380.5 91.998s195.334 146.333 257.001 255s92.5 234.334 92.5 377.001
c0 140.667 -30.833 264.834 -92.5 372.501s-147.334 191.834 -257.001 252.501s-236.5 91 -380.5 91c-143.333 0 -270 -30.167 -380 -90.5s-196.167 -144.333 -258.5 -252s-93.5 -232.167 -93.5 -373.5c0 -142.667 31 -268.334 93 -377.001s148 -193.667 258 -255
s237 -92 381 -92zM892 353.999c-77.333 0 -145.333 16.499 -204 49.499s-104.334 78.667 -137.001 137s-49 125.5 -49 201.5c0 76.667 15.833 144.5 47.5 203.5s76.334 105.167 134.001 138.5s125.167 50 202.5 50c66 0 120 -11.167 162 -33.5s74.333 -51.333 97 -87
s38.334 -73.5 47.001 -113.5h14l-12 -102c-14 84 -45.667 153.333 -95 208s-121 82 -215 82c-66.667 0 -124.834 -14.833 -174.501 -44.5s-88.334 -70.5 -116.001 -122.5s-41.5 -111.667 -41.5 -179s14.167 -126.666 42.5 -177.999s68 -91.5 119 -120.5
s110.5 -43.5 178.5 -43.5c72 0 134.333 15.333 187 46s90.334 74 113.001 130l42 -20c-26.667 -62 -69.5 -111.167 -128.5 -147.5s-130.167 -54.5 -213.5 -54.5zM1194 797.998v312h48v-312h-48z" />
    <glyph glyph-name="ordfeminine" unicode="&#xaa;" horiz-adv-x="976" 
d="M775 676c-8 0 -14.332 2.50098 -18.999 7.50098s-7 11.833 -7 20.5v336l2 16v92l-2 40v60c0 79.333 -23.333 137.833 -70 175.5s-116 56.5 -208 56.5c-84.667 0 -149.834 -16.167 -195.501 -48.5s-78.5 -81.5 -98.5 -147.5l-42 10c14.667 50 36 91.667 64 125
s64.333 58.166 109 74.499s99.667 24.5 165 24.5c96 0 173 -20.167 231 -60.5s87 -109.5 87 -207.5v-534h134v-40h-150zM359.001 666.001c-84 0 -148.333 17 -193 51s-67 85 -67 153c0 50 9.16699 91.333 27.5 124s46 58.834 83 78.501s83.5 35.5 139.5 47.5l412 90v-38
l-406 -90c-66.667 -14.667 -119 -36.5 -157 -65.5s-57 -76.5 -57 -142.5c0 -56.667 18.667 -99.167 56 -127.5s92 -42.5 164 -42.5s137.5 14.667 196.5 44s106 76.5 141 141.5s52.5 151.167 52.5 258.5l12 -200h-16c-20.667 -92.667 -65 -162.834 -133 -210.501
s-153 -71.5 -255 -71.5z" />
    <glyph glyph-name="guillemotleft" unicode="&#xab;" horiz-adv-x="928" 
d="M132 574v-2l344 -448h-50l-336 432v32l336 434h50zM544 574v-2l344 -448h-50l-336 432v32l336 434h50z" />
    <glyph glyph-name="logicalnot" unicode="&#xac;" horiz-adv-x="1052" 
d="M771 586v-42h-691v42h691zM806 296h-46v290h46v-290z" />
    <glyph glyph-name="uni00AD" unicode="&#xad;" horiz-adv-x="696" 
d="M616 584v-42h-536v42h536z" />
    <glyph glyph-name="registered" unicode="&#xae;" horiz-adv-x="1176" 
d="M588 1595c91.333 0 171.833 -18.667 241.5 -56s124.167 -89.333 163.5 -156s59 -143.667 59 -231c0 -88 -19.5 -165.833 -58.5 -233.5s-93.333 -120.667 -163 -159s-150.5 -57.5 -242.5 -57.5c-91.333 0 -172 19.167 -242 57.5s-124.5 91.333 -163.5 159
s-58.5 145.5 -58.5 233.5c0 87.333 19.667 164.333 59 231s94 118.667 164 156s150.333 56 241 56zM588 730c85.333 0 160.666 18 225.999 54s116.333 85.833 153 149.5s55 136.5 55 218.5c0 82.667 -18.333 155 -55 217s-87.667 110.5 -153 145.5
s-140.666 52.5 -225.999 52.5s-160.666 -17.5 -225.999 -52.5s-116.5 -83.5 -153.5 -145.5s-55.5 -134.333 -55.5 -217c0 -82 18.5 -154.833 55.5 -218.5s88.167 -113.5 153.5 -149.5s140.666 -54 225.999 -54zM536 1382l75.998 0.000976562c54 0 95.833 -11.333 125.5 -34
s44.5 -54 44.5 -94c0 -30.667 -9.66699 -56 -29 -76s-45.666 -33.333 -78.999 -40v-5l-68 -7h-126v25h130c52.667 0 89.834 10 111.501 30s32.5 43.667 32.5 71c0 33.333 -12.167 59.166 -36.5 77.499s-59.5 27.5 -105.5 27.5h-76v25zM762.998 943.001h58.002v-25h-79
l-65 176c-6 15.333 -13.333 24.5 -22 27.5s-22.334 4.5 -41.001 4.5h-20l58 15c13.333 -2.66699 23.666 -6.16699 30.999 -10.5s14 -13.833 20 -28.5zM489 943.001h84v-25h-196v25h84v414h-84v25h191v-25h-79v-414z" />
    <glyph glyph-name="macron" unicode="&#xaf;" horiz-adv-x="706" 
d="M626 1408v-42h-546v42h546z" />
    <glyph glyph-name="degree" unicode="&#xb0;" horiz-adv-x="716" 
d="M358 937c-60.667 0 -113.834 12.5 -159.501 37.5s-81.334 59.333 -107.001 103s-38.5 93.834 -38.5 150.501s12.833 106.834 38.5 150.501s61.334 78 107.001 103s98.834 37.5 159.501 37.5s113.834 -12.5 159.501 -37.5s81.334 -59.333 107.001 -103
s38.5 -93.834 38.5 -150.501s-12.833 -106.834 -38.5 -150.501s-61.334 -78 -107.001 -103s-98.834 -37.5 -159.501 -37.5zM358 975c79.333 0 143.333 24 192 72s73 108.333 73 181c0 73.333 -24.333 133.833 -73 181.5s-112.667 71.5 -192 71.5
c-78.667 0 -142.5 -23.833 -191.5 -71.5s-73.5 -108.167 -73.5 -181.5c0 -72.667 24.5 -133 73.5 -181s112.833 -72 191.5 -72z" />
    <glyph glyph-name="plusminus" unicode="&#xb1;" horiz-adv-x="1182" 
d="M561 439v383h-388v42h388v380h46v-380h388l-2 -42h-386v-383h-46zM1004 242v-42h-840v42h840z" />
    <glyph glyph-name="uni00B2" unicode="&#xb2;" horiz-adv-x="766" 
d="M434 1430c57.333 34 97.668 66.999 121.001 98.999s35 68.333 35 109c0 60 -20.5 105.667 -61.5 137s-93.167 47 -156.5 47c-68 0 -120.5 -18.333 -157.5 -55s-61.167 -87 -72.5 -151l-42 4c11.333 76 39.666 135.333 84.999 178s108.333 64 189 64
c75.333 0 137.5 -19.167 186.5 -57.5s73.5 -92.5 73.5 -162.5c0 -50 -14 -93.833 -42 -131.5s-72.667 -75.167 -134 -112.5l-148 -86c-68 -40 -114.333 -81.333 -139 -124s-37 -98.667 -37 -168h-36c0 52 6.33301 97.167 19 135.5s32.667 72.333 60 102
s63 57.834 107 84.501zM668.002 1248c0 -80 -17 -140 -51 -180s-79.667 -60 -137 -60c-34 0 -62.5 5.5 -85.5 16.5s-44.667 22 -65 33s-43.5 16.5 -69.5 16.5c-18.667 0 -39.167 -4.5 -61.5 -13.5s-43.166 -22.5 -62.499 -40.5h-16l8 40l14 -8
c17.333 21.333 37.166 36.333 59.499 45s43.833 13 64.5 13c28.667 0 52.5 -5.16699 71.5 -15.5l59 -31c20.333 -10.333 46.833 -15.5 79.5 -15.5c46 0 82.5 16.333 109.5 49s40.5 83 40.5 151h42z" />
    <glyph glyph-name="uni00B3" unicode="&#xb3;" horiz-adv-x="700" 
d="M60 1248l42.001 6.00098c13.333 -64.667 39.666 -116.167 78.999 -154.5s96.333 -57.5 171 -57.5c74 0 129.833 18.167 167.5 54.5s56.5 80.833 56.5 133.5c0 61.333 -22.167 109.333 -66.5 144s-103.5 52 -177.5 52v30c86 -0.666992 155.5 -20.834 208.5 -60.501
s79.5 -95.5 79.5 -167.5c0 -64 -22.333 -117.667 -67 -161s-111.667 -65 -201 -65c-88 0 -154.833 22 -200.5 66s-76.167 104 -91.5 180zM78.001 1618c13.333 81.333 42.168 141.667 86.501 181s102.833 59 175.5 59c79.333 0 141.166 -20.333 185.499 -61
s66.5 -91.667 66.5 -153c0 -62.667 -23.833 -113 -71.5 -151s-110.5 -57.667 -188.5 -59v30c64 0 116 16.333 156 49s60 75 60 127c0 51.333 -18.333 93.833 -55 127.5s-87 50.5 -151 50.5c-124.667 0 -198 -68 -220 -204zM280.003 1464h52v-38h-52v38z" />
    <glyph glyph-name="acute" unicode="&#xb4;" horiz-adv-x="533" 
d="M402 1520l30 -38l-306 -224l-24 32z" />
    <glyph glyph-name="uni00B5" unicode="&#xb5;" horiz-adv-x="1410" 
d="M1060 1010h-232v42h280v-1010h244v-42h-292v1010zM324 598l0.00292969 -220c0 -110 23.833 -196.167 71.5 -258.5s124.5 -93.5 230.5 -93.5c85.333 0 161 20.833 227 62.5s117.667 101.5 155 179.5s56 172 56 282l18 -212h-22
c-14.667 -76.667 -42.334 -141.5 -83.001 -194.5s-91.334 -93.167 -152.001 -120.5s-128.334 -41 -203.001 -41c-114 0 -196.167 34.5 -246.5 103.5s-75.5 163.833 -75.5 284.5v228h24zM276.003 -420v1430h-228v42h276v-1472h-48z" />
    <glyph glyph-name="paragraph" unicode="&#xb6;" horiz-adv-x="1460" 
d="M570 -420v46h238v1878h50v-1924h-288zM834 736h-246c-90.667 0 -168.5 9.66699 -233.5 29s-118.167 46.333 -159.5 81s-71.833 75.5 -91.5 122.5s-29.5 98.167 -29.5 153.5c0 120 42.667 213.667 128 281s213.333 101 384 101h248v-768zM1354 -420h-286v1924h286v-46
h-236v-1832h236v-46z" />
    <glyph glyph-name="periodcentered" unicode="&#xb7;" horiz-adv-x="392" 
d="M146 616h100v-98h-100v98z" />
    <glyph glyph-name="cedilla" unicode="&#xb8;" horiz-adv-x="596" 
d="M94 -376c19.333 -4.66699 40.334 -8.83301 63.001 -12.5s48.334 -5.5 77.001 -5.5c71.333 0 128.166 10 170.499 30s63.5 48 63.5 84c0 25.333 -11 46.333 -33 63s-55.667 25 -101 25h-190v44h192c61.333 0 106.666 -12.333 135.999 -37s44 -55.667 44 -93
c0 -48 -24.5 -86.333 -73.5 -115s-118.5 -43 -208.5 -43c-30 0 -57.833 2 -83.5 6s-49.167 9.33301 -70.5 16zM240.001 0.000976562h48l-98 -148h-46z" />
    <glyph glyph-name="uni00B9" unicode="&#xb9;" horiz-adv-x="572" 
d="M306 1846h30v-788h192v-40h-426v40h192v746zM124 1694h29.999c42 0 76 13.667 102 41s39.333 64.333 40 111h16l-8 -104h-14c-8.66699 -24.667 -24.667 -45.167 -48 -61.5s-54.666 -24.5 -93.999 -24.5h-24v38z" />
    <glyph glyph-name="ordmasculine" unicode="&#xba;" horiz-adv-x="1032" 
d="M516 662c-84.667 0 -159.334 18.333 -224.001 55s-115.167 87 -151.5 151s-54.5 137.333 -54.5 220c0 83.333 18.167 157.333 54.5 222s86.833 115.5 151.5 152.5s139.334 55.5 224.001 55.5c85.333 0 160.333 -18.5 225 -55.5s115 -87.833 151 -152.5
s54 -138.667 54 -222c0 -82.667 -18 -156 -54 -220s-86.333 -114.333 -151 -151s-139.667 -55 -225 -55zM516 702c76.667 0 144.167 16.333 202.5 49s103.833 78 136.5 136s49 125 49 201s-16.333 143.333 -49 202s-78.167 104.667 -136.5 138s-125.833 50 -202.5 50
c-76 0 -143 -16.667 -201 -50s-103.333 -79.333 -136 -138s-49 -126 -49 -202s16.333 -143 49 -201s78 -103.333 136 -136s125 -49 201 -49z" />
    <glyph glyph-name="guillemotright" unicode="&#xbb;" horiz-adv-x="928" 
d="M796 574v-2l-344 -448h50l336 432v32l-336 434h-50zM384 574v-2l-344 -448h50l336 432v32l-336 434h-50z" />
    <glyph glyph-name="onequarter" unicode="&#xbc;" horiz-adv-x="1654" 
d="M306 1504h30v-788h192v-40h-426v40h192v746zM124 1352h29.999c42 0 76 13.667 102 41s39.333 64.333 40 111h16l-8 -104h-14c-8.66699 -24.667 -24.667 -45.167 -48 -61.5s-54.666 -24.5 -93.999 -24.5h-24v38zM271.999 0l1120 1504h47l-1121 -1504h-46zM1450 828v-788
h144v-40h-356v40h172v766l-8 22h48zM1594 284v-36h-636v36h636zM1402 828l36 -20l-446 -546l-34 22z" />
    <glyph glyph-name="onehalf" unicode="&#xbd;" horiz-adv-x="1744" 
d="M306 1504h30v-788h192v-40h-426v40h192v746zM124 1352h29.999c42 0 76 13.667 102 41s39.333 64.333 40 111h16l-8 -104h-14c-8.66699 -24.667 -24.667 -45.167 -48 -61.5s-54.666 -24.5 -93.999 -24.5h-24v38zM271.999 0l1120 1504h47l-1121 -1504h-46zM1412 410
c57.333 34 97.668 66.999 121.001 98.999s35 68.333 35 109c0 60 -20.5 105.667 -61.5 137s-93.167 47 -156.5 47c-68 0 -120.5 -18.333 -157.5 -55s-61.167 -87 -72.5 -151l-42 4c11.333 76 39.666 135.333 84.999 178s108.333 64 189 64
c75.333 0 137.5 -19.167 186.5 -57.5s73.5 -92.5 73.5 -162.5c0 -50 -14 -93.833 -42 -131.5s-72.667 -75.167 -134 -112.5l-148 -86c-68 -40 -114.333 -81.333 -139 -124s-37 -98.667 -37 -168h-36c0 52 6.33301 97.167 19 135.5s32.667 72.333 60 102
s63 57.834 107 84.501zM1646 227.999c0 -80 -17 -140 -51 -180s-79.667 -60 -137 -60c-34 0 -62.5 5.5 -85.5 16.5s-44.667 22 -65 33s-43.5 16.5 -69.5 16.5c-18.667 0 -39.167 -4.5 -61.5 -13.5s-43.166 -22.5 -62.499 -40.5h-16l8 40l14 -8
c17.333 21.333 37.166 36.333 59.499 45s43.833 13 64.5 13c28.667 0 52.5 -5.16699 71.5 -15.5l59 -31c20.333 -10.333 46.833 -15.5 79.5 -15.5c46 0 82.5 16.333 109.5 49s40.5 83 40.5 151h42z" />
    <glyph glyph-name="threequarters" unicode="&#xbe;" horiz-adv-x="1706" 
d="M60 906l42.001 6.00098c13.333 -64.667 39.666 -116.167 78.999 -154.5s96.333 -57.5 171 -57.5c74 0 129.833 18.167 167.5 54.5s56.5 80.833 56.5 133.5c0 61.333 -22.167 109.333 -66.5 144s-103.5 52 -177.5 52v30c86 -0.666992 155.5 -20.834 208.5 -60.501
s79.5 -95.5 79.5 -167.5c0 -64 -22.333 -117.667 -67 -161s-111.667 -65 -201 -65c-88 0 -154.833 22 -200.5 66s-76.167 104 -91.5 180zM78.001 1276c13.333 81.333 42.168 141.667 86.501 181s102.833 59 175.5 59c79.333 0 141.166 -20.333 185.499 -61
s66.5 -91.667 66.5 -153c0 -62.667 -23.833 -113 -71.5 -151s-110.5 -57.667 -188.5 -59v30c64 0 116 16.333 156 49s60 75 60 127c0 51.333 -18.333 93.833 -55 127.5s-87 50.5 -151 50.5c-124.667 0 -198 -68 -220 -204zM280.003 1122h52v-38h-52v38zM324.003 0.00195312
l1120 1504h47l-1121 -1504h-46zM1502 828.002v-788h144v-40h-356v40h172v766l-8 22h48zM1646 284.002v-36h-636v36h636zM1454 828.002l36 -20l-446 -546l-34 22z" />
    <glyph glyph-name="questiondown" unicode="&#xbf;" horiz-adv-x="1104" 
d="M980 170c14 -29.333 24.835 -59.833 32.502 -91.5s11.5 -63.834 11.5 -96.501c0 -80 -20.167 -152.5 -60.5 -217.5s-96.833 -116.667 -169.5 -155s-157.334 -57.5 -254.001 -57.5c-98.667 0 -184 20.167 -256 60.5s-127.667 93.5 -167 159.5s-59 137.333 -59 214
c0 62.667 11.167 117.334 33.5 164.001s51.166 88 86.499 124s73 69.5 113 100.5s77.667 62.167 113 93.5s64.166 65.166 86.499 101.499s33.5 78.5 33.5 126.5v58h48v-60c0 -52 -11.167 -97.667 -33.5 -137s-51 -75.333 -86 -108s-72.167 -64.5 -111.5 -95.5
s-76.5 -63.833 -111.5 -98.5s-63.667 -73.667 -86 -117s-33.5 -94 -33.5 -152c0 -67.333 17.5 -130.166 52.5 -188.499s84.667 -105.5 149 -141.5s140.5 -54 228.5 -54c86.667 0 162.334 17 227.001 51s115 79.667 151 137s54 121.333 54 192c0 32 -3.66699 62.333 -11 91
s-17 55 -29 79zM592.002 986h-86v86h86v-86z" />
    <glyph glyph-name="Agrave" unicode="&#xc0;" horiz-adv-x="1714" 
d="M1270 574v-46h-824v46h824zM1508 46h170v-46h-642v46h420l-608 1424l36 -26h-54l34 26l-608 -1424h420v-46h-640v46h170l622 1458h58zM690 1932l-30 -38l306 -224l24 32z" />
    <glyph glyph-name="Aacute" unicode="&#xc1;" horiz-adv-x="1714" 
d="M1270 574v-46h-824v46h824zM1508 46h170v-46h-642v46h420l-608 1424l36 -26h-54l34 26l-608 -1424h420v-46h-640v46h170l622 1458h58zM1026 1932l30 -38l-306 -224l-24 32z" />
    <glyph glyph-name="Acircumflex" unicode="&#xc2;" horiz-adv-x="1714" 
d="M1270 574v-46h-824v46h824zM1508 46h170v-46h-642v46h420l-608 1424l36 -26h-54l34 26l-608 -1424h420v-46h-640v46h170l622 1458h58zM874 1908l276 -200l-22 -30l-270 186l-270 -186l-22 30l276 200h32z" />
    <glyph glyph-name="Atilde" unicode="&#xc3;" horiz-adv-x="1714" 
d="M1270 574v-46h-824v46h824zM1508 46h170v-46h-642v46h420l-608 1424l36 -26h-54l34 26l-608 -1424h420v-46h-640v46h170l622 1458h58zM1145 1918l37.999 -5.00195c-10.667 -72.667 -31.334 -125.667 -62.001 -159s-70.334 -50 -119.001 -50
c-34.667 0 -63.667 8.33301 -87 25s-47 41.334 -71 74.001c-22.667 31.333 -43.5 54.166 -62.5 68.499s-42.167 21.5 -69.5 21.5c-37.333 0 -68.166 -13.667 -92.499 -41s-41.5 -71.666 -51.5 -132.999l-39 5c10.667 72.667 31.334 125.834 62.001 159.501
s70.334 50.5 119.001 50.5c35.333 0 64.5 -8.33301 87.5 -25s46.833 -41.667 71.5 -75c22.667 -30.667 43.5 -53.167 62.5 -67.5s42.167 -21.5 69.5 -21.5c37.333 0 68 13.667 92 41s41.333 71.333 52 132z" />
    <glyph glyph-name="Adieresis" unicode="&#xc4;" horiz-adv-x="1714" 
d="M1270 574v-46h-824v46h824zM1508 46h170v-46h-642v46h420l-608 1424l36 -26h-54l34 26l-608 -1424h420v-46h-640v46h170l622 1458h58zM676 1834h80v-80h-80v80zM960 1834h80v-80h-80v80z" />
    <glyph glyph-name="Aring" unicode="&#xc5;" horiz-adv-x="1714" 
d="M1270 574v-46h-824v46h824zM1508 46h170v-46h-642v46h420l-608 1424l36 -26h-54l34 26l-608 -1424h420v-46h-640v46h170l622 1458h58zM858 1620c-60.667 0 -110.834 19.832 -150.501 59.499s-59.5 87.834 -59.5 144.501c0 59.333 19.833 107.833 59.5 145.5
s89.834 56.5 150.501 56.5c62 0 112.833 -18.833 152.5 -56.5s59.5 -86.167 59.5 -145.5c0 -58 -19.833 -106.5 -59.5 -145.5s-90.5 -58.5 -152.5 -58.5zM858 1660c49.333 0 89.666 15.667 120.999 47s47 70.333 47 117c0 47.333 -15.667 86.166 -47 116.499
s-71.666 45.5 -120.999 45.5c-48 0 -88 -15.167 -120 -45.5s-48 -69.166 -48 -116.499c0 -46.667 16 -85.667 48 -117s72 -47 120 -47z" />
    <glyph glyph-name="AE" unicode="&#xc6;" horiz-adv-x="2548" 
d="M1022 0v46h282v1412h-742v46h1852v-390h-50v344h-1010v-1412h1028v344h50v-390h-1410zM6 0v46h202l838 1446h56l-840 -1446h382v-46h-638zM528 528v46h806v-46h-806zM1330 736v46h704v-46h-704z" />
    <glyph glyph-name="Ccedilla" unicode="&#xc7;" horiz-adv-x="1650" 
d="M846 -16c-108 0 -207.332 18.834 -297.999 56.501s-169.334 90.834 -236.001 159.501s-118.334 150.167 -155.001 244.5s-55 198.166 -55 311.499c0 112 17.5 214.667 52.5 308s85.333 174 151 242s144.5 120.667 236.5 158s194.667 56 308 56
c119.333 0 223.833 -19.833 313.5 -59.5s163.5 -94.834 221.5 -165.501s99 -152.334 123 -245.001h20l-16 -136c-34 182 -109.333 320.167 -226 414.5s-262 141.5 -436 141.5c-141.333 0 -264.166 -30.167 -368.499 -90.5s-185 -144.166 -242 -251.499
s-85.5 -231.333 -85.5 -372c0 -106.667 17.167 -204.167 51.5 -292.5s82.5 -164.666 144.5 -228.999s135.167 -113.833 219.5 -148.5s176.5 -52 276.5 -52c115.333 0 219.833 23.167 313.5 69.5s171.5 111.666 233.5 195.999s103.667 183.166 125 296.499l52 -10
c-24 -121.333 -69.333 -227.166 -136 -317.499s-150.167 -160.333 -250.5 -210s-212.833 -74.5 -337.5 -74.5zM1512 914.001v590h48v-590h-48zM690.001 -375.999c19.333 -4.66699 40.334 -8.83301 63.001 -12.5s48.334 -5.5 77.001 -5.5c71.333 0 128.166 10 170.499 30
s63.5 48 63.5 84c0 25.333 -11 46.333 -33 63s-55.667 25 -101 25h-190v44h192c61.333 0 106.666 -12.333 135.999 -37s44 -55.667 44 -93c0 -48 -24.5 -86.333 -73.5 -115s-118.5 -43 -208.5 -43c-30 0 -57.833 2 -83.5 6s-49.167 9.33301 -70.5 16zM836.002 0.00195312h48
l-98 -148h-46z" />
    <glyph glyph-name="Egrave" unicode="&#xc8;" horiz-adv-x="1558" 
d="M1044 782v-46h-682v46h682zM1394 390h48v-390h-1388v46h282v1412h-282v46h1370v-390h-48v344h-992v-1412h1010v344zM654 1932l-30 -38l306 -224l24 32z" />
    <glyph glyph-name="Eacute" unicode="&#xc9;" horiz-adv-x="1558" 
d="M1044 782v-46h-682v46h682zM1394 390h48v-390h-1388v46h282v1412h-282v46h1370v-390h-48v344h-992v-1412h1010v344zM990 1932l30 -38l-306 -224l-24 32z" />
    <glyph glyph-name="Ecircumflex" unicode="&#xca;" horiz-adv-x="1558" 
d="M1044 782v-46h-682v46h682zM1394 390h48v-390h-1388v46h282v1412h-282v46h1370v-390h-48v344h-992v-1412h1010v344zM838 1908l276 -200l-22 -30l-270 186l-270 -186l-22 30l276 200h32z" />
    <glyph glyph-name="Edieresis" unicode="&#xcb;" horiz-adv-x="1558" 
d="M1044 782v-46h-682v46h682zM1394 390h48v-390h-1388v46h282v1412h-282v46h1370v-390h-48v344h-992v-1412h1010v344zM640 1834h80v-80h-80v80zM924 1834h80v-80h-80v80z" />
    <glyph glyph-name="Igrave" unicode="&#xcc;" horiz-adv-x="720" 
d="M54 1458v46h612v-46h-282v-1412h282v-46h-612v46h282v1412h-282zM194 1932l-30 -38l306 -224l24 32z" />
    <glyph glyph-name="Iacute" unicode="&#xcd;" horiz-adv-x="720" 
d="M54 1458v46h612v-46h-282v-1412h282v-46h-612v46h282v1412h-282zM530 1932l30 -38l-306 -224l-24 32z" />
    <glyph glyph-name="Icircumflex" unicode="&#xce;" horiz-adv-x="720" 
d="M54 1458v46h612v-46h-282v-1412h282v-46h-612v46h282v1412h-282zM378 1908l276 -200l-22 -30l-270 186l-270 -186l-22 30l276 200h32z" />
    <glyph glyph-name="Idieresis" unicode="&#xcf;" horiz-adv-x="720" 
d="M54 1458v46h612v-46h-282v-1412h282v-46h-612v46h282v1412h-282zM180 1834h80v-80h-80v80zM464 1834h80v-80h-80v80z" />
    <glyph glyph-name="Eth" unicode="&#xd0;" horiz-adv-x="1672" 
d="M888 782v-46h-766v46h766zM604 0v46.001h174c150.667 0 281.334 30.167 392.001 90.5s196.334 143.833 257.001 250.5s91 229.667 91 369c0 138 -30.333 259.833 -91 365.5s-146.334 188.167 -257.001 247.5s-241.334 89 -392.001 89h-172v46h172
c160.667 0 300.334 -31.833 419.001 -95.5s210.5 -151.667 275.5 -264s97.5 -241.833 97.5 -388.5c0 -148.667 -32.5 -279.834 -97.5 -393.501s-156.833 -202.5 -275.5 -266.5s-258.334 -96 -419.001 -96h-174zM54 0.000976562v46h282v1412h-282v46h580v-46h-250v-1412h250
v-46h-580z" />
    <glyph glyph-name="Ntilde" unicode="&#xd1;" horiz-adv-x="1832" 
d="M1448 0l-1096 1504h60l1096 -1504h-60zM54 1460v44h358l-2 -54h-28v-1404h280v-46h-608v46h282v1414h-282zM1164 1458v46h634v-46h-282v-1458h-62l-18 66h34v1392h-306zM1195 1918l37.999 -5.00195c-10.667 -72.667 -31.334 -125.667 -62.001 -159
s-70.334 -50 -119.001 -50c-34.667 0 -63.667 8.33301 -87 25s-47 41.334 -71 74.001c-22.667 31.333 -43.5 54.166 -62.5 68.499s-42.167 21.5 -69.5 21.5c-37.333 0 -68.166 -13.667 -92.499 -41s-41.5 -71.666 -51.5 -132.999l-39 5
c10.667 72.667 31.334 125.834 62.001 159.501s70.334 50.5 119.001 50.5c35.333 0 64.5 -8.33301 87.5 -25s46.833 -41.667 71.5 -75c22.667 -30.667 43.5 -53.167 62.5 -67.5s42.167 -21.5 69.5 -21.5c37.333 0 68 13.667 92 41s41.333 71.333 52 132z" />
    <glyph glyph-name="Ograve" unicode="&#xd2;" horiz-adv-x="1728" 
d="M864 -16c-112.667 0 -215.5 18.667 -308.5 56s-173.333 90.333 -241 159s-120 150.167 -157 244.5s-55.5 198.5 -55.5 312.5c0 112.667 18.5 215.667 55.5 309s89.333 174 157 242s148 120.5 241 157.5s195.833 55.5 308.5 55.5s215.5 -18.5 308.5 -55.5
s173.333 -89.5 241 -157.5s120 -148.667 157 -242s55.5 -196.333 55.5 -309c0 -114 -18.5 -218.167 -55.5 -312.5s-89.333 -175.833 -157 -244.5s-148 -121.667 -241 -159s-195.833 -56 -308.5 -56zM864 32c140.667 0 264.334 30.667 371.001 92
s189.834 146.5 249.501 255.5s89.5 234.5 89.5 376.5c0 140.667 -29.833 264.834 -89.5 372.501s-142.834 191.834 -249.501 252.501s-230.334 91 -371.001 91s-264.334 -30.333 -371.001 -91s-189.834 -144.834 -249.501 -252.501s-89.5 -231.834 -89.5 -372.501
c0 -142 29.833 -267.5 89.5 -376.5s142.834 -194.167 249.501 -255.5s230.334 -92 371.001 -92zM696 1932l-30 -38l306 -224l24 32z" />
    <glyph glyph-name="Oacute" unicode="&#xd3;" horiz-adv-x="1728" 
d="M864 -16c-112.667 0 -215.5 18.667 -308.5 56s-173.333 90.333 -241 159s-120 150.167 -157 244.5s-55.5 198.5 -55.5 312.5c0 112.667 18.5 215.667 55.5 309s89.333 174 157 242s148 120.5 241 157.5s195.833 55.5 308.5 55.5s215.5 -18.5 308.5 -55.5
s173.333 -89.5 241 -157.5s120 -148.667 157 -242s55.5 -196.333 55.5 -309c0 -114 -18.5 -218.167 -55.5 -312.5s-89.333 -175.833 -157 -244.5s-148 -121.667 -241 -159s-195.833 -56 -308.5 -56zM864 32c140.667 0 264.334 30.667 371.001 92
s189.834 146.5 249.501 255.5s89.5 234.5 89.5 376.5c0 140.667 -29.833 264.834 -89.5 372.501s-142.834 191.834 -249.501 252.501s-230.334 91 -371.001 91s-264.334 -30.333 -371.001 -91s-189.834 -144.834 -249.501 -252.501s-89.5 -231.834 -89.5 -372.501
c0 -142 29.833 -267.5 89.5 -376.5s142.834 -194.167 249.501 -255.5s230.334 -92 371.001 -92zM1032 1932l30 -38l-306 -224l-24 32z" />
    <glyph glyph-name="Ocircumflex" unicode="&#xd4;" horiz-adv-x="1728" 
d="M864 -16c-112.667 0 -215.5 18.667 -308.5 56s-173.333 90.333 -241 159s-120 150.167 -157 244.5s-55.5 198.5 -55.5 312.5c0 112.667 18.5 215.667 55.5 309s89.333 174 157 242s148 120.5 241 157.5s195.833 55.5 308.5 55.5s215.5 -18.5 308.5 -55.5
s173.333 -89.5 241 -157.5s120 -148.667 157 -242s55.5 -196.333 55.5 -309c0 -114 -18.5 -218.167 -55.5 -312.5s-89.333 -175.833 -157 -244.5s-148 -121.667 -241 -159s-195.833 -56 -308.5 -56zM864 32c140.667 0 264.334 30.667 371.001 92
s189.834 146.5 249.501 255.5s89.5 234.5 89.5 376.5c0 140.667 -29.833 264.834 -89.5 372.501s-142.834 191.834 -249.501 252.501s-230.334 91 -371.001 91s-264.334 -30.333 -371.001 -91s-189.834 -144.834 -249.501 -252.501s-89.5 -231.834 -89.5 -372.501
c0 -142 29.833 -267.5 89.5 -376.5s142.834 -194.167 249.501 -255.5s230.334 -92 371.001 -92zM880 1908l276 -200l-22 -30l-270 186l-270 -186l-22 30l276 200h32z" />
    <glyph glyph-name="Otilde" unicode="&#xd5;" horiz-adv-x="1728" 
d="M864 -16c-112.667 0 -215.5 18.667 -308.5 56s-173.333 90.333 -241 159s-120 150.167 -157 244.5s-55.5 198.5 -55.5 312.5c0 112.667 18.5 215.667 55.5 309s89.333 174 157 242s148 120.5 241 157.5s195.833 55.5 308.5 55.5s215.5 -18.5 308.5 -55.5
s173.333 -89.5 241 -157.5s120 -148.667 157 -242s55.5 -196.333 55.5 -309c0 -114 -18.5 -218.167 -55.5 -312.5s-89.333 -175.833 -157 -244.5s-148 -121.667 -241 -159s-195.833 -56 -308.5 -56zM864 32c140.667 0 264.334 30.667 371.001 92
s189.834 146.5 249.501 255.5s89.5 234.5 89.5 376.5c0 140.667 -29.833 264.834 -89.5 372.501s-142.834 191.834 -249.501 252.501s-230.334 91 -371.001 91s-264.334 -30.333 -371.001 -91s-189.834 -144.834 -249.501 -252.501s-89.5 -231.834 -89.5 -372.501
c0 -142 29.833 -267.5 89.5 -376.5s142.834 -194.167 249.501 -255.5s230.334 -92 371.001 -92zM1151 1918l37.999 -5.00195c-10.667 -72.667 -31.334 -125.667 -62.001 -159s-70.334 -50 -119.001 -50c-34.667 0 -63.667 8.33301 -87 25s-47 41.334 -71 74.001
c-22.667 31.333 -43.5 54.166 -62.5 68.499s-42.167 21.5 -69.5 21.5c-37.333 0 -68.166 -13.667 -92.499 -41s-41.5 -71.666 -51.5 -132.999l-39 5c10.667 72.667 31.334 125.834 62.001 159.501s70.334 50.5 119.001 50.5c35.333 0 64.5 -8.33301 87.5 -25
s46.833 -41.667 71.5 -75c22.667 -30.667 43.5 -53.167 62.5 -67.5s42.167 -21.5 69.5 -21.5c37.333 0 68 13.667 92 41s41.333 71.333 52 132z" />
    <glyph glyph-name="Odieresis" unicode="&#xd6;" horiz-adv-x="1728" 
d="M864 -16c-112.667 0 -215.5 18.667 -308.5 56s-173.333 90.333 -241 159s-120 150.167 -157 244.5s-55.5 198.5 -55.5 312.5c0 112.667 18.5 215.667 55.5 309s89.333 174 157 242s148 120.5 241 157.5s195.833 55.5 308.5 55.5s215.5 -18.5 308.5 -55.5
s173.333 -89.5 241 -157.5s120 -148.667 157 -242s55.5 -196.333 55.5 -309c0 -114 -18.5 -218.167 -55.5 -312.5s-89.333 -175.833 -157 -244.5s-148 -121.667 -241 -159s-195.833 -56 -308.5 -56zM864 32c140.667 0 264.334 30.667 371.001 92
s189.834 146.5 249.501 255.5s89.5 234.5 89.5 376.5c0 140.667 -29.833 264.834 -89.5 372.501s-142.834 191.834 -249.501 252.501s-230.334 91 -371.001 91s-264.334 -30.333 -371.001 -91s-189.834 -144.834 -249.501 -252.501s-89.5 -231.834 -89.5 -372.501
c0 -142 29.833 -267.5 89.5 -376.5s142.834 -194.167 249.501 -255.5s230.334 -92 371.001 -92zM682 1834h80v-80h-80v80zM966 1834h80v-80h-80v80z" />
    <glyph glyph-name="multiply" unicode="&#xd7;" horiz-adv-x="1185" 
d="M934 351l-340 340l-343 -340l-31 30l343 341l-343 343l31 30l343 -342l342 342l29 -30l-340 -343l340 -341z" />
    <glyph glyph-name="Oslash" unicode="&#xd8;" horiz-adv-x="1728" 
d="M1578 1496l30 -30l-1458 -1458l-28 30zM864 -16c-112.667 0 -215.5 18.667 -308.5 56s-173.333 90.333 -241 159s-120 150.167 -157 244.5s-55.5 198.5 -55.5 312.5c0 112.667 18.5 215.667 55.5 309s89.333 174 157 242s148 120.5 241 157.5s195.833 55.5 308.5 55.5
s215.5 -18.5 308.5 -55.5s173.333 -89.5 241 -157.5s120 -148.667 157 -242s55.5 -196.333 55.5 -309c0 -114 -18.5 -218.167 -55.5 -312.5s-89.333 -175.833 -157 -244.5s-148 -121.667 -241 -159s-195.833 -56 -308.5 -56zM864 32c140.667 0 264.334 30.667 371.001 92
s189.834 146.5 249.501 255.5s89.5 234.5 89.5 376.5c0 140.667 -29.833 264.834 -89.5 372.501s-142.834 191.834 -249.501 252.501s-230.334 91 -371.001 91s-264.334 -30.333 -371.001 -91s-189.834 -144.834 -249.501 -252.501s-89.5 -231.834 -89.5 -372.501
c0 -142 29.833 -267.5 89.5 -376.5s142.834 -194.167 249.501 -255.5s230.334 -92 371.001 -92z" />
    <glyph glyph-name="Ugrave" unicode="&#xd9;" horiz-adv-x="1738" 
d="M1102 1504h608v-46h-280v-866c0 -123.333 -18.833 -230.5 -56.5 -321.5s-97.667 -161.5 -180 -211.5s-190.833 -75 -325.5 -75c-134 0 -242 25 -324 75s-141.833 120.5 -179.5 211.5s-56.5 198.167 -56.5 321.5v866h-280v46h610v-46h-280v-866
c0 -114 16.667 -213 50 -297s87.5 -148.833 162.5 -194.5s174.833 -68.5 299.5 -68.5c124 0 223.667 22.833 299 68.5s130 110.5 164 194.5s51 183 51 297v866h-282v46zM690 1932l-30 -38l306 -224l24 32z" />
    <glyph glyph-name="Uacute" unicode="&#xda;" horiz-adv-x="1738" 
d="M1102 1504h608v-46h-280v-866c0 -123.333 -18.833 -230.5 -56.5 -321.5s-97.667 -161.5 -180 -211.5s-190.833 -75 -325.5 -75c-134 0 -242 25 -324 75s-141.833 120.5 -179.5 211.5s-56.5 198.167 -56.5 321.5v866h-280v46h610v-46h-280v-866
c0 -114 16.667 -213 50 -297s87.5 -148.833 162.5 -194.5s174.833 -68.5 299.5 -68.5c124 0 223.667 22.833 299 68.5s130 110.5 164 194.5s51 183 51 297v866h-282v46zM1026 1932l30 -38l-306 -224l-24 32z" />
    <glyph glyph-name="Ucircumflex" unicode="&#xdb;" horiz-adv-x="1738" 
d="M1102 1504h608v-46h-280v-866c0 -123.333 -18.833 -230.5 -56.5 -321.5s-97.667 -161.5 -180 -211.5s-190.833 -75 -325.5 -75c-134 0 -242 25 -324 75s-141.833 120.5 -179.5 211.5s-56.5 198.167 -56.5 321.5v866h-280v46h610v-46h-280v-866
c0 -114 16.667 -213 50 -297s87.5 -148.833 162.5 -194.5s174.833 -68.5 299.5 -68.5c124 0 223.667 22.833 299 68.5s130 110.5 164 194.5s51 183 51 297v866h-282v46zM874 1908l276 -200l-22 -30l-270 186l-270 -186l-22 30l276 200h32z" />
    <glyph glyph-name="Udieresis" unicode="&#xdc;" horiz-adv-x="1738" 
d="M1102 1504h608v-46h-280v-866c0 -123.333 -18.833 -230.5 -56.5 -321.5s-97.667 -161.5 -180 -211.5s-190.833 -75 -325.5 -75c-134 0 -242 25 -324 75s-141.833 120.5 -179.5 211.5s-56.5 198.167 -56.5 321.5v866h-280v46h610v-46h-280v-866
c0 -114 16.667 -213 50 -297s87.5 -148.833 162.5 -194.5s174.833 -68.5 299.5 -68.5c124 0 223.667 22.833 299 68.5s130 110.5 164 194.5s51 183 51 297v866h-282v46zM676 1834h80v-80h-80v80zM960 1834h80v-80h-80v80z" />
    <glyph glyph-name="Yacute" unicode="&#xdd;" horiz-adv-x="1728" 
d="M1500 1458l-612 -766h-46l-614 766h-192v46h608v-46h-354l592 -738l-44 22h54l-40 -22l590 738h-358v46h608v-46h-192zM890 730v-684h280v-46h-612v46h282v684h50zM1032 1932l30 -38l-306 -224l-24 32z" />
    <glyph glyph-name="Thorn" unicode="&#xde;" horiz-adv-x="1386" 
d="M54 1458v46h632v-46h-302v-1412h302v-46h-632v46h282v1412h-282zM370 1090v46h432c170 0 297.5 -33.167 382.5 -99.5s127.5 -158.5 127.5 -276.5c0 -54.667 -9.83301 -105.167 -29.5 -151.5s-50.167 -86.666 -91.5 -120.999s-94.5 -60.833 -159.5 -79.5
s-142.833 -28 -233.5 -28h-422v46h424c154 0 269.5 29.667 346.5 89s115.5 141 115.5 245c0 105.333 -39 186.666 -117 243.999s-193 86 -345 86h-430z" />
    <glyph glyph-name="germandbls" unicode="&#xdf;" horiz-adv-x="1424" 
d="M734 852c43.333 0 88.3359 7.33398 135.003 22.001s90.167 36.834 130.5 66.501s73.166 67.167 98.499 112.5s38 98.333 38 159s-13.667 116.667 -41 168s-67.5 92.5 -120.5 123.5s-117.833 46.5 -194.5 46.5c-74.667 0 -141 -15 -199 -45s-103.667 -77 -137 -141
s-50 -147.333 -50 -250v-1114h-294v42h246v968h-246v42h246v62c0 109.333 18.333 199.666 55 270.999s87.667 124.333 153 159s140.666 52 225.999 52c83.333 0 155.166 -16.833 215.499 -50.5s106.833 -79.167 139.5 -136.5s49 -121 49 -191
c0 -54.667 -9 -102.5 -27 -143.5s-41.833 -75.833 -71.5 -104.5s-62 -52.334 -97 -71.001s-69.167 -33.667 -102.5 -45v-30zM628.003 74.001c31.333 -14.667 65.833 -25.666 103.5 -32.999s78.5 -11 122.5 -11c142 0 248.167 34.5 318.5 103.5s105.5 159.833 105.5 272.5
c0 123.333 -40.667 221.5 -122 294.5s-200 109.5 -356 109.5h-66v42h70c85.333 0 160.5 -10.333 225.5 -31s119.667 -50.5 164 -89.5s77.833 -86 100.5 -141s34 -117.167 34 -186.5c0 -84 -17.5 -157.333 -52.5 -220s-87.5 -111.334 -157.5 -146.001s-157.333 -52 -262 -52
c-48 0 -92 4 -132 12s-76.667 19.333 -110 34z" />
    <glyph glyph-name="agrave" unicode="&#xe0;" horiz-adv-x="1228" 
d="M974 0c-10 0 -17.502 3 -22.502 9s-7.5 14.333 -7.5 25v428l4 20l-2 116l-2 42v86c0 74 -14.667 132.667 -44 176s-70.333 74.5 -123 93.5s-114.334 28.5 -185.001 28.5c-112 0 -196 -20.833 -252 -62.5s-96 -105.5 -120 -191.5l-46 12
c16.667 64 41.834 117.167 75.501 159.5s78.334 74 134.001 95s125.167 31.5 208.5 31.5c82.667 0 153.834 -11 213.501 -33s105.667 -57.833 138 -107.5s48.5 -116.167 48.5 -199.5v-686h170v-42h-188zM451.998 -14c-106 0 -186.5 22.168 -241.5 66.501
s-82.5 111.5 -82.5 201.5c0 87.333 26.333 152.833 79 196.5s131 76.834 235 99.501l518 116v-40l-510 -116c-90 -20 -157.833 -48.833 -203.5 -86.5s-68.5 -93.5 -68.5 -167.5c0 -76.667 23.667 -133.5 71 -170.5s117 -55.5 209 -55.5c90 0 172 18.667 246 56
s132.833 97.666 176.5 180.999s65.5 193.666 65.5 330.999l12 -238h-18c-20.667 -110 -72.667 -199.833 -156 -269.5s-194 -104.5 -332 -104.5zM423.998 1520l-30 -38l306 -224l24 32z" />
    <glyph glyph-name="aacute" unicode="&#xe1;" horiz-adv-x="1228" 
d="M974 0c-10 0 -17.502 3 -22.502 9s-7.5 14.333 -7.5 25v428l4 20l-2 116l-2 42v86c0 74 -14.667 132.667 -44 176s-70.333 74.5 -123 93.5s-114.334 28.5 -185.001 28.5c-112 0 -196 -20.833 -252 -62.5s-96 -105.5 -120 -191.5l-46 12
c16.667 64 41.834 117.167 75.501 159.5s78.334 74 134.001 95s125.167 31.5 208.5 31.5c82.667 0 153.834 -11 213.501 -33s105.667 -57.833 138 -107.5s48.5 -116.167 48.5 -199.5v-686h170v-42h-188zM451.998 -14c-106 0 -186.5 22.168 -241.5 66.501
s-82.5 111.5 -82.5 201.5c0 87.333 26.333 152.833 79 196.5s131 76.834 235 99.501l518 116v-40l-510 -116c-90 -20 -157.833 -48.833 -203.5 -86.5s-68.5 -93.5 -68.5 -167.5c0 -76.667 23.667 -133.5 71 -170.5s117 -55.5 209 -55.5c90 0 172 18.667 246 56
s132.833 97.666 176.5 180.999s65.5 193.666 65.5 330.999l12 -238h-18c-20.667 -110 -72.667 -199.833 -156 -269.5s-194 -104.5 -332 -104.5zM759.998 1520l30 -38l-306 -224l-24 32z" />
    <glyph glyph-name="acircumflex" unicode="&#xe2;" horiz-adv-x="1228" 
d="M974 0c-10 0 -17.502 3 -22.502 9s-7.5 14.333 -7.5 25v428l4 20l-2 116l-2 42v86c0 74 -14.667 132.667 -44 176s-70.333 74.5 -123 93.5s-114.334 28.5 -185.001 28.5c-112 0 -196 -20.833 -252 -62.5s-96 -105.5 -120 -191.5l-46 12
c16.667 64 41.834 117.167 75.501 159.5s78.334 74 134.001 95s125.167 31.5 208.5 31.5c82.667 0 153.834 -11 213.501 -33s105.667 -57.833 138 -107.5s48.5 -116.167 48.5 -199.5v-686h170v-42h-188zM451.998 -14c-106 0 -186.5 22.168 -241.5 66.501
s-82.5 111.5 -82.5 201.5c0 87.333 26.333 152.833 79 196.5s131 76.834 235 99.501l518 116v-40l-510 -116c-90 -20 -157.833 -48.833 -203.5 -86.5s-68.5 -93.5 -68.5 -167.5c0 -76.667 23.667 -133.5 71 -170.5s117 -55.5 209 -55.5c90 0 172 18.667 246 56
s132.833 97.666 176.5 180.999s65.5 193.666 65.5 330.999l12 -238h-18c-20.667 -110 -72.667 -199.833 -156 -269.5s-194 -104.5 -332 -104.5zM607.998 1496l276 -200l-22 -30l-270 186l-270 -186l-22 30l276 200h32z" />
    <glyph glyph-name="atilde" unicode="&#xe3;" horiz-adv-x="1228" 
d="M974 0c-10 0 -17.502 3 -22.502 9s-7.5 14.333 -7.5 25v428l4 20l-2 116l-2 42v86c0 74 -14.667 132.667 -44 176s-70.333 74.5 -123 93.5s-114.334 28.5 -185.001 28.5c-112 0 -196 -20.833 -252 -62.5s-96 -105.5 -120 -191.5l-46 12
c16.667 64 41.834 117.167 75.501 159.5s78.334 74 134.001 95s125.167 31.5 208.5 31.5c82.667 0 153.834 -11 213.501 -33s105.667 -57.833 138 -107.5s48.5 -116.167 48.5 -199.5v-686h170v-42h-188zM451.998 -14c-106 0 -186.5 22.168 -241.5 66.501
s-82.5 111.5 -82.5 201.5c0 87.333 26.333 152.833 79 196.5s131 76.834 235 99.501l518 116v-40l-510 -116c-90 -20 -157.833 -48.833 -203.5 -86.5s-68.5 -93.5 -68.5 -167.5c0 -76.667 23.667 -133.5 71 -170.5s117 -55.5 209 -55.5c90 0 172 18.667 246 56
s132.833 97.666 176.5 180.999s65.5 193.666 65.5 330.999l12 -238h-18c-20.667 -110 -72.667 -199.833 -156 -269.5s-194 -104.5 -332 -104.5zM878.998 1506l37.999 -5.00195c-10.667 -72.667 -31.334 -125.667 -62.001 -159s-70.334 -50 -119.001 -50
c-34.667 0 -63.667 8.33301 -87 25s-47 41.334 -71 74.001c-22.667 31.333 -43.5 54.166 -62.5 68.499s-42.167 21.5 -69.5 21.5c-37.333 0 -68.166 -13.667 -92.499 -41s-41.5 -71.666 -51.5 -132.999l-39 5c10.667 72.667 31.334 125.834 62.001 159.501
s70.334 50.5 119.001 50.5c35.333 0 64.5 -8.33301 87.5 -25s46.833 -41.667 71.5 -75c22.667 -30.667 43.5 -53.167 62.5 -67.5s42.167 -21.5 69.5 -21.5c37.333 0 68 13.667 92 41s41.333 71.333 52 132z" />
    <glyph glyph-name="adieresis" unicode="&#xe4;" horiz-adv-x="1228" 
d="M974 0c-10 0 -17.502 3 -22.502 9s-7.5 14.333 -7.5 25v428l4 20l-2 116l-2 42v86c0 74 -14.667 132.667 -44 176s-70.333 74.5 -123 93.5s-114.334 28.5 -185.001 28.5c-112 0 -196 -20.833 -252 -62.5s-96 -105.5 -120 -191.5l-46 12
c16.667 64 41.834 117.167 75.501 159.5s78.334 74 134.001 95s125.167 31.5 208.5 31.5c82.667 0 153.834 -11 213.501 -33s105.667 -57.833 138 -107.5s48.5 -116.167 48.5 -199.5v-686h170v-42h-188zM451.998 -14c-106 0 -186.5 22.168 -241.5 66.501
s-82.5 111.5 -82.5 201.5c0 87.333 26.333 152.833 79 196.5s131 76.834 235 99.501l518 116v-40l-510 -116c-90 -20 -157.833 -48.833 -203.5 -86.5s-68.5 -93.5 -68.5 -167.5c0 -76.667 23.667 -133.5 71 -170.5s117 -55.5 209 -55.5c90 0 172 18.667 246 56
s132.833 97.666 176.5 180.999s65.5 193.666 65.5 330.999l12 -238h-18c-20.667 -110 -72.667 -199.833 -156 -269.5s-194 -104.5 -332 -104.5zM409.998 1422h80v-80h-80v80zM693.998 1422h80v-80h-80v80z" />
    <glyph glyph-name="aring" unicode="&#xe5;" horiz-adv-x="1228" 
d="M974 0c-10 0 -17.502 3 -22.502 9s-7.5 14.333 -7.5 25v428l4 20l-2 116l-2 42v86c0 74 -14.667 132.667 -44 176s-70.333 74.5 -123 93.5s-114.334 28.5 -185.001 28.5c-112 0 -196 -20.833 -252 -62.5s-96 -105.5 -120 -191.5l-46 12
c16.667 64 41.834 117.167 75.501 159.5s78.334 74 134.001 95s125.167 31.5 208.5 31.5c82.667 0 153.834 -11 213.501 -33s105.667 -57.833 138 -107.5s48.5 -116.167 48.5 -199.5v-686h170v-42h-188zM451.998 -14c-106 0 -186.5 22.168 -241.5 66.501
s-82.5 111.5 -82.5 201.5c0 87.333 26.333 152.833 79 196.5s131 76.834 235 99.501l518 116v-40l-510 -116c-90 -20 -157.833 -48.833 -203.5 -86.5s-68.5 -93.5 -68.5 -167.5c0 -76.667 23.667 -133.5 71 -170.5s117 -55.5 209 -55.5c90 0 172 18.667 246 56
s132.833 97.666 176.5 180.999s65.5 193.666 65.5 330.999l12 -238h-18c-20.667 -110 -72.667 -199.833 -156 -269.5s-194 -104.5 -332 -104.5zM591.998 1208c-60.667 0 -110.834 19.832 -150.501 59.499s-59.5 87.834 -59.5 144.501c0 59.333 19.833 107.833 59.5 145.5
s89.834 56.5 150.501 56.5c62 0 112.833 -18.833 152.5 -56.5s59.5 -86.167 59.5 -145.5c0 -58 -19.833 -106.5 -59.5 -145.5s-90.5 -58.5 -152.5 -58.5zM591.998 1248c49.333 0 89.666 15.667 120.999 47s47 70.333 47 117c0 47.333 -15.667 86.166 -47 116.499
s-71.666 45.5 -120.999 45.5c-48 0 -88 -15.167 -120 -45.5s-48 -69.166 -48 -116.499c0 -46.667 16 -85.667 48 -117s72 -47 120 -47z" />
    <glyph glyph-name="ae" unicode="&#xe6;" horiz-adv-x="2066" 
d="M1484 -16c-98 0 -184.334 22.167 -259.001 66.5s-133.5 105.666 -176.5 183.999s-65.833 168.833 -68.5 271.5l44 222h12c12 57.333 36.667 112.166 74 164.499s87 95 149 128s135.667 49.5 221 49.5c98 0 183.333 -22.667 256 -68s128.834 -108 168.501 -188
s59.5 -172 59.5 -276v-11v-13h-48v13.5v14.5c0 95.333 -18.333 179.333 -55 252s-87.667 129.5 -153 170.5s-141.333 61.5 -228 61.5c-89.333 0 -168 -21.167 -236 -63.5s-121 -101.166 -159 -176.499s-57 -162.666 -57 -261.999c0 -97.333 19.333 -183.333 58 -258
s92.167 -133 160.5 -175s147.5 -63 237.5 -63c94 0 177 23.833 249 71.5s127 112.5 165 194.5l46 -18c-42 -90 -102.833 -161.167 -182.5 -213.5s-172.167 -78.5 -277.5 -78.5zM467.999 -14c-114 0 -199.167 22.001 -255.5 66.001s-84.5 109.333 -84.5 196
c0 92 26.833 160 80.5 204s131.5 77.333 233.5 100l554 114v-36l-546 -116c-88.667 -18.667 -156.167 -47.834 -202.5 -87.501s-69.5 -98.5 -69.5 -176.5c0 -74 24.667 -129.5 74 -166.5s122 -55.5 218 -55.5c66.667 0 130.667 9.83301 192 29.5s116 51.5 164 95.5
s86 102.5 114 175.5s42 162.833 42 269.5l22 -202h-20c-22 -128.667 -77.5 -229.167 -166.5 -301.5s-205.5 -108.5 -349.5 -108.5zM1028 532.001h-44.001l-2 66l-2 56v70c0 76 -15.667 135.833 -47 179.5s-75 74.667 -131 93s-120.667 27.5 -194 27.5
c-108.667 0 -193.667 -20.333 -255 -61s-105.666 -105.667 -132.999 -195l-44 12c18 62 44.5 114.333 79.5 157s81.333 75.167 139 97.5s129.5 33.5 215.5 33.5c83.333 0 156.333 -10.5 219 -31.5s111.5 -56.333 146.5 -106s52.5 -117.167 52.5 -202.5v-196zM1010 514.001
v38h938l12 -38h-950z" />
    <glyph glyph-name="ccedilla" unicode="&#xe7;" horiz-adv-x="1218" 
d="M638 -16c-104 0 -195.332 22.999 -273.999 68.999s-140 109.5 -184 190.5s-66 174.5 -66 280.5c0 80 12.333 153.333 37 220s59.834 124.334 105.501 173.001s100.167 86.334 163.5 113.001s133.333 40 210 40c82.667 0 154.5 -14.667 215.5 -44
s110.333 -68.333 148 -117s62.5 -102.334 74.5 -161.001h16l-12 -122c-10 80 -34.667 150 -74 210s-90.333 106.667 -153 140s-134.334 50 -215.001 50c-92.667 0 -174 -21.5 -244 -64.5s-124.5 -102.167 -163.5 -177.5s-58.5 -162 -58.5 -260
c0 -97.333 19.833 -183.333 59.5 -258s95 -133 166 -175s153.833 -63 248.5 -63c101.333 0 189.666 24.167 264.999 72.5s133 113.5 173 195.5l42 -20c-44.667 -88.667 -107 -159.5 -187 -212.5s-177.667 -79.5 -293 -79.5zM1072 625.999v426h48v-426h-48zM452.001 -376.001
c19.333 -4.66699 40.334 -8.83301 63.001 -12.5s48.334 -5.5 77.001 -5.5c71.333 0 128.166 10 170.499 30s63.5 48 63.5 84c0 25.333 -11 46.333 -33 63s-55.667 25 -101 25h-190v44h192c61.333 0 106.666 -12.333 135.999 -37s44 -55.667 44 -93
c0 -48 -24.5 -86.333 -73.5 -115s-118.5 -43 -208.5 -43c-30 0 -57.833 2 -83.5 6s-49.167 9.33301 -70.5 16zM598.002 0h48l-98 -148h-46z" />
    <glyph glyph-name="egrave" unicode="&#xe8;" horiz-adv-x="1240" 
d="M638 -16c-104 0 -195.168 22.999 -273.501 68.999s-139.333 109.5 -183 190.5s-65.5 174.5 -65.5 280.5c0 106.667 21.667 201 65 283s103.833 146.333 181.5 193s168.167 70 271.5 70c101.333 0 189.833 -22.667 265.5 -68s134.334 -108 176.001 -188
s62.5 -172 62.5 -276v-13v-11h-48v13.5v14.5c0 94.667 -18.833 178.334 -56.5 251.001s-90.667 129.667 -159 171s-148.5 62 -240.5 62c-93.333 0 -175.333 -21.5 -246 -64.5s-125.667 -102.167 -165 -177.5s-59 -162 -59 -260c0 -97.333 19.833 -183.333 59.5 -258
s95 -133 166 -175s153.833 -63 248.5 -63c100 0 188 24.167 264 72.5s133.333 114.833 172 199.5l46 -18c-42 -92 -105 -164.667 -189 -218s-181.667 -80 -293 -80zM145.999 513.999v42h976l12 -42h-988zM467.999 1520l-30 -38l306 -224l24 32z" />
    <glyph glyph-name="eacute" unicode="&#xe9;" horiz-adv-x="1240" 
d="M638 -16c-104 0 -195.168 22.999 -273.501 68.999s-139.333 109.5 -183 190.5s-65.5 174.5 -65.5 280.5c0 106.667 21.667 201 65 283s103.833 146.333 181.5 193s168.167 70 271.5 70c101.333 0 189.833 -22.667 265.5 -68s134.334 -108 176.001 -188
s62.5 -172 62.5 -276v-13v-11h-48v13.5v14.5c0 94.667 -18.833 178.334 -56.5 251.001s-90.667 129.667 -159 171s-148.5 62 -240.5 62c-93.333 0 -175.333 -21.5 -246 -64.5s-125.667 -102.167 -165 -177.5s-59 -162 -59 -260c0 -97.333 19.833 -183.333 59.5 -258
s95 -133 166 -175s153.833 -63 248.5 -63c100 0 188 24.167 264 72.5s133.333 114.833 172 199.5l46 -18c-42 -92 -105 -164.667 -189 -218s-181.667 -80 -293 -80zM145.999 513.999v42h976l12 -42h-988zM803.999 1520l30 -38l-306 -224l-24 32z" />
    <glyph glyph-name="ecircumflex" unicode="&#xea;" horiz-adv-x="1240" 
d="M638 -16c-104 0 -195.168 22.999 -273.501 68.999s-139.333 109.5 -183 190.5s-65.5 174.5 -65.5 280.5c0 106.667 21.667 201 65 283s103.833 146.333 181.5 193s168.167 70 271.5 70c101.333 0 189.833 -22.667 265.5 -68s134.334 -108 176.001 -188
s62.5 -172 62.5 -276v-13v-11h-48v13.5v14.5c0 94.667 -18.833 178.334 -56.5 251.001s-90.667 129.667 -159 171s-148.5 62 -240.5 62c-93.333 0 -175.333 -21.5 -246 -64.5s-125.667 -102.167 -165 -177.5s-59 -162 -59 -260c0 -97.333 19.833 -183.333 59.5 -258
s95 -133 166 -175s153.833 -63 248.5 -63c100 0 188 24.167 264 72.5s133.333 114.833 172 199.5l46 -18c-42 -92 -105 -164.667 -189 -218s-181.667 -80 -293 -80zM145.999 513.999v42h976l12 -42h-988zM651.999 1496l276 -200l-22 -30l-270 186l-270 -186l-22 30l276 200
h32z" />
    <glyph glyph-name="edieresis" unicode="&#xeb;" horiz-adv-x="1240" 
d="M638 -16c-104 0 -195.168 22.999 -273.501 68.999s-139.333 109.5 -183 190.5s-65.5 174.5 -65.5 280.5c0 106.667 21.667 201 65 283s103.833 146.333 181.5 193s168.167 70 271.5 70c101.333 0 189.833 -22.667 265.5 -68s134.334 -108 176.001 -188
s62.5 -172 62.5 -276v-13v-11h-48v13.5v14.5c0 94.667 -18.833 178.334 -56.5 251.001s-90.667 129.667 -159 171s-148.5 62 -240.5 62c-93.333 0 -175.333 -21.5 -246 -64.5s-125.667 -102.167 -165 -177.5s-59 -162 -59 -260c0 -97.333 19.833 -183.333 59.5 -258
s95 -133 166 -175s153.833 -63 248.5 -63c100 0 188 24.167 264 72.5s133.333 114.833 172 199.5l46 -18c-42 -92 -105 -164.667 -189 -218s-181.667 -80 -293 -80zM145.999 513.999v42h976l12 -42h-988zM453.999 1422h80v-80h-80v80zM737.999 1422h80v-80h-80v80z" />
    <glyph glyph-name="igrave" unicode="&#xec;" horiz-adv-x="690" 
d="M404 42h228v-42h-516v42h240v968h-240v42h288v-1010zM210 1520l-30 -38l306 -224l24 32z" />
    <glyph glyph-name="iacute" unicode="&#xed;" horiz-adv-x="690" 
d="M404 42h228v-42h-516v42h240v968h-240v42h288v-1010zM546 1520l30 -38l-306 -224l-24 32z" />
    <glyph glyph-name="icircumflex" unicode="&#xee;" horiz-adv-x="690" 
d="M404 42h228v-42h-516v42h240v968h-240v42h288v-1010zM394 1496l276 -200l-22 -30l-270 186l-270 -186l-22 30l276 200h32z" />
    <glyph glyph-name="idieresis" unicode="&#xef;" horiz-adv-x="690" 
d="M404 42h228v-42h-516v42h240v968h-240v42h288v-1010zM196 1422h80v-80h-80v80zM480 1422h80v-80h-80v80z" />
    <glyph glyph-name="eth" unicode="&#xf0;" horiz-adv-x="1268" 
d="M622 1068c76.667 0 145.167 -14.334 205.5 -43.001s110.833 -65.167 151.5 -109.5s70.334 -90.166 89.001 -137.499l16 4l66 -240c0 -76 -8.5 -142.833 -25.5 -200.5s-41.167 -109.5 -72.5 -155.5c-44.667 -66.667 -103.834 -117 -177.501 -151s-155.167 -51 -244.5 -51
c-103.333 0 -193.833 23.667 -271.5 71s-138.167 112.5 -181.5 195.5s-65 178.167 -65 285.5c0 104 22.5 196 67.5 276s106 142.667 183 188s163.5 68 259.5 68zM630 1024c-87.333 0 -166.331 -20.8359 -236.998 -62.5029s-126.834 -99.167 -168.501 -172.5
s-62.5 -157.666 -62.5 -252.999c0 -98.667 19.667 -186 59 -262s94 -135.667 164 -179s151 -65 243 -65c93.333 0 175.666 20.333 246.999 61s127 98.834 167 174.501s60 166.5 60 272.5c0 100.667 -22.167 187.334 -66.5 260.001s-102.5 128.5 -174.5 167.5
s-149 58.5 -231 58.5zM496.002 1602c135.333 -74 251.832 -166.503 349.499 -277.503s172.834 -233.5 225.501 -367.5s79 -272.333 79 -415l-48 -4c0 142.667 -26.5 279.334 -79.5 410.001s-127 248.834 -222 354.501s-205.833 192.834 -332.5 261.501zM344.001 1225.99
l-20 38l634 320l20 -40z" />
    <glyph glyph-name="ntilde" unicode="&#xf1;" horiz-adv-x="1492" 
d="M394 42h230v-42h-524v42h246v968h-246v42h294v-1010zM1164 42l0.000976562 641.998c0 107.333 -23.667 191.5 -71 252.5s-125 91.5 -233 91.5c-85.333 0 -163.333 -20.167 -234 -60.5s-127 -99.666 -169 -177.999s-63 -174.166 -63 -287.499l-14 212h20
c16 68 44.167 128.833 84.5 182.5s92.333 96 156 127s138.167 46.5 223.5 46.5c125.333 0 214.666 -33.833 267.999 -101.5s80 -161.167 80 -280.5v-646h232v-42h-508v42h228zM1065 1506l37.999 -5.00195c-10.667 -72.667 -31.334 -125.667 -62.001 -159
s-70.334 -50 -119.001 -50c-34.667 0 -63.667 8.33301 -87 25s-47 41.334 -71 74.001c-22.667 31.333 -43.5 54.166 -62.5 68.499s-42.167 21.5 -69.5 21.5c-37.333 0 -68.166 -13.667 -92.499 -41s-41.5 -71.666 -51.5 -132.999l-39 5
c10.667 72.667 31.334 125.834 62.001 159.501s70.334 50.5 119.001 50.5c35.333 0 64.5 -8.33301 87.5 -25s46.833 -41.667 71.5 -75c22.667 -30.667 43.5 -53.167 62.5 -67.5s42.167 -21.5 69.5 -21.5c37.333 0 68 13.667 92 41s41.333 71.333 52 132z" />
    <glyph glyph-name="ograve" unicode="&#xf2;" horiz-adv-x="1304" 
d="M652 -16c-107.333 0 -201.5 23 -282.5 69s-144.167 109.5 -189.5 190.5s-68 174.5 -68 280.5s22.667 200.167 68 282.5s108.5 146.833 189.5 193.5s175.167 70 282.5 70s201.5 -23.333 282.5 -70s144.167 -111.167 189.5 -193.5s68 -176.5 68 -282.5
s-22.667 -199.5 -68 -280.5s-108.5 -144.5 -189.5 -190.5s-175.167 -69 -282.5 -69zM652 28c97.333 0 182.833 21 256.5 63s131 100.333 172 175s61.5 160.667 61.5 258s-20.5 183.666 -61.5 258.999s-98.333 134.333 -172 177s-159.167 64 -256.5 64
s-182.833 -21.333 -256.5 -64s-131 -101.667 -172 -177s-61.5 -161.666 -61.5 -258.999s20.5 -183.333 61.5 -258s98.333 -133 172 -175s159.167 -63 256.5 -63zM484 1520l-30 -38l306 -224l24 32z" />
    <glyph glyph-name="oacute" unicode="&#xf3;" horiz-adv-x="1304" 
d="M652 -16c-107.333 0 -201.5 23 -282.5 69s-144.167 109.5 -189.5 190.5s-68 174.5 -68 280.5s22.667 200.167 68 282.5s108.5 146.833 189.5 193.5s175.167 70 282.5 70s201.5 -23.333 282.5 -70s144.167 -111.167 189.5 -193.5s68 -176.5 68 -282.5
s-22.667 -199.5 -68 -280.5s-108.5 -144.5 -189.5 -190.5s-175.167 -69 -282.5 -69zM652 28c97.333 0 182.833 21 256.5 63s131 100.333 172 175s61.5 160.667 61.5 258s-20.5 183.666 -61.5 258.999s-98.333 134.333 -172 177s-159.167 64 -256.5 64
s-182.833 -21.333 -256.5 -64s-131 -101.667 -172 -177s-61.5 -161.666 -61.5 -258.999s20.5 -183.333 61.5 -258s98.333 -133 172 -175s159.167 -63 256.5 -63zM820 1520l30 -38l-306 -224l-24 32z" />
    <glyph glyph-name="ocircumflex" unicode="&#xf4;" horiz-adv-x="1304" 
d="M652 -16c-107.333 0 -201.5 23 -282.5 69s-144.167 109.5 -189.5 190.5s-68 174.5 -68 280.5s22.667 200.167 68 282.5s108.5 146.833 189.5 193.5s175.167 70 282.5 70s201.5 -23.333 282.5 -70s144.167 -111.167 189.5 -193.5s68 -176.5 68 -282.5
s-22.667 -199.5 -68 -280.5s-108.5 -144.5 -189.5 -190.5s-175.167 -69 -282.5 -69zM652 28c97.333 0 182.833 21 256.5 63s131 100.333 172 175s61.5 160.667 61.5 258s-20.5 183.666 -61.5 258.999s-98.333 134.333 -172 177s-159.167 64 -256.5 64
s-182.833 -21.333 -256.5 -64s-131 -101.667 -172 -177s-61.5 -161.666 -61.5 -258.999s20.5 -183.333 61.5 -258s98.333 -133 172 -175s159.167 -63 256.5 -63zM668 1496l276 -200l-22 -30l-270 186l-270 -186l-22 30l276 200h32z" />
    <glyph glyph-name="otilde" unicode="&#xf5;" horiz-adv-x="1304" 
d="M652 -16c-107.333 0 -201.5 23 -282.5 69s-144.167 109.5 -189.5 190.5s-68 174.5 -68 280.5s22.667 200.167 68 282.5s108.5 146.833 189.5 193.5s175.167 70 282.5 70s201.5 -23.333 282.5 -70s144.167 -111.167 189.5 -193.5s68 -176.5 68 -282.5
s-22.667 -199.5 -68 -280.5s-108.5 -144.5 -189.5 -190.5s-175.167 -69 -282.5 -69zM652 28c97.333 0 182.833 21 256.5 63s131 100.333 172 175s61.5 160.667 61.5 258s-20.5 183.666 -61.5 258.999s-98.333 134.333 -172 177s-159.167 64 -256.5 64
s-182.833 -21.333 -256.5 -64s-131 -101.667 -172 -177s-61.5 -161.666 -61.5 -258.999s20.5 -183.333 61.5 -258s98.333 -133 172 -175s159.167 -63 256.5 -63zM939 1506l37.999 -5.00195c-10.667 -72.667 -31.334 -125.667 -62.001 -159s-70.334 -50 -119.001 -50
c-34.667 0 -63.667 8.33301 -87 25s-47 41.334 -71 74.001c-22.667 31.333 -43.5 54.166 -62.5 68.499s-42.167 21.5 -69.5 21.5c-37.333 0 -68.166 -13.667 -92.499 -41s-41.5 -71.666 -51.5 -132.999l-39 5c10.667 72.667 31.334 125.834 62.001 159.501
s70.334 50.5 119.001 50.5c35.333 0 64.5 -8.33301 87.5 -25s46.833 -41.667 71.5 -75c22.667 -30.667 43.5 -53.167 62.5 -67.5s42.167 -21.5 69.5 -21.5c37.333 0 68 13.667 92 41s41.333 71.333 52 132z" />
    <glyph glyph-name="odieresis" unicode="&#xf6;" horiz-adv-x="1304" 
d="M652 -16c-107.333 0 -201.5 23 -282.5 69s-144.167 109.5 -189.5 190.5s-68 174.5 -68 280.5s22.667 200.167 68 282.5s108.5 146.833 189.5 193.5s175.167 70 282.5 70s201.5 -23.333 282.5 -70s144.167 -111.167 189.5 -193.5s68 -176.5 68 -282.5
s-22.667 -199.5 -68 -280.5s-108.5 -144.5 -189.5 -190.5s-175.167 -69 -282.5 -69zM652 28c97.333 0 182.833 21 256.5 63s131 100.333 172 175s61.5 160.667 61.5 258s-20.5 183.666 -61.5 258.999s-98.333 134.333 -172 177s-159.167 64 -256.5 64
s-182.833 -21.333 -256.5 -64s-131 -101.667 -172 -177s-61.5 -161.666 -61.5 -258.999s20.5 -183.333 61.5 -258s98.333 -133 172 -175s159.167 -63 256.5 -63zM470 1422h80v-80h-80v80zM754 1422h80v-80h-80v80z" />
    <glyph glyph-name="divide" unicode="&#xf7;" horiz-adv-x="1160" 
d="M1080 742v-42h-1000v42h1000zM534 498h100v-98h-100v98zM534 1058h100v-98h-100v98z" />
    <glyph glyph-name="oslash" unicode="&#xf8;" horiz-adv-x="1304" 
d="M1138 1060l30 -30l-1002 -1036l-28 30zM652 -16c-107.333 0 -201.5 23 -282.5 69s-144.167 109.5 -189.5 190.5s-68 174.5 -68 280.5s22.667 200.167 68 282.5s108.5 146.833 189.5 193.5s175.167 70 282.5 70s201.5 -23.333 282.5 -70s144.167 -111.167 189.5 -193.5
s68 -176.5 68 -282.5s-22.667 -199.5 -68 -280.5s-108.5 -144.5 -189.5 -190.5s-175.167 -69 -282.5 -69zM652 28c97.333 0 182.833 21 256.5 63s131 100.333 172 175s61.5 160.667 61.5 258s-20.5 183.666 -61.5 258.999s-98.333 134.333 -172 177s-159.167 64 -256.5 64
s-182.833 -21.333 -256.5 -64s-131 -101.667 -172 -177s-61.5 -161.666 -61.5 -258.999s20.5 -183.333 61.5 -258s98.333 -133 172 -175s159.167 -63 256.5 -63z" />
    <glyph glyph-name="ugrave" unicode="&#xf9;" horiz-adv-x="1410" 
d="M1060 1010h-232v42h280v-1010h244v-42h-292v1010zM324 1052v-674c0 -110 23.333 -196.167 70 -258.5s124 -93.5 232 -93.5c84.667 0 159.667 20.833 225 62.5s116.5 101.5 153.5 179.5s55.5 172 55.5 282l18 -212h-22c-22 -114.667 -72.5 -202.667 -151.5 -264
s-174.5 -92 -286.5 -92c-122 0 -209.5 34.5 -262.5 103.5s-79.5 163.833 -79.5 284.5v640h-228v42h276zM476 1520l-30 -38l306 -224l24 32z" />
    <glyph glyph-name="uacute" unicode="&#xfa;" horiz-adv-x="1410" 
d="M1060 1010h-232v42h280v-1010h244v-42h-292v1010zM324 1052v-674c0 -110 23.333 -196.167 70 -258.5s124 -93.5 232 -93.5c84.667 0 159.667 20.833 225 62.5s116.5 101.5 153.5 179.5s55.5 172 55.5 282l18 -212h-22c-22 -114.667 -72.5 -202.667 -151.5 -264
s-174.5 -92 -286.5 -92c-122 0 -209.5 34.5 -262.5 103.5s-79.5 163.833 -79.5 284.5v640h-228v42h276zM812 1520l30 -38l-306 -224l-24 32z" />
    <glyph glyph-name="ucircumflex" unicode="&#xfb;" horiz-adv-x="1410" 
d="M1060 1010h-232v42h280v-1010h244v-42h-292v1010zM324 1052v-674c0 -110 23.333 -196.167 70 -258.5s124 -93.5 232 -93.5c84.667 0 159.667 20.833 225 62.5s116.5 101.5 153.5 179.5s55.5 172 55.5 282l18 -212h-22c-22 -114.667 -72.5 -202.667 -151.5 -264
s-174.5 -92 -286.5 -92c-122 0 -209.5 34.5 -262.5 103.5s-79.5 163.833 -79.5 284.5v640h-228v42h276zM660 1496l276 -200l-22 -30l-270 186l-270 -186l-22 30l276 200h32z" />
    <glyph glyph-name="udieresis" unicode="&#xfc;" horiz-adv-x="1410" 
d="M1060 1010h-232v42h280v-1010h244v-42h-292v1010zM324 1052v-674c0 -110 23.333 -196.167 70 -258.5s124 -93.5 232 -93.5c84.667 0 159.667 20.833 225 62.5s116.5 101.5 153.5 179.5s55.5 172 55.5 282l18 -212h-22c-22 -114.667 -72.5 -202.667 -151.5 -264
s-174.5 -92 -286.5 -92c-122 0 -209.5 34.5 -262.5 103.5s-79.5 163.833 -79.5 284.5v640h-228v42h276zM462 1422h80v-80h-80v80zM746 1422h80v-80h-80v80z" />
    <glyph glyph-name="yacute" unicode="&#xfd;" horiz-adv-x="1302" 
d="M776 1052l496 0.000976562v-42l-176 -2l-484 -1176c-32.667 -80.667 -81.167 -142.834 -145.5 -186.501s-146.5 -65.5 -246.5 -65.5h-94v44h94c88 0 160.5 18.333 217.5 55s100.5 91 130.5 163l78 184l-6 -44l-426 1028h-184v42h504v-42h-266l406 -998l-44 44h46l-26 -28
l398 982h-272v42zM820 1520l30 -38l-306 -224l-24 32z" />
    <glyph glyph-name="thorn" unicode="&#xfe;" horiz-adv-x="1419" 
d="M12 -420v42h246v1916h-246v42h294v-972l-4 -36v-92l4 -30v-828h244v-42h-538zM784 -16c-97.333 0 -183.996 22.1709 -259.996 66.5039s-136.167 105.666 -180.5 183.999s-68.833 168.833 -73.5 271.5l32 20c0 -96 20.167 -181.5 60.5 -256.5s96.5 -134 168.5 -177
s155 -64.5 249 -64.5s176.833 21.5 248.5 64.5s127.667 102 168 177s60.5 160.5 60.5 256.5c0 96.667 -20.333 182.5 -61 257.5s-96.834 134 -168.501 177s-154.167 64.5 -247.5 64.5s-176 -21.5 -248 -64.5s-128.333 -102 -169 -177s-61 -160.833 -61 -257.5l-6 180h12
c10.667 53.333 35.834 108 75.501 164s93.5 103.167 161.5 141.5s149.333 57.5 244 57.5c75.333 0 144.666 -13.333 207.999 -40s118.166 -64.334 164.499 -113.001s82.166 -106.167 107.499 -172.5s38 -138.833 38 -217.5c0 -104.667 -22.167 -197.834 -66.5 -279.501
s-105.833 -145.834 -184.5 -192.501s-169.334 -70 -272.001 -70z" />
    <glyph glyph-name="ydieresis" unicode="&#xff;" horiz-adv-x="1302" 
d="M776 1052l496 0.000976562v-42l-176 -2l-484 -1176c-32.667 -80.667 -81.167 -142.834 -145.5 -186.501s-146.5 -65.5 -246.5 -65.5h-94v44h94c88 0 160.5 18.333 217.5 55s100.5 91 130.5 163l78 184l-6 -44l-426 1028h-184v42h504v-42h-266l406 -998l-44 44h46l-26 -28
l398 982h-272v42zM470 1422h80v-80h-80v80zM754 1422h80v-80h-80v80z" />
    <glyph glyph-name="Amacron" unicode="&#x100;" horiz-adv-x="1714" 
d="M1270 574v-46h-824v46h824zM1508 46h170v-46h-642v46h420l-608 1424l36 -26h-54l34 26l-608 -1424h420v-46h-640v46h170l622 1458h58zM1132 1812v-42h-546v42h546z" />
    <glyph glyph-name="amacron" unicode="&#x101;" horiz-adv-x="1228" 
d="M974 0c-10 0 -17.502 3 -22.502 9s-7.5 14.333 -7.5 25v428l4 20l-2 116l-2 42v86c0 74 -14.667 132.667 -44 176s-70.333 74.5 -123 93.5s-114.334 28.5 -185.001 28.5c-112 0 -196 -20.833 -252 -62.5s-96 -105.5 -120 -191.5l-46 12
c16.667 64 41.834 117.167 75.501 159.5s78.334 74 134.001 95s125.167 31.5 208.5 31.5c82.667 0 153.834 -11 213.501 -33s105.667 -57.833 138 -107.5s48.5 -116.167 48.5 -199.5v-686h170v-42h-188zM451.998 -14c-106 0 -186.5 22.168 -241.5 66.501
s-82.5 111.5 -82.5 201.5c0 87.333 26.333 152.833 79 196.5s131 76.834 235 99.501l518 116v-40l-510 -116c-90 -20 -157.833 -48.833 -203.5 -86.5s-68.5 -93.5 -68.5 -167.5c0 -76.667 23.667 -133.5 71 -170.5s117 -55.5 209 -55.5c90 0 172 18.667 246 56
s132.833 97.666 176.5 180.999s65.5 193.666 65.5 330.999l12 -238h-18c-20.667 -110 -72.667 -199.833 -156 -269.5s-194 -104.5 -332 -104.5zM865.998 1400v-42h-546v42h546z" />
    <glyph glyph-name="Abreve" unicode="&#x102;" horiz-adv-x="1714" 
d="M1270 574v-46h-824v46h824zM1508 46h170v-46h-642v46h420l-608 1424l36 -26h-54l34 26l-608 -1424h420v-46h-640v46h170l622 1458h58zM1146 1926c0 -52.667 -12.167 -99 -36.5 -139s-58.333 -71.167 -102 -93.5s-94.167 -33.5 -151.5 -33.5s-107.833 11.167 -151.5 33.5
s-77.667 53.5 -102 93.5s-36.5 86.333 -36.5 139h44c0 -66.667 22.833 -121 68.5 -163s104.834 -63 177.501 -63c73.333 0 132.666 21 177.999 63s68 96.333 68 163h44z" />
    <glyph glyph-name="abreve" unicode="&#x103;" horiz-adv-x="1228" 
d="M974 0c-10 0 -17.502 3 -22.502 9s-7.5 14.333 -7.5 25v428l4 20l-2 116l-2 42v86c0 74 -14.667 132.667 -44 176s-70.333 74.5 -123 93.5s-114.334 28.5 -185.001 28.5c-112 0 -196 -20.833 -252 -62.5s-96 -105.5 -120 -191.5l-46 12
c16.667 64 41.834 117.167 75.501 159.5s78.334 74 134.001 95s125.167 31.5 208.5 31.5c82.667 0 153.834 -11 213.501 -33s105.667 -57.833 138 -107.5s48.5 -116.167 48.5 -199.5v-686h170v-42h-188zM451.998 -14c-106 0 -186.5 22.168 -241.5 66.501
s-82.5 111.5 -82.5 201.5c0 87.333 26.333 152.833 79 196.5s131 76.834 235 99.501l518 116v-40l-510 -116c-90 -20 -157.833 -48.833 -203.5 -86.5s-68.5 -93.5 -68.5 -167.5c0 -76.667 23.667 -133.5 71 -170.5s117 -55.5 209 -55.5c90 0 172 18.667 246 56
s132.833 97.666 176.5 180.999s65.5 193.666 65.5 330.999l12 -238h-18c-20.667 -110 -72.667 -199.833 -156 -269.5s-194 -104.5 -332 -104.5zM879.998 1514c0 -52.667 -12.167 -99 -36.5 -139s-58.333 -71.167 -102 -93.5s-94.167 -33.5 -151.5 -33.5
s-107.833 11.167 -151.5 33.5s-77.667 53.5 -102 93.5s-36.5 86.333 -36.5 139h44c0 -66.667 22.833 -121 68.5 -163s104.834 -63 177.501 -63c73.333 0 132.666 21 177.999 63s68 96.333 68 163h44z" />
    <glyph glyph-name="Aogonek" unicode="&#x104;" horiz-adv-x="1714" 
d="M1270 574v-46h-824v46h824zM1508 46h170v-46h-642v46h420l-608 1424l36 -26h-54l34 26l-608 -1424h420v-46h-640v46h170l622 1458h58zM1668 -376l12.002 -40.001c-16.667 -4.66699 -35 -9.16699 -55 -13.5s-41.667 -6.5 -65 -6.5c-42.667 0 -79.834 7.66699 -111.501 23
s-56.334 37.333 -74.001 66s-26.5 63 -26.5 103c0 61.333 21.5 110.333 64.5 147s104.833 68.334 185.5 95.001v20l80 -18c-102.667 -34 -175.667 -68.5 -219 -103.5s-65 -79.167 -65 -132.5c0 -48 15.167 -86 45.5 -114s72.5 -42 126.5 -42c19.333 0 37.5 1.66699 54.5 5
s32.833 7 47.5 11z" />
    <glyph glyph-name="aogonek" unicode="&#x105;" horiz-adv-x="1228" 
d="M974 0c-10 0 -17.502 3 -22.502 9s-7.5 14.333 -7.5 25v428l4 20l-2 116l-2 42v86c0 74 -14.667 132.667 -44 176s-70.333 74.5 -123 93.5s-114.334 28.5 -185.001 28.5c-112 0 -196 -20.833 -252 -62.5s-96 -105.5 -120 -191.5l-46 12
c16.667 64 41.834 117.167 75.501 159.5s78.334 74 134.001 95s125.167 31.5 208.5 31.5c82.667 0 153.834 -11 213.501 -33s105.667 -57.833 138 -107.5s48.5 -116.167 48.5 -199.5v-686h170v-42h-188zM451.998 -14c-106 0 -186.5 22.168 -241.5 66.501
s-82.5 111.5 -82.5 201.5c0 87.333 26.333 152.833 79 196.5s131 76.834 235 99.501l518 116v-40l-510 -116c-90 -20 -157.833 -48.833 -203.5 -86.5s-68.5 -93.5 -68.5 -167.5c0 -76.667 23.667 -133.5 71 -170.5s117 -55.5 209 -55.5c90 0 172 18.667 246 56
s132.833 97.666 176.5 180.999s65.5 193.666 65.5 330.999l12 -238h-18c-20.667 -110 -72.667 -199.833 -156 -269.5s-194 -104.5 -332 -104.5zM1150 -375.999l12.002 -40.001c-16.667 -4.66699 -35 -9.16699 -55 -13.5s-41.667 -6.5 -65 -6.5
c-42.667 0 -79.834 7.66699 -111.501 23s-56.334 37.333 -74.001 66s-26.5 63 -26.5 103c0 61.333 21.5 110.333 64.5 147s104.833 68.334 185.5 95.001v20l80 -18c-102.667 -34 -175.667 -68.5 -219 -103.5s-65 -79.167 -65 -132.5c0 -48 15.167 -86 45.5 -114
s72.5 -42 126.5 -42c19.333 0 37.5 1.66699 54.5 5s32.833 7 47.5 11z" />
    <glyph glyph-name="Cacute" unicode="&#x106;" horiz-adv-x="1650" 
d="M846 -16c-108 0 -207.332 18.834 -297.999 56.501s-169.334 90.834 -236.001 159.501s-118.334 150.167 -155.001 244.5s-55 198.166 -55 311.499c0 112 17.5 214.667 52.5 308s85.333 174 151 242s144.5 120.667 236.5 158s194.667 56 308 56
c119.333 0 223.833 -19.833 313.5 -59.5s163.5 -94.834 221.5 -165.501s99 -152.334 123 -245.001h20l-16 -136c-34 182 -109.333 320.167 -226 414.5s-262 141.5 -436 141.5c-141.333 0 -264.166 -30.167 -368.499 -90.5s-185 -144.166 -242 -251.499
s-85.5 -231.333 -85.5 -372c0 -106.667 17.167 -204.167 51.5 -292.5s82.5 -164.666 144.5 -228.999s135.167 -113.833 219.5 -148.5s176.5 -52 276.5 -52c115.333 0 219.833 23.167 313.5 69.5s171.5 111.666 233.5 195.999s103.667 183.166 125 296.499l52 -10
c-24 -121.333 -69.333 -227.166 -136 -317.499s-150.167 -160.333 -250.5 -210s-212.833 -74.5 -337.5 -74.5zM1512 914.001v590h48v-590h-48zM1026 1932l30 -38l-306 -224l-24 32z" />
    <glyph glyph-name="cacute" unicode="&#x107;" horiz-adv-x="1218" 
d="M638 -16c-104 0 -195.332 22.999 -273.999 68.999s-140 109.5 -184 190.5s-66 174.5 -66 280.5c0 80 12.333 153.333 37 220s59.834 124.334 105.501 173.001s100.167 86.334 163.5 113.001s133.333 40 210 40c82.667 0 154.5 -14.667 215.5 -44
s110.333 -68.333 148 -117s62.5 -102.334 74.5 -161.001h16l-12 -122c-10 80 -34.667 150 -74 210s-90.333 106.667 -153 140s-134.334 50 -215.001 50c-92.667 0 -174 -21.5 -244 -64.5s-124.5 -102.167 -163.5 -177.5s-58.5 -162 -58.5 -260
c0 -97.333 19.833 -183.333 59.5 -258s95 -133 166 -175s153.833 -63 248.5 -63c101.333 0 189.666 24.167 264.999 72.5s133 113.5 173 195.5l42 -20c-44.667 -88.667 -107 -159.5 -187 -212.5s-177.667 -79.5 -293 -79.5zM1072 625.999v426h48v-426h-48zM798.001 1520
l30 -38l-306 -224l-24 32z" />
    <glyph glyph-name="Ccircumflex" unicode="&#x108;" horiz-adv-x="1650" 
d="M846 -16c-108 0 -207.332 18.834 -297.999 56.501s-169.334 90.834 -236.001 159.501s-118.334 150.167 -155.001 244.5s-55 198.166 -55 311.499c0 112 17.5 214.667 52.5 308s85.333 174 151 242s144.5 120.667 236.5 158s194.667 56 308 56
c119.333 0 223.833 -19.833 313.5 -59.5s163.5 -94.834 221.5 -165.501s99 -152.334 123 -245.001h20l-16 -136c-34 182 -109.333 320.167 -226 414.5s-262 141.5 -436 141.5c-141.333 0 -264.166 -30.167 -368.499 -90.5s-185 -144.166 -242 -251.499
s-85.5 -231.333 -85.5 -372c0 -106.667 17.167 -204.167 51.5 -292.5s82.5 -164.666 144.5 -228.999s135.167 -113.833 219.5 -148.5s176.5 -52 276.5 -52c115.333 0 219.833 23.167 313.5 69.5s171.5 111.666 233.5 195.999s103.667 183.166 125 296.499l52 -10
c-24 -121.333 -69.333 -227.166 -136 -317.499s-150.167 -160.333 -250.5 -210s-212.833 -74.5 -337.5 -74.5zM1512 914.001v590h48v-590h-48zM874.001 1908l276 -200l-22 -30l-270 186l-270 -186l-22 30l276 200h32z" />
    <glyph glyph-name="ccircumflex" unicode="&#x109;" horiz-adv-x="1218" 
d="M638 -16c-104 0 -195.332 22.999 -273.999 68.999s-140 109.5 -184 190.5s-66 174.5 -66 280.5c0 80 12.333 153.333 37 220s59.834 124.334 105.501 173.001s100.167 86.334 163.5 113.001s133.333 40 210 40c82.667 0 154.5 -14.667 215.5 -44
s110.333 -68.333 148 -117s62.5 -102.334 74.5 -161.001h16l-12 -122c-10 80 -34.667 150 -74 210s-90.333 106.667 -153 140s-134.334 50 -215.001 50c-92.667 0 -174 -21.5 -244 -64.5s-124.5 -102.167 -163.5 -177.5s-58.5 -162 -58.5 -260
c0 -97.333 19.833 -183.333 59.5 -258s95 -133 166 -175s153.833 -63 248.5 -63c101.333 0 189.666 24.167 264.999 72.5s133 113.5 173 195.5l42 -20c-44.667 -88.667 -107 -159.5 -187 -212.5s-177.667 -79.5 -293 -79.5zM1072 625.999v426h48v-426h-48zM646.001 1496
l276 -200l-22 -30l-270 186l-270 -186l-22 30l276 200h32z" />
    <glyph glyph-name="Cdotaccent" unicode="&#x10a;" horiz-adv-x="1650" 
d="M846 -16c-108 0 -207.332 18.834 -297.999 56.501s-169.334 90.834 -236.001 159.501s-118.334 150.167 -155.001 244.5s-55 198.166 -55 311.499c0 112 17.5 214.667 52.5 308s85.333 174 151 242s144.5 120.667 236.5 158s194.667 56 308 56
c119.333 0 223.833 -19.833 313.5 -59.5s163.5 -94.834 221.5 -165.501s99 -152.334 123 -245.001h20l-16 -136c-34 182 -109.333 320.167 -226 414.5s-262 141.5 -436 141.5c-141.333 0 -264.166 -30.167 -368.499 -90.5s-185 -144.166 -242 -251.499
s-85.5 -231.333 -85.5 -372c0 -106.667 17.167 -204.167 51.5 -292.5s82.5 -164.666 144.5 -228.999s135.167 -113.833 219.5 -148.5s176.5 -52 276.5 -52c115.333 0 219.833 23.167 313.5 69.5s171.5 111.666 233.5 195.999s103.667 183.166 125 296.499l52 -10
c-24 -121.333 -69.333 -227.166 -136 -317.499s-150.167 -160.333 -250.5 -210s-212.833 -74.5 -337.5 -74.5zM1512 914.001v590h48v-590h-48zM814.001 1842h86v-88h-86v88z" />
    <glyph glyph-name="cdotaccent" unicode="&#x10b;" horiz-adv-x="1218" 
d="M638 -16c-104 0 -195.332 22.999 -273.999 68.999s-140 109.5 -184 190.5s-66 174.5 -66 280.5c0 80 12.333 153.333 37 220s59.834 124.334 105.501 173.001s100.167 86.334 163.5 113.001s133.333 40 210 40c82.667 0 154.5 -14.667 215.5 -44
s110.333 -68.333 148 -117s62.5 -102.334 74.5 -161.001h16l-12 -122c-10 80 -34.667 150 -74 210s-90.333 106.667 -153 140s-134.334 50 -215.001 50c-92.667 0 -174 -21.5 -244 -64.5s-124.5 -102.167 -163.5 -177.5s-58.5 -162 -58.5 -260
c0 -97.333 19.833 -183.333 59.5 -258s95 -133 166 -175s153.833 -63 248.5 -63c101.333 0 189.666 24.167 264.999 72.5s133 113.5 173 195.5l42 -20c-44.667 -88.667 -107 -159.5 -187 -212.5s-177.667 -79.5 -293 -79.5zM1072 625.999v426h48v-426h-48zM586.001 1430h86
v-88h-86v88z" />
    <glyph glyph-name="Ccaron" unicode="&#x10c;" horiz-adv-x="1650" 
d="M846 -16c-108 0 -207.332 18.834 -297.999 56.501s-169.334 90.834 -236.001 159.501s-118.334 150.167 -155.001 244.5s-55 198.166 -55 311.499c0 112 17.5 214.667 52.5 308s85.333 174 151 242s144.5 120.667 236.5 158s194.667 56 308 56
c119.333 0 223.833 -19.833 313.5 -59.5s163.5 -94.834 221.5 -165.501s99 -152.334 123 -245.001h20l-16 -136c-34 182 -109.333 320.167 -226 414.5s-262 141.5 -436 141.5c-141.333 0 -264.166 -30.167 -368.499 -90.5s-185 -144.166 -242 -251.499
s-85.5 -231.333 -85.5 -372c0 -106.667 17.167 -204.167 51.5 -292.5s82.5 -164.666 144.5 -228.999s135.167 -113.833 219.5 -148.5s176.5 -52 276.5 -52c115.333 0 219.833 23.167 313.5 69.5s171.5 111.666 233.5 195.999s103.667 183.166 125 296.499l52 -10
c-24 -121.333 -69.333 -227.166 -136 -317.499s-150.167 -160.333 -250.5 -210s-212.833 -74.5 -337.5 -74.5zM1512 914.001v590h48v-590h-48zM874.001 1685l276 200l-22 30l-270 -186l-270 186l-22 -30l276 -200h32z" />
    <glyph glyph-name="ccaron" unicode="&#x10d;" horiz-adv-x="1218" 
d="M638 -16c-104 0 -195.332 22.999 -273.999 68.999s-140 109.5 -184 190.5s-66 174.5 -66 280.5c0 80 12.333 153.333 37 220s59.834 124.334 105.501 173.001s100.167 86.334 163.5 113.001s133.333 40 210 40c82.667 0 154.5 -14.667 215.5 -44
s110.333 -68.333 148 -117s62.5 -102.334 74.5 -161.001h16l-12 -122c-10 80 -34.667 150 -74 210s-90.333 106.667 -153 140s-134.334 50 -215.001 50c-92.667 0 -174 -21.5 -244 -64.5s-124.5 -102.167 -163.5 -177.5s-58.5 -162 -58.5 -260
c0 -97.333 19.833 -183.333 59.5 -258s95 -133 166 -175s153.833 -63 248.5 -63c101.333 0 189.666 24.167 264.999 72.5s133 113.5 173 195.5l42 -20c-44.667 -88.667 -107 -159.5 -187 -212.5s-177.667 -79.5 -293 -79.5zM1072 625.999v426h48v-426h-48zM646.001 1273
l276 200l-22 30l-270 -186l-270 186l-22 -30l276 -200h32z" />
    <glyph glyph-name="Dcaron" unicode="&#x10e;" horiz-adv-x="1672" 
d="M604 0v46.001h174c150.667 0 281.334 30.167 392.001 90.5s196.334 143.833 257.001 250.5s91 229.667 91 369c0 138 -30.333 259.833 -91 365.5s-146.334 188.167 -257.001 247.5s-241.334 89 -392.001 89h-172v46h172c160.667 0 300.334 -31.833 419.001 -95.5
s210.5 -151.667 275.5 -264s97.5 -241.833 97.5 -388.5c0 -148.667 -32.5 -279.834 -97.5 -393.501s-156.833 -202.5 -275.5 -266.5s-258.334 -96 -419.001 -96h-174zM54 0.000976562v46h282v1412h-282v46h580v-46h-250v-1412h250v-46h-580zM812 1685l276 200l-22 30
l-270 -186l-270 186l-22 -30l276 -200h32z" />
    <glyph glyph-name="dcaron" unicode="&#x10f;" horiz-adv-x="1447" 
d="M1115 0v424l4 44v104l-4 72v894h-324v42h372v-1538h228v-42h-276zM637 1068c98 0 184.827 -22.1689 260.494 -66.502s135.834 -105.666 180.501 -183.999s69 -168.833 73 -271.5l-32 -20c0 96.667 -20.167 182.334 -60.5 257.001s-96.5 133.5 -168.5 176.5
s-155 64.5 -249 64.5c-93.333 0 -176 -21.5 -248 -64.5s-128.167 -101.833 -168.5 -176.5s-60.5 -160.334 -60.5 -257.001s20.333 -182.5 61 -257.5s97 -134 169 -177s154.333 -64.5 247 -64.5c94 0 176.833 21.5 248.5 64.5s127.834 102 168.501 177s61 160.833 61 257.5
l6 -180h-12c-10 -52.667 -35 -107.167 -75 -163.5s-93.833 -103.666 -161.5 -141.999s-149.167 -57.5 -244.5 -57.5c-75.333 0 -144.666 13.333 -207.999 40s-118.166 64.334 -164.499 113.001s-82.166 106.167 -107.499 172.5s-38 138.833 -38 217.5
c0 105.333 22.167 198.666 66.5 279.999s105.833 145.333 184.5 192s169.334 70 272.001 70zM1399.99 1580h48l-10 -430h-38v430z" />
    <glyph glyph-name="Dcroat" unicode="&#x110;" horiz-adv-x="1672" 
d="M888 782v-46h-766v46h766zM604 0v46.001h174c150.667 0 281.334 30.167 392.001 90.5s196.334 143.833 257.001 250.5s91 229.667 91 369c0 138 -30.333 259.833 -91 365.5s-146.334 188.167 -257.001 247.5s-241.334 89 -392.001 89h-172v46h172
c160.667 0 300.334 -31.833 419.001 -95.5s210.5 -151.667 275.5 -264s97.5 -241.833 97.5 -388.5c0 -148.667 -32.5 -279.834 -97.5 -393.501s-156.833 -202.5 -275.5 -266.5s-258.334 -96 -419.001 -96h-174zM54 0.000976562v46h282v1412h-282v46h580v-46h-250v-1412h250
v-46h-580z" />
    <glyph glyph-name="dcroat" unicode="&#x111;" horiz-adv-x="1447" 
d="M656 1272v42h730v-42h-730zM1115 0v424l4 44v104l-4 72v894h-324v42h372v-1538h228v-42h-276zM637 1068c98 0 184.827 -22.1689 260.494 -66.502s135.834 -105.666 180.501 -183.999s69 -168.833 73 -271.5l-32 -20c0 96.667 -20.167 182.334 -60.5 257.001
s-96.5 133.5 -168.5 176.5s-155 64.5 -249 64.5c-93.333 0 -176 -21.5 -248 -64.5s-128.167 -101.833 -168.5 -176.5s-60.5 -160.334 -60.5 -257.001s20.333 -182.5 61 -257.5s97 -134 169 -177s154.333 -64.5 247 -64.5c94 0 176.833 21.5 248.5 64.5
s127.834 102 168.501 177s61 160.833 61 257.5l6 -180h-12c-10 -52.667 -35 -107.167 -75 -163.5s-93.833 -103.666 -161.5 -141.999s-149.167 -57.5 -244.5 -57.5c-75.333 0 -144.666 13.333 -207.999 40s-118.166 64.334 -164.499 113.001s-82.166 106.167 -107.499 172.5
s-38 138.833 -38 217.5c0 105.333 22.167 198.666 66.5 279.999s105.833 145.333 184.5 192s169.334 70 272.001 70z" />
    <glyph glyph-name="Emacron" unicode="&#x112;" horiz-adv-x="1558" 
d="M1044 782v-46h-682v46h682zM1394 390h48v-390h-1388v46h282v1412h-282v46h1370v-390h-48v344h-992v-1412h1010v344zM1096 1812v-42h-546v42h546z" />
    <glyph glyph-name="emacron" unicode="&#x113;" horiz-adv-x="1240" 
d="M638 -16c-104 0 -195.168 22.999 -273.501 68.999s-139.333 109.5 -183 190.5s-65.5 174.5 -65.5 280.5c0 106.667 21.667 201 65 283s103.833 146.333 181.5 193s168.167 70 271.5 70c101.333 0 189.833 -22.667 265.5 -68s134.334 -108 176.001 -188
s62.5 -172 62.5 -276v-13v-11h-48v13.5v14.5c0 94.667 -18.833 178.334 -56.5 251.001s-90.667 129.667 -159 171s-148.5 62 -240.5 62c-93.333 0 -175.333 -21.5 -246 -64.5s-125.667 -102.167 -165 -177.5s-59 -162 -59 -260c0 -97.333 19.833 -183.333 59.5 -258
s95 -133 166 -175s153.833 -63 248.5 -63c100 0 188 24.167 264 72.5s133.333 114.833 172 199.5l46 -18c-42 -92 -105 -164.667 -189 -218s-181.667 -80 -293 -80zM145.999 513.999v42h976l12 -42h-988zM909.999 1400v-42h-546v42h546z" />
    <glyph glyph-name="Ebreve" unicode="&#x114;" horiz-adv-x="1558" 
d="M1044 782v-46h-682v46h682zM1394 390h48v-390h-1388v46h282v1412h-282v46h1370v-390h-48v344h-992v-1412h1010v344zM1110 1926c0 -52.667 -12.167 -99 -36.5 -139s-58.333 -71.167 -102 -93.5s-94.167 -33.5 -151.5 -33.5s-107.833 11.167 -151.5 33.5
s-77.667 53.5 -102 93.5s-36.5 86.333 -36.5 139h44c0 -66.667 22.833 -121 68.5 -163s104.834 -63 177.501 -63c73.333 0 132.666 21 177.999 63s68 96.333 68 163h44z" />
    <glyph glyph-name="ebreve" unicode="&#x115;" horiz-adv-x="1240" 
d="M638 -16c-104 0 -195.168 22.999 -273.501 68.999s-139.333 109.5 -183 190.5s-65.5 174.5 -65.5 280.5c0 106.667 21.667 201 65 283s103.833 146.333 181.5 193s168.167 70 271.5 70c101.333 0 189.833 -22.667 265.5 -68s134.334 -108 176.001 -188
s62.5 -172 62.5 -276v-13v-11h-48v13.5v14.5c0 94.667 -18.833 178.334 -56.5 251.001s-90.667 129.667 -159 171s-148.5 62 -240.5 62c-93.333 0 -175.333 -21.5 -246 -64.5s-125.667 -102.167 -165 -177.5s-59 -162 -59 -260c0 -97.333 19.833 -183.333 59.5 -258
s95 -133 166 -175s153.833 -63 248.5 -63c100 0 188 24.167 264 72.5s133.333 114.833 172 199.5l46 -18c-42 -92 -105 -164.667 -189 -218s-181.667 -80 -293 -80zM145.999 513.999v42h976l12 -42h-988zM923.999 1514c0 -52.667 -12.167 -99 -36.5 -139
s-58.333 -71.167 -102 -93.5s-94.167 -33.5 -151.5 -33.5s-107.833 11.167 -151.5 33.5s-77.667 53.5 -102 93.5s-36.5 86.333 -36.5 139h44c0 -66.667 22.833 -121 68.5 -163s104.834 -63 177.501 -63c73.333 0 132.666 21 177.999 63s68 96.333 68 163h44z" />
    <glyph glyph-name="Edotaccent" unicode="&#x116;" horiz-adv-x="1558" 
d="M1044 782v-46h-682v46h682zM1394 390h48v-390h-1388v46h282v1412h-282v46h1370v-390h-48v344h-992v-1412h1010v344zM778 1842h86v-88h-86v88z" />
    <glyph glyph-name="edotaccent" unicode="&#x117;" horiz-adv-x="1240" 
d="M638 -16c-104 0 -195.168 22.999 -273.501 68.999s-139.333 109.5 -183 190.5s-65.5 174.5 -65.5 280.5c0 106.667 21.667 201 65 283s103.833 146.333 181.5 193s168.167 70 271.5 70c101.333 0 189.833 -22.667 265.5 -68s134.334 -108 176.001 -188
s62.5 -172 62.5 -276v-13v-11h-48v13.5v14.5c0 94.667 -18.833 178.334 -56.5 251.001s-90.667 129.667 -159 171s-148.5 62 -240.5 62c-93.333 0 -175.333 -21.5 -246 -64.5s-125.667 -102.167 -165 -177.5s-59 -162 -59 -260c0 -97.333 19.833 -183.333 59.5 -258
s95 -133 166 -175s153.833 -63 248.5 -63c100 0 188 24.167 264 72.5s133.333 114.833 172 199.5l46 -18c-42 -92 -105 -164.667 -189 -218s-181.667 -80 -293 -80zM145.999 513.999v42h976l12 -42h-988zM591.999 1430h86v-88h-86v88z" />
    <glyph glyph-name="Eogonek" unicode="&#x118;" horiz-adv-x="1558" 
d="M1044 782v-46h-682v46h682zM1394 390h48v-390h-1388v46h282v1412h-282v46h1370v-390h-48v344h-992v-1412h1010v344zM1432 -376l12.002 -40.001c-16.667 -4.66699 -35 -9.16699 -55 -13.5s-41.667 -6.5 -65 -6.5c-42.667 0 -79.834 7.66699 -111.501 23
s-56.334 37.333 -74.001 66s-26.5 63 -26.5 103c0 61.333 21.5 110.333 64.5 147s104.833 68.334 185.5 95.001v20l80 -18c-102.667 -34 -175.667 -68.5 -219 -103.5s-65 -79.167 -65 -132.5c0 -48 15.167 -86 45.5 -114s72.5 -42 126.5 -42c19.333 0 37.5 1.66699 54.5 5
s32.833 7 47.5 11z" />
    <glyph glyph-name="eogonek" unicode="&#x119;" horiz-adv-x="1240" 
d="M638 -16c-104 0 -195.168 22.999 -273.501 68.999s-139.333 109.5 -183 190.5s-65.5 174.5 -65.5 280.5c0 106.667 21.667 201 65 283s103.833 146.333 181.5 193s168.167 70 271.5 70c101.333 0 189.833 -22.667 265.5 -68s134.334 -108 176.001 -188
s62.5 -172 62.5 -276v-13v-11h-48v13.5v14.5c0 94.667 -18.833 178.334 -56.5 251.001s-90.667 129.667 -159 171s-148.5 62 -240.5 62c-93.333 0 -175.333 -21.5 -246 -64.5s-125.667 -102.167 -165 -177.5s-59 -162 -59 -260c0 -97.333 19.833 -183.333 59.5 -258
s95 -133 166 -175s153.833 -63 248.5 -63c100 0 188 24.167 264 72.5s133.333 114.833 172 199.5l46 -18c-42 -92 -105 -164.667 -189 -218s-181.667 -80 -293 -80zM145.999 513.999v42h976l12 -42h-988zM871.999 -374.001l9.99805 -40.002
c-18.667 -6.66699 -39.667 -13 -63 -19s-49 -9 -77 -9c-42.667 0 -81.167 7.66699 -115.5 23s-61.666 37.5 -81.999 66.5s-30.5 64.5 -30.5 106.5c0 51.333 15.5 93.833 46.5 127.5s75.5 65.834 133.5 96.501v20l148 22c-98 -38.667 -169.167 -77.167 -213.5 -115.5
s-66.5 -85.166 -66.5 -140.499c0 -52 17.333 -92 52 -120s79.334 -42 134.001 -42c22 0 43.5 2.5 64.5 7.5s40.833 10.5 59.5 16.5z" />
    <glyph glyph-name="Ecaron" unicode="&#x11a;" horiz-adv-x="1558" 
d="M1044 782v-46h-682v46h682zM1394 390h48v-390h-1388v46h282v1412h-282v46h1370v-390h-48v344h-992v-1412h1010v344zM838 1685l276 200l-22 30l-270 -186l-270 186l-22 -30l276 -200h32z" />
    <glyph glyph-name="ecaron" unicode="&#x11b;" horiz-adv-x="1240" 
d="M638 -16c-104 0 -195.168 22.999 -273.501 68.999s-139.333 109.5 -183 190.5s-65.5 174.5 -65.5 280.5c0 106.667 21.667 201 65 283s103.833 146.333 181.5 193s168.167 70 271.5 70c101.333 0 189.833 -22.667 265.5 -68s134.334 -108 176.001 -188
s62.5 -172 62.5 -276v-13v-11h-48v13.5v14.5c0 94.667 -18.833 178.334 -56.5 251.001s-90.667 129.667 -159 171s-148.5 62 -240.5 62c-93.333 0 -175.333 -21.5 -246 -64.5s-125.667 -102.167 -165 -177.5s-59 -162 -59 -260c0 -97.333 19.833 -183.333 59.5 -258
s95 -133 166 -175s153.833 -63 248.5 -63c100 0 188 24.167 264 72.5s133.333 114.833 172 199.5l46 -18c-42 -92 -105 -164.667 -189 -218s-181.667 -80 -293 -80zM145.999 513.999v42h976l12 -42h-988zM651.999 1273l276 200l-22 30l-270 -186l-270 186l-22 -30l276 -200
h32z" />
    <glyph glyph-name="Gcircumflex" unicode="&#x11c;" horiz-adv-x="1800" 
d="M844 -16c-107.333 0 -206.165 18.833 -296.498 56.5s-168.833 90.834 -235.5 159.501s-118.334 150.167 -155.001 244.5s-55 198.166 -55 311.499c0 112 17.833 214.667 53.5 308s86.667 174 153 242s145.833 120.667 238.5 158s196.334 56 311.001 56
c119.333 0 223.166 -20 311.499 -60s160.833 -95.333 217.5 -166s97 -152 121 -244h20l-16 -136c-34 182 -108 320.167 -222 414.5s-258 141.5 -432 141.5c-142.667 0 -266.667 -30.167 -372 -90.5s-187 -144.166 -245 -251.499s-87 -231.333 -87 -372
c0 -106.667 17.167 -204 51.5 -292s82.5 -164.167 144.5 -228.5s135.167 -114 219.5 -149s176.5 -52.5 276.5 -52.5c119.333 0 227.166 26 323.499 78s175.5 125.167 237.5 219.5s101 205.166 117 332.499l38 -10c-16 -134 -56.833 -251.167 -122.5 -351.5
s-149.667 -178.5 -252 -234.5s-216.833 -84 -343.5 -84zM1538 0l-16 564v132h50v-696h-34zM972.001 654v48h794v-48h-794zM1512 914v590h48v-590h-48zM866.001 1908l276 -200l-22 -30l-270 186l-270 -186l-22 30l276 200h32z" />
    <glyph glyph-name="gcircumflex" unicode="&#x11d;" horiz-adv-x="1242" 
d="M600 -434c-92.667 0 -174.832 8.83496 -246.499 26.502s-127.834 46.5 -168.501 86.5s-61 93.667 -61 161s20.167 120.166 60.5 158.499s93.5 63.5 159.5 75.5v10l172 -12c-84.667 -0.666992 -152.5 -11.334 -203.5 -32.001s-87.833 -48.334 -110.5 -83.001
s-34 -73.667 -34 -117c0 -58.667 18.5 -105.167 55.5 -139.5s88.167 -59 153.5 -74s140.333 -22.5 225 -22.5c172 0 296.667 25.5 374 76.5s116 117.5 116 199.5c0 128 -86 192 -258 192h-410c-74 0 -130.5 13.167 -169.5 39.5s-58.5 63.833 -58.5 112.5
c0 47.333 18.5 83.333 55.5 108s91.833 37.334 164.5 38.001v16l188 -44h-140c-74 0 -129.5 -9.83301 -166.5 -29.5s-55.5 -49.167 -55.5 -88.5c0 -36 15.833 -62.667 47.5 -80s80.5 -26 146.5 -26h398c66 0 121.667 -9.33301 167 -28s79.5 -45.667 102.5 -81
s34.5 -78.333 34.5 -129c0 -60.667 -18.167 -114.667 -54.5 -162s-94 -84.5 -173 -111.5s-182.5 -40.5 -310.5 -40.5zM604.002 342.002c-80.667 0 -152.67 15 -216.003 45s-113.166 72.167 -149.499 126.5s-54.5 117.833 -54.5 190.5c0 73.333 18 137.5 54 192.5
s85.5 97.667 148.5 128s135.5 45.5 217.5 45.5c87.333 0 164.333 -17.5 231 -52.5s116.334 -83.5 149.001 -145.5c13.333 -24 23.333 -50 30 -78s10 -58 10 -90c0 -72.667 -18 -136.167 -54 -190.5s-85.667 -96.5 -149 -126.5s-135.666 -45 -216.999 -45zM603.999 382.002
c72 0 136.001 13.333 192.001 40s100 64.167 132 112.5s48 104.833 48 169.5c0 65.333 -16 122.5 -48 171.5s-76 87 -132 114s-120 40.5 -192 40.5c-72.667 0 -137.167 -13.5 -193.5 -40.5s-100.5 -65 -132.5 -114s-48 -106.167 -48 -171.5
c0 -64.667 16.333 -121.167 49 -169.5s77.167 -85.833 133.5 -112.5s120.166 -40 191.499 -40zM1024 704.002l-30.001 116l-38 78l16 6c-2 6 -3.5 12.5 -4.5 19.5s-1.5 13.833 -1.5 20.5c0 22 6 44.167 18 66.5s31 40.833 57 55.5s59.667 22 101 22
c9.33301 0 17.833 -0.5 25.5 -1.5s15.834 -2.5 24.501 -4.5v-46c-10 2 -19.167 3.5 -27.5 4.5s-17.166 1.5 -26.499 1.5c-36.667 0 -65.667 -6.66699 -87 -20s-36.5 -29.5 -45.5 -48.5s-13.5 -37.5 -13.5 -55.5c0 -21.333 2.66699 -41 8 -59s10.666 -38.833 15.999 -62.5
s8 -54.5 8 -92.5zM637.999 1496l276 -200l-22 -30l-270 186l-270 -186l-22 30l276 200h32z" />
    <glyph glyph-name="Gbreve" unicode="&#x11e;" horiz-adv-x="1800" 
d="M844 -16c-107.333 0 -206.165 18.833 -296.498 56.5s-168.833 90.834 -235.5 159.501s-118.334 150.167 -155.001 244.5s-55 198.166 -55 311.499c0 112 17.833 214.667 53.5 308s86.667 174 153 242s145.833 120.667 238.5 158s196.334 56 311.001 56
c119.333 0 223.166 -20 311.499 -60s160.833 -95.333 217.5 -166s97 -152 121 -244h20l-16 -136c-34 182 -108 320.167 -222 414.5s-258 141.5 -432 141.5c-142.667 0 -266.667 -30.167 -372 -90.5s-187 -144.166 -245 -251.499s-87 -231.333 -87 -372
c0 -106.667 17.167 -204 51.5 -292s82.5 -164.167 144.5 -228.5s135.167 -114 219.5 -149s176.5 -52.5 276.5 -52.5c119.333 0 227.166 26 323.499 78s175.5 125.167 237.5 219.5s101 205.166 117 332.499l38 -10c-16 -134 -56.833 -251.167 -122.5 -351.5
s-149.667 -178.5 -252 -234.5s-216.833 -84 -343.5 -84zM1538 0l-16 564v132h50v-696h-34zM972.001 654v48h794v-48h-794zM1512 914v590h48v-590h-48zM1138 1926c0 -52.667 -12.167 -99 -36.5 -139s-58.333 -71.167 -102 -93.5s-94.167 -33.5 -151.5 -33.5
s-107.833 11.167 -151.5 33.5s-77.667 53.5 -102 93.5s-36.5 86.333 -36.5 139h44c0 -66.667 22.833 -121 68.5 -163s104.834 -63 177.501 -63c73.333 0 132.666 21 177.999 63s68 96.333 68 163h44z" />
    <glyph glyph-name="gbreve" unicode="&#x11f;" horiz-adv-x="1242" 
d="M600 -434c-92.667 0 -174.832 8.83496 -246.499 26.502s-127.834 46.5 -168.501 86.5s-61 93.667 -61 161s20.167 120.166 60.5 158.499s93.5 63.5 159.5 75.5v10l172 -12c-84.667 -0.666992 -152.5 -11.334 -203.5 -32.001s-87.833 -48.334 -110.5 -83.001
s-34 -73.667 -34 -117c0 -58.667 18.5 -105.167 55.5 -139.5s88.167 -59 153.5 -74s140.333 -22.5 225 -22.5c172 0 296.667 25.5 374 76.5s116 117.5 116 199.5c0 128 -86 192 -258 192h-410c-74 0 -130.5 13.167 -169.5 39.5s-58.5 63.833 -58.5 112.5
c0 47.333 18.5 83.333 55.5 108s91.833 37.334 164.5 38.001v16l188 -44h-140c-74 0 -129.5 -9.83301 -166.5 -29.5s-55.5 -49.167 -55.5 -88.5c0 -36 15.833 -62.667 47.5 -80s80.5 -26 146.5 -26h398c66 0 121.667 -9.33301 167 -28s79.5 -45.667 102.5 -81
s34.5 -78.333 34.5 -129c0 -60.667 -18.167 -114.667 -54.5 -162s-94 -84.5 -173 -111.5s-182.5 -40.5 -310.5 -40.5zM604.002 342.002c-80.667 0 -152.67 15 -216.003 45s-113.166 72.167 -149.499 126.5s-54.5 117.833 -54.5 190.5c0 73.333 18 137.5 54 192.5
s85.5 97.667 148.5 128s135.5 45.5 217.5 45.5c87.333 0 164.333 -17.5 231 -52.5s116.334 -83.5 149.001 -145.5c13.333 -24 23.333 -50 30 -78s10 -58 10 -90c0 -72.667 -18 -136.167 -54 -190.5s-85.667 -96.5 -149 -126.5s-135.666 -45 -216.999 -45zM603.999 382.002
c72 0 136.001 13.333 192.001 40s100 64.167 132 112.5s48 104.833 48 169.5c0 65.333 -16 122.5 -48 171.5s-76 87 -132 114s-120 40.5 -192 40.5c-72.667 0 -137.167 -13.5 -193.5 -40.5s-100.5 -65 -132.5 -114s-48 -106.167 -48 -171.5
c0 -64.667 16.333 -121.167 49 -169.5s77.167 -85.833 133.5 -112.5s120.166 -40 191.499 -40zM1024 704.002l-30.001 116l-38 78l16 6c-2 6 -3.5 12.5 -4.5 19.5s-1.5 13.833 -1.5 20.5c0 22 6 44.167 18 66.5s31 40.833 57 55.5s59.667 22 101 22
c9.33301 0 17.833 -0.5 25.5 -1.5s15.834 -2.5 24.501 -4.5v-46c-10 2 -19.167 3.5 -27.5 4.5s-17.166 1.5 -26.499 1.5c-36.667 0 -65.667 -6.66699 -87 -20s-36.5 -29.5 -45.5 -48.5s-13.5 -37.5 -13.5 -55.5c0 -21.333 2.66699 -41 8 -59s10.666 -38.833 15.999 -62.5
s8 -54.5 8 -92.5zM909.999 1514c0 -52.667 -12.167 -99 -36.5 -139s-58.333 -71.167 -102 -93.5s-94.167 -33.5 -151.5 -33.5s-107.833 11.167 -151.5 33.5s-77.667 53.5 -102 93.5s-36.5 86.333 -36.5 139h44c0 -66.667 22.833 -121 68.5 -163s104.834 -63 177.501 -63
c73.333 0 132.666 21 177.999 63s68 96.333 68 163h44z" />
    <glyph glyph-name="Gdotaccent" unicode="&#x120;" horiz-adv-x="1800" 
d="M844 -16c-107.333 0 -206.165 18.833 -296.498 56.5s-168.833 90.834 -235.5 159.501s-118.334 150.167 -155.001 244.5s-55 198.166 -55 311.499c0 112 17.833 214.667 53.5 308s86.667 174 153 242s145.833 120.667 238.5 158s196.334 56 311.001 56
c119.333 0 223.166 -20 311.499 -60s160.833 -95.333 217.5 -166s97 -152 121 -244h20l-16 -136c-34 182 -108 320.167 -222 414.5s-258 141.5 -432 141.5c-142.667 0 -266.667 -30.167 -372 -90.5s-187 -144.166 -245 -251.499s-87 -231.333 -87 -372
c0 -106.667 17.167 -204 51.5 -292s82.5 -164.167 144.5 -228.5s135.167 -114 219.5 -149s176.5 -52.5 276.5 -52.5c119.333 0 227.166 26 323.499 78s175.5 125.167 237.5 219.5s101 205.166 117 332.499l38 -10c-16 -134 -56.833 -251.167 -122.5 -351.5
s-149.667 -178.5 -252 -234.5s-216.833 -84 -343.5 -84zM1538 0l-16 564v132h50v-696h-34zM972.001 654v48h794v-48h-794zM1512 914v590h48v-590h-48zM806.001 1842h86v-88h-86v88z" />
    <glyph glyph-name="gdotaccent" unicode="&#x121;" horiz-adv-x="1242" 
d="M600 -434c-92.667 0 -174.832 8.83496 -246.499 26.502s-127.834 46.5 -168.501 86.5s-61 93.667 -61 161s20.167 120.166 60.5 158.499s93.5 63.5 159.5 75.5v10l172 -12c-84.667 -0.666992 -152.5 -11.334 -203.5 -32.001s-87.833 -48.334 -110.5 -83.001
s-34 -73.667 -34 -117c0 -58.667 18.5 -105.167 55.5 -139.5s88.167 -59 153.5 -74s140.333 -22.5 225 -22.5c172 0 296.667 25.5 374 76.5s116 117.5 116 199.5c0 128 -86 192 -258 192h-410c-74 0 -130.5 13.167 -169.5 39.5s-58.5 63.833 -58.5 112.5
c0 47.333 18.5 83.333 55.5 108s91.833 37.334 164.5 38.001v16l188 -44h-140c-74 0 -129.5 -9.83301 -166.5 -29.5s-55.5 -49.167 -55.5 -88.5c0 -36 15.833 -62.667 47.5 -80s80.5 -26 146.5 -26h398c66 0 121.667 -9.33301 167 -28s79.5 -45.667 102.5 -81
s34.5 -78.333 34.5 -129c0 -60.667 -18.167 -114.667 -54.5 -162s-94 -84.5 -173 -111.5s-182.5 -40.5 -310.5 -40.5zM604.002 342.002c-80.667 0 -152.67 15 -216.003 45s-113.166 72.167 -149.499 126.5s-54.5 117.833 -54.5 190.5c0 73.333 18 137.5 54 192.5
s85.5 97.667 148.5 128s135.5 45.5 217.5 45.5c87.333 0 164.333 -17.5 231 -52.5s116.334 -83.5 149.001 -145.5c13.333 -24 23.333 -50 30 -78s10 -58 10 -90c0 -72.667 -18 -136.167 -54 -190.5s-85.667 -96.5 -149 -126.5s-135.666 -45 -216.999 -45zM603.999 382.002
c72 0 136.001 13.333 192.001 40s100 64.167 132 112.5s48 104.833 48 169.5c0 65.333 -16 122.5 -48 171.5s-76 87 -132 114s-120 40.5 -192 40.5c-72.667 0 -137.167 -13.5 -193.5 -40.5s-100.5 -65 -132.5 -114s-48 -106.167 -48 -171.5
c0 -64.667 16.333 -121.167 49 -169.5s77.167 -85.833 133.5 -112.5s120.166 -40 191.499 -40zM1024 704.002l-30.001 116l-38 78l16 6c-2 6 -3.5 12.5 -4.5 19.5s-1.5 13.833 -1.5 20.5c0 22 6 44.167 18 66.5s31 40.833 57 55.5s59.667 22 101 22
c9.33301 0 17.833 -0.5 25.5 -1.5s15.834 -2.5 24.501 -4.5v-46c-10 2 -19.167 3.5 -27.5 4.5s-17.166 1.5 -26.499 1.5c-36.667 0 -65.667 -6.66699 -87 -20s-36.5 -29.5 -45.5 -48.5s-13.5 -37.5 -13.5 -55.5c0 -21.333 2.66699 -41 8 -59s10.666 -38.833 15.999 -62.5
s8 -54.5 8 -92.5zM577.999 1430h86v-88h-86v88z" />
    <glyph glyph-name="uni0122" unicode="&#x122;" horiz-adv-x="1800" 
d="M844 -16c-107.333 0 -206.165 18.833 -296.498 56.5s-168.833 90.834 -235.5 159.501s-118.334 150.167 -155.001 244.5s-55 198.166 -55 311.499c0 112 17.833 214.667 53.5 308s86.667 174 153 242s145.833 120.667 238.5 158s196.334 56 311.001 56
c119.333 0 223.166 -20 311.499 -60s160.833 -95.333 217.5 -166s97 -152 121 -244h20l-16 -136c-34 182 -108 320.167 -222 414.5s-258 141.5 -432 141.5c-142.667 0 -266.667 -30.167 -372 -90.5s-187 -144.166 -245 -251.499s-87 -231.333 -87 -372
c0 -106.667 17.167 -204 51.5 -292s82.5 -164.167 144.5 -228.5s135.167 -114 219.5 -149s176.5 -52.5 276.5 -52.5c119.333 0 227.166 26 323.499 78s175.5 125.167 237.5 219.5s101 205.166 117 332.499l38 -10c-16 -134 -56.833 -251.167 -122.5 -351.5
s-149.667 -178.5 -252 -234.5s-216.833 -84 -343.5 -84zM1538 0l-16 564v132h50v-696h-34zM972.001 654v48h794v-48h-794zM1512 914v590h48v-590h-48zM782.001 -188h84v-62l-26 -42h-58v104zM838.001 -188h27.999v-164c0 -28 -7.66699 -48.667 -23 -62
s-35.666 -20 -60.999 -20h-2v26h2c17.333 0 31 4.66699 41 14s15 23.333 15 42v164z" />
    <glyph glyph-name="uni0123" unicode="&#x123;" horiz-adv-x="1242" 
d="M600 -434c-92.667 0 -174.832 8.83496 -246.499 26.502s-127.834 46.5 -168.501 86.5s-61 93.667 -61 161s20.167 120.166 60.5 158.499s93.5 63.5 159.5 75.5v10l172 -12c-84.667 -0.666992 -152.5 -11.334 -203.5 -32.001s-87.833 -48.334 -110.5 -83.001
s-34 -73.667 -34 -117c0 -58.667 18.5 -105.167 55.5 -139.5s88.167 -59 153.5 -74s140.333 -22.5 225 -22.5c172 0 296.667 25.5 374 76.5s116 117.5 116 199.5c0 128 -86 192 -258 192h-410c-74 0 -130.5 13.167 -169.5 39.5s-58.5 63.833 -58.5 112.5
c0 47.333 18.5 83.333 55.5 108s91.833 37.334 164.5 38.001v16l188 -44h-140c-74 0 -129.5 -9.83301 -166.5 -29.5s-55.5 -49.167 -55.5 -88.5c0 -36 15.833 -62.667 47.5 -80s80.5 -26 146.5 -26h398c66 0 121.667 -9.33301 167 -28s79.5 -45.667 102.5 -81
s34.5 -78.333 34.5 -129c0 -60.667 -18.167 -114.667 -54.5 -162s-94 -84.5 -173 -111.5s-182.5 -40.5 -310.5 -40.5zM604.002 342.002c-80.667 0 -152.67 15 -216.003 45s-113.166 72.167 -149.499 126.5s-54.5 117.833 -54.5 190.5c0 73.333 18 137.5 54 192.5
s85.5 97.667 148.5 128s135.5 45.5 217.5 45.5c87.333 0 164.333 -17.5 231 -52.5s116.334 -83.5 149.001 -145.5c13.333 -24 23.333 -50 30 -78s10 -58 10 -90c0 -72.667 -18 -136.167 -54 -190.5s-85.667 -96.5 -149 -126.5s-135.666 -45 -216.999 -45zM603.999 382.002
c72 0 136.001 13.333 192.001 40s100 64.167 132 112.5s48 104.833 48 169.5c0 65.333 -16 122.5 -48 171.5s-76 87 -132 114s-120 40.5 -192 40.5c-72.667 0 -137.167 -13.5 -193.5 -40.5s-100.5 -65 -132.5 -114s-48 -106.167 -48 -171.5
c0 -64.667 16.333 -121.167 49 -169.5s77.167 -85.833 133.5 -112.5s120.166 -40 191.499 -40zM1024 704.002l-30.001 116l-38 78l16 6c-2 6 -3.5 12.5 -4.5 19.5s-1.5 13.833 -1.5 20.5c0 22 6 44.167 18 66.5s31 40.833 57 55.5s59.667 22 101 22
c9.33301 0 17.833 -0.5 25.5 -1.5s15.834 -2.5 24.501 -4.5v-46c-10 2 -19.167 3.5 -27.5 4.5s-17.166 1.5 -26.499 1.5c-36.667 0 -65.667 -6.66699 -87 -20s-36.5 -29.5 -45.5 -48.5s-13.5 -37.5 -13.5 -55.5c0 -21.333 2.66699 -41 8 -59s10.666 -38.833 15.999 -62.5
s8 -54.5 8 -92.5zM677.999 1288h-84v62l26 42h58v-104zM621.999 1288h-27.999v164c0 28 7.66699 48.667 23 62s35.666 20 60.999 20h2v-26h-2c-17.333 0 -31 -4.66699 -41 -14s-15 -23.333 -15 -42v-164z" />
    <glyph glyph-name="Hcircumflex" unicode="&#x124;" horiz-adv-x="1834" 
d="M1468 782v-46h-1106v46h1106zM54 1458v46h612v-46h-282v-1412h282v-46h-612v46h282v1412h-282zM1170 1458v46h610v-46h-280v-1412h280v-46h-610v46h282v1412h-282zM934 1908l276 -200l-22 -30l-270 186l-270 -186l-22 30l276 200h32z" />
    <glyph glyph-name="hcircumflex" unicode="&#x125;" horiz-adv-x="1470" 
d="M374 42h228v-42h-522v42h246v1496h-246v42h294v-1538zM1144 42l-0.000976562 642c0 107.333 -23.833 191.5 -71.5 252.5s-125.167 91.5 -232.5 91.5c-86 0 -164.167 -20.5 -234.5 -61.5s-126.5 -101 -168.5 -180s-63 -175.833 -63 -290.5l-14 212h18
c16.667 70.667 45.334 133.167 86.001 187.5s92.834 97 156.501 128s138.167 46.5 223.5 46.5c125.333 0 214.666 -33.5 267.999 -100.5s80 -160.167 80 -279.5v-648h230v-42h-506v42h228zM365.999 1940l276 -200l-22 -30l-270 186l-270 -186l-22 30l276 200h32z" />
    <glyph glyph-name="Hbar" unicode="&#x126;" horiz-adv-x="1846" 
d="M1780 1150v-46h-1726v46h1726zM1480 782v-46h-1106v46h1106zM66 1458v46h612v-46h-282v-1412h282v-46h-612v46h282v1412h-282zM1182 1458v46h610v-46h-280v-1412h280v-46h-610v46h282v1412h-282z" />
    <glyph glyph-name="hbar" unicode="&#x127;" horiz-adv-x="1476" 
d="M80 1272v42h714v-42h-714zM380 42h228v-42h-522v42h246v1496h-246v42h294v-1538zM1150 42l-0.000976562 642c0 107.333 -23.833 191.5 -71.5 252.5s-125.167 91.5 -232.5 91.5c-86 0 -164.167 -20.5 -234.5 -61.5s-126.5 -101 -168.5 -180s-63 -175.833 -63 -290.5
l-14 212h18c16.667 70.667 45.334 133.167 86.001 187.5s92.834 97 156.501 128s138.167 46.5 223.5 46.5c125.333 0 214.666 -33.5 267.999 -100.5s80 -160.167 80 -279.5v-648h230v-42h-506v42h228z" />
    <glyph glyph-name="Itilde" unicode="&#x128;" horiz-adv-x="720" 
d="M54 1458v46h612v-46h-282v-1412h282v-46h-612v46h282v1412h-282zM649 1918l37.999 -5.00195c-10.667 -72.667 -31.334 -125.667 -62.001 -159s-70.334 -50 -119.001 -50c-34.667 0 -63.667 8.33301 -87 25s-47 41.334 -71 74.001
c-22.667 31.333 -43.5 54.166 -62.5 68.499s-42.167 21.5 -69.5 21.5c-37.333 0 -68.166 -13.667 -92.499 -41s-41.5 -71.666 -51.5 -132.999l-39 5c10.667 72.667 31.334 125.834 62.001 159.501s70.334 50.5 119.001 50.5c35.333 0 64.5 -8.33301 87.5 -25
s46.833 -41.667 71.5 -75c22.667 -30.667 43.5 -53.167 62.5 -67.5s42.167 -21.5 69.5 -21.5c37.333 0 68 13.667 92 41s41.333 71.333 52 132z" />
    <glyph glyph-name="itilde" unicode="&#x129;" horiz-adv-x="690" 
d="M404 42h228v-42h-516v42h240v968h-240v42h288v-1010zM665 1506l37.999 -5.00195c-10.667 -72.667 -31.334 -125.667 -62.001 -159s-70.334 -50 -119.001 -50c-34.667 0 -63.667 8.33301 -87 25s-47 41.334 -71 74.001c-22.667 31.333 -43.5 54.166 -62.5 68.499
s-42.167 21.5 -69.5 21.5c-37.333 0 -68.166 -13.667 -92.499 -41s-41.5 -71.666 -51.5 -132.999l-39 5c10.667 72.667 31.334 125.834 62.001 159.501s70.334 50.5 119.001 50.5c35.333 0 64.5 -8.33301 87.5 -25s46.833 -41.667 71.5 -75
c22.667 -30.667 43.5 -53.167 62.5 -67.5s42.167 -21.5 69.5 -21.5c37.333 0 68 13.667 92 41s41.333 71.333 52 132z" />
    <glyph glyph-name="Imacron" unicode="&#x12a;" horiz-adv-x="720" 
d="M54 1458v46h612v-46h-282v-1412h282v-46h-612v46h282v1412h-282zM636 1812v-42h-546v42h546z" />
    <glyph glyph-name="imacron" unicode="&#x12b;" horiz-adv-x="690" 
d="M404 42h228v-42h-516v42h240v968h-240v42h288v-1010zM652 1400v-42h-546v42h546z" />
    <glyph glyph-name="Ibreve" unicode="&#x12c;" horiz-adv-x="720" 
d="M54 1458v46h612v-46h-282v-1412h282v-46h-612v46h282v1412h-282zM650 1926c0 -52.667 -12.167 -99 -36.5 -139s-58.333 -71.167 -102 -93.5s-94.167 -33.5 -151.5 -33.5s-107.833 11.167 -151.5 33.5s-77.667 53.5 -102 93.5s-36.5 86.333 -36.5 139h44
c0 -66.667 22.833 -121 68.5 -163s104.834 -63 177.501 -63c73.333 0 132.666 21 177.999 63s68 96.333 68 163h44z" />
    <glyph glyph-name="ibreve" unicode="&#x12d;" horiz-adv-x="690" 
d="M404 42h228v-42h-516v42h240v968h-240v42h288v-1010zM666 1514c0 -52.667 -12.167 -99 -36.5 -139s-58.333 -71.167 -102 -93.5s-94.167 -33.5 -151.5 -33.5s-107.833 11.167 -151.5 33.5s-77.667 53.5 -102 93.5s-36.5 86.333 -36.5 139h44
c0 -66.667 22.833 -121 68.5 -163s104.834 -63 177.501 -63c73.333 0 132.666 21 177.999 63s68 96.333 68 163h44z" />
    <glyph glyph-name="Iogonek" unicode="&#x12e;" horiz-adv-x="720" 
d="M54 1458v46h612v-46h-282v-1412h282v-46h-612v46h282v1412h-282zM656 -376l12.002 -40.001c-16.667 -4.66699 -35 -9.16699 -55 -13.5s-41.667 -6.5 -65 -6.5c-42.667 0 -79.834 7.66699 -111.501 23s-56.334 37.333 -74.001 66s-26.5 63 -26.5 103
c0 61.333 21.5 110.333 64.5 147s104.833 68.334 185.5 95.001v20l80 -18c-102.667 -34 -175.667 -68.5 -219 -103.5s-65 -79.167 -65 -132.5c0 -48 15.167 -86 45.5 -114s72.5 -42 126.5 -42c19.333 0 37.5 1.66699 54.5 5s32.833 7 47.5 11z" />
    <glyph glyph-name="iogonek" unicode="&#x12f;" horiz-adv-x="690" 
d="M404 42h228v-42h-516v42h240v968h-240v42h288v-1010zM334 1430h86v-88h-86v88zM604 -376l12.002 -40.001c-16.667 -4.66699 -35 -9.16699 -55 -13.5s-41.667 -6.5 -65 -6.5c-42.667 0 -79.834 7.66699 -111.501 23s-56.334 37.333 -74.001 66s-26.5 63 -26.5 103
c0 61.333 21.5 110.333 64.5 147s104.833 68.334 185.5 95.001v20l80 -18c-102.667 -34 -175.667 -68.5 -219 -103.5s-65 -79.167 -65 -132.5c0 -48 15.167 -86 45.5 -114s72.5 -42 126.5 -42c19.333 0 37.5 1.66699 54.5 5s32.833 7 47.5 11z" />
    <glyph glyph-name="Idotaccent" unicode="&#x130;" horiz-adv-x="720" 
d="M54 1458v46h612v-46h-282v-1412h282v-46h-612v46h282v1412h-282zM318 1842h86v-88h-86v88z" />
    <glyph glyph-name="dotlessi" unicode="&#x131;" horiz-adv-x="690" 
d="M404 42h228v-42h-516v42h240v968h-240v42h288v-1010z" />
    <glyph glyph-name="Jcircumflex" unicode="&#x134;" horiz-adv-x="1194" 
d="M464 -16c-138.667 0 -242.667 42.167 -312 126.5s-104 205.5 -104 363.5v92h48v-92c0 -142.667 30.833 -251.667 92.5 -327s153.5 -113 275.5 -113c123.333 0 217.166 37.333 281.499 112s96.5 184 96.5 328v984h-336v46h668v-46h-284v-984
c0 -104.667 -16 -193.5 -48 -266.5s-79.667 -128.5 -143 -166.5s-141.666 -57 -234.999 -57zM868 1896l276 -200l-22 -30l-270 186l-270 -186l-22 30l276 200h32z" />
    <glyph glyph-name="jcircumflex" unicode="&#x135;" horiz-adv-x="626" 
d="M78 1052h322v-1212c0 -92 -23.167 -161 -69.5 -207s-110.5 -69 -192.5 -69c-72.667 0 -130 17.667 -172 53s-70 86.333 -84 153l44 12c14 -58 38.167 -101.167 72.5 -129.5s80.833 -42.5 139.5 -42.5c65.333 0 117.333 18.667 156 56s58 95.333 58 174v1170h-274v42z
M390 1496l276 -200l-22 -30l-270 186l-270 -186l-22 30l276 200h32z" />
    <glyph glyph-name="uni0136" unicode="&#x136;" horiz-adv-x="1798" 
d="M54 1458v46h612v-46h-282v-1412h282v-46h-612v46h282v1412h-282zM852 906l734 -860h176v-46h-728v46h490l-704 824zM356 478l1062 980h-462v46h736v-46h-208l-1110 -1024zM804 -188h84v-62l-26 -42h-58v104zM860 -188h27.999v-164c0 -28 -7.66699 -48.667 -23 -62
s-35.666 -20 -60.999 -20h-2v26h2c17.333 0 31 4.66699 41 14s15 23.333 15 42v164z" />
    <glyph glyph-name="uni0137" unicode="&#x137;" horiz-adv-x="1432" 
d="M374 42h228v-42h-522v42h246v1496h-246v42h294v-1538zM762 662l466 -620h146v-42h-544v42h336l-440 590zM360 308l-12 42l776 660h-372v42h598v-42h-158zM648 -188h84v-62l-26 -42h-58v104zM704 -188h27.999v-164c0 -28 -7.66699 -48.667 -23 -62
s-35.666 -20 -60.999 -20h-2v26h2c17.333 0 31 4.66699 41 14s15 23.333 15 42v164z" />
    <glyph glyph-name="kgreenlandic" unicode="&#x138;" horiz-adv-x="1450" 
d="M380 340l-14 40l800 630h-370v42h572v-42h-136zM100 0v42h244v968h-244v42h532v-42h-240v-968h240v-42h-532zM850 0v42h340l-450 596l32 30l478 -626h142v-42h-542z" />
    <glyph glyph-name="Lacute" unicode="&#x139;" horiz-adv-x="1322" 
d="M54 1458v46h616v-46h-286v-1412h862v-46h-1192v46h282v1412h-282zM1274 494v-494h-50v494h50zM538 1932l30 -38l-306 -224l-24 32z" />
    <glyph glyph-name="lacute" unicode="&#x13a;" horiz-adv-x="680" 
d="M374 42h248v-42h-542v42h246v1496h-246v42h294v-1538zM514 1964l30 -38l-306 -224l-24 32z" />
    <glyph glyph-name="uni013B" unicode="&#x13b;" horiz-adv-x="1322" 
d="M54 1458v46h616v-46h-286v-1412h862v-46h-1192v46h282v1412h-282zM1274 494v-494h-50v494h50zM634 -188h84v-62l-26 -42h-58v104zM690 -188h27.999v-164c0 -28 -7.66699 -48.667 -23 -62s-35.666 -20 -60.999 -20h-2v26h2c17.333 0 31 4.66699 41 14s15 23.333 15 42v164
z" />
    <glyph glyph-name="uni013C" unicode="&#x13c;" horiz-adv-x="680" 
d="M374 42h248v-42h-542v42h246v1496h-246v42h294v-1538zM280 -188h84v-62l-26 -42h-58v104zM336 -188h27.999v-164c0 -28 -7.66699 -48.667 -23 -62s-35.666 -20 -60.999 -20h-2v26h2c17.333 0 31 4.66699 41 14s15 23.333 15 42v164z" />
    <glyph glyph-name="Lcaron" unicode="&#x13d;" horiz-adv-x="1322" 
d="M54 1458v46h616v-46h-286v-1412h862v-46h-1192v46h282v1412h-282zM1274 494v-494h-50v494h50zM934 1318h48l-10 -430h-38v430z" />
    <glyph glyph-name="lcaron" unicode="&#x13e;" horiz-adv-x="680" 
d="M374 42h248v-42h-542v42h246v1496h-246v42h294v-1538zM610 1580h48l-10 -430h-38v430z" />
    <glyph glyph-name="Ldot" unicode="&#x13f;" horiz-adv-x="1322" 
d="M54 1458v46h616v-46h-286v-1412h862v-46h-1192v46h282v1412h-282zM1274 494v-494h-50v494h50zM694 888h100v-98h-100v98z" />
    <glyph glyph-name="ldot" unicode="&#x140;" horiz-adv-x="682" 
d="M374 42h248v-42h-542v42h246v1496h-246v42h294v-1538zM644 846h100v-98h-100v98z" />
    <glyph glyph-name="Lslash" unicode="&#x141;" horiz-adv-x="1324" 
d="M74 514l-20 38l736 380l20 -40zM56 1458v46h616v-46h-286v-1412h862v-46h-1192v46h282v1412h-282zM1276 494v-494h-50v494h50z" />
    <glyph glyph-name="lslash" unicode="&#x142;" horiz-adv-x="680" 
d="M108 580l-26 38l496 360l26 -36zM374 42h248v-42h-542v42h246v1496h-246v42h294v-1538z" />
    <glyph glyph-name="Nacute" unicode="&#x143;" horiz-adv-x="1832" 
d="M1448 0l-1096 1504h60l1096 -1504h-60zM54 1460v44h358l-2 -54h-28v-1404h280v-46h-608v46h282v1414h-282zM1164 1458v46h634v-46h-282v-1458h-62l-18 66h34v1392h-306zM1076 1932l30 -38l-306 -224l-24 32z" />
    <glyph glyph-name="nacute" unicode="&#x144;" horiz-adv-x="1492" 
d="M394 42h230v-42h-524v42h246v968h-246v42h294v-1010zM1164 42l0.000976562 641.998c0 107.333 -23.667 191.5 -71 252.5s-125 91.5 -233 91.5c-85.333 0 -163.333 -20.167 -234 -60.5s-127 -99.666 -169 -177.999s-63 -174.166 -63 -287.499l-14 212h20
c16 68 44.167 128.833 84.5 182.5s92.333 96 156 127s138.167 46.5 223.5 46.5c125.333 0 214.666 -33.833 267.999 -101.5s80 -161.167 80 -280.5v-646h232v-42h-508v42h228zM946.001 1520l30 -38l-306 -224l-24 32z" />
    <glyph glyph-name="uni0145" unicode="&#x145;" horiz-adv-x="1832" 
d="M1448 0l-1096 1504h60l1096 -1504h-60zM54 1460v44h358l-2 -54h-28v-1404h280v-46h-608v46h282v1414h-282zM1164 1458v46h634v-46h-282v-1458h-62l-18 66h34v1392h-306zM836 -188h84v-62l-26 -42h-58v104zM892 -188h27.999v-164c0 -28 -7.66699 -48.667 -23 -62
s-35.666 -20 -60.999 -20h-2v26h2c17.333 0 31 4.66699 41 14s15 23.333 15 42v164z" />
    <glyph glyph-name="uni0146" unicode="&#x146;" horiz-adv-x="1492" 
d="M394 42h230v-42h-524v42h246v968h-246v42h294v-1010zM1164 42l0.000976562 641.998c0 107.333 -23.667 191.5 -71 252.5s-125 91.5 -233 91.5c-85.333 0 -163.333 -20.167 -234 -60.5s-127 -99.666 -169 -177.999s-63 -174.166 -63 -287.499l-14 212h20
c16 68 44.167 128.833 84.5 182.5s92.333 96 156 127s138.167 46.5 223.5 46.5c125.333 0 214.666 -33.833 267.999 -101.5s80 -161.167 80 -280.5v-646h232v-42h-508v42h228zM708.001 -188.002h84v-62l-26 -42h-58v104zM764.001 -188.002h27.999v-164
c0 -28 -7.66699 -48.667 -23 -62s-35.666 -20 -60.999 -20h-2v26h2c17.333 0 31 4.66699 41 14s15 23.333 15 42v164z" />
    <glyph glyph-name="Ncaron" unicode="&#x147;" horiz-adv-x="1832" 
d="M1448 0l-1096 1504h60l1096 -1504h-60zM54 1460v44h358l-2 -54h-28v-1404h280v-46h-608v46h282v1414h-282zM1164 1458v46h634v-46h-282v-1458h-62l-18 66h34v1392h-306zM924 1685l276 200l-22 30l-270 -186l-270 186l-22 -30l276 -200h32z" />
    <glyph glyph-name="ncaron" unicode="&#x148;" horiz-adv-x="1492" 
d="M394 42h230v-42h-524v42h246v968h-246v42h294v-1010zM1164 42l0.000976562 641.998c0 107.333 -23.667 191.5 -71 252.5s-125 91.5 -233 91.5c-85.333 0 -163.333 -20.167 -234 -60.5s-127 -99.666 -169 -177.999s-63 -174.166 -63 -287.499l-14 212h20
c16 68 44.167 128.833 84.5 182.5s92.333 96 156 127s138.167 46.5 223.5 46.5c125.333 0 214.666 -33.833 267.999 -101.5s80 -161.167 80 -280.5v-646h232v-42h-508v42h228zM794.001 1273l276 200l-22 30l-270 -186l-270 186l-22 -30l276 -200h32z" />
    <glyph glyph-name="Eng" unicode="&#x14a;" horiz-adv-x="1832" 
d="M54 1460v44h358l-2 -54h-28v-1404h280v-46h-608v46h282v1414h-282zM1164 1504h634v-46h-282v-1608c0 -94.667 -23.5 -166 -70.5 -214s-112.167 -72 -195.5 -72c-18 0 -35.5 1.33301 -52.5 4s-33.5 6 -49.5 10l16 44c24 -8 50.667 -12 80 -12
c69.333 0 124.333 19.5 165 58.5s61 99.5 61 181.5v1608h-306v46zM1478 -12l-1128 1516h62l1098 -1476z" />
    <glyph glyph-name="eng" unicode="&#x14b;" horiz-adv-x="1382" 
d="M394 42h228v-42h-522v42h246v968h-246v42h294v-1010zM874 1070c120 0 206.332 -33.835 258.999 -101.502s79 -161.167 79 -280.5v-836c0 -96 -24 -168 -72 -216s-114 -72 -198 -72c-18.667 0 -36.167 1.33301 -52.5 4s-32.166 6 -47.499 10l14 42
c12 -2.66699 25 -5 39 -7s28.333 -3 43 -3c69.333 0 124.333 19.667 165 59s61 100.333 61 183v832c0 107.333 -23.667 191.5 -71 252.5s-125 91.5 -233 91.5c-85.333 0 -163.333 -20.167 -234 -60.5s-127 -99.666 -169 -177.999s-63 -174.166 -63 -287.499l-14 190h18
c16.667 73.333 45.5 138.5 86.5 195.5s94 101.667 159 134s141.833 48.5 230.5 48.5z" />
    <glyph glyph-name="Omacron" unicode="&#x14c;" horiz-adv-x="1728" 
d="M864 -16c-112.667 0 -215.5 18.667 -308.5 56s-173.333 90.333 -241 159s-120 150.167 -157 244.5s-55.5 198.5 -55.5 312.5c0 112.667 18.5 215.667 55.5 309s89.333 174 157 242s148 120.5 241 157.5s195.833 55.5 308.5 55.5s215.5 -18.5 308.5 -55.5
s173.333 -89.5 241 -157.5s120 -148.667 157 -242s55.5 -196.333 55.5 -309c0 -114 -18.5 -218.167 -55.5 -312.5s-89.333 -175.833 -157 -244.5s-148 -121.667 -241 -159s-195.833 -56 -308.5 -56zM864 32c140.667 0 264.334 30.667 371.001 92
s189.834 146.5 249.501 255.5s89.5 234.5 89.5 376.5c0 140.667 -29.833 264.834 -89.5 372.501s-142.834 191.834 -249.501 252.501s-230.334 91 -371.001 91s-264.334 -30.333 -371.001 -91s-189.834 -144.834 -249.501 -252.501s-89.5 -231.834 -89.5 -372.501
c0 -142 29.833 -267.5 89.5 -376.5s142.834 -194.167 249.501 -255.5s230.334 -92 371.001 -92zM1138 1812v-42h-546v42h546z" />
    <glyph glyph-name="omacron" unicode="&#x14d;" horiz-adv-x="1304" 
d="M652 -16c-107.333 0 -201.5 23 -282.5 69s-144.167 109.5 -189.5 190.5s-68 174.5 -68 280.5s22.667 200.167 68 282.5s108.5 146.833 189.5 193.5s175.167 70 282.5 70s201.5 -23.333 282.5 -70s144.167 -111.167 189.5 -193.5s68 -176.5 68 -282.5
s-22.667 -199.5 -68 -280.5s-108.5 -144.5 -189.5 -190.5s-175.167 -69 -282.5 -69zM652 28c97.333 0 182.833 21 256.5 63s131 100.333 172 175s61.5 160.667 61.5 258s-20.5 183.666 -61.5 258.999s-98.333 134.333 -172 177s-159.167 64 -256.5 64
s-182.833 -21.333 -256.5 -64s-131 -101.667 -172 -177s-61.5 -161.666 -61.5 -258.999s20.5 -183.333 61.5 -258s98.333 -133 172 -175s159.167 -63 256.5 -63zM926 1400v-42h-546v42h546z" />
    <glyph glyph-name="Obreve" unicode="&#x14e;" horiz-adv-x="1728" 
d="M864 -16c-112.667 0 -215.5 18.667 -308.5 56s-173.333 90.333 -241 159s-120 150.167 -157 244.5s-55.5 198.5 -55.5 312.5c0 112.667 18.5 215.667 55.5 309s89.333 174 157 242s148 120.5 241 157.5s195.833 55.5 308.5 55.5s215.5 -18.5 308.5 -55.5
s173.333 -89.5 241 -157.5s120 -148.667 157 -242s55.5 -196.333 55.5 -309c0 -114 -18.5 -218.167 -55.5 -312.5s-89.333 -175.833 -157 -244.5s-148 -121.667 -241 -159s-195.833 -56 -308.5 -56zM864 32c140.667 0 264.334 30.667 371.001 92
s189.834 146.5 249.501 255.5s89.5 234.5 89.5 376.5c0 140.667 -29.833 264.834 -89.5 372.501s-142.834 191.834 -249.501 252.501s-230.334 91 -371.001 91s-264.334 -30.333 -371.001 -91s-189.834 -144.834 -249.501 -252.501s-89.5 -231.834 -89.5 -372.501
c0 -142 29.833 -267.5 89.5 -376.5s142.834 -194.167 249.501 -255.5s230.334 -92 371.001 -92zM1152 1926c0 -52.667 -12.167 -99 -36.5 -139s-58.333 -71.167 -102 -93.5s-94.167 -33.5 -151.5 -33.5s-107.833 11.167 -151.5 33.5s-77.667 53.5 -102 93.5
s-36.5 86.333 -36.5 139h44c0 -66.667 22.833 -121 68.5 -163s104.834 -63 177.501 -63c73.333 0 132.666 21 177.999 63s68 96.333 68 163h44z" />
    <glyph glyph-name="obreve" unicode="&#x14f;" horiz-adv-x="1304" 
d="M652 -16c-107.333 0 -201.5 23 -282.5 69s-144.167 109.5 -189.5 190.5s-68 174.5 -68 280.5s22.667 200.167 68 282.5s108.5 146.833 189.5 193.5s175.167 70 282.5 70s201.5 -23.333 282.5 -70s144.167 -111.167 189.5 -193.5s68 -176.5 68 -282.5
s-22.667 -199.5 -68 -280.5s-108.5 -144.5 -189.5 -190.5s-175.167 -69 -282.5 -69zM652 28c97.333 0 182.833 21 256.5 63s131 100.333 172 175s61.5 160.667 61.5 258s-20.5 183.666 -61.5 258.999s-98.333 134.333 -172 177s-159.167 64 -256.5 64
s-182.833 -21.333 -256.5 -64s-131 -101.667 -172 -177s-61.5 -161.666 -61.5 -258.999s20.5 -183.333 61.5 -258s98.333 -133 172 -175s159.167 -63 256.5 -63zM940 1514c0 -52.667 -12.167 -99 -36.5 -139s-58.333 -71.167 -102 -93.5s-94.167 -33.5 -151.5 -33.5
s-107.833 11.167 -151.5 33.5s-77.667 53.5 -102 93.5s-36.5 86.333 -36.5 139h44c0 -66.667 22.833 -121 68.5 -163s104.834 -63 177.501 -63c73.333 0 132.666 21 177.999 63s68 96.333 68 163h44z" />
    <glyph glyph-name="Ohungarumlaut" unicode="&#x150;" horiz-adv-x="1728" 
d="M864 -16c-112.667 0 -215.5 18.667 -308.5 56s-173.333 90.333 -241 159s-120 150.167 -157 244.5s-55.5 198.5 -55.5 312.5c0 112.667 18.5 215.667 55.5 309s89.333 174 157 242s148 120.5 241 157.5s195.833 55.5 308.5 55.5s215.5 -18.5 308.5 -55.5
s173.333 -89.5 241 -157.5s120 -148.667 157 -242s55.5 -196.333 55.5 -309c0 -114 -18.5 -218.167 -55.5 -312.5s-89.333 -175.833 -157 -244.5s-148 -121.667 -241 -159s-195.833 -56 -308.5 -56zM864 32c140.667 0 264.334 30.667 371.001 92
s189.834 146.5 249.501 255.5s89.5 234.5 89.5 376.5c0 140.667 -29.833 264.834 -89.5 372.501s-142.834 191.834 -249.501 252.501s-230.334 91 -371.001 91s-264.334 -30.333 -371.001 -91s-189.834 -144.834 -249.501 -252.501s-89.5 -231.834 -89.5 -372.501
c0 -142 29.833 -267.5 89.5 -376.5s142.834 -194.167 249.501 -255.5s230.334 -92 371.001 -92zM850 1960l38 -30l-246 -290l-30 26zM1170 1960l38 -30l-246 -290l-30 26z" />
    <glyph glyph-name="ohungarumlaut" unicode="&#x151;" horiz-adv-x="1304" 
d="M652 -16c-107.333 0 -201.5 23 -282.5 69s-144.167 109.5 -189.5 190.5s-68 174.5 -68 280.5s22.667 200.167 68 282.5s108.5 146.833 189.5 193.5s175.167 70 282.5 70s201.5 -23.333 282.5 -70s144.167 -111.167 189.5 -193.5s68 -176.5 68 -282.5
s-22.667 -199.5 -68 -280.5s-108.5 -144.5 -189.5 -190.5s-175.167 -69 -282.5 -69zM652 28c97.333 0 182.833 21 256.5 63s131 100.333 172 175s61.5 160.667 61.5 258s-20.5 183.666 -61.5 258.999s-98.333 134.333 -172 177s-159.167 64 -256.5 64
s-182.833 -21.333 -256.5 -64s-131 -101.667 -172 -177s-61.5 -161.666 -61.5 -258.999s20.5 -183.333 61.5 -258s98.333 -133 172 -175s159.167 -63 256.5 -63zM638 1548l38 -30l-246 -290l-30 26zM958 1548l38 -30l-246 -290l-30 26z" />
    <glyph glyph-name="OE" unicode="&#x152;" horiz-adv-x="2462" 
d="M928 -16c-128.667 0 -243.835 18.6689 -345.502 56.002s-188.334 90.166 -260.001 158.499s-126.334 149.5 -164.001 243.5s-56.5 197.333 -56.5 310c0 113.333 18.833 217 56.5 311s92.334 175.167 164.001 243.5s158.334 121 260.001 158s216.834 55.5 345.501 55.5
c41.333 0 84 -1.33301 128 -4s85 -5.33398 123 -8.00098s68.333 -4 91 -4l-16 -54c-60 6 -120.333 11.167 -181 15.5s-109 6.5 -145 6.5c-162 0 -300.833 -30.333 -416.5 -91s-204.167 -145.167 -265.5 -253.5s-92 -233.5 -92 -375.5
c0 -141.333 30.667 -266.166 92 -374.499s149.833 -193 265.5 -254s254.5 -91.5 416.5 -91.5c35.333 0 83.5 2 144.5 6s121.5 9.33301 181.5 16l16 -54c-22 0 -52 -1.33301 -90 -4s-79.167 -5.33398 -123.5 -8.00098s-87.166 -4 -128.499 -4zM1266 736.002v46h682v-46h-682z
M1238 0.00195312v1504h1090v-390h-50v344h-990v-1412h1008v344h50v-390h-1108z" />
    <glyph glyph-name="oe" unicode="&#x153;" horiz-adv-x="2288" 
d="M662 -16c-108.667 0 -204.333 22.999 -287 68.999s-147.167 109.5 -193.5 190.5s-69.5 174.5 -69.5 280.5c0 106.667 23.167 201 69.5 283s110.833 146.333 193.5 193s179 70 289 70c106 0 199.667 -21.667 281 -65s145.5 -103.333 192.5 -180s72.5 -165 76.5 -265
l-26 -168h-10c-8.66699 -66.667 -34.167 -131.167 -76.5 -193.5s-100.5 -113.666 -174.5 -153.999s-162.333 -60.5 -265 -60.5zM666.001 27.999c98.667 0 185.667 21 261 63s134.333 100.333 177 175s64 160.667 64 258c0 99.333 -21.333 186.5 -64 261.5
s-101.667 133.5 -177 175.5s-162.333 63 -261 63c-99.333 0 -186.833 -21 -262.5 -63s-134.834 -100.5 -177.501 -175.5s-64 -162.167 -64 -261.5c0 -97.333 21.333 -183.333 64 -258s101.834 -133 177.501 -175s163.167 -63 262.5 -63zM1688 -16.001
c-101.333 0 -190.502 21.998 -267.502 65.998s-137.5 105 -181.5 183s-67 167.667 -69 269l26 156h10c7.33301 69.333 31 135.5 71 198.5s94.5 114.333 163.5 154s150.833 59.5 245.5 59.5c99.333 0 186.5 -22.667 261.5 -68s133.5 -108 175.5 -188s63 -172 63 -276v-11v-13
h-48c0 4 0.333008 8.5 1 13.5s1 9.83301 1 14.5c0 95.333 -19.167 179.333 -57.5 252s-91.666 129.5 -159.999 170.5s-147.833 61.5 -238.5 61.5c-92 0 -173.167 -21.167 -243.5 -63.5s-125.333 -101.166 -165 -176.499s-59.5 -162.666 -59.5 -261.999
c0 -97.333 20 -183.333 60 -258s95.5 -133 166.5 -175s152.833 -63 245.5 -63c99.333 0 186.333 23.833 261 71.5s132.334 112.5 173.001 194.5l44 -18c-42.667 -90 -105.5 -161.167 -188.5 -213.5s-179.5 -78.5 -289.5 -78.5zM1200 513.997v38h972l12 -38h-984z" />
    <glyph glyph-name="Racute" unicode="&#x154;" horiz-adv-x="1598" 
d="M932 768c63.333 -0.666992 109.5 -13 138.5 -37s51.5 -59 67.5 -105l208 -580h178v-46h-212l-214 598c-18.667 52 -41.5 88 -68.5 108s-65.5 30 -115.5 30h-66zM600 1458l0.000976562 46.001h278c170 0 297.5 -33.167 382.5 -99.5s127.5 -154.5 127.5 -264.5
c0 -71.333 -17 -134.5 -51 -189.5s-80.333 -99.5 -139 -133.5s-125.334 -55 -200.001 -63v-12l-90 -6h-532v46h498c100.667 0 185.5 15.5 254.5 46.5s121.167 73.167 156.5 126.5s53 113.666 53 180.999c0 98 -39 176.167 -117 234.5s-193 87.5 -345 87.5h-276zM54.001 1458
v46h612v-46h-282v-1412h282v-46h-612v46h282v1412h-282zM948.001 1932l30 -38l-306 -224l-24 32z" />
    <glyph glyph-name="racute" unicode="&#x155;" horiz-adv-x="888" 
d="M394 42h234v-42h-528v42h246v968h-246v42h294v-1010zM846 1008c-8.66699 2 -18.168 3.83301 -28.501 5.5s-24.166 2.5 -41.499 2.5c-116 0 -208.667 -46 -278 -138s-104 -218.667 -104 -380l-16 222h20c11.333 61.333 33 118.5 65 171.5s74.333 95.667 127 128
s116 48.5 190 48.5c13.333 0 24.5 -0.5 33.5 -1.5s19.833 -2.5 32.5 -4.5v-54zM641.999 1520l30 -38l-306 -224l-24 32z" />
    <glyph glyph-name="uni0156" unicode="&#x156;" horiz-adv-x="1598" 
d="M932 768c63.333 -0.666992 109.5 -13 138.5 -37s51.5 -59 67.5 -105l208 -580h178v-46h-212l-214 598c-18.667 52 -41.5 88 -68.5 108s-65.5 30 -115.5 30h-66zM600 1458l0.000976562 46.001h278c170 0 297.5 -33.167 382.5 -99.5s127.5 -154.5 127.5 -264.5
c0 -71.333 -17 -134.5 -51 -189.5s-80.333 -99.5 -139 -133.5s-125.334 -55 -200.001 -63v-12l-90 -6h-532v46h498c100.667 0 185.5 15.5 254.5 46.5s121.167 73.167 156.5 126.5s53 113.666 53 180.999c0 98 -39 176.167 -117 234.5s-193 87.5 -345 87.5h-276zM54.001 1458
v46h612v-46h-282v-1412h282v-46h-612v46h282v1412h-282zM762.001 -187.999h84v-62l-26 -42h-58v104zM818.001 -187.999h27.999v-164c0 -28 -7.66699 -48.667 -23 -62s-35.666 -20 -60.999 -20h-2v26h2c17.333 0 31 4.66699 41 14s15 23.333 15 42v164z" />
    <glyph glyph-name="uni0157" unicode="&#x157;" horiz-adv-x="888" 
d="M394 42h234v-42h-528v42h246v968h-246v42h294v-1010zM846 1008c-8.66699 2 -18.168 3.83301 -28.501 5.5s-24.166 2.5 -41.499 2.5c-116 0 -208.667 -46 -278 -138s-104 -218.667 -104 -380l-16 222h20c11.333 61.333 33 118.5 65 171.5s74.333 95.667 127 128
s116 48.5 190 48.5c13.333 0 24.5 -0.5 33.5 -1.5s19.833 -2.5 32.5 -4.5v-54zM317.999 -188h84v-62l-26 -42h-58v104zM373.999 -188h27.999v-164c0 -28 -7.66699 -48.667 -23 -62s-35.666 -20 -60.999 -20h-2v26h2c17.333 0 31 4.66699 41 14s15 23.333 15 42v164z" />
    <glyph glyph-name="Rcaron" unicode="&#x158;" horiz-adv-x="1598" 
d="M932 768c63.333 -0.666992 109.5 -13 138.5 -37s51.5 -59 67.5 -105l208 -580h178v-46h-212l-214 598c-18.667 52 -41.5 88 -68.5 108s-65.5 30 -115.5 30h-66zM600 1458l0.000976562 46.001h278c170 0 297.5 -33.167 382.5 -99.5s127.5 -154.5 127.5 -264.5
c0 -71.333 -17 -134.5 -51 -189.5s-80.333 -99.5 -139 -133.5s-125.334 -55 -200.001 -63v-12l-90 -6h-532v46h498c100.667 0 185.5 15.5 254.5 46.5s121.167 73.167 156.5 126.5s53 113.666 53 180.999c0 98 -39 176.167 -117 234.5s-193 87.5 -345 87.5h-276zM54.001 1458
v46h612v-46h-282v-1412h282v-46h-612v46h282v1412h-282zM796.001 1685l276 200l-22 30l-270 -186l-270 186l-22 -30l276 -200h32z" />
    <glyph glyph-name="rcaron" unicode="&#x159;" horiz-adv-x="888" 
d="M394 42h234v-42h-528v42h246v968h-246v42h294v-1010zM846 1008c-8.66699 2 -18.168 3.83301 -28.501 5.5s-24.166 2.5 -41.499 2.5c-116 0 -208.667 -46 -278 -138s-104 -218.667 -104 -380l-16 222h20c11.333 61.333 33 118.5 65 171.5s74.333 95.667 127 128
s116 48.5 190 48.5c13.333 0 24.5 -0.5 33.5 -1.5s19.833 -2.5 32.5 -4.5v-54zM489.999 1273l276 200l-22 30l-270 -186l-270 186l-22 -30l276 -200h32z" />
    <glyph glyph-name="Sacute" unicode="&#x15a;" horiz-adv-x="1324" 
d="M734 -20c-160 0 -286.33 32.1709 -378.997 96.5039s-153 145.5 -181 243.5h-14l10 136c20 -140 78.667 -247 176 -321s226 -111 386 -111c143.333 0 252.166 30.167 326.499 90.5s111.5 146.833 111.5 259.5c0 72 -16.167 132.5 -48.5 181.5s-85 89.167 -158 120.5
s-170.167 56.666 -291.5 75.999c-131.333 21.333 -237 48.666 -317 81.999s-138.167 75.666 -174.5 126.999s-54.5 114.333 -54.5 189c0 120 41.833 212.333 125.5 277s198.5 97 344.5 97c104.667 0 192.667 -15.167 264 -45.5s127.666 -71.166 168.999 -122.499
s69.666 -108 84.999 -170h14l-12 -138c-20.667 142 -74 249.5 -160 322.5s-204 109.5 -354 109.5c-132 0 -236 -28.167 -312 -84.5s-114 -137.5 -114 -243.5c0 -64.667 15.833 -119.167 47.5 -163.5s84.334 -81.333 158.001 -111s173.167 -54.834 298.5 -75.501
c130 -21.333 234.667 -49.833 314 -85.5s137.166 -81.167 173.499 -136.5s54.5 -123.333 54.5 -204c0 -126.667 -41.833 -224.334 -125.5 -293.001s-204.5 -103 -362.5 -103zM120.003 0.00390625v456h50v-456h-50zM1116 1048v456h50v-456h-50zM836.003 1932l30 -38
l-306 -224l-24 32z" />
    <glyph glyph-name="sacute" unicode="&#x15b;" horiz-adv-x="1064" 
d="M582 -16c-80.667 0 -147.83 11.667 -201.497 35s-96.334 52.833 -128.001 88.5s-54.5 72.5 -68.5 110.5h-16l12 118c15.333 -92 56.166 -166.667 122.499 -224s157.5 -86 273.5 -86c101.333 0 181.666 21.333 240.999 64s89 103.334 89 182.001
c0 69.333 -27.667 124.666 -83 165.999s-147.666 71.333 -276.999 90c-142 21.333 -244.833 54.166 -308.5 98.499s-95.5 105.5 -95.5 183.5c0 82 31.833 145.5 95.5 190.5s148.5 67.5 254.5 67.5c80.667 0 147 -11.5 199 -34.5s92.167 -51.167 120.5 -84.5
s47.833 -65.666 58.5 -96.999h16l-12 -116c-14.667 86 -52.834 156.167 -114.501 210.5s-150.167 81.5 -265.5 81.5c-92 0 -166 -18.833 -222 -56.5s-84 -91.5 -84 -161.5c0 -66 29 -117 87 -153s150.333 -63.667 277 -83c142 -22 244.167 -57 306.5 -105
s93.5 -113 93.5 -195c0 -90.667 -33.167 -161.667 -99.5 -213s-156.5 -77 -270.5 -77zM132.004 0v336h48v-336h-48zM874.004 736v316h48v-316h-48zM706.004 1520l30 -38l-306 -224l-24 32z" />
    <glyph glyph-name="Scircumflex" unicode="&#x15c;" horiz-adv-x="1324" 
d="M734 -20c-160 0 -286.33 32.1709 -378.997 96.5039s-153 145.5 -181 243.5h-14l10 136c20 -140 78.667 -247 176 -321s226 -111 386 -111c143.333 0 252.166 30.167 326.499 90.5s111.5 146.833 111.5 259.5c0 72 -16.167 132.5 -48.5 181.5s-85 89.167 -158 120.5
s-170.167 56.666 -291.5 75.999c-131.333 21.333 -237 48.666 -317 81.999s-138.167 75.666 -174.5 126.999s-54.5 114.333 -54.5 189c0 120 41.833 212.333 125.5 277s198.5 97 344.5 97c104.667 0 192.667 -15.167 264 -45.5s127.666 -71.166 168.999 -122.499
s69.666 -108 84.999 -170h14l-12 -138c-20.667 142 -74 249.5 -160 322.5s-204 109.5 -354 109.5c-132 0 -236 -28.167 -312 -84.5s-114 -137.5 -114 -243.5c0 -64.667 15.833 -119.167 47.5 -163.5s84.334 -81.333 158.001 -111s173.167 -54.834 298.5 -75.501
c130 -21.333 234.667 -49.833 314 -85.5s137.166 -81.167 173.499 -136.5s54.5 -123.333 54.5 -204c0 -126.667 -41.833 -224.334 -125.5 -293.001s-204.5 -103 -362.5 -103zM120.003 0.00390625v456h50v-456h-50zM1116 1048v456h50v-456h-50zM684.003 1908l276 -200
l-22 -30l-270 186l-270 -186l-22 30l276 200h32z" />
    <glyph glyph-name="scircumflex" unicode="&#x15d;" horiz-adv-x="1064" 
d="M582 -16c-80.667 0 -147.83 11.667 -201.497 35s-96.334 52.833 -128.001 88.5s-54.5 72.5 -68.5 110.5h-16l12 118c15.333 -92 56.166 -166.667 122.499 -224s157.5 -86 273.5 -86c101.333 0 181.666 21.333 240.999 64s89 103.334 89 182.001
c0 69.333 -27.667 124.666 -83 165.999s-147.666 71.333 -276.999 90c-142 21.333 -244.833 54.166 -308.5 98.499s-95.5 105.5 -95.5 183.5c0 82 31.833 145.5 95.5 190.5s148.5 67.5 254.5 67.5c80.667 0 147 -11.5 199 -34.5s92.167 -51.167 120.5 -84.5
s47.833 -65.666 58.5 -96.999h16l-12 -116c-14.667 86 -52.834 156.167 -114.501 210.5s-150.167 81.5 -265.5 81.5c-92 0 -166 -18.833 -222 -56.5s-84 -91.5 -84 -161.5c0 -66 29 -117 87 -153s150.333 -63.667 277 -83c142 -22 244.167 -57 306.5 -105
s93.5 -113 93.5 -195c0 -90.667 -33.167 -161.667 -99.5 -213s-156.5 -77 -270.5 -77zM132.004 0v336h48v-336h-48zM874.004 736v316h48v-316h-48zM554.004 1496l276 -200l-22 -30l-270 186l-270 -186l-22 30l276 200h32z" />
    <glyph glyph-name="Scedilla" unicode="&#x15e;" horiz-adv-x="1324" 
d="M734 -20c-160 0 -286.33 32.1709 -378.997 96.5039s-153 145.5 -181 243.5h-14l10 136c20 -140 78.667 -247 176 -321s226 -111 386 -111c143.333 0 252.166 30.167 326.499 90.5s111.5 146.833 111.5 259.5c0 72 -16.167 132.5 -48.5 181.5s-85 89.167 -158 120.5
s-170.167 56.666 -291.5 75.999c-131.333 21.333 -237 48.666 -317 81.999s-138.167 75.666 -174.5 126.999s-54.5 114.333 -54.5 189c0 120 41.833 212.333 125.5 277s198.5 97 344.5 97c104.667 0 192.667 -15.167 264 -45.5s127.666 -71.166 168.999 -122.499
s69.666 -108 84.999 -170h14l-12 -138c-20.667 142 -74 249.5 -160 322.5s-204 109.5 -354 109.5c-132 0 -236 -28.167 -312 -84.5s-114 -137.5 -114 -243.5c0 -64.667 15.833 -119.167 47.5 -163.5s84.334 -81.333 158.001 -111s173.167 -54.834 298.5 -75.501
c130 -21.333 234.667 -49.833 314 -85.5s137.166 -81.167 173.499 -136.5s54.5 -123.333 54.5 -204c0 -126.667 -41.833 -224.334 -125.5 -293.001s-204.5 -103 -362.5 -103zM120.003 0.00390625v456h50v-456h-50zM1116 1048v456h50v-456h-50zM484.003 -375.996
c19.333 -4.66699 40.334 -8.83301 63.001 -12.5s48.334 -5.5 77.001 -5.5c71.333 0 128.166 10 170.499 30s63.5 48 63.5 84c0 25.333 -11 46.333 -33 63s-55.667 25 -101 25h-190v44h192c61.333 0 106.666 -12.333 135.999 -37s44 -55.667 44 -93
c0 -48 -24.5 -86.333 -73.5 -115s-118.5 -43 -208.5 -43c-30 0 -57.833 2 -83.5 6s-49.167 9.33301 -70.5 16zM630.004 0.00488281h48l-98 -148h-46z" />
    <glyph glyph-name="scedilla" unicode="&#x15f;" horiz-adv-x="1064" 
d="M582 -16c-80.667 0 -147.83 11.667 -201.497 35s-96.334 52.833 -128.001 88.5s-54.5 72.5 -68.5 110.5h-16l12 118c15.333 -92 56.166 -166.667 122.499 -224s157.5 -86 273.5 -86c101.333 0 181.666 21.333 240.999 64s89 103.334 89 182.001
c0 69.333 -27.667 124.666 -83 165.999s-147.666 71.333 -276.999 90c-142 21.333 -244.833 54.166 -308.5 98.499s-95.5 105.5 -95.5 183.5c0 82 31.833 145.5 95.5 190.5s148.5 67.5 254.5 67.5c80.667 0 147 -11.5 199 -34.5s92.167 -51.167 120.5 -84.5
s47.833 -65.666 58.5 -96.999h16l-12 -116c-14.667 86 -52.834 156.167 -114.501 210.5s-150.167 81.5 -265.5 81.5c-92 0 -166 -18.833 -222 -56.5s-84 -91.5 -84 -161.5c0 -66 29 -117 87 -153s150.333 -63.667 277 -83c142 -22 244.167 -57 306.5 -105
s93.5 -113 93.5 -195c0 -90.667 -33.167 -161.667 -99.5 -213s-156.5 -77 -270.5 -77zM132.004 0v336h48v-336h-48zM874.004 736v316h48v-316h-48zM358.004 -376c19.333 -4.66699 40.334 -8.83301 63.001 -12.5s48.334 -5.5 77.001 -5.5c71.333 0 128.166 10 170.499 30
s63.5 48 63.5 84c0 25.333 -11 46.333 -33 63s-55.667 25 -101 25h-190v44h192c61.333 0 106.666 -12.333 135.999 -37s44 -55.667 44 -93c0 -48 -24.5 -86.333 -73.5 -115s-118.5 -43 -208.5 -43c-30 0 -57.833 2 -83.5 6s-49.167 9.33301 -70.5 16zM504.005 0.000976562
h48l-98 -148h-46z" />
    <glyph glyph-name="Scaron" unicode="&#x160;" horiz-adv-x="1324" 
d="M734 -20c-160 0 -286.33 32.1709 -378.997 96.5039s-153 145.5 -181 243.5h-14l10 136c20 -140 78.667 -247 176 -321s226 -111 386 -111c143.333 0 252.166 30.167 326.499 90.5s111.5 146.833 111.5 259.5c0 72 -16.167 132.5 -48.5 181.5s-85 89.167 -158 120.5
s-170.167 56.666 -291.5 75.999c-131.333 21.333 -237 48.666 -317 81.999s-138.167 75.666 -174.5 126.999s-54.5 114.333 -54.5 189c0 120 41.833 212.333 125.5 277s198.5 97 344.5 97c104.667 0 192.667 -15.167 264 -45.5s127.666 -71.166 168.999 -122.499
s69.666 -108 84.999 -170h14l-12 -138c-20.667 142 -74 249.5 -160 322.5s-204 109.5 -354 109.5c-132 0 -236 -28.167 -312 -84.5s-114 -137.5 -114 -243.5c0 -64.667 15.833 -119.167 47.5 -163.5s84.334 -81.333 158.001 -111s173.167 -54.834 298.5 -75.501
c130 -21.333 234.667 -49.833 314 -85.5s137.166 -81.167 173.499 -136.5s54.5 -123.333 54.5 -204c0 -126.667 -41.833 -224.334 -125.5 -293.001s-204.5 -103 -362.5 -103zM120.003 0.00390625v456h50v-456h-50zM1116 1048v456h50v-456h-50zM684.003 1685l276 200l-22 30
l-270 -186l-270 186l-22 -30l276 -200h32z" />
    <glyph glyph-name="scaron" unicode="&#x161;" horiz-adv-x="1064" 
d="M582 -16c-80.667 0 -147.83 11.667 -201.497 35s-96.334 52.833 -128.001 88.5s-54.5 72.5 -68.5 110.5h-16l12 118c15.333 -92 56.166 -166.667 122.499 -224s157.5 -86 273.5 -86c101.333 0 181.666 21.333 240.999 64s89 103.334 89 182.001
c0 69.333 -27.667 124.666 -83 165.999s-147.666 71.333 -276.999 90c-142 21.333 -244.833 54.166 -308.5 98.499s-95.5 105.5 -95.5 183.5c0 82 31.833 145.5 95.5 190.5s148.5 67.5 254.5 67.5c80.667 0 147 -11.5 199 -34.5s92.167 -51.167 120.5 -84.5
s47.833 -65.666 58.5 -96.999h16l-12 -116c-14.667 86 -52.834 156.167 -114.501 210.5s-150.167 81.5 -265.5 81.5c-92 0 -166 -18.833 -222 -56.5s-84 -91.5 -84 -161.5c0 -66 29 -117 87 -153s150.333 -63.667 277 -83c142 -22 244.167 -57 306.5 -105
s93.5 -113 93.5 -195c0 -90.667 -33.167 -161.667 -99.5 -213s-156.5 -77 -270.5 -77zM132.004 0v336h48v-336h-48zM874.004 736v316h48v-316h-48zM554.004 1273l276 200l-22 30l-270 -186l-270 186l-22 -30l276 -200h32z" />
    <glyph glyph-name="uni0162" unicode="&#x162;" horiz-adv-x="1484" 
d="M1430 1504v-438h-50v392h-614v-1412h280v-46h-612v46h282v1412h-612v-392h-50v438h1376zM556 -376c19.333 -4.66699 40.334 -8.83301 63.001 -12.5s48.334 -5.5 77.001 -5.5c71.333 0 128.166 10 170.499 30s63.5 48 63.5 84c0 25.333 -11 46.333 -33 63
s-55.667 25 -101 25h-190v44h192c61.333 0 106.666 -12.333 135.999 -37s44 -55.667 44 -93c0 -48 -24.5 -86.333 -73.5 -115s-118.5 -43 -208.5 -43c-30 0 -57.833 2 -83.5 6s-49.167 9.33301 -70.5 16zM708.001 8.00098l42 -8l-98 -148h-46z" />
    <glyph glyph-name="uni0163" unicode="&#x163;" horiz-adv-x="842" 
d="M312 270c0 -76.667 15.498 -135.834 46.498 -177.501s80.833 -62.5 149.5 -62.5c66 0 115.167 20.833 147.5 62.5s48.5 100.834 48.5 177.501v88h48v-88c0 -60.667 -9.16699 -112.334 -27.5 -155.001s-45.666 -75.167 -81.999 -97.5s-81.166 -33.5 -134.499 -33.5
c-56 0 -102 11.167 -138 33.5s-62.667 54.833 -80 97.5s-26 94.334 -26 155.001l2 740h-212v42h212v270h48v-270h432v-42h-432zM321.998 -376c19.333 -4.66699 40.334 -8.83301 63.001 -12.5s48.334 -5.5 77.001 -5.5c71.333 0 128.166 10 170.499 30s63.5 48 63.5 84
c0 25.333 -11 46.333 -33 63s-55.667 25 -101 25h-190v44h192c61.333 0 106.666 -12.333 135.999 -37s44 -55.667 44 -93c0 -48 -24.5 -86.333 -73.5 -115s-118.5 -43 -208.5 -43c-30 0 -57.833 2 -83.5 6s-49.167 9.33301 -70.5 16zM467.999 0.000976562h48l-98 -148h-46z
" />
    <glyph glyph-name="Tcaron" unicode="&#x164;" horiz-adv-x="1484" 
d="M1430 1504v-438h-50v392h-614v-1412h280v-46h-612v46h282v1412h-612v-392h-50v438h1376zM756 1685l276 200l-22 30l-270 -186l-270 186l-22 -30l276 -200h32z" />
    <glyph glyph-name="tcaron" unicode="&#x165;" horiz-adv-x="842" 
d="M312 270c0 -76.667 15.498 -135.834 46.498 -177.501s80.833 -62.5 149.5 -62.5c66 0 115.167 20.833 147.5 62.5s48.5 100.834 48.5 177.501v88h48v-88c0 -60.667 -9.16699 -112.334 -27.5 -155.001s-45.666 -75.167 -81.999 -97.5s-81.166 -33.5 -134.499 -33.5
c-56 0 -102 11.167 -138 33.5s-62.667 54.833 -80 97.5s-26 94.334 -26 155.001l2 740h-212v42h212v270h48v-270h432v-42h-432zM697.998 1580h48l-10 -430h-38v430z" />
    <glyph glyph-name="Tbar" unicode="&#x166;" horiz-adv-x="1484" 
d="M374 704v42h714v-42h-714zM1430 1504v-438h-50v392h-614v-1412h280v-46h-612v46h282v1412h-612v-392h-50v438h1376z" />
    <glyph glyph-name="tbar" unicode="&#x167;" horiz-adv-x="840" 
d="M312 268c0 -74.667 15.501 -132.999 46.501 -174.999s80.833 -63 149.5 -63c67.333 0 117.166 20.833 149.499 62.5s48.5 100.834 48.5 177.501v84h44v-84c0 -60.667 -8.83301 -112.334 -26.5 -155.001s-44.5 -75.167 -80.5 -97.5s-81.667 -33.5 -137 -33.5
c-56 0 -101.833 11.667 -137.5 35s-62 56.166 -79 98.499s-25.5 92.5 -25.5 150.5l2 742h-212v42h212v270h48v-270h432v-42h-432zM54.001 650.001v40h692v-40h-692z" />
    <glyph glyph-name="Utilde" unicode="&#x168;" horiz-adv-x="1738" 
d="M1102 1504h608v-46h-280v-866c0 -123.333 -18.833 -230.5 -56.5 -321.5s-97.667 -161.5 -180 -211.5s-190.833 -75 -325.5 -75c-134 0 -242 25 -324 75s-141.833 120.5 -179.5 211.5s-56.5 198.167 -56.5 321.5v866h-280v46h610v-46h-280v-866
c0 -114 16.667 -213 50 -297s87.5 -148.833 162.5 -194.5s174.833 -68.5 299.5 -68.5c124 0 223.667 22.833 299 68.5s130 110.5 164 194.5s51 183 51 297v866h-282v46zM1145 1918l37.999 -5.00195c-10.667 -72.667 -31.334 -125.667 -62.001 -159s-70.334 -50 -119.001 -50
c-34.667 0 -63.667 8.33301 -87 25s-47 41.334 -71 74.001c-22.667 31.333 -43.5 54.166 -62.5 68.499s-42.167 21.5 -69.5 21.5c-37.333 0 -68.166 -13.667 -92.499 -41s-41.5 -71.666 -51.5 -132.999l-39 5c10.667 72.667 31.334 125.834 62.001 159.501
s70.334 50.5 119.001 50.5c35.333 0 64.5 -8.33301 87.5 -25s46.833 -41.667 71.5 -75c22.667 -30.667 43.5 -53.167 62.5 -67.5s42.167 -21.5 69.5 -21.5c37.333 0 68 13.667 92 41s41.333 71.333 52 132z" />
    <glyph glyph-name="utilde" unicode="&#x169;" horiz-adv-x="1410" 
d="M1060 1010h-232v42h280v-1010h244v-42h-292v1010zM324 1052v-674c0 -110 23.333 -196.167 70 -258.5s124 -93.5 232 -93.5c84.667 0 159.667 20.833 225 62.5s116.5 101.5 153.5 179.5s55.5 172 55.5 282l18 -212h-22c-22 -114.667 -72.5 -202.667 -151.5 -264
s-174.5 -92 -286.5 -92c-122 0 -209.5 34.5 -262.5 103.5s-79.5 163.833 -79.5 284.5v640h-228v42h276zM931 1506l37.999 -5.00195c-10.667 -72.667 -31.334 -125.667 -62.001 -159s-70.334 -50 -119.001 -50c-34.667 0 -63.667 8.33301 -87 25s-47 41.334 -71 74.001
c-22.667 31.333 -43.5 54.166 -62.5 68.499s-42.167 21.5 -69.5 21.5c-37.333 0 -68.166 -13.667 -92.499 -41s-41.5 -71.666 -51.5 -132.999l-39 5c10.667 72.667 31.334 125.834 62.001 159.501s70.334 50.5 119.001 50.5c35.333 0 64.5 -8.33301 87.5 -25
s46.833 -41.667 71.5 -75c22.667 -30.667 43.5 -53.167 62.5 -67.5s42.167 -21.5 69.5 -21.5c37.333 0 68 13.667 92 41s41.333 71.333 52 132z" />
    <glyph glyph-name="Umacron" unicode="&#x16a;" horiz-adv-x="1738" 
d="M1102 1504h608v-46h-280v-866c0 -123.333 -18.833 -230.5 -56.5 -321.5s-97.667 -161.5 -180 -211.5s-190.833 -75 -325.5 -75c-134 0 -242 25 -324 75s-141.833 120.5 -179.5 211.5s-56.5 198.167 -56.5 321.5v866h-280v46h610v-46h-280v-866
c0 -114 16.667 -213 50 -297s87.5 -148.833 162.5 -194.5s174.833 -68.5 299.5 -68.5c124 0 223.667 22.833 299 68.5s130 110.5 164 194.5s51 183 51 297v866h-282v46zM1132 1812v-42h-546v42h546z" />
    <glyph glyph-name="umacron" unicode="&#x16b;" horiz-adv-x="1410" 
d="M1060 1010h-232v42h280v-1010h244v-42h-292v1010zM324 1052v-674c0 -110 23.333 -196.167 70 -258.5s124 -93.5 232 -93.5c84.667 0 159.667 20.833 225 62.5s116.5 101.5 153.5 179.5s55.5 172 55.5 282l18 -212h-22c-22 -114.667 -72.5 -202.667 -151.5 -264
s-174.5 -92 -286.5 -92c-122 0 -209.5 34.5 -262.5 103.5s-79.5 163.833 -79.5 284.5v640h-228v42h276zM918 1400v-42h-546v42h546z" />
    <glyph glyph-name="Ubreve" unicode="&#x16c;" horiz-adv-x="1738" 
d="M1102 1504h608v-46h-280v-866c0 -123.333 -18.833 -230.5 -56.5 -321.5s-97.667 -161.5 -180 -211.5s-190.833 -75 -325.5 -75c-134 0 -242 25 -324 75s-141.833 120.5 -179.5 211.5s-56.5 198.167 -56.5 321.5v866h-280v46h610v-46h-280v-866
c0 -114 16.667 -213 50 -297s87.5 -148.833 162.5 -194.5s174.833 -68.5 299.5 -68.5c124 0 223.667 22.833 299 68.5s130 110.5 164 194.5s51 183 51 297v866h-282v46zM1146 1926c0 -52.667 -12.167 -99 -36.5 -139s-58.333 -71.167 -102 -93.5s-94.167 -33.5 -151.5 -33.5
s-107.833 11.167 -151.5 33.5s-77.667 53.5 -102 93.5s-36.5 86.333 -36.5 139h44c0 -66.667 22.833 -121 68.5 -163s104.834 -63 177.501 -63c73.333 0 132.666 21 177.999 63s68 96.333 68 163h44z" />
    <glyph glyph-name="ubreve" unicode="&#x16d;" horiz-adv-x="1410" 
d="M1060 1010h-232v42h280v-1010h244v-42h-292v1010zM324 1052v-674c0 -110 23.333 -196.167 70 -258.5s124 -93.5 232 -93.5c84.667 0 159.667 20.833 225 62.5s116.5 101.5 153.5 179.5s55.5 172 55.5 282l18 -212h-22c-22 -114.667 -72.5 -202.667 -151.5 -264
s-174.5 -92 -286.5 -92c-122 0 -209.5 34.5 -262.5 103.5s-79.5 163.833 -79.5 284.5v640h-228v42h276zM932 1514c0 -52.667 -12.167 -99 -36.5 -139s-58.333 -71.167 -102 -93.5s-94.167 -33.5 -151.5 -33.5s-107.833 11.167 -151.5 33.5s-77.667 53.5 -102 93.5
s-36.5 86.333 -36.5 139h44c0 -66.667 22.833 -121 68.5 -163s104.834 -63 177.501 -63c73.333 0 132.666 21 177.999 63s68 96.333 68 163h44z" />
    <glyph glyph-name="Uring" unicode="&#x16e;" horiz-adv-x="1738" 
d="M1102 1504h608v-46h-280v-866c0 -123.333 -18.833 -230.5 -56.5 -321.5s-97.667 -161.5 -180 -211.5s-190.833 -75 -325.5 -75c-134 0 -242 25 -324 75s-141.833 120.5 -179.5 211.5s-56.5 198.167 -56.5 321.5v866h-280v46h610v-46h-280v-866
c0 -114 16.667 -213 50 -297s87.5 -148.833 162.5 -194.5s174.833 -68.5 299.5 -68.5c124 0 223.667 22.833 299 68.5s130 110.5 164 194.5s51 183 51 297v866h-282v46zM858 1620c-60.667 0 -110.834 19.832 -150.501 59.499s-59.5 87.834 -59.5 144.501
c0 59.333 19.833 107.833 59.5 145.5s89.834 56.5 150.501 56.5c62 0 112.833 -18.833 152.5 -56.5s59.5 -86.167 59.5 -145.5c0 -58 -19.833 -106.5 -59.5 -145.5s-90.5 -58.5 -152.5 -58.5zM858 1660c49.333 0 89.666 15.667 120.999 47s47 70.333 47 117
c0 47.333 -15.667 86.166 -47 116.499s-71.666 45.5 -120.999 45.5c-48 0 -88 -15.167 -120 -45.5s-48 -69.166 -48 -116.499c0 -46.667 16 -85.667 48 -117s72 -47 120 -47z" />
    <glyph glyph-name="uring" unicode="&#x16f;" horiz-adv-x="1410" 
d="M1060 1010h-232v42h280v-1010h244v-42h-292v1010zM324 1052v-674c0 -110 23.333 -196.167 70 -258.5s124 -93.5 232 -93.5c84.667 0 159.667 20.833 225 62.5s116.5 101.5 153.5 179.5s55.5 172 55.5 282l18 -212h-22c-22 -114.667 -72.5 -202.667 -151.5 -264
s-174.5 -92 -286.5 -92c-122 0 -209.5 34.5 -262.5 103.5s-79.5 163.833 -79.5 284.5v640h-228v42h276zM644 1208c-60.667 0 -110.834 19.832 -150.501 59.499s-59.5 87.834 -59.5 144.501c0 59.333 19.833 107.833 59.5 145.5s89.834 56.5 150.501 56.5
c62 0 112.833 -18.833 152.5 -56.5s59.5 -86.167 59.5 -145.5c0 -58 -19.833 -106.5 -59.5 -145.5s-90.5 -58.5 -152.5 -58.5zM644 1248c49.333 0 89.666 15.667 120.999 47s47 70.333 47 117c0 47.333 -15.667 86.166 -47 116.499s-71.666 45.5 -120.999 45.5
c-48 0 -88 -15.167 -120 -45.5s-48 -69.166 -48 -116.499c0 -46.667 16 -85.667 48 -117s72 -47 120 -47z" />
    <glyph glyph-name="Uhungarumlaut" unicode="&#x170;" horiz-adv-x="1738" 
d="M1102 1504h608v-46h-280v-866c0 -123.333 -18.833 -230.5 -56.5 -321.5s-97.667 -161.5 -180 -211.5s-190.833 -75 -325.5 -75c-134 0 -242 25 -324 75s-141.833 120.5 -179.5 211.5s-56.5 198.167 -56.5 321.5v866h-280v46h610v-46h-280v-866
c0 -114 16.667 -213 50 -297s87.5 -148.833 162.5 -194.5s174.833 -68.5 299.5 -68.5c124 0 223.667 22.833 299 68.5s130 110.5 164 194.5s51 183 51 297v866h-282v46zM844 1960l38 -30l-246 -290l-30 26zM1164 1960l38 -30l-246 -290l-30 26z" />
    <glyph glyph-name="uhungarumlaut" unicode="&#x171;" horiz-adv-x="1410" 
d="M1060 1010h-232v42h280v-1010h244v-42h-292v1010zM324 1052v-674c0 -110 23.333 -196.167 70 -258.5s124 -93.5 232 -93.5c84.667 0 159.667 20.833 225 62.5s116.5 101.5 153.5 179.5s55.5 172 55.5 282l18 -212h-22c-22 -114.667 -72.5 -202.667 -151.5 -264
s-174.5 -92 -286.5 -92c-122 0 -209.5 34.5 -262.5 103.5s-79.5 163.833 -79.5 284.5v640h-228v42h276zM630 1548l38 -30l-246 -290l-30 26zM950 1548l38 -30l-246 -290l-30 26z" />
    <glyph glyph-name="Uogonek" unicode="&#x172;" horiz-adv-x="1738" 
d="M1102 1504h608v-46h-280v-866c0 -123.333 -18.833 -230.5 -56.5 -321.5s-97.667 -161.5 -180 -211.5s-190.833 -75 -325.5 -75c-134 0 -242 25 -324 75s-141.833 120.5 -179.5 211.5s-56.5 198.167 -56.5 321.5v866h-280v46h610v-46h-280v-866
c0 -114 16.667 -213 50 -297s87.5 -148.833 162.5 -194.5s174.833 -68.5 299.5 -68.5c124 0 223.667 22.833 299 68.5s130 110.5 164 194.5s51 183 51 297v866h-282v46zM1158 -366l9.99805 -40.002c-18.667 -6.66699 -39.667 -13 -63 -19s-49 -9 -77 -9
c-42.667 0 -81.167 7.66699 -115.5 23s-61.666 37.5 -81.999 66.5s-30.5 64.5 -30.5 106.5c0 51.333 15.5 93.833 46.5 127.5s75.5 65.834 133.5 96.501v20l148 22c-98 -38.667 -169.167 -77.167 -213.5 -115.5s-66.5 -85.166 -66.5 -140.499c0 -52 17.333 -92 52 -120
s79.334 -42 134.001 -42c22 0 43.5 2.5 64.5 7.5s40.833 10.5 59.5 16.5z" />
    <glyph glyph-name="uogonek" unicode="&#x173;" horiz-adv-x="1410" 
d="M1060 1010h-232v42h280v-1010h244v-42h-292v1010zM324 1052v-674c0 -110 23.333 -196.167 70 -258.5s124 -93.5 232 -93.5c84.667 0 159.667 20.833 225 62.5s116.5 101.5 153.5 179.5s55.5 172 55.5 282l18 -212h-22c-22 -114.667 -72.5 -202.667 -151.5 -264
s-174.5 -92 -286.5 -92c-122 0 -209.5 34.5 -262.5 103.5s-79.5 163.833 -79.5 284.5v640h-228v42h276zM1342 -376l12.002 -40.001c-16.667 -4.66699 -35 -9.16699 -55 -13.5s-41.667 -6.5 -65 -6.5c-42.667 0 -79.834 7.66699 -111.501 23s-56.334 37.333 -74.001 66
s-26.5 63 -26.5 103c0 61.333 21.5 110.333 64.5 147s104.833 68.334 185.5 95.001v20l80 -18c-102.667 -34 -175.667 -68.5 -219 -103.5s-65 -79.167 -65 -132.5c0 -48 15.167 -86 45.5 -114s72.5 -42 126.5 -42c19.333 0 37.5 1.66699 54.5 5s32.833 7 47.5 11z" />
    <glyph glyph-name="Wcircumflex" unicode="&#x174;" horiz-adv-x="2526" 
d="M1890 1504h600v-46h-170l-496 -1458h-62l-518 1458l46 -64h-52l46 64l-522 -1458h-62l-494 1458h-170v46h600v-46h-378l492 -1458l-46 64h54l-46 -64l524 1458h-314v46h684v-46h-312l520 -1458l-48 64h54l-44 -64l496 1458h-382v46zM1280 1908l276 -200l-22 -30l-270 186
l-270 -186l-22 30l276 200h32z" />
    <glyph glyph-name="wcircumflex" unicode="&#x175;" horiz-adv-x="1982" 
d="M1448 1052h494v-42h-160l-374 -1010h-58l-376 1018l40 -54h-48l42 54l-372 -1018h-58l-376 1010h-162v42h484v-42h-270l370 -1010l-42 52h50l-40 -52l372 1010h-226v42h508v-42h-224l376 -1010l-42 52h48l-38 -52l368 1010h-286v42zM1008 1496l276 -200l-22 -30l-270 186
l-270 -186l-22 30l276 200h32z" />
    <glyph glyph-name="Ycircumflex" unicode="&#x176;" horiz-adv-x="1728" 
d="M1500 1458l-612 -766h-46l-614 766h-192v46h608v-46h-354l592 -738l-44 22h54l-40 -22l590 738h-358v46h608v-46h-192zM890 730v-684h280v-46h-612v46h282v684h50zM880 1908l276 -200l-22 -30l-270 186l-270 -186l-22 30l276 200h32z" />
    <glyph glyph-name="ycircumflex" unicode="&#x177;" horiz-adv-x="1302" 
d="M776 1052l496 0.000976562v-42l-176 -2l-484 -1176c-32.667 -80.667 -81.167 -142.834 -145.5 -186.501s-146.5 -65.5 -246.5 -65.5h-94v44h94c88 0 160.5 18.333 217.5 55s100.5 91 130.5 163l78 184l-6 -44l-426 1028h-184v42h504v-42h-266l406 -998l-44 44h46l-26 -28
l398 982h-272v42zM668 1496l276 -200l-22 -30l-270 186l-270 -186l-22 30l276 200h32z" />
    <glyph glyph-name="Ydieresis" unicode="&#x178;" horiz-adv-x="1728" 
d="M1500 1458l-612 -766h-46l-614 766h-192v46h608v-46h-354l592 -738l-44 22h54l-40 -22l590 738h-358v46h608v-46h-192zM890 730v-684h280v-46h-612v46h282v684h50zM682 1834h80v-80h-80v80zM966 1834h80v-80h-80v80z" />
    <glyph glyph-name="Zacute" unicode="&#x179;" horiz-adv-x="1332" 
d="M82 46l1102 1408v20l64 -16l-1102 -1408v-18zM1248 1504v-46h-1080v-344h-50v390h1130zM1186 390h50v-390h-1154v46h1104v344zM834 1932l30 -38l-306 -224l-24 32z" />
    <glyph glyph-name="zacute" unicode="&#x17a;" horiz-adv-x="1150" 
d="M130 42l840 966v18l66 -16l-838 -964v-20zM1036 1052v-42h-824v-260h-48v302h872zM978 304h48v-304h-896v42h848v262zM746 1520l30 -38l-306 -224l-24 32z" />
    <glyph glyph-name="Zdotaccent" unicode="&#x17b;" horiz-adv-x="1332" 
d="M82 46l1102 1408v20l64 -16l-1102 -1408v-18zM1248 1504v-46h-1080v-344h-50v390h1130zM1186 390h50v-390h-1154v46h1104v344zM622 1842h86v-88h-86v88z" />
    <glyph glyph-name="zdotaccent" unicode="&#x17c;" horiz-adv-x="1150" 
d="M130 42l840 966v18l66 -16l-838 -964v-20zM1036 1052v-42h-824v-260h-48v302h872zM978 304h48v-304h-896v42h848v262zM534 1430h86v-88h-86v88z" />
    <glyph glyph-name="Zcaron" unicode="&#x17d;" horiz-adv-x="1332" 
d="M82 46l1102 1408v20l64 -16l-1102 -1408v-18zM1248 1504v-46h-1080v-344h-50v390h1130zM1186 390h50v-390h-1154v46h1104v344zM682 1685l276 200l-22 30l-270 -186l-270 186l-22 -30l276 -200h32z" />
    <glyph glyph-name="zcaron" unicode="&#x17e;" horiz-adv-x="1150" 
d="M130 42l840 966v18l66 -16l-838 -964v-20zM1036 1052v-42h-824v-260h-48v302h872zM978 304h48v-304h-896v42h848v262zM594 1273l276 200l-22 30l-270 -186l-270 186l-22 -30l276 -200h32z" />
    <glyph glyph-name="longs" unicode="&#x17f;" horiz-adv-x="706" 
d="M100 0l-0.000976562 41.998h246v968h-246v42h246v210c0 112 29.333 195.667 88 251s139.334 83 242.001 83c92 0 164.833 -21.667 218.5 -65s88.834 -105.666 105.501 -186.999l-46 -12c-16.667 73.333 -47.667 128 -93 164s-107 54 -185 54
c-84.667 0 -152.834 -23.167 -204.501 -69.5s-77.5 -119.166 -77.5 -218.499v-1220h336v-42h-630z" />
    <glyph glyph-name="uni018F" unicode="&#x18f;" horiz-adv-x="1709" 
d="M1570 789v-45h-1476l-3 45h1479zM847 1520c114.667 0 218.504 -18.666 311.504 -55.999s173 -90 240 -158s118.5 -148.667 154.5 -242s54 -196 54 -308c0 -114 -18.5 -218.167 -55.5 -312.5s-89.167 -175.833 -156.5 -244.5s-147.5 -121.667 -240.5 -159
s-195.5 -56 -307.5 -56c-112.667 0 -215.5 18.667 -308.5 56s-173.167 90.333 -240.5 159s-119.333 150.167 -156 244.5s-55 198.5 -55 312.5c0 6 0.166992 11.833 0.5 17.5s0.5 10.834 0.5 15.501l52 -4v-14.5v-14.5c0 -142 29.833 -267.333 89.5 -376
s142.667 -193.667 249 -255s229.166 -92 368.499 -92s262.166 30.667 368.499 92s189.5 146.333 249.5 255s90 234 90 376c0 140.667 -29.333 264.667 -88 372s-141.167 191.333 -247.5 252s-230.5 91 -372.5 91c-148.667 0 -281.334 -34.833 -398.001 -104.5
s-202.334 -172.834 -257.001 -309.501l-49 19c59.333 147.333 151.5 258.166 276.5 332.499s267.5 111.5 427.5 111.5z" />
    <glyph glyph-name="florin" unicode="&#x192;" horiz-adv-x="964" 
d="M468 1256l-0.000976562 -204h442v-42h-442v-1144c0 -96.667 -25.167 -171.167 -75.5 -223.5s-124.5 -78.5 -222.5 -78.5c-80.667 0 -145.167 18.667 -193.5 56s-80.5 92 -96.5 164l44 12c25.333 -124 107.333 -186 246 -186c81.333 0 143.333 21.667 186 65
s64 107 64 191v1144h-366v42h366v204c0 108 28.167 191.667 84.5 251s139.5 89 249.5 89c91.333 0 164.5 -21.667 219.5 -65s91.833 -107 110.5 -191l-44 -14c-33.333 149.333 -128.666 224 -285.999 224c-92.667 0 -163.5 -25 -212.5 -75s-73.5 -123 -73.5 -219z" />
    <glyph glyph-name="Ohorn" unicode="&#x1a0;" horiz-adv-x="1728" 
d="M864 -16c-112.667 0 -215.5 18.667 -308.5 56s-173.333 90.333 -241 159s-120 150.167 -157 244.5s-55.5 198.5 -55.5 312.5c0 112.667 18.5 215.667 55.5 309s89.333 174 157 242s148 120.5 241 157.5s195.833 55.5 308.5 55.5s215.5 -18.5 308.5 -55.5
s173.333 -89.5 241 -157.5s120 -148.667 157 -242s55.5 -196.333 55.5 -309c0 -114 -18.5 -218.167 -55.5 -312.5s-89.333 -175.833 -157 -244.5s-148 -121.667 -241 -159s-195.833 -56 -308.5 -56zM864 32c140.667 0 264.334 30.667 371.001 92
s189.834 146.5 249.501 255.5s89.5 234.5 89.5 376.5c0 140.667 -29.833 264.834 -89.5 372.501s-142.834 191.834 -249.501 252.501s-230.334 91 -371.001 91s-264.334 -30.333 -371.001 -91s-189.834 -144.834 -249.501 -252.501s-89.5 -231.834 -89.5 -372.501
c0 -142 29.833 -267.5 89.5 -376.5s142.834 -194.167 249.501 -255.5s230.334 -92 371.001 -92zM1535 1742l-0.00292969 -95.999c0.666992 -70 -15.666 -122.833 -48.999 -158.5s-84.666 -53.5 -153.999 -53.5c-16 0 -33.5 1 -52.5 3s-37.5 4.33301 -55.5 7l-16 -24l-176 84
c28 -6 58.333 -11.333 91 -16s64.334 -8.33398 95.001 -11.001s56.667 -4 78 -4c65.333 0 113.333 14 144 42s46 72.333 46 133v94h49z" />
    <glyph glyph-name="ohorn" unicode="&#x1a1;" horiz-adv-x="1304" 
d="M652 -16c-107.333 0 -201.5 23 -282.5 69s-144.167 109.5 -189.5 190.5s-68 174.5 -68 280.5s22.667 200.167 68 282.5s108.5 146.833 189.5 193.5s175.167 70 282.5 70s201.5 -23.333 282.5 -70s144.167 -111.167 189.5 -193.5s68 -176.5 68 -282.5
s-22.667 -199.5 -68 -280.5s-108.5 -144.5 -189.5 -190.5s-175.167 -69 -282.5 -69zM652 28c97.333 0 182.833 21 256.5 63s131 100.333 172 175s61.5 160.667 61.5 258s-20.5 183.666 -61.5 258.999s-98.333 134.333 -172 177s-159.167 64 -256.5 64
s-182.833 -21.333 -256.5 -64s-131 -101.667 -172 -177s-61.5 -161.666 -61.5 -258.999s20.5 -183.333 61.5 -258s98.333 -133 172 -175s159.167 -63 256.5 -63zM1162 1287l-0.00195312 -101c0 -62 -14.167 -109 -42.5 -141s-72.166 -48 -131.499 -48
c-8.66699 0 -19.167 0.666992 -31.5 2s-25.833 3.33301 -40.5 6l-18 -26l-104 75c28 -8 56.333 -14.333 85 -19s55.334 -7 80.001 -7c52.667 0 91.667 13 117 39s38 67 38 123v97h48z" />
    </font>
</defs>
</svg>
