<?xml version="1.0" standalone="no"?>
<!DOCTYPE svg PUBLIC "-//W3C//DTD SVG 1.1//EN" "http://www.w3.org/Graphics/SVG/1.1/DTD/svg11.dtd" >
<svg xmlns="http://www.w3.org/2000/svg" xmlns:xlink="http://www.w3.org/1999/xlink" version="1.1">
<metadata>
Created by FontForge 20170731 at Sun Apr 18 02:28:31 2021
 By Aleksey,,,
Copyright (c) 2018 by TypeType. Designers Ivan Gladkikh, Pavel Emelyanov. Technical designers Marina Khodak, Vika Usmanova, Nadyr Rakhimov. All rights reserved.
</metadata>
<defs>
<font id="TTCommons-Medium" horiz-adv-x="1024" >
  <font-face 
    font-family="TT Commons Light"
    font-weight="500"
    font-stretch="normal"
    units-per-em="2048"
    panose-1="2 0 8 6 3 0 0 2 0 4"
    ascent="1434"
    descent="-614"
    x-height="922"
    cap-height="1290"
    bbox="-369 -532 2945 1751"
    underline-thickness="102"
    underline-position="-307"
    unicode-range="U+000D-FB06"
  />
<missing-glyph horiz-adv-x="0" 
 />
    <glyph glyph-name="ff" unicode="ff" horiz-adv-x="1105" 
d="M1065 922v-174h-205v-748h-184v748h-338v-748h-184v748h-113v174h113v20q0 144 80.5 231t205.5 87q27 0 53 -5t38 -11l12 -5v-164q-31 10 -62 10q-61 0 -102 -40.5t-41 -102.5v-20h338v61q0 144 81 230.5t206 86.5q27 0 52.5 -5t37.5 -10l12 -5v-164q-30 10 -61 10
q-62 0 -103 -41t-41 -102v-61h205z" />
    <glyph glyph-name="uniFB01" unicode="fi" horiz-adv-x="983" 
d="M860 922v-922h-184v748h-338v-748h-184v748h-113v174h113v61q0 144 80.5 230.5t205.5 86.5q27 0 53 -5t38 -10l12 -5v-164q-31 10 -62 10q-61 0 -102 -41t-41 -102v-61h522zM768 1065q-46 0 -79.5 33.5t-33.5 79.5t33.5 79t79.5 33t79.5 -33t33.5 -79t-33.5 -79.5
t-79.5 -33.5z" />
    <glyph glyph-name="uniFB02" unicode="fl" horiz-adv-x="1003" 
d="M543 922v-174h-205v-748h-184v748h-113v174h113v20q0 162 105 265.5t273 103.5q36 0 74.5 -7.5t59.5 -15.5l20 -8h184v-1280h-184v1096q-8 6 -22.5 14.5t-55 22.5t-76.5 14q-85 0 -139.5 -56.5t-54.5 -148.5v-20h205z" />
    <glyph glyph-name="ffi" unicode="ffi" horiz-adv-x="1505" 
d="M1382 922v-922h-184v748h-338v-748h-184v748h-338v-748h-184v748h-113v174h113v20q0 144 80.5 231t205.5 87q27 0 53 -5t38 -11l12 -5v-164q-31 10 -62 10q-61 0 -102 -40.5t-41 -102.5v-20h338v61q0 144 81 230.5t206 86.5q27 0 52.5 -5t37.5 -10l12 -5v-164
q-30 10 -61 10q-62 0 -103 -41t-41 -102v-61h522zM1290 1065q-46 0 -79 33.5t-33 79.5t33 79t79 33t79.5 -33t33.5 -79t-33.5 -79.5t-79.5 -33.5z" />
    <glyph glyph-name="ffl" unicode="ffl" horiz-adv-x="1525" 
d="M1065 922v-174h-205v-748h-184v748h-338v-748h-184v748h-113v174h113v20q0 144 80.5 231t205.5 87q27 0 53 -5t38 -11l12 -5v-164q-31 10 -62 10q-61 0 -102 -40.5t-41 -102.5v-20h338v20q0 162 105.5 265.5t273.5 103.5q36 0 74.5 -7.5t58.5 -15.5l20 -8h185v-1280h-185
v1096q-8 6 -22 14.5t-54.5 22.5t-76.5 14q-85 0 -140 -56.5t-55 -148.5v-20h205z" />
    <glyph glyph-name="f_f_j" unicode="ffj" horiz-adv-x="1505" 
d="M1198 -20v768h-338v-748h-184v748h-338v-748h-184v748h-113v174h113v20q0 144 80.5 231t205.5 87q27 0 53 -5t38 -11l12 -5v-164q-31 10 -62 10q-61 0 -102 -40.5t-41 -102.5v-20h338v61q0 144 81 230.5t206 86.5q27 0 52.5 -5t37.5 -10l12 -5v-164q-30 10 -61 10
q-62 0 -103 -41t-41 -102v-61h522v-942q0 -144 -80.5 -231t-205.5 -87q-27 0 -53 5t-38 11l-12 5v163q31 -10 62 -10q61 0 102 41t41 103zM1290 1065q-46 0 -79 33.5t-33 79.5t33 79t79 33t79.5 -33t33.5 -79t-33.5 -79.5t-79.5 -33.5z" />
    <glyph glyph-name="f_j" unicode="fj" horiz-adv-x="983" 
d="M676 -20v768h-338v-748h-184v748h-113v174h113v61q0 144 80.5 230.5t205.5 86.5q27 0 53 -5t38 -10l12 -5v-164q-31 10 -62 10q-61 0 -102 -41t-41 -102v-61h522v-942q0 -144 -81 -231t-206 -87q-27 0 -52.5 5t-37.5 11l-12 5v163q30 -10 61 -10q62 0 103 41t41 103z
M768 1065q-46 0 -79.5 33.5t-33.5 79.5t33.5 79t79.5 33t79.5 -33t33.5 -79t-33.5 -79.5t-79.5 -33.5z" />
    <glyph glyph-name="f_t" unicode="ft" horiz-adv-x="1177" 
d="M881 748v-441q0 -61 40.5 -102t102.5 -41q14 0 29 2.5t23 5.5l9 2v-164q-41 -20 -102 -20q-125 0 -206 86.5t-81 230.5v441h-358v-748h-184v748h-113v174h113v61q0 144 80.5 230.5t205.5 86.5q27 0 53 -5t38 -10l12 -5v-164q-31 10 -62 10q-61 0 -102 -41t-41 -102v-61
h266q54 0 88.5 34t34.5 88v123h154v-245h204v-174h-204z" />
    <glyph glyph-name="f_h" unicode="fh" horiz-adv-x="1607" 
d="M1126 932q156 0 262.5 -112.5t106.5 -287.5v-532h-184v532q0 92 -65 159t-150 67q-92 0 -159 -67t-67 -159v-532h-184v1096q-8 6 -22.5 14.5t-55 22.5t-76.5 14q-85 0 -139.5 -56.5t-54.5 -148.5v-20h205v-174h-205v-748h-184v748h-113v174h113v20q0 162 105 265.5
t273 103.5q36 0 74.5 -7.5t59.5 -15.5l20 -8h184v-451l11 11t32 25t52.5 31.5t71 24.5t89.5 11z" />
    <glyph glyph-name="f_k" unicode="fk" horiz-adv-x="1433" 
d="M1454 0h-225l-359 440v-440h-184v1096q-8 6 -22.5 14.5t-55 22.5t-76.5 14q-85 0 -139.5 -56.5t-54.5 -148.5v-20h205v-174h-205v-748h-184v748h-113v174h113v20q0 162 105 265.5t273 103.5q36 0 74.5 -7.5t59.5 -15.5l20 -8h184v-758l318 400h215l-359 -430z" />
    <glyph glyph-name="f_b" unicode="fb" horiz-adv-x="1638" 
d="M1126 -10q-52 0 -98 10.5t-75.5 25.5t-51.5 30t-31 26l-10 10l-41 -92h-133v1096q-8 6 -22.5 14.5t-55 22.5t-76.5 14q-85 0 -139.5 -56.5t-54.5 -148.5v-20h205v-174h-205v-748h-184v748h-113v174h113v20q0 162 105 265.5t273 103.5q36 0 74.5 -7.5t59.5 -15.5l20 -8
h184v-451q3 4 9.5 11t30.5 25t51 31.5t71.5 24.5t93.5 11q187 0 314 -133t127 -338t-127 -338t-314 -133zM1116 758q-110 0 -188 -84.5t-78 -212.5t78 -212.5t188 -84.5t188 84.5t78 212.5t-78 212.5t-188 84.5z" />
    <glyph glyph-name="f_f_h" unicode="ffh" horiz-adv-x="2129" 
d="M1649 932q156 0 262 -112.5t106 -287.5v-532h-184v532q0 92 -65 159t-150 67q-92 0 -158.5 -67t-66.5 -159v-532h-185v1096q-8 6 -22 14.5t-54.5 22.5t-76.5 14q-85 0 -140 -56.5t-55 -148.5v-20h205v-174h-205v-748h-184v748h-338v-748h-184v748h-113v174h113v20
q0 144 80.5 231t205.5 87q27 0 53 -5t38 -11l12 -5v-164q-31 10 -62 10q-61 0 -102 -40.5t-41 -102.5v-20h338v20q0 162 105.5 265.5t273.5 103.5q36 0 74.5 -7.5t58.5 -15.5l20 -8h185v-451l11 11t32 25t52.5 31.5t71 24.5t89.5 11z" />
    <glyph glyph-name="f_f_k" unicode="ffk" horiz-adv-x="1955" 
d="M1976 0h-225l-358 440v-440h-185v1096q-8 6 -22 14.5t-54.5 22.5t-76.5 14q-85 0 -140 -56.5t-55 -148.5v-20h205v-174h-205v-748h-184v748h-338v-748h-184v748h-113v174h113v20q0 144 80.5 231t205.5 87q27 0 53 -5t38 -11l12 -5v-164q-31 10 -62 10q-61 0 -102 -40.5
t-41 -102.5v-20h338v20q0 162 105.5 265.5t273.5 103.5q36 0 74.5 -7.5t58.5 -15.5l20 -8h185v-758l317 400h215l-358 -430z" />
    <glyph glyph-name="f_f_b" unicode="ffb" horiz-adv-x="2160" 
d="M1649 -10q-52 0 -98 10.5t-75.5 25.5t-52 30t-31.5 26l-10 10l-41 -92h-133v1096q-8 6 -22 14.5t-54.5 22.5t-76.5 14q-85 0 -140 -56.5t-55 -148.5v-20h205v-174h-205v-748h-184v748h-338v-748h-184v748h-113v174h113v20q0 144 80.5 231t205.5 87q27 0 53 -5t38 -11
l12 -5v-164q-31 10 -62 10q-61 0 -102 -40.5t-41 -102.5v-20h338v20q0 162 105.5 265.5t273.5 103.5q36 0 74.5 -7.5t58.5 -15.5l20 -8h185v-451q3 4 9.5 11t30.5 25t51 31.5t71.5 24.5t93.5 11q187 0 313.5 -133t126.5 -338t-126.5 -338t-313.5 -133zM1638 758
q-110 0 -188 -84.5t-78 -212.5t78 -212.5t188 -84.5t188.5 84.5t78.5 212.5t-78.5 212.5t-188.5 84.5z" />
    <glyph glyph-name=".notdef" horiz-adv-x="0" 
 />
    <glyph glyph-name=".null" horiz-adv-x="0" 
 />
    <glyph glyph-name=".null" horiz-adv-x="0" 
 />
    <glyph glyph-name="nonmarkingreturn" horiz-adv-x="682" 
 />
    <glyph glyph-name="CR" unicode="&#xd;" horiz-adv-x="0" 
 />
    <glyph glyph-name="space" unicode=" " horiz-adv-x="450" 
 />
    <glyph glyph-name="exclam" unicode="!" horiz-adv-x="512" 
d="M369 1290l-31 -962h-164l-31 962h226zM369 102q0 -46 -33.5 -79t-79.5 -33t-79.5 33t-33.5 79t33.5 79.5t79.5 33.5t79.5 -33.5t33.5 -79.5z" />
    <glyph glyph-name="quotedbl" unicode="&#x22;" horiz-adv-x="645" 
d="M389 911v379h164v-379h-164zM92 911v379h164v-379h-164z" />
    <glyph glyph-name="numbersign" unicode="#" horiz-adv-x="1239" 
d="M1188 778h-246l-51 -266h246l-31 -143h-246l-72 -369h-143l72 369h-297l-72 -369h-143l71 369h-256l31 143h246l51 266h-246l31 144h246l72 368h143l-72 -368h297l72 368h143l-71 -368h256zM748 512l51 266h-307l-52 -266h308z" />
    <glyph glyph-name="dollar" unicode="$" 
d="M82 942q0 131 101 232t247 116v185h174v-195q142 -24 235 -126.5t93 -252.5h-195q0 100 -62.5 162.5t-162.5 62.5q-103 0 -169.5 -56t-66.5 -128q0 -42 23.5 -74.5t63.5 -53.5t91.5 -39t108.5 -35t113.5 -37t108 -50.5t91.5 -69t63.5 -98.5t23.5 -135q0 -133 -103 -234
t-256 -116v-184h-174v184q-156 8 -257 115t-101 274h194q0 -109 61.5 -167t184.5 -58q125 0 190.5 52t65.5 134q0 45 -23.5 80t-63 58t-91 41.5t-108.5 36t-114 37.5t-108.5 49t-91 66t-63 94.5t-23.5 129.5z" />
    <glyph glyph-name="percent" unicode="%" horiz-adv-x="1259" 
d="M307 0h-143l788 1290h144zM184 1024q0 -61 44.5 -107.5t99.5 -46.5t99 46.5t44 107.5t-44 107.5t-99 46.5t-99.5 -46.5t-44.5 -107.5zM594 1024q0 -107 -79.5 -186.5t-186.5 -79.5t-187 79.5t-80 186.5t80 186.5t187 79.5t186.5 -79.5t79.5 -186.5zM1075 266
q0 61 -44 107.5t-99 46.5t-99.5 -46.5t-44.5 -107.5t44.5 -107t99.5 -46t99 46t44 107zM666 266q0 107 79.5 186.5t186.5 79.5t186.5 -79.5t79.5 -186.5t-79.5 -186.5t-186.5 -79.5t-186.5 79.5t-79.5 186.5z" />
    <glyph glyph-name="ampersand" unicode="&#x26;" horiz-adv-x="1105" 
d="M1188 0h-236l-164 164q-5 -7 -14 -19t-41.5 -42t-70.5 -52.5t-100.5 -41.5t-131.5 -19q-151 0 -249.5 92t-98.5 225q0 60 22 118t54 98t63.5 71t53.5 46l22 15l-51 62q-3 4 -22.5 26.5t-24.5 29t-21 27.5t-22 31.5t-16.5 31.5t-14.5 37.5t-8 38.5t-4 44q0 124 93.5 215.5
t223.5 91.5t224 -91.5t94 -215.5q0 -90 -38 -149t-106 -117l-72 -62l236 -235l123 194h205l-205 -317zM358 829l62 -61l72 61q15 13 30.5 32t33 54t17.5 68q0 55 -41 94t-102 39t-102 -39t-41 -94q0 -83 71 -154zM440 154q40 0 79 12.5t66 30.5t48.5 36t32.5 31l10 12
l-256 256l-16.5 -11t-37 -30t-47 -47.5t-37 -62t-16.5 -74.5q0 -63 49.5 -108t124.5 -45z" />
    <glyph glyph-name="quotesingle" unicode="'" horiz-adv-x="348" 
d="M92 911v379h164v-379h-164z" />
    <glyph glyph-name="parenleft" unicode="(" horiz-adv-x="563" 
d="M276 461q0 -123 25.5 -247.5t61.5 -214t72 -161.5t61 -108l26 -37l-133 -92q-12 14 -31 40.5t-68.5 114.5t-87.5 181.5t-69 237t-31 286.5t29.5 284.5t72 241t84.5 178t72 117.5l29 39l133 -92q-10 -13 -26.5 -38t-59 -105t-75 -165t-59 -211t-26.5 -249z" />
    <glyph glyph-name="parenright" unicode=")" horiz-adv-x="563" 
d="M287 461q0 123 -25.5 247.5t-61.5 214t-72 161.5t-62 108l-25 37l133 92q12 -14 31 -40.5t68.5 -114.5t87.5 -181.5t69 -237t31 -286.5t-29.5 -284.5t-71.5 -241t-84.5 -178t-71.5 -117.5l-30 -39l-133 92q10 13 26.5 38t59 105t75 165t59 211t26.5 249z" />
    <glyph glyph-name="asterisk" unicode="*" horiz-adv-x="675" 
d="M113 799l133 164l-205 51l41 133l194 -72l-10 215h144l-11 -215l195 72l41 -133l-205 -51l133 -164l-123 -82l-102 174l-102 -174z" />
    <glyph glyph-name="plus" unicode="+" horiz-adv-x="931" 
d="M379 932h174v-328h317v-164h-317v-327h-174v327h-318v164h318v328z" />
    <glyph glyph-name="comma" unicode="," horiz-adv-x="348" 
d="M174 215q47 0 80 -35t33 -88q0 -57 -17 -108t-41 -82t-48 -54.5t-41 -33.5l-17 -9l-31 41q8 6 20.5 17t37.5 48.5t34 78.5q-53 0 -88 32.5t-35 79.5q0 46 33.5 79.5t79.5 33.5z" />
    <glyph glyph-name="hyphen" unicode="-" horiz-adv-x="716" 
d="M655 604v-164h-594v164h594z" />
    <glyph glyph-name="period" unicode="." horiz-adv-x="348" 
d="M287 102q0 -46 -33.5 -79t-79.5 -33t-79.5 33t-33.5 79t33.5 79.5t79.5 33.5t79.5 -33.5t33.5 -79.5z" />
    <glyph glyph-name="slash" unicode="/" horiz-adv-x="706" 
d="M707 1290l-533 -1659h-174l532 1659h175z" />
    <glyph glyph-name="zero" unicode="0" horiz-adv-x="1167" 
d="M901 645q0 114 -27.5 208t-73.5 152t-101.5 89.5t-114.5 31.5t-115 -31.5t-101.5 -89.5t-73.5 -152t-28 -208t28 -208t73.5 -152t101.5 -89.5t115 -31.5t114.5 31.5t101.5 89.5t73.5 152t27.5 208zM1096 645q0 -153 -41 -278.5t-111.5 -207t-163 -125.5t-196.5 -44
t-196.5 44t-163 125.5t-111.5 207t-41 278.5t41 278.5t111.5 207t163 125.5t196.5 44t196.5 -44t163 -125.5t111.5 -207t41 -278.5z" />
    <glyph glyph-name="one" unicode="1" horiz-adv-x="655" 
d="M369 1290h133v-1290h-195v1024l-174 -113l-92 154z" />
    <glyph glyph-name="two" unicode="2" horiz-adv-x="993" 
d="M360 184h551v-184h-829v143l512 553q5 5 13.5 14t29.5 36.5t37 54t29.5 63t13.5 68.5q0 87 -60 140.5t-165 53.5q-100 0 -163 -62.5t-63 -162.5h-194q0 178 114.5 288.5t305.5 110.5q189 0 304 -107t115 -271q0 -46 -19 -97.5t-46 -92.5t-54 -75.5t-46 -53.5l-19 -19z
" />
    <glyph glyph-name="three" unicode="3" horiz-adv-x="1013" 
d="M266 942h-194q8 151 124 254.5t296 103.5q86 0 163 -30t130.5 -80t84.5 -115t31 -133q0 -52 -17 -98t-41 -75.5t-48 -51.5t-41 -31l-17 -10q8 -3 22 -10t49.5 -34t62.5 -60t49 -90.5t22 -123.5q0 -151 -123 -259.5t-317 -108.5q-193 0 -313 103t-128 255h195
q8 -73 76 -128.5t170 -55.5q112 0 179 58.5t67 146.5q0 87 -67 145.5t-179 58.5h-92v175h82q97 0 156 52.5t59 131.5q0 86 -58.5 140t-156.5 54q-97 0 -157.5 -52.5t-68.5 -131.5z" />
    <glyph glyph-name="four" unicode="4" horiz-adv-x="993" 
d="M952 440v-184h-143v-256h-195v256h-573v164l543 870h225v-850h143zM266 440h348v564z" />
    <glyph glyph-name="five" unicode="5" horiz-adv-x="1034" 
d="M532 870q87 0 166.5 -34.5t137.5 -93t92.5 -140.5t34.5 -172q0 -185 -130 -312.5t-321 -127.5q-187 0 -304.5 103.5t-125.5 254.5h194q8 -73 74 -128.5t162 -55.5q108 0 182 75.5t74 190.5t-74 190.5t-182 75.5q-46 0 -87 -16t-67 -38t-45.5 -44.5t-28.5 -38.5l-8 -16
h-163l82 747h686v-184h-521l-32 -307q9 8 26 20t70 31.5t108 19.5z" />
    <glyph glyph-name="six" unicode="6" 
d="M512 -10q-191 0 -321 127.5t-130 312.5q0 43 12.5 91.5t31 87.5t36.5 71t31 50l12 18l359 542h215l-287 -430q41 10 82 10q107 0 201 -58t151.5 -160t57.5 -222q0 -185 -130 -312.5t-321 -127.5zM256 430q0 -115 74 -190.5t182 -75.5t182 75.5t74 190.5t-74 190.5
t-182 75.5t-182 -75.5t-74 -190.5z" />
    <glyph glyph-name="seven" unicode="7" horiz-adv-x="931" 
d="M72 1290h809v-133l-533 -1157h-205l512 1106h-583v184z" />
    <glyph glyph-name="eight" unicode="8" horiz-adv-x="1003" 
d="M502 -10q-195 0 -318 110.5t-123 268.5q0 50 11.5 95.5t29.5 77.5t39.5 59t43.5 44t40 29t29 17l12 5q-6 3 -16.5 9.5t-37 30.5t-46.5 51t-36.5 71.5t-16.5 93.5q0 141 112 244.5t277 103.5t277 -103.5t112 -244.5q0 -49 -16 -93t-38.5 -72.5t-45 -50t-38.5 -30.5
l-16 -10q8 -3 22 -10t49.5 -34.5t62.5 -61t49 -93t22 -128.5q0 -158 -122.5 -268.5t-317.5 -110.5zM502 594q-113 0 -179.5 -60.5t-66.5 -154.5t66.5 -154.5t179.5 -60.5t179.5 60.5t66.5 154.5t-66.5 154.5t-179.5 60.5zM502 768q83 0 138.5 51.5t55.5 122.5
q0 77 -55 130.5t-139 53.5t-139.5 -53.5t-55.5 -130.5q0 -71 56 -122.5t139 -51.5z" />
    <glyph glyph-name="nine" unicode="9" 
d="M512 1300q191 0 321 -127.5t130 -312.5q0 -43 -12.5 -91.5t-30.5 -87t-36.5 -71t-31.5 -50.5l-12 -17l-359 -543h-215l287 430q-31 -10 -82 -10q-107 0 -201 58t-151.5 160t-57.5 222q0 185 130 312.5t321 127.5zM768 860q0 115 -74 190.5t-182 75.5t-182 -75.5
t-74 -190.5t74 -190.5t182 -75.5t182 75.5t74 190.5z" />
    <glyph glyph-name="colon" unicode=":" horiz-adv-x="348" 
d="M287 809q0 -46 -33.5 -79.5t-79.5 -33.5t-79.5 33.5t-33.5 79.5t33.5 79.5t79.5 33.5t79.5 -33.5t33.5 -79.5zM287 102q0 -46 -33.5 -79t-79.5 -33t-79.5 33t-33.5 79t33.5 79.5t79.5 33.5t79.5 -33.5t33.5 -79.5z" />
    <glyph glyph-name="semicolon" unicode=";" horiz-adv-x="348" 
d="M287 809q0 -46 -33.5 -79.5t-79.5 -33.5t-79.5 33.5t-33.5 79.5t33.5 79.5t79.5 33.5t79.5 -33.5t33.5 -79.5zM174 215q47 0 80 -35t33 -88q0 -57 -17 -108t-41 -82t-48 -54.5t-41 -33.5l-17 -9l-31 41q8 6 20.5 17t37.5 48.5t34 78.5q-53 0 -88 32.5t-35 79.5
q0 46 33.5 79.5t79.5 33.5z" />
    <glyph glyph-name="less" unicode="&#x3c;" horiz-adv-x="911" 
d="M307 451l522 -267v-184l-747 389v123l747 389v-184z" />
    <glyph glyph-name="equal" unicode="=" horiz-adv-x="921" 
d="M61 799h799v-174h-799v174zM61 246v174h799v-174h-799z" />
    <glyph glyph-name="greater" unicode="&#x3e;" horiz-adv-x="911" 
d="M82 184l522 267l-522 266v184l747 -389v-123l-747 -389v184z" />
    <glyph glyph-name="question" unicode="?" horiz-adv-x="880" 
d="M819 932q0 -60 -16.5 -109t-42.5 -83.5t-57.5 -65t-63.5 -61.5t-58 -66t-42.5 -86t-16.5 -113v-20h-184v20q0 79 16.5 143t42.5 106t57.5 76t63.5 61.5t58 55t42.5 63.5t16.5 79q0 77 -55.5 130.5t-139.5 53.5q-87 0 -140.5 -61.5t-53.5 -173.5v-21h-185v21
q0 189 107.5 304t271.5 115q161 0 270 -107t109 -261zM543 102q0 -46 -33.5 -79t-79.5 -33t-79.5 33t-33.5 79t33.5 79.5t79.5 33.5t79.5 -33.5t33.5 -79.5z" />
    <glyph glyph-name="at" unicode="@" horiz-adv-x="1536" 
d="M778 1147q143 0 272.5 -54t222.5 -144.5t147.5 -213t54.5 -254.5q0 -170 -83 -269t-204 -99q-46 0 -86 11.5t-64.5 28t-42 33t-25.5 28.5l-7 11q-3 -5 -8.5 -12.5t-26.5 -26.5t-45 -34t-63.5 -27t-82.5 -12q-133 0 -225 98.5t-92 249.5t92 249.5t225 98.5q37 0 72 -9.5
t58 -23t41 -27t26 -23.5l8 -9l31 82h112v-400q0 -153 103 -153q59 0 96 56.5t37 178.5q0 141 -73 264t-198.5 196t-271.5 73q-110 0 -210 -43.5t-173 -117.5t-116 -176.5t-43 -215.5t43 -215.5t116 -176.5t173 -117.5t210 -43.5q49 0 97 9.5t82 23t60.5 27t40.5 22.5l13 10
l78 -117q-6 -4 -18 -11.5t-51 -26t-79.5 -33t-101.5 -26t-121 -11.5q-143 0 -272.5 54.5t-222 146t-147 218.5t-54.5 267t54.5 267t147 218.5t222 146t272.5 54.5zM758 246q86 0 140 58.5t54 156.5t-54 156.5t-140 58.5q-78 0 -136.5 -62.5t-58.5 -152.5t58.5 -152.5
t136.5 -62.5z" />
    <glyph glyph-name="A" unicode="A" horiz-adv-x="1146" 
d="M317 297l-112 -297h-205l492 1290h163l492 -1290h-205l-113 297h-512zM389 481h369l-185 512z" />
    <glyph glyph-name="B" unicode="B" horiz-adv-x="1157" 
d="M901 686q7 -4 19.5 -11.5t44.5 -35.5t56 -61t44 -89.5t20 -119.5q0 -149 -117.5 -259t-291.5 -110h-522v1290h512q153 0 260.5 -105.5t107.5 -252.5q0 -46 -13.5 -88t-33 -69.5t-39.5 -48.5t-34 -30zM348 1106v-348h318q76 0 130 52t54 122t-54 122t-130 52h-318z
M676 184q91 0 153 60t62 145t-62 145t-153 60h-328v-410h328z" />
    <glyph glyph-name="C" unicode="C" horiz-adv-x="1310" 
d="M266 645q0 -101 35.5 -191.5t94 -153t134.5 -99.5t156 -37q140 0 232.5 77t125.5 199h205q-48 -194 -198.5 -322t-364.5 -128q-162 0 -303 86t-226 237.5t-85 331.5t85 331.5t226 237.5t303 86q207 0 356 -128.5t197 -321.5h-205q-32 121 -123.5 198.5t-224.5 77.5
q-80 0 -156 -37t-134.5 -99.5t-94 -153t-35.5 -191.5z" />
    <glyph glyph-name="D" unicode="D" horiz-adv-x="1228" 
d="M348 184h195q107 0 203.5 59t156.5 166t60 236t-60 236t-156.5 166t-203.5 59h-195v-922zM543 0h-389v1290h389q121 0 234 -51t196.5 -137t133.5 -206t50 -251t-50 -251t-133.5 -206t-196.5 -137t-234 -51z" />
    <glyph glyph-name="E" unicode="E" horiz-adv-x="1126" 
d="M348 184h676v-184h-870v1290h850v-184h-656v-348h604v-185h-604v-389z" />
    <glyph glyph-name="F" unicode="F" horiz-adv-x="1034" 
d="M973 1106h-625v-369h512v-184h-512v-553h-194v1290h819v-184z" />
    <glyph glyph-name="G" unicode="G" horiz-adv-x="1372" 
d="M686 -10q-162 0 -303 86t-226 237.5t-85 331.5t85 331.5t226 237.5t303 86q104 0 198 -35.5t163.5 -95.5t119 -136.5t72.5 -162.5h-205q-33 108 -125 182t-223 74q-80 0 -156 -37t-134.5 -99.5t-94 -153t-35.5 -191.5t35.5 -191.5t94 -153t134.5 -99.5t156 -37
q149 0 252 90.5t127 226.5h-389v185h573v-666h-143l-51 123q-5 -5 -15.5 -14t-46.5 -32t-75.5 -40.5t-102.5 -32t-129 -14.5z" />
    <glyph glyph-name="H" unicode="H" horiz-adv-x="1290" 
d="M942 1290h195v-1290h-195v563h-594v-563h-194v1290h194v-542h594v542z" />
    <glyph glyph-name="I" unicode="I" horiz-adv-x="501" 
d="M348 1290v-1290h-194v1290h194z" />
    <glyph glyph-name="J" unicode="J" horiz-adv-x="952" 
d="M625 1290h194v-921q0 -163 -112 -271t-287 -108t-287.5 108t-112.5 271h195q0 -92 56.5 -148.5t148.5 -56.5t148.5 56.5t56.5 148.5v921z" />
    <glyph glyph-name="K" unicode="K" horiz-adv-x="1075" 
d="M1096 0h-236l-512 604v-604h-194v1290h194v-594l471 594h236l-523 -635z" />
    <glyph glyph-name="L" unicode="L" horiz-adv-x="983" 
d="M348 184h615v-184h-809v1290h194v-1106z" />
    <glyph glyph-name="M" unicode="M" horiz-adv-x="1556" 
d="M1239 1290h164v-1290h-195v799l-368 -799h-123l-369 799v-799h-194v1290h163l461 -993z" />
    <glyph glyph-name="N" unicode="N" horiz-adv-x="1290" 
d="M942 1290h195v-1290h-164l-625 922v-922h-194v1290h163l625 -921v921z" />
    <glyph glyph-name="O" unicode="O" horiz-adv-x="1372" 
d="M1106 645q0 101 -35.5 191.5t-94 153t-134.5 99.5t-156 37t-156 -37t-134.5 -99.5t-94 -153t-35.5 -191.5t35.5 -191.5t94 -153t134.5 -99.5t156 -37t156 37t134.5 99.5t94 153t35.5 191.5zM1300 645q0 -180 -85 -331.5t-226 -237.5t-303 -86t-303 86t-226 237.5
t-85 331.5t85 331.5t226 237.5t303 86t303 -86t226 -237.5t85 -331.5z" />
    <glyph glyph-name="P" unicode="P" horiz-adv-x="1105" 
d="M154 1290h471q169 0 289 -120t120 -289t-120 -289.5t-289 -120.5h-277v-471h-194v1290zM348 655h277q85 0 150 67t65 159q0 91 -64.5 158t-150.5 67h-277v-451z" />
    <glyph glyph-name="Q" unicode="Q" horiz-adv-x="1372" 
d="M686 -10q-162 0 -303 86t-226 237.5t-85 331.5t85 331.5t226 237.5t303 86t303 -86t226 -237.5t85 -331.5q0 -74 -17 -147t-41 -123.5t-47.5 -90.5t-40.5 -60l-17 -19l143 -144l-113 -122l-153 153q-5 -4 -14.5 -11t-42 -24.5t-68 -31t-91 -24.5t-112.5 -11zM1106 645
q0 101 -35.5 191.5t-94 153t-134.5 99.5t-156 37t-156 -37t-134.5 -99.5t-94 -153t-35.5 -191.5t35.5 -191.5t94 -153t134.5 -99.5t156 -37q55 0 103.5 15t70.5 31l21 15l-123 123l112 123l134 -133q4 5 11 13.5t24.5 38.5t31 63t24.5 85t11 107z" />
    <glyph glyph-name="R" unicode="R" horiz-adv-x="1146" 
d="M870 0l-297 512h-225v-512h-194v1290h512q161 0 275 -114t114 -275q0 -83 -29.5 -151.5t-71.5 -107t-84.5 -65.5t-71.5 -36l-30 -9l317 -532h-215zM348 1106v-410h318q77 0 135.5 60.5t58.5 144.5t-58.5 144.5t-135.5 60.5h-318z" />
    <glyph glyph-name="S" unicode="S" 
d="M82 942q0 143 122 250.5t308 107.5q183 0 301.5 -114.5t118.5 -284.5h-195q0 100 -62.5 162.5t-162.5 62.5q-103 0 -169.5 -56t-66.5 -128q0 -42 23.5 -74.5t63.5 -54t91.5 -39t108.5 -35t113.5 -37.5t108 -50t91.5 -69.5t63.5 -99.5t23.5 -135q0 -69 -32 -133.5
t-89.5 -114.5t-143.5 -80t-186 -30q-204 0 -322 109.5t-118 289.5h194q0 -109 62 -167t184 -58q125 0 190.5 51.5t65.5 132.5q0 46 -23.5 81t-63 58t-91 42t-108.5 36.5t-114 37.5t-108.5 49t-91 66t-63 94.5t-23.5 129.5z" />
    <glyph glyph-name="T" unicode="T" horiz-adv-x="1034" 
d="M31 1106v184h973v-184h-390v-1106h-194v1106h-389z" />
    <glyph glyph-name="U" unicode="U" horiz-adv-x="1228" 
d="M614 164q124 0 205.5 85t81.5 222v819h195v-819q0 -207 -137.5 -344t-344.5 -137t-344 137t-137 344v819h195v-819q0 -137 81 -222t205 -85z" />
    <glyph glyph-name="V" unicode="V" horiz-adv-x="1167" 
d="M492 0l-472 1290h205l359 -993l358 993h205l-471 -1290h-184z" />
    <glyph glyph-name="W" unicode="W" horiz-adv-x="1638" 
d="M819 860l-266 -860h-133l-400 1290h195l277 -891l266 891h123l266 -891l276 891h195l-399 -1290h-134z" />
    <glyph glyph-name="X" unicode="X" horiz-adv-x="1085" 
d="M543 819l286 471h215l-389 -635l410 -655h-215l-307 492l-307 -492h-216l410 655l-389 635h215z" />
    <glyph glyph-name="Y" unicode="Y" horiz-adv-x="1054" 
d="M522 707h10l297 583h205l-409 -788v-502h-195v502l-410 788h205z" />
    <glyph glyph-name="Z" unicode="Z" 
d="M932 1157l-625 -973h656v-184h-902v133l625 973h-604v184h850v-133z" />
    <glyph glyph-name="bracketleft" unicode="[" horiz-adv-x="604" 
d="M328 1126v-1331h235v-164h-409v1659h409v-164h-235z" />
    <glyph glyph-name="backslash" unicode="\" horiz-adv-x="706" 
d="M532 -369l-532 1659h174l533 -1659h-175z" />
    <glyph glyph-name="bracketright" unicode="]" horiz-adv-x="604" 
d="M276 -205v1331h-235v164h410v-1659h-410v164h235z" />
    <glyph glyph-name="asciicircum" unicode="^" horiz-adv-x="778" 
d="M225 696h-164l287 594h82l287 -594h-164l-164 359z" />
    <glyph glyph-name="underscore" unicode="_" horiz-adv-x="563" 
d="M604 -195v-163h-645v163h645z" />
    <glyph glyph-name="grave" unicode="`" horiz-adv-x="419" 
d="M236 1290l122 -246h-122l-175 246h175z" />
    <glyph glyph-name="a" unicode="a" horiz-adv-x="952" 
d="M481 932q159 0 259 -94t100 -234v-604h-133l-41 92q-3 -4 -10 -11t-31 -24.5t-52.5 -31t-75 -24.5t-98.5 -11q-151 0 -234 75t-83 201q0 58 16 103t56 84.5t104.5 65t164 40t232.5 14.5v31q0 70 -45.5 112t-128.5 42q-86 0 -131 -31.5t-53 -81.5h-184q8 127 106 207
t262 80zM410 154q113 0 179 58.5t66 147.5v50q-120 0 -199 -10.5t-119.5 -32.5t-55.5 -47.5t-15 -63.5q0 -41 39 -71.5t105 -30.5z" />
    <glyph glyph-name="b" unicode="b" horiz-adv-x="1085" 
d="M573 -10q-52 0 -98 10.5t-75.5 25.5t-51.5 30t-32 26l-9 10l-41 -92h-133v1290h184v-461q3 4 9.5 11t30.5 25t51 31.5t71.5 24.5t93.5 11q187 0 314 -133t127 -338t-127 -338t-314 -133zM563 758q-110 0 -188 -84.5t-78 -212.5t78 -212.5t188 -84.5t188 84.5t78 212.5
t-78 212.5t-188 84.5z" />
    <glyph glyph-name="c" unicode="c" horiz-adv-x="983" 
d="M727 338h195q-32 -151 -142.5 -249.5t-267.5 -98.5q-187 0 -313.5 133t-126.5 338t126.5 338t313.5 133q157 0 267.5 -98.5t142.5 -249.5h-195q-24 80 -78.5 127t-136.5 47q-103 0 -179.5 -85t-76.5 -212t76.5 -212t179.5 -85q82 0 136.5 47t78.5 127z" />
    <glyph glyph-name="d" unicode="d" horiz-adv-x="1085" 
d="M512 -10q-187 0 -313.5 133t-126.5 338t126.5 338t313.5 133q49 0 93 -10.5t72.5 -26t50 -30.5t30.5 -25l10 -11v461h184v-1290h-133l-41 92q-3 -4 -10 -11t-31 -24.5t-52 -31t-74.5 -24.5t-98.5 -11zM522 758q-110 0 -188 -84.5t-78 -212.5t78 -212.5t188 -84.5
t188 84.5t78 212.5t-78 212.5t-188 84.5z" />
    <glyph glyph-name="e" unicode="e" horiz-adv-x="1013" 
d="M727 266h195q-50 -125 -149 -200.5t-251 -75.5q-187 0 -313.5 133t-126.5 338q0 204 125 337.5t305 133.5t305 -133.5t125 -337.5q0 -18 -2.5 -38.5t-5.5 -32.5l-2 -11h-656q8 -87 78.5 -151t167.5 -64q128 0 205 102zM512 758q-92 0 -156.5 -62.5t-79.5 -163.5h492
q-15 102 -83 164t-173 62z" />
    <glyph glyph-name="f" unicode="f" horiz-adv-x="583" 
d="M543 922v-174h-205v-748h-184v748h-113v174h113v61q0 144 80.5 230.5t205.5 86.5q27 0 53 -5t38 -10l12 -5v-164q-31 10 -62 10q-61 0 -102 -41t-41 -102v-61h205z" />
    <glyph glyph-name="g" unicode="g" horiz-adv-x="1054" 
d="M799 922h133v-881q0 -171 -115 -280t-305 -109q-160 0 -263 81.5t-136 205.5h184q63 -123 215 -123q107 0 171.5 62.5t64.5 162.5v92q-3 -4 -9.5 -11t-30.5 -24.5t-51 -31t-71.5 -24.5t-93.5 -11q-171 0 -295.5 130.5t-124.5 319.5q0 94 34 178t91.5 143.5t134.5 94.5
t160 35q52 0 98 -10.5t75.5 -26t51.5 -30.5t31 -25l10 -11zM514 205q100 0 177 81t77 195t-77.5 195.5t-178.5 81.5t-178.5 -81.5t-77.5 -195.5t77.5 -195t180.5 -81z" />
    <glyph glyph-name="h" unicode="h" horiz-adv-x="1054" 
d="M573 932q156 0 262.5 -112.5t106.5 -287.5v-532h-184v532q0 92 -65 159t-150 67q-92 0 -159 -67t-67 -159v-532h-184v1290h184v-461l11 11t32 25t52.5 31.5t71 24.5t89.5 11z" />
    <glyph glyph-name="i" unicode="i" horiz-adv-x="430" 
d="M307 922v-922h-184v922h184zM215 1065q-46 0 -79.5 33.5t-33.5 79.5t33.5 79t79.5 33t79.5 -33t33.5 -79t-33.5 -79.5t-79.5 -33.5z" />
    <glyph glyph-name="j" unicode="j" horiz-adv-x="430" 
d="M123 -20v942h184v-942q0 -144 -81 -231t-206 -87q-27 0 -52.5 5t-37.5 11l-12 5v163q31 -10 62 -10q61 0 102 41t41 103zM215 1065q-46 0 -79.5 33.5t-33.5 79.5t33.5 79t79.5 33t79.5 -33t33.5 -79t-33.5 -79.5t-79.5 -33.5z" />
    <glyph glyph-name="k" unicode="k" horiz-adv-x="880" 
d="M901 0h-225l-359 440v-440h-184v1290h184v-768l318 400h215l-358 -430z" />
    <glyph glyph-name="l" unicode="l" horiz-adv-x="450" 
d="M317 1290v-1290h-184v1290h184z" />
    <glyph glyph-name="m" unicode="m" horiz-adv-x="1495" 
d="M1055 932q135 0 226 -103.5t91 -275.5v-553h-184v553q0 90 -51.5 147.5t-122.5 57.5t-122.5 -57.5t-51.5 -147.5v-553h-185v553q0 90 -51.5 147.5t-122.5 57.5t-122.5 -57.5t-51.5 -147.5v-553h-184v922h133l41 -93q3 4 9.5 11t28.5 25t46 31.5t62.5 24.5t78.5 11
q49 0 93 -15t72.5 -36t50 -42t30.5 -36l10 -15l6 8q5 7 17 20t28 28t40 30.5t50.5 28.5t62 21t73.5 8z" />
    <glyph glyph-name="n" unicode="n" horiz-adv-x="1044" 
d="M563 932q156 0 262.5 -112.5t106.5 -287.5v-532h-184v532q0 91 -65 158.5t-151 67.5q-92 0 -158.5 -67t-66.5 -159v-532h-184v922h133l41 -93q3 4 10 11t31 25t52 31.5t74.5 24.5t98.5 11z" />
    <glyph glyph-name="o" unicode="o" 
d="M768 461q0 127 -76.5 212t-179.5 85t-179.5 -85t-76.5 -212t76.5 -212t179.5 -85t179.5 85t76.5 212zM952 461q0 -205 -126.5 -338t-313.5 -133t-313.5 133t-126.5 338t126.5 338t313.5 133t313.5 -133t126.5 -338z" />
    <glyph glyph-name="p" unicode="p" horiz-adv-x="1075" 
d="M563 932q187 0 314 -133t127 -338t-127 -338t-314 -133q-49 0 -93 10.5t-72.5 25.5t-50 30t-31.5 26l-9 10v-420h-184v1250h133l41 -93q3 4 10 11t31 25t52 31.5t74.5 24.5t98.5 11zM553 164q110 0 188 84.5t78 212.5t-78 212.5t-188 84.5t-188 -84.5t-78 -212.5
t78 -212.5t188 -84.5z" />
    <glyph glyph-name="q" unicode="q" horiz-adv-x="1075" 
d="M512 932q52 0 98 -10.5t75.5 -26t51.5 -30.5t31 -25l10 -11l41 93h133v-1250h-184v420q-3 -4 -9.5 -11t-30.5 -24.5t-51 -31t-71.5 -24.5t-93.5 -11q-187 0 -313.5 133t-126.5 338t126.5 338t313.5 133zM522 164q110 0 188 84.5t78 212.5t-78 212.5t-188 84.5t-188 -84.5
t-78 -212.5t78 -212.5t188 -84.5z" />
    <glyph glyph-name="r" unicode="r" horiz-adv-x="634" 
d="M532 932q18 0 33.5 -2.5t22.5 -5.5l6 -2v-185q-31 11 -62 11q-92 0 -158.5 -67t-66.5 -159v-522h-184v922h133l41 -93q3 4 9.5 11t29 25t47.5 31.5t65.5 24.5t83.5 11z" />
    <glyph glyph-name="s" unicode="s" horiz-adv-x="829" 
d="M72 297h184q16 -133 164 -133q81 0 122.5 31.5t41.5 80.5q0 26 -17 45t-45.5 31t-65 22t-77.5 20t-82 22t-77.5 31.5t-65 46t-45.5 67.5t-17 94q0 118 87.5 197.5t230.5 79.5q158 0 244 -76.5t94 -210.5h-185q-8 49 -47.5 81t-105.5 32t-105 -31t-39 -72q0 -26 17 -45
t45.5 -31t65 -22t77.5 -20t82 -22t77.5 -31.5t65 -46t45.5 -67.5t17 -94q0 -126 -90 -206t-248 -80q-166 0 -253 79t-95 228z" />
    <glyph glyph-name="t" unicode="t" horiz-adv-x="686" 
d="M389 748v-441q0 -61 40.5 -102t102.5 -41q14 0 29.5 2.5t24.5 5.5l8 2v-164q-41 -20 -102 -20q-125 0 -206 86.5t-81 230.5v441h-164v174h72q54 0 88.5 34t34.5 88v123h153v-245h205v-174h-205z" />
    <glyph glyph-name="u" unicode="u" horiz-adv-x="1054" 
d="M492 -10q-156 0 -262.5 112t-106.5 287v533h184v-533q0 -91 64.5 -158t150.5 -67q92 0 159 66.5t67 158.5v533h184v-922h-133l-41 92q-3 -4 -10 -11t-31 -24.5t-52 -31t-74.5 -24.5t-98.5 -11z" />
    <glyph glyph-name="v" unicode="v" horiz-adv-x="942" 
d="M727 922h195l-369 -922h-164l-369 922h195l256 -666z" />
    <glyph glyph-name="w" unicode="w" horiz-adv-x="1351" 
d="M870 0l-194 604l-195 -604h-153l-308 922h185l205 -635l204 635h123l205 -635l205 635h184l-307 -922h-154z" />
    <glyph glyph-name="x" unicode="x" horiz-adv-x="860" 
d="M430 338l-225 -338h-205l317 471l-297 451h205l205 -308l205 308h205l-297 -451l317 -471h-205z" />
    <glyph glyph-name="y" unicode="y" horiz-adv-x="942" 
d="M379 31l-359 891h195l256 -666l256 666h195l-390 -983q-62 -156 -126 -216.5t-170 -60.5q-14 0 -29.5 2.5t-24.5 5.5l-8 2v154q137 0 174 113z" />
    <glyph glyph-name="z" unicode="z" horiz-adv-x="808" 
d="M61 164l441 584h-441v174h666v-164l-440 -584h461v-174h-687v164z" />
    <glyph glyph-name="braceleft" unicode="{" horiz-adv-x="634" 
d="M92 389v143q46 0 74.5 28.5t28.5 74.5v389q0 266 282 266h117v-164h-123q-46 0 -74 -28t-28 -74v-389q0 -40 -11.5 -72.5t-28.5 -50.5t-33.5 -30.5t-27.5 -16.5l-12 -4q5 -1 12.5 -4t27 -16t34.5 -30.5t27 -50.5t12 -73v-389q0 -46 28 -74.5t74 -28.5h123v-164h-117
q-282 0 -282 267v389q0 46 -28.5 74t-74.5 28z" />
    <glyph glyph-name="bar" unicode="|" horiz-adv-x="665" 
d="M420 1290v-1618h-174v1618h174z" />
    <glyph glyph-name="braceright" unicode="}" horiz-adv-x="634" 
d="M543 532v-143q-46 0 -74.5 -28t-28.5 -74v-389q0 -267 -282 -267h-117v164h123q46 0 74 28.5t28 74.5v389q0 40 11.5 72.5t28 50.5t33.5 30.5t29 16.5l11 4q-5 1 -12.5 4t-27 16t-34.5 30.5t-27 50.5t-12 73v389q0 46 -28 74t-74 28h-123v164h117q282 0 282 -266v-389
q0 -46 28.5 -74.5t74.5 -28.5z" />
    <glyph glyph-name="asciitilde" unicode="~" horiz-adv-x="921" 
d="M666 399q-45 0 -107 19t-113.5 42.5t-105.5 42.5t-84 19q-47 0 -74.5 -29.5t-27.5 -82.5h-154q0 136 69.5 211t186.5 75q57 0 140 -31t158 -61.5t112 -30.5q46 0 74 30t28 83h154q0 -136 -69.5 -211.5t-186.5 -75.5z" />
    <glyph glyph-name="nbspace" unicode="&#xa0;" horiz-adv-x="450" 
 />
    <glyph glyph-name="exclamdown" unicode="&#xa1;" horiz-adv-x="512" 
d="M338 594l31 -922h-226l31 922h164zM369 819q0 -46 -33.5 -79t-79.5 -33t-79.5 33t-33.5 79t33.5 79.5t79.5 33.5t79.5 -33.5t33.5 -79.5z" />
    <glyph glyph-name="cent" unicode="&#xa2;" horiz-adv-x="983" 
d="M256 461q0 -127 76.5 -212t179.5 -85q82 0 136.5 47t78.5 127h195q-31 -137 -121.5 -230t-206.5 -108v-184h-174v184q-89 16 -167 75t-129.5 161t-51.5 225t51.5 225t129.5 161t167 75v184h174v-184q116 -15 206.5 -108t121.5 -230h-195q-24 80 -78.5 127t-136.5 47
q-103 0 -179.5 -85t-76.5 -212z" />
    <glyph glyph-name="sterling" unicode="&#xa3;" horiz-adv-x="1073" 
d="M410 492v-185q0 -32 -13 -62.5t-26 -45.5l-13 -15h656v-184h-922v184q54 0 88.5 34.5t34.5 88.5v185h-113v184h113v237q0 161 117.5 274t292.5 113q166 0 283.5 -109.5t123.5 -258.5h-192q-8 86 -66 140t-149 54q-92 0 -153.5 -61t-61.5 -152v-237h348v-184h-348z" />
    <glyph glyph-name="currency" unicode="&#xa4;" horiz-adv-x="1146" 
d="M399 686h267q91 0 153 64t62 151t-62 151t-153 64h-267v-430zM1075 901q0 -102 -52.5 -191t-147 -143.5t-209.5 -54.5h-267v-133h389v-174h-389v-205h-194v205h-154v174h154v133h-154v174h154v604h461q115 0 209.5 -54.5t147 -143.5t52.5 -191z" />
    <glyph glyph-name="yen" unicode="&#xa5;" horiz-adv-x="1075" 
d="M1044 1290l-342 -645h209v-164h-276v-112h274v-164h-274v-205h-195v205h-276v164h276v112h-276v164h209l-342 645h205l301 -583l303 583h204z" />
    <glyph glyph-name="brokenbar" unicode="&#xa6;" horiz-adv-x="665" 
d="M246 1290h174v-635h-174v635zM246 -328v635h174v-635h-174z" />
    <glyph glyph-name="section" unicode="&#xa7;" horiz-adv-x="972" 
d="M891 502q0 -52 -19 -97t-46 -73t-54 -48.5t-46 -29.5l-19 -8q5 -3 13 -8.5t29 -26t37.5 -43t29.5 -60t13 -77.5q0 -112 -94 -194.5t-243 -82.5q-151 0 -246 87t-103 220h174q8 -63 54.5 -103t120.5 -40q80 0 121.5 32t41.5 81q0 37 -31.5 66t-82 50t-112 43t-122.5 51
t-111.5 66.5t-82 98t-31.5 137.5q0 52 20 99t48.5 78t57 54.5t48.5 33.5l20 11q-5 2 -12.5 7t-26.5 22.5t-34 38.5t-27 57.5t-12 77.5q0 112 91 195t226 83q143 0 231.5 -80t96.5 -206h-174q-8 56 -47.5 89.5t-106.5 33.5q-66 0 -104.5 -32.5t-38.5 -80.5q0 -39 30.5 -70
t79.5 -53t107.5 -44.5t117.5 -52t108 -67t79.5 -98t30.5 -137.5zM707 502q0 71 -57 120.5t-199 94.5q-8 -2 -20 -5.5t-44 -17.5t-56.5 -32t-44.5 -50t-20 -69q0 -71 57 -120.5t199 -94.5q8 2 20 5.5t44 17.5t56.5 32t44.5 50t20 69z" />
    <glyph glyph-name="dieresis" unicode="&#xa8;" horiz-adv-x="696" 
d="M287 1178q0 -46 -33.5 -79.5t-79.5 -33.5t-79.5 33.5t-33.5 79.5t33.5 79t79.5 33t79.5 -33t33.5 -79zM635 1178q0 -46 -33.5 -79.5t-79.5 -33.5t-79 33.5t-33 79.5t33 79t79 33t79.5 -33t33.5 -79z" />
    <glyph glyph-name="copyright" unicode="&#xa9;" horiz-adv-x="1433" 
d="M1208 645q0 145 -67 265.5t-179.5 188.5t-244.5 68t-244.5 -68t-180 -188.5t-67.5 -265.5t67.5 -265.5t180 -188.5t244.5 -68t244.5 68t179.5 188.5t67 265.5zM1352 645q0 -136 -50.5 -257.5t-136 -208.5t-202.5 -138t-246 -51t-246 51t-202.5 138t-136 208.5
t-50.5 257.5t50.5 257.5t136 208.5t202.5 138t246 51t246 -51t202.5 -138t136 -208.5t50.5 -257.5zM532 645q0 -96 56.5 -160.5t128.5 -64.5q66 0 107 33t57 90h143q-16 -104 -97 -175t-200 -71q-132 0 -230 102t-98 246t98 246t230 102q119 0 200 -70.5t97 -174.5h-143
q-34 122 -164 122q-72 0 -128.5 -64.5t-56.5 -160.5z" />
    <glyph glyph-name="ordfeminine" unicode="&#xaa;" horiz-adv-x="583" 
d="M297 1300q92 0 153.5 -59.5t61.5 -144.5v-338h-92l-21 51q-6 -7 -17 -17t-51 -27t-85 -17q-82 0 -133.5 44.5t-51.5 108.5q0 60 27.5 98.5t102 62t198.5 23.5v11q0 39 -28.5 65.5t-73.5 26.5q-36 0 -60 -18t-32 -44h-113q0 72 59.5 123t155.5 51zM389 973v20
q-215 0 -215 -80q0 -27 25 -45t73 -18q50 0 83.5 34.5t33.5 88.5z" />
    <glyph glyph-name="guillemotleft" unicode="&#xab;" horiz-adv-x="911" 
d="M246 461l225 -328h-184l-226 328l226 327h184zM625 461l225 -328h-184l-226 328l226 327h184z" />
    <glyph glyph-name="logicalnot" unicode="&#xac;" horiz-adv-x="952" 
d="M41 788h870v-430h-174v267h-696v163z" />
    <glyph glyph-name="uni00AD" unicode="&#xad;" horiz-adv-x="716" 
d="M655 604v-164h-594v164h594z" />
    <glyph glyph-name="registered" unicode="&#xae;" horiz-adv-x="1433" 
d="M973 768q0 -43 -16 -79t-38.5 -56.5t-45 -35t-38.5 -19.5l-16 -5l185 -266h-154l-164 246h-61v-246h-133v676h256q91 0 158 -64.5t67 -150.5zM625 676h123q38 0 65 27t27 65t-27 65t-65 27h-123v-184zM1208 645q0 145 -67 265.5t-179.5 188.5t-244.5 68t-244.5 -68
t-180 -188.5t-67.5 -265.5t67.5 -265.5t180 -188.5t244.5 -68t244.5 68t179.5 188.5t67 265.5zM1352 645q0 -136 -50.5 -257.5t-136 -208.5t-202.5 -138t-246 -51t-246 51t-202.5 138t-136 208.5t-50.5 257.5t50.5 257.5t136 208.5t202.5 138t246 51t246 -51t202.5 -138
t136 -208.5t50.5 -257.5z" />
    <glyph glyph-name="macron" unicode="&#xaf;" horiz-adv-x="634" 
d="M573 1229v-133h-512v133h512z" />
    <glyph glyph-name="degree" unicode="&#xb0;" horiz-adv-x="634" 
d="M195 1044q0 -53 37.5 -93t84.5 -40t85 40t38 93t-38 93.5t-85 40.5t-84.5 -40.5t-37.5 -93.5zM573 1044q0 -107 -74.5 -181.5t-181.5 -74.5t-181.5 74.5t-74.5 181.5t74.5 181.5t181.5 74.5t181.5 -74.5t74.5 -181.5z" />
    <glyph glyph-name="plusminus" unicode="&#xb1;" horiz-adv-x="931" 
d="M379 696v328h174v-328h317v-164h-317v-317h317v-174h-809v174h318v317h-318v164h318z" />
    <glyph glyph-name="twosuperior" unicode="&#xb2;" horiz-adv-x="532" 
d="M410 1167l-174 -184h235v-113h-410v93l226 235q21 21 31 32.5t20 31t10 38.5q0 31 -22.5 51.5t-59.5 20.5q-92 0 -92 -92h-113q0 92 56.5 148.5t148.5 56.5q91 0 148 -53.5t57 -131.5q0 -72 -61 -133z" />
    <glyph glyph-name="threesuperior" unicode="&#xb3;" horiz-adv-x="552" 
d="M410 1188q3 -2 8.5 -5.5t20 -16t25 -27.5t19.5 -40.5t9 -54.5q0 -79 -59.5 -131.5t-156.5 -52.5q-99 0 -157 56t-58 149h113q0 -41 25.5 -66.5t76.5 -25.5q43 0 68 24.5t25 57.5t-25 57.5t-68 24.5h-61v102h51q37 0 59.5 18t22.5 43q0 31 -22.5 51.5t-59.5 20.5
q-38 0 -60 -22t-22 -60h-112q0 86 56.5 140.5t147.5 54.5q83 0 139 -51.5t56 -122.5q0 -41 -15.5 -71.5t-30.5 -41.5z" />
    <glyph glyph-name="acute" unicode="&#xb4;" horiz-adv-x="419" 
d="M61 1044l123 246h174l-174 -246h-123z" />
    <glyph glyph-name="mu" unicode="&#xb5;" horiz-adv-x="1054" 
d="M748 922h184v-922h-133l-41 92q-3 -4 -9.5 -11t-28.5 -24.5t-46.5 -31t-63 -24.5t-78.5 -11t-78 10.5t-63.5 25.5t-45 30t-29.5 26l-9 10v-420h-184v1250h184v-533q0 -91 64.5 -158t150.5 -67q92 0 159 66.5t67 158.5v533z" />
    <glyph glyph-name="paragraph" unicode="&#xb6;" horiz-adv-x="1044" 
d="M389 1290h512v-1474h-164v1310h-184v-1310h-164v860q-123 0 -215 92t-92 215t92 215t215 92z" />
    <glyph glyph-name="periodcentered" unicode="&#xb7;" horiz-adv-x="450" 
d="M338 645q0 -46 -33.5 -79.5t-79.5 -33.5t-79 33.5t-33 79.5t33 79.5t79 33.5t79.5 -33.5t33.5 -79.5z" />
    <glyph glyph-name="cedilla" unicode="&#xb8;" horiz-adv-x="409" 
d="M266 0l-41 -82q55 -8 89 -44t34 -89q0 -65 -49 -104t-145 -39q-23 0 -46 2.5t-35 5.5l-12 2v92q41 -10 82 -10q43 0 68 18t25 43t-25 43.5t-68 18.5q-14 0 -26.5 -2.5t-18.5 -5.5l-6 -3l64 154h110z" />
    <glyph glyph-name="onesuperior" unicode="&#xb9;" horiz-adv-x="430" 
d="M41 1372l164 103h92v-605h-123v451l-72 -41z" />
    <glyph glyph-name="ordmasculine" unicode="&#xba;" horiz-adv-x="655" 
d="M471 1024q0 61 -44 107.5t-99 46.5t-99.5 -46.5t-44.5 -107.5t44.5 -107.5t99.5 -46.5t99 46.5t44 107.5zM61 1024q0 114 79.5 195t187.5 81t187 -80.5t79 -195.5t-79 -195.5t-187 -80.5t-187.5 81t-79.5 195z" />
    <glyph glyph-name="guillemotright" unicode="&#xbb;" horiz-adv-x="911" 
d="M440 133l226 328l-226 327h185l225 -327l-225 -328h-185zM61 133l226 328l-226 327h185l225 -327l-225 -328h-185z" />
    <glyph glyph-name="onequarter" unicode="&#xbc;" horiz-adv-x="1146" 
d="M41 1188l164 102h92v-604h-123v451l-72 -41zM236 0h-144l789 1290h143zM1014 604v-379h71v-112h-71v-113h-123v113h-256v92l246 399h133zM768 225h123v195z" />
    <glyph glyph-name="onehalf" unicode="&#xbd;" horiz-adv-x="1187" 
d="M41 1188l164 102h92v-604h-123v451l-72 -41zM1065 297l-174 -184h235v-113h-409v92l225 236q21 21 31 32t20.5 31t10.5 39q0 31 -22.5 51.5t-59.5 20.5q-93 0 -93 -92h-112q0 92 56.5 148t148.5 56q91 0 147.5 -53t56.5 -131q0 -72 -61 -133zM236 0h-144l789 1290h143z
" />
    <glyph glyph-name="threequarters" unicode="&#xbe;" horiz-adv-x="1269" 
d="M358 0h-143l789 1290h143zM1137 604v-379h71v-112h-71v-113h-123v113h-256v92l246 399h133zM891 225h123v195zM410 1004q3 -2 8.5 -5.5t20 -16t25 -27.5t19.5 -40.5t9 -54.5q0 -79 -59.5 -131.5t-156.5 -52.5q-99 0 -157 56t-58 149h113q0 -41 25.5 -67t76.5 -26
q43 0 68 24.5t25 57.5t-25 57.5t-68 24.5h-61v103h51q37 0 59.5 18t22.5 43q0 31 -22.5 51.5t-59.5 20.5q-38 0 -60 -22t-22 -60h-112q0 85 56 139.5t148 54.5q83 0 139 -51.5t56 -122.5q0 -41 -15.5 -71.5t-30.5 -40.5z" />
    <glyph glyph-name="questiondown" unicode="&#xbf;" horiz-adv-x="870" 
d="M72 20q0 58 16.5 105.5t42.5 80t57.5 61.5t63.5 58.5t58 62t42.5 80t16.5 105.5v21h184v-21q0 -75 -16.5 -135.5t-42.5 -100t-57.5 -72t-63.5 -58.5t-58 -52t-42.5 -60t-16.5 -75q0 -71 56 -122.5t139 -51.5q87 0 140.5 61.5t53.5 174.5v20h184v-20q0 -189 -107 -304.5
t-271 -115.5q-160 0 -269.5 105t-109.5 253zM348 819q0 46 33.5 79.5t79.5 33.5t79 -33.5t33 -79.5t-33 -79t-79 -33t-79.5 33t-33.5 79z" />
    <glyph glyph-name="Agrave" unicode="&#xc0;" horiz-adv-x="1146" 
d="M317 297l-112 -297h-205l492 1290h163l492 -1290h-205l-113 297h-512zM389 481h369l-185 512zM492 1690l122 -246h-122l-175 246h175z" />
    <glyph glyph-name="Aacute" unicode="&#xc1;" horiz-adv-x="1146" 
d="M317 297l-112 -297h-205l492 1290h163l492 -1290h-205l-113 297h-512zM389 481h369l-185 512zM522 1444l123 246h174l-174 -246h-123z" />
    <glyph glyph-name="Acircumflex" unicode="&#xc2;" horiz-adv-x="1146" 
d="M317 297l-112 -297h-205l492 1290h163l492 -1290h-205l-113 297h-512zM389 481h369l-185 512zM655 1679l185 -245h-164l-103 143l-102 -143h-164l185 245h163z" />
    <glyph glyph-name="Atilde" unicode="&#xc3;" horiz-adv-x="1146" 
d="M317 297l-112 -297h-205l492 1290h163l492 -1290h-205l-113 297h-512zM389 481h369l-185 512zM686 1403q-34 0 -63 12.5t-49 30.5t-37.5 36.5t-36.5 31t-39 12.5q-33 0 -57.5 -31t-24.5 -82h-103q0 118 52.5 182t134.5 64q42 0 76.5 -19t54.5 -42.5t45 -42.5t49 -19
q33 0 57.5 31t24.5 82h102q0 -118 -52 -182t-134 -64z" />
    <glyph glyph-name="Adieresis" unicode="&#xc4;" horiz-adv-x="1146" 
d="M317 297l-112 -297h-205l492 1290h163l492 -1290h-205l-113 297h-512zM389 481h369l-185 512zM512 1546q0 -46 -33.5 -79t-79.5 -33t-79 33t-33 79t33 79.5t79 33.5t79.5 -33.5t33.5 -79.5zM860 1546q0 -46 -33 -79t-79 -33t-79.5 33t-33.5 79t33.5 79.5t79.5 33.5
t79 -33.5t33 -79.5z" />
    <glyph glyph-name="Aring" unicode="&#xc5;" horiz-adv-x="1146" 
d="M317 297l-112 -297h-205l492 1290h163l492 -1290h-205l-113 297h-512zM389 481h369l-185 512zM645 1567q0 32 -21 57t-51 25t-50.5 -25t-20.5 -57t20.5 -57t50.5 -25t51 25t21 57zM748 1567q0 -71 -50 -122.5t-125 -51.5t-124.5 51.5t-49.5 122.5t49.5 122.5t124.5 51.5
t125 -51.5t50 -122.5z" />
    <glyph glyph-name="AE" unicode="&#xc6;" horiz-adv-x="1710" 
d="M338 307l-174 -307h-225l747 1290h901v-184h-592v-348h541v-185h-541v-389h613v-184h-809v307h-461zM788 1106l-348 -614h359v614h-11z" />
    <glyph glyph-name="Ccedilla" unicode="&#xc7;" horiz-adv-x="1310" 
d="M266 645q0 -101 35.5 -191.5t94 -153t134.5 -99.5t156 -37q140 0 232.5 77t125.5 199h205q-47 -183 -191.5 -313t-330.5 -137l-31 -72q55 -8 89 -44t34 -89q0 -65 -49 -104t-145 -39q-23 0 -46 2.5t-35 5.5l-12 2v92q41 -10 82 -10q43 0 68 18t25 43t-25 43.5t-68 18.5
q-14 0 -26.5 -2.5t-18.5 -5.5l-6 -3l62 144q-107 12 -207 66t-177 138.5t-123 202.5t-46 248q0 180 85 331.5t226 237.5t303 86q207 0 356 -128.5t197 -321.5h-205q-32 121 -123.5 198.5t-224.5 77.5q-80 0 -156 -37t-134.5 -99.5t-94 -153t-35.5 -191.5z" />
    <glyph glyph-name="Egrave" unicode="&#xc8;" horiz-adv-x="1126" 
d="M348 184h676v-184h-870v1290h850v-184h-656v-348h604v-185h-604v-389zM553 1690l123 -246h-123l-174 246h174z" />
    <glyph glyph-name="Eacute" unicode="&#xc9;" horiz-adv-x="1126" 
d="M348 184h676v-184h-870v1290h850v-184h-656v-348h604v-185h-604v-389zM512 1444l123 246h174l-174 -246h-123z" />
    <glyph glyph-name="Ecircumflex" unicode="&#xca;" horiz-adv-x="1126" 
d="M348 184h676v-184h-870v1290h850v-184h-656v-348h604v-185h-604v-389zM666 1679l184 -245h-164l-102 143l-103 -143h-164l185 245h164z" />
    <glyph glyph-name="Edieresis" unicode="&#xcb;" horiz-adv-x="1126" 
d="M348 184h676v-184h-870v1290h850v-184h-656v-348h604v-185h-604v-389zM522 1546q0 -46 -33 -79t-79 -33t-79.5 33t-33.5 79t33.5 79.5t79.5 33.5t79 -33.5t33 -79.5zM870 1546q0 -46 -33 -79t-79 -33t-79.5 33t-33.5 79t33.5 79.5t79.5 33.5t79 -33.5t33 -79.5z" />
    <glyph glyph-name="Igrave" unicode="&#xcc;" horiz-adv-x="501" 
d="M348 1290v-1290h-194v1290h194zM184 1690l123 -246h-123l-174 246h174z" />
    <glyph glyph-name="Iacute" unicode="&#xcd;" horiz-adv-x="501" 
d="M348 1290v-1290h-194v1290h194zM195 1444l122 246h175l-175 -246h-122z" />
    <glyph glyph-name="Icircumflex" unicode="&#xce;" horiz-adv-x="501" 
d="M348 1290v-1290h-194v1290h194zM328 1679l184 -245h-164l-102 143l-103 -143h-163l184 245h164z" />
    <glyph glyph-name="Idieresis" unicode="&#xcf;" horiz-adv-x="501" 
d="M348 1290v-1290h-194v1290h194zM195 1546q0 -46 -33.5 -79t-79.5 -33t-79.5 33t-33.5 79t33.5 79.5t79.5 33.5t79.5 -33.5t33.5 -79.5zM543 1546q0 -46 -33.5 -79t-79.5 -33t-79.5 33t-33.5 79t33.5 79.5t79.5 33.5t79.5 -33.5t33.5 -79.5z" />
    <glyph glyph-name="Eth" unicode="&#xd0;" horiz-adv-x="1300" 
d="M604 0h-389v543h-174v184h174v563h389q121 0 234 -51t196.5 -137t134 -206t50.5 -251t-50.5 -251t-134 -206t-196.5 -137t-234 -51zM410 184h194q107 0 203.5 59t156.5 166t60 236t-60 236t-156.5 166t-203.5 59h-194v-379h245v-184h-245v-359z" />
    <glyph glyph-name="Ntilde" unicode="&#xd1;" horiz-adv-x="1290" 
d="M942 1290h195v-1290h-164l-625 922v-922h-194v1290h163l625 -921v921zM768 1423q-34 0 -63 12.5t-49 30.5t-37.5 36.5t-36.5 31t-39 12.5q-33 0 -57.5 -30.5t-24.5 -81.5h-103q0 118 52.5 181.5t134.5 63.5q42 0 76.5 -19t54.5 -42.5t45 -42.5t49 -19q33 0 57.5 31
t24.5 82h102q0 -118 -52 -182t-134 -64z" />
    <glyph glyph-name="Ograve" unicode="&#xd2;" horiz-adv-x="1372" 
d="M1106 645q0 101 -35.5 191.5t-94 153t-134.5 99.5t-156 37t-156 -37t-134.5 -99.5t-94 -153t-35.5 -191.5t35.5 -191.5t94 -153t134.5 -99.5t156 -37t156 37t134.5 99.5t94 153t35.5 191.5zM1300 645q0 -180 -85 -331.5t-226 -237.5t-303 -86t-303 86t-226 237.5
t-85 331.5t85 331.5t226 237.5t303 86t303 -86t226 -237.5t85 -331.5zM625 1690l123 -246h-123l-174 246h174z" />
    <glyph glyph-name="Oacute" unicode="&#xd3;" horiz-adv-x="1372" 
d="M1106 645q0 101 -35.5 191.5t-94 153t-134.5 99.5t-156 37t-156 -37t-134.5 -99.5t-94 -153t-35.5 -191.5t35.5 -191.5t94 -153t134.5 -99.5t156 -37t156 37t134.5 99.5t94 153t35.5 191.5zM1300 645q0 -180 -85 -331.5t-226 -237.5t-303 -86t-303 86t-226 237.5
t-85 331.5t85 331.5t226 237.5t303 86t303 -86t226 -237.5t85 -331.5zM625 1444l123 246h174l-174 -246h-123z" />
    <glyph glyph-name="Ocircumflex" unicode="&#xd4;" horiz-adv-x="1372" 
d="M1106 645q0 101 -35.5 191.5t-94 153t-134.5 99.5t-156 37t-156 -37t-134.5 -99.5t-94 -153t-35.5 -191.5t35.5 -191.5t94 -153t134.5 -99.5t156 -37t156 37t134.5 99.5t94 153t35.5 191.5zM1300 645q0 -180 -85 -331.5t-226 -237.5t-303 -86t-303 86t-226 237.5
t-85 331.5t85 331.5t226 237.5t303 86t303 -86t226 -237.5t85 -331.5zM768 1679l184 -245h-164l-102 143l-102 -143h-164l184 245h164z" />
    <glyph glyph-name="Otilde" unicode="&#xd5;" horiz-adv-x="1372" 
d="M1106 645q0 101 -35.5 191.5t-94 153t-134.5 99.5t-156 37t-156 -37t-134.5 -99.5t-94 -153t-35.5 -191.5t35.5 -191.5t94 -153t134.5 -99.5t156 -37t156 37t134.5 99.5t94 153t35.5 191.5zM1300 645q0 -180 -85 -331.5t-226 -237.5t-303 -86t-303 86t-226 237.5
t-85 331.5t85 331.5t226 237.5t303 86t303 -86t226 -237.5t85 -331.5zM809 1423q-34 0 -63 12.5t-49 30.5t-37.5 36.5t-36.5 31t-39 12.5q-33 0 -57.5 -30.5t-24.5 -81.5h-103q0 118 52.5 181.5t134.5 63.5q42 0 76.5 -19t54.5 -42.5t45 -42.5t49 -19q33 0 57.5 31t24.5 82
h102q0 -118 -52 -182t-134 -64z" />
    <glyph glyph-name="Odieresis" unicode="&#xd6;" horiz-adv-x="1372" 
d="M1106 645q0 101 -35.5 191.5t-94 153t-134.5 99.5t-156 37t-156 -37t-134.5 -99.5t-94 -153t-35.5 -191.5t35.5 -191.5t94 -153t134.5 -99.5t156 -37t156 37t134.5 99.5t94 153t35.5 191.5zM1300 645q0 -180 -85 -331.5t-226 -237.5t-303 -86t-303 86t-226 237.5
t-85 331.5t85 331.5t226 237.5t303 86t303 -86t226 -237.5t85 -331.5zM625 1546q0 -46 -33.5 -79t-79.5 -33t-79.5 33t-33.5 79t33.5 79.5t79.5 33.5t79.5 -33.5t33.5 -79.5zM973 1546q0 -46 -33.5 -79t-79.5 -33t-79 33t-33 79t33 79.5t79 33.5t79.5 -33.5t33.5 -79.5z" />
    <glyph glyph-name="multiply" unicode="&#xd7;" horiz-adv-x="921" 
d="M573 522l236 -246l-113 -102l-235 246l-236 -246l-112 102l235 246l-235 246l112 102l236 -245l235 245l113 -102z" />
    <glyph glyph-name="Oslash" unicode="&#xd8;" horiz-adv-x="1392" 
d="M696 1300q69 0 135.5 -16t112 -38t81.5 -44.5t53 -38.5l18 -16l133 123l123 -123l-144 -133q4 -6 11 -17t25 -48t31.5 -77t24.5 -102t11 -125q0 -180 -85 -331.5t-226.5 -237.5t-303.5 -86q-69 0 -135.5 16t-112 38t-81.5 44.5t-53 38.5l-17 16l-133 -123l-123 123
l143 133q-4 6 -11 17t-24.5 48t-31 77t-24.5 102t-11 125q0 180 85 331.5t226 237.5t303 86zM338 410l625 604q-4 5 -12 12.5t-34.5 26.5t-55.5 34t-74 27t-91 12q-80 0 -156 -37t-134.5 -99.5t-94 -153t-35.5 -191.5q0 -59 15.5 -118t30.5 -88zM696 164q80 0 156 37
t134.5 99.5t94 153t35.5 191.5q0 59 -15 118t-31 89l-15 29l-625 -605q4 -5 12 -12.5t34.5 -26.5t55 -34t73.5 -27t91 -12z" />
    <glyph glyph-name="Ugrave" unicode="&#xd9;" horiz-adv-x="1228" 
d="M614 164q124 0 205.5 85t81.5 222v819h195v-819q0 -207 -137.5 -344t-344.5 -137t-344 137t-137 344v819h195v-819q0 -137 81 -222t205 -85zM584 1690l123 -246h-123l-174 246h174z" />
    <glyph glyph-name="Uacute" unicode="&#xda;" horiz-adv-x="1228" 
d="M614 164q124 0 205.5 85t81.5 222v819h195v-819q0 -207 -137.5 -344t-344.5 -137t-344 137t-137 344v819h195v-819q0 -137 81 -222t205 -85zM543 1444l123 246h174l-174 -246h-123z" />
    <glyph glyph-name="Ucircumflex" unicode="&#xdb;" horiz-adv-x="1228" 
d="M614 164q124 0 205.5 85t81.5 222v819h195v-819q0 -207 -137.5 -344t-344.5 -137t-344 137t-137 344v819h195v-819q0 -137 81 -222t205 -85zM696 1679l185 -245h-164l-103 143l-102 -143h-164l184 245h164z" />
    <glyph glyph-name="Udieresis" unicode="&#xdc;" horiz-adv-x="1228" 
d="M614 164q124 0 205.5 85t81.5 222v819h195v-819q0 -207 -137.5 -344t-344.5 -137t-344 137t-137 344v819h195v-819q0 -137 81 -222t205 -85zM553 1546q0 -46 -33.5 -79t-79.5 -33t-79 33t-33 79t33 79.5t79 33.5t79.5 -33.5t33.5 -79.5zM901 1546q0 -46 -33.5 -79
t-79.5 -33t-79 33t-33 79t33 79.5t79 33.5t79.5 -33.5t33.5 -79.5z" />
    <glyph glyph-name="Yacute" unicode="&#xdd;" horiz-adv-x="1054" 
d="M522 707h10l297 583h205l-409 -788v-502h-195v502l-410 788h205zM471 1444l123 246h174l-174 -246h-123z" />
    <glyph glyph-name="Thorn" unicode="&#xde;" horiz-adv-x="1218" 
d="M348 1290v-215h379q168 0 289 -118.5t121 -280.5t-121 -281t-289 -119h-379v-276h-194v1290h194zM348 461h379q85 0 150 65t65 150t-65 150t-150 65h-379v-430z" />
    <glyph glyph-name="germandbls" unicode="&#xdf;" horiz-adv-x="1054" 
d="M778 696q8 -4 22 -11.5t49.5 -36t62.5 -62.5t49 -92.5t22 -124.5q0 -154 -107.5 -261.5t-261.5 -107.5h-102v174h102q77 0 131 55.5t54 139.5t-53.5 139t-131.5 55h-102v185q84 0 139.5 53.5t55.5 130.5q0 85 -55 139.5t-140 54.5q-77 0 -136 -59t-59 -135v-932h-184v932
q0 147 113 257.5t266 110.5q160 0 269.5 -105t109.5 -253q0 -68 -28.5 -129.5t-56.5 -88.5z" />
    <glyph glyph-name="agrave" unicode="&#xe0;" horiz-adv-x="952" 
d="M481 932q159 0 259 -94t100 -234v-604h-133l-41 92q-3 -4 -10 -11t-31 -24.5t-52.5 -31t-75 -24.5t-98.5 -11q-151 0 -234 75t-83 201q0 58 16 103t56 84.5t104.5 65t164 40t232.5 14.5v31q0 70 -45.5 112t-128.5 42q-86 0 -131 -31.5t-53 -81.5h-184q8 127 106 207
t262 80zM410 154q113 0 179 58.5t66 147.5v50q-120 0 -199 -10.5t-119.5 -32.5t-55.5 -47.5t-15 -63.5q0 -41 39 -71.5t105 -30.5zM440 1319l123 -246h-123l-174 246h174z" />
    <glyph glyph-name="aacute" unicode="&#xe1;" horiz-adv-x="952" 
d="M481 932q159 0 259 -94t100 -234v-604h-133l-41 92q-3 -4 -10 -11t-31 -24.5t-52.5 -31t-75 -24.5t-98.5 -11q-151 0 -234 75t-83 201q0 58 16 103t56 84.5t104.5 65t164 40t232.5 14.5v31q0 70 -45.5 112t-128.5 42q-86 0 -131 -31.5t-53 -81.5h-184q8 127 106 207
t262 80zM410 154q113 0 179 58.5t66 147.5v50q-120 0 -199 -10.5t-119.5 -32.5t-55.5 -47.5t-15 -63.5q0 -41 39 -71.5t105 -30.5zM420 1073l123 246h174l-174 -246h-123z" />
    <glyph glyph-name="acircumflex" unicode="&#xe2;" horiz-adv-x="952" 
d="M481 932q159 0 259 -94t100 -234v-604h-133l-41 92q-3 -4 -10 -11t-31 -24.5t-52.5 -31t-75 -24.5t-98.5 -11q-151 0 -234 75t-83 201q0 58 16 103t56 84.5t104.5 65t164 40t232.5 14.5v31q0 70 -45.5 112t-128.5 42q-86 0 -131 -31.5t-53 -81.5h-184q8 127 106 207
t262 80zM410 154q113 0 179 58.5t66 147.5v50q-120 0 -199 -10.5t-119.5 -32.5t-55.5 -47.5t-15 -63.5q0 -41 39 -71.5t105 -30.5zM563 1311l185 -246h-164l-103 143l-102 -143h-164l184 246h164z" />
    <glyph glyph-name="atilde" unicode="&#xe3;" horiz-adv-x="952" 
d="M481 932q159 0 259 -94t100 -234v-604h-133l-41 92q-3 -4 -10 -11t-31 -24.5t-52.5 -31t-75 -24.5t-98.5 -11q-151 0 -234 75t-83 201q0 58 16 103t56 84.5t104.5 65t164 40t232.5 14.5v31q0 70 -45.5 112t-128.5 42q-86 0 -131 -31.5t-53 -81.5h-184q8 127 106 207
t262 80zM410 154q113 0 179 58.5t66 147.5v50q-120 0 -199 -10.5t-119.5 -32.5t-55.5 -47.5t-15 -63.5q0 -41 39 -71.5t105 -30.5zM594 1034q-34 0 -63 12.5t-49 31t-37.5 36.5t-36.5 30.5t-39 12.5q-33 0 -57.5 -31t-24.5 -82h-103q0 118 52.5 182t134.5 64q42 0 76.5 -19
t54.5 -42.5t45 -42.5t49 -19q33 0 57.5 31t24.5 82h102q0 -118 -52 -182t-134 -64z" />
    <glyph glyph-name="adieresis" unicode="&#xe4;" horiz-adv-x="952" 
d="M481 932q159 0 259 -94t100 -234v-604h-133l-41 92q-3 -4 -10 -11t-31 -24.5t-52.5 -31t-75 -24.5t-98.5 -11q-151 0 -234 75t-83 201q0 58 16 103t56 84.5t104.5 65t164 40t232.5 14.5v31q0 70 -45.5 112t-128.5 42q-86 0 -131 -31.5t-53 -81.5h-184q8 127 106 207
t262 80zM410 154q113 0 179 58.5t66 147.5v50q-120 0 -199 -10.5t-119.5 -32.5t-55.5 -47.5t-15 -63.5q0 -41 39 -71.5t105 -30.5zM420 1178q0 -46 -33.5 -79.5t-79.5 -33.5t-79 33.5t-33 79.5t33 79t79 33t79.5 -33t33.5 -79zM768 1178q0 -46 -33.5 -79.5t-79.5 -33.5
t-79 33.5t-33 79.5t33 79t79 33t79.5 -33t33.5 -79z" />
    <glyph glyph-name="aring" unicode="&#xe5;" horiz-adv-x="952" 
d="M481 932q159 0 259 -94t100 -234v-604h-133l-41 92q-3 -4 -10 -11t-31 -24.5t-52.5 -31t-75 -24.5t-98.5 -11q-151 0 -234 75t-83 201q0 58 16 103t56 84.5t104.5 65t164 40t232.5 14.5v31q0 70 -45.5 112t-128.5 42q-86 0 -131 -31.5t-53 -81.5h-184q8 127 106 207
t262 80zM410 154q113 0 179 58.5t66 147.5v50q-120 0 -199 -10.5t-119.5 -32.5t-55.5 -47.5t-15 -63.5q0 -41 39 -71.5t105 -30.5zM563 1206q0 32 -20.5 57t-50.5 25t-51 -25t-21 -57t21 -57t51 -25t50.5 25t20.5 57zM666 1206q0 -71 -49.5 -122.5t-124.5 -51.5t-125 51.5
t-50 122.5t50 122.5t125 51.5t124.5 -51.5t49.5 -122.5z" />
    <glyph glyph-name="ae" unicode="&#xe6;" horiz-adv-x="1536" 
d="M1260 266h194q-50 -125 -147 -200.5t-242 -75.5q-55 0 -106.5 16t-86.5 38t-62 44.5t-40 38.5l-12 16q-5 -6 -14 -16.5t-40.5 -37t-67.5 -46.5t-94.5 -36.5t-121.5 -16.5q-164 0 -251 74.5t-87 201.5q0 52 16 93.5t56 78.5t104 61.5t164.5 39t232.5 14.5v51
q0 70 -45.5 112t-128.5 42q-86 0 -131 -31.5t-53 -81.5h-184q8 127 106 207t262 80q55 0 103.5 -16t79 -38.5t53 -45t31.5 -38.5l10 -16q5 6 13.5 16.5t38 37t61.5 47t82 37t102 16.5q107 0 200.5 -59.5t151 -168.5t57.5 -243q0 -13 -2.5 -31t-5.5 -30l-2 -11h-627
q9 -93 78 -159t160 -66q66 0 115.5 31t79.5 71zM1055 758q-84 0 -151 -64.5t-75 -150.5h461q-15 94 -79.5 154.5t-155.5 60.5zM410 154q113 0 179 58.5t66 147.5v29q-156 0 -245.5 -19.5t-116.5 -46.5t-27 -67q0 -41 39 -71.5t105 -30.5z" />
    <glyph glyph-name="ccedilla" unicode="&#xe7;" horiz-adv-x="983" 
d="M727 338h195q-31 -139 -126.5 -232t-232.5 -116l-31 -72q55 -8 89 -44t34 -89q0 -65 -49 -104t-145 -39q-23 0 -46 2.5t-35 5.5l-11 2v92q41 -10 82 -10q43 0 67.5 18t24.5 43t-24.5 43.5t-67.5 18.5q-14 0 -27 -2.5t-19 -5.5l-6 -3l62 144q-160 16 -274.5 147
t-114.5 324q0 205 126.5 338t313.5 133q157 0 267.5 -98.5t142.5 -249.5h-195q-24 80 -78.5 127t-136.5 47q-103 0 -179.5 -85t-76.5 -212t76.5 -212t179.5 -85q82 0 136.5 47t78.5 127z" />
    <glyph glyph-name="egrave" unicode="&#xe8;" horiz-adv-x="1013" 
d="M727 266h195q-50 -125 -149 -200.5t-251 -75.5q-187 0 -313.5 133t-126.5 338q0 204 125 337.5t305 133.5t305 -133.5t125 -337.5q0 -18 -2.5 -38.5t-5.5 -32.5l-2 -11h-656q8 -87 78.5 -151t167.5 -64q128 0 205 102zM512 758q-92 0 -156.5 -62.5t-79.5 -163.5h492
q-15 102 -83 164t-173 62zM451 1319l122 -246h-122l-175 246h175z" />
    <glyph glyph-name="eacute" unicode="&#xe9;" horiz-adv-x="1013" 
d="M727 266h195q-50 -125 -149 -200.5t-251 -75.5q-187 0 -313.5 133t-126.5 338q0 204 125 337.5t305 133.5t305 -133.5t125 -337.5q0 -18 -2.5 -38.5t-5.5 -32.5l-2 -11h-656q8 -87 78.5 -151t167.5 -64q128 0 205 102zM512 758q-92 0 -156.5 -62.5t-79.5 -163.5h492
q-15 102 -83 164t-173 62zM451 1073l122 246h175l-175 -246h-122z" />
    <glyph glyph-name="ecircumflex" unicode="&#xea;" horiz-adv-x="1013" 
d="M727 266h195q-50 -125 -149 -200.5t-251 -75.5q-187 0 -313.5 133t-126.5 338q0 204 125 337.5t305 133.5t305 -133.5t125 -337.5q0 -18 -2.5 -38.5t-5.5 -32.5l-2 -11h-656q8 -87 78.5 -151t167.5 -64q128 0 205 102zM512 758q-92 0 -156.5 -62.5t-79.5 -163.5h492
q-15 102 -83 164t-173 62zM594 1311l184 -246h-164l-102 143l-102 -143h-164l184 246h164z" />
    <glyph glyph-name="edieresis" unicode="&#xeb;" horiz-adv-x="1013" 
d="M727 266h195q-50 -125 -149 -200.5t-251 -75.5q-187 0 -313.5 133t-126.5 338q0 204 125 337.5t305 133.5t305 -133.5t125 -337.5q0 -18 -2.5 -38.5t-5.5 -32.5l-2 -11h-656q8 -87 78.5 -151t167.5 -64q128 0 205 102zM512 758q-92 0 -156.5 -62.5t-79.5 -163.5h492
q-15 102 -83 164t-173 62zM451 1178q0 -46 -33.5 -79.5t-79.5 -33.5t-79.5 33.5t-33.5 79.5t33.5 79t79.5 33t79.5 -33t33.5 -79zM799 1178q0 -46 -33.5 -79.5t-79.5 -33.5t-79.5 33.5t-33.5 79.5t33.5 79t79.5 33t79.5 -33t33.5 -79z" />
    <glyph glyph-name="igrave" unicode="&#xec;" horiz-adv-x="430" 
d="M307 922v-922h-184v922h184zM164 1311l123 -246h-123l-174 246h174z" />
    <glyph glyph-name="iacute" unicode="&#xed;" horiz-adv-x="430" 
d="M307 922v-922h-184v922h184zM154 1065l122 246h175l-175 -246h-122z" />
    <glyph glyph-name="icircumflex" unicode="&#xee;" horiz-adv-x="430" 
d="M307 922v-922h-184v922h184zM297 1311l184 -246h-164l-102 143l-102 -143h-164l184 246h164z" />
    <glyph glyph-name="idieresis" unicode="&#xef;" horiz-adv-x="430" 
d="M307 922v-922h-184v922h184zM154 1178q0 -46 -33.5 -79.5t-79.5 -33.5t-79.5 33.5t-33.5 79.5t33.5 79t79.5 33t79.5 -33t33.5 -79zM502 1178q0 -46 -33.5 -79.5t-79.5 -33.5t-79.5 33.5t-33.5 79.5t33.5 79t79.5 33t79.5 -33t33.5 -79z" />
    <glyph glyph-name="eth" unicode="&#xf0;" horiz-adv-x="1064" 
d="M870 1280l-143 -92q10 -10 27.5 -28.5t61.5 -83t78 -136.5t61.5 -188.5t27.5 -239.5q0 -241 -128.5 -381.5t-332.5 -140.5q-192 0 -321 129t-129 321q0 191 126 321t304 130q57 0 108 -14.5t82 -35.5t54 -42.5t32 -36.5l10 -14q-9 57 -31 114t-47.5 97.5t-49.5 72.5
t-40 48l-16 16l-184 -123l-82 123l143 92q-41 27 -92 47.5t-82 27.5l-31 7l52 143q19 -6 51 -16.5t108.5 -45.5t126.5 -71l174 123zM522 164q108 0 187 80.5t79 195.5t-79 196t-187 81t-187 -81t-79 -196t79 -195.5t187 -80.5z" />
    <glyph glyph-name="ntilde" unicode="&#xf1;" horiz-adv-x="1044" 
d="M563 932q156 0 262.5 -112.5t106.5 -287.5v-532h-184v532q0 91 -65 158.5t-151 67.5q-92 0 -158.5 -67t-66.5 -159v-532h-184v922h133l41 -93q3 4 10 11t31 25t52 31.5t74.5 24.5t98.5 11zM655 1055q-34 0 -63 12.5t-49 30.5t-37.5 36.5t-36.5 31t-39 12.5
q-33 0 -57.5 -31t-24.5 -82h-102q0 118 52 182t134 64q42 0 76.5 -19t54.5 -42.5t45 -42.5t49 -19q33 0 57.5 30.5t24.5 81.5h103q0 -118 -52.5 -181.5t-134.5 -63.5z" />
    <glyph glyph-name="ograve" unicode="&#xf2;" 
d="M768 461q0 127 -76.5 212t-179.5 85t-179.5 -85t-76.5 -212t76.5 -212t179.5 -85t179.5 85t76.5 212zM952 461q0 -205 -126.5 -338t-313.5 -133t-313.5 133t-126.5 338t126.5 338t313.5 133t313.5 -133t126.5 -338zM461 1311l123 -246h-123l-174 246h174z" />
    <glyph glyph-name="oacute" unicode="&#xf3;" 
d="M768 461q0 127 -76.5 212t-179.5 85t-179.5 -85t-76.5 -212t76.5 -212t179.5 -85t179.5 85t76.5 212zM952 461q0 -205 -126.5 -338t-313.5 -133t-313.5 133t-126.5 338t126.5 338t313.5 133t313.5 -133t126.5 -338zM461 1065l123 246h174l-174 -246h-123z" />
    <glyph glyph-name="ocircumflex" unicode="&#xf4;" 
d="M768 461q0 127 -76.5 212t-179.5 85t-179.5 -85t-76.5 -212t76.5 -212t179.5 -85t179.5 85t76.5 212zM952 461q0 -205 -126.5 -338t-313.5 -133t-313.5 133t-126.5 338t126.5 338t313.5 133t313.5 -133t126.5 -338zM594 1311l184 -246h-164l-102 143l-102 -143h-164
l184 246h164z" />
    <glyph glyph-name="otilde" unicode="&#xf5;" 
d="M768 461q0 127 -76.5 212t-179.5 85t-179.5 -85t-76.5 -212t76.5 -212t179.5 -85t179.5 85t76.5 212zM952 461q0 -205 -126.5 -338t-313.5 -133t-313.5 133t-126.5 338t126.5 338t313.5 133t313.5 -133t126.5 -338zM625 1044q-34 0 -63 12.5t-49.5 31t-38 36.5
t-36.5 30.5t-39 12.5q-33 0 -57.5 -30.5t-24.5 -81.5h-102q0 118 52 181.5t134 63.5q42 0 77 -19t54.5 -42t45 -42t49.5 -19q33 0 57.5 30.5t24.5 81.5h102q0 -118 -52 -182t-134 -64z" />
    <glyph glyph-name="odieresis" unicode="&#xf6;" 
d="M768 461q0 127 -76.5 212t-179.5 85t-179.5 -85t-76.5 -212t76.5 -212t179.5 -85t179.5 85t76.5 212zM952 461q0 -205 -126.5 -338t-313.5 -133t-313.5 133t-126.5 338t126.5 338t313.5 133t313.5 -133t126.5 -338zM451 1178q0 -46 -33.5 -79.5t-79.5 -33.5t-79.5 33.5
t-33.5 79.5t33.5 79t79.5 33t79.5 -33t33.5 -79zM799 1178q0 -46 -33.5 -79.5t-79.5 -33.5t-79.5 33.5t-33.5 79.5t33.5 79t79.5 33t79.5 -33t33.5 -79z" />
    <glyph glyph-name="divide" unicode="&#xf7;" horiz-adv-x="921" 
d="M850 604v-164h-778v164h778zM573 860q0 -46 -33 -79t-79 -33t-79.5 33t-33.5 79t33.5 79.5t79.5 33.5t79 -33.5t33 -79.5zM573 184q0 -46 -33 -79t-79 -33t-79.5 33t-33.5 79t33.5 79.5t79.5 33.5t79 -33.5t33 -79.5z" />
    <glyph glyph-name="oslash" unicode="&#xf8;" horiz-adv-x="1064" 
d="M532 932q77 0 149 -26t105 -52l33 -25l103 93l102 -113l-113 -102q7 -12 17.5 -33t27.5 -84.5t17 -126.5q0 -207 -127 -340t-314 -133q-49 0 -96 10.5t-80 25.5t-59 30t-39 26l-12 10l-103 -92l-102 113l113 102q-7 12 -17.5 33t-27.5 85t-17 128q0 205 126.5 338
t313.5 133zM297 338l389 369q-7 6 -20 14.5t-53 23t-81 13.5q-104 0 -180 -84.5t-76 -212.5q0 -27 5 -58t11 -48zM768 584l-389 -369q7 -6 19.5 -14.5t52.5 -23t81 -13.5q104 0 180 85t76 214q0 27 -5 57.5t-10 47.5z" />
    <glyph glyph-name="ugrave" unicode="&#xf9;" horiz-adv-x="1054" 
d="M492 -10q-156 0 -262.5 112t-106.5 287v533h184v-533q0 -91 64.5 -158t150.5 -67q92 0 159 66.5t67 158.5v533h184v-922h-133l-41 92q-3 -4 -10 -11t-31 -24.5t-52 -31t-74.5 -24.5t-98.5 -11zM502 1319l123 -246h-123l-174 246h174z" />
    <glyph glyph-name="uacute" unicode="&#xfa;" horiz-adv-x="1054" 
d="M492 -10q-156 0 -262.5 112t-106.5 287v533h184v-533q0 -91 64.5 -158t150.5 -67q92 0 159 66.5t67 158.5v533h184v-922h-133l-41 92q-3 -4 -10 -11t-31 -24.5t-52 -31t-74.5 -24.5t-98.5 -11zM461 1075l123 246h174l-174 -246h-123z" />
    <glyph glyph-name="ucircumflex" unicode="&#xfb;" horiz-adv-x="1054" 
d="M492 -10q-156 0 -262.5 112t-106.5 287v533h184v-533q0 -91 64.5 -158t150.5 -67q92 0 159 66.5t67 158.5v533h184v-922h-133l-41 92q-3 -4 -10 -11t-31 -24.5t-52 -31t-74.5 -24.5t-98.5 -11zM604 1311l184 -246h-163l-103 143l-102 -143h-164l184 246h164z" />
    <glyph glyph-name="udieresis" unicode="&#xfc;" horiz-adv-x="1054" 
d="M492 -10q-156 0 -262.5 112t-106.5 287v533h184v-533q0 -91 64.5 -158t150.5 -67q92 0 159 66.5t67 158.5v533h184v-922h-133l-41 92q-3 -4 -10 -11t-31 -24.5t-52 -31t-74.5 -24.5t-98.5 -11zM471 1178q0 -46 -33.5 -79.5t-79.5 -33.5t-79 33.5t-33 79.5t33 79t79 33
t79.5 -33t33.5 -79zM819 1178q0 -46 -33 -79.5t-79 -33.5t-79.5 33.5t-33.5 79.5t33.5 79t79.5 33t79 -33t33 -79z" />
    <glyph glyph-name="yacute" unicode="&#xfd;" horiz-adv-x="942" 
d="M379 31l-359 891h195l256 -666l256 666h195l-390 -983q-62 -156 -126 -216.5t-170 -60.5q-14 0 -29.5 2.5t-24.5 5.5l-8 2v154q137 0 174 113zM410 1073l122 246h175l-175 -246h-122z" />
    <glyph glyph-name="thorn" unicode="&#xfe;" horiz-adv-x="1085" 
d="M573 932q187 0 314 -133t127 -338t-127 -338t-314 -133q-49 0 -93 10.5t-72.5 25.5t-50 30t-31.5 26l-9 10v-420h-184v1618h184v-471q4 5 11 12.5t32 27t52.5 34.5t71 27t89.5 12zM563 164q110 0 188 84.5t78 212.5t-78 212.5t-188 84.5t-188 -84.5t-78 -212.5t78 -212.5
t188 -84.5z" />
    <glyph glyph-name="ydieresis" unicode="&#xff;" horiz-adv-x="942" 
d="M379 31l-359 891h195l256 -666l256 666h195l-390 -983q-62 -156 -126 -216.5t-170 -60.5q-14 0 -29.5 2.5t-24.5 5.5l-8 2v154q137 0 174 113zM410 1178q0 -46 -33.5 -79.5t-79.5 -33.5t-79.5 33.5t-33.5 79.5t33.5 79t79.5 33t79.5 -33t33.5 -79zM758 1178
q0 -46 -33.5 -79.5t-79.5 -33.5t-79.5 33.5t-33.5 79.5t33.5 79t79.5 33t79.5 -33t33.5 -79z" />
    <glyph glyph-name="Amacron" unicode="&#x100;" horiz-adv-x="1146" 
d="M317 297l-112 -297h-205l492 1290h163l492 -1290h-205l-113 297h-512zM389 481h369l-185 512zM829 1587v-133h-512v133h512z" />
    <glyph glyph-name="amacron" unicode="&#x101;" horiz-adv-x="952" 
d="M481 932q159 0 259 -94t100 -234v-604h-133l-41 92q-3 -4 -10 -11t-31 -24.5t-52.5 -31t-75 -24.5t-98.5 -11q-151 0 -234 75t-83 201q0 58 16 103t56 84.5t104.5 65t164 40t232.5 14.5v31q0 70 -45.5 112t-128.5 42q-86 0 -131 -31.5t-53 -81.5h-184q8 127 106 207
t262 80zM410 154q113 0 179 58.5t66 147.5v50q-120 0 -199 -10.5t-119.5 -32.5t-55.5 -47.5t-15 -63.5q0 -41 39 -71.5t105 -30.5zM748 1239v-133h-512v133h512z" />
    <glyph glyph-name="Abreve" unicode="&#x102;" horiz-adv-x="1146" 
d="M317 297l-112 -297h-205l492 1290h163l492 -1290h-205l-113 297h-512zM389 481h369l-185 512zM573 1556q44 0 79.5 31.5t43.5 71.5h144q-15 -102 -88.5 -169t-178.5 -67t-178 67t-88 169h144q8 -40 43 -71.5t79 -31.5z" />
    <glyph glyph-name="abreve" unicode="&#x103;" horiz-adv-x="952" 
d="M481 932q159 0 259 -94t100 -234v-604h-133l-41 92q-3 -4 -10 -11t-31 -24.5t-52.5 -31t-75 -24.5t-98.5 -11q-151 0 -234 75t-83 201q0 58 16 103t56 84.5t104.5 65t164 40t232.5 14.5v31q0 70 -45.5 112t-128.5 42q-86 0 -131 -31.5t-53 -81.5h-184q8 127 106 207
t262 80zM410 154q113 0 179 58.5t66 147.5v50q-120 0 -199 -10.5t-119.5 -32.5t-55.5 -47.5t-15 -63.5q0 -41 39 -71.5t105 -30.5zM483 1188q44 0 79.5 31t43.5 71h144q-15 -102 -88.5 -168.5t-178.5 -66.5t-178 66.5t-88 168.5h143q8 -40 43.5 -71t79.5 -31z" />
    <glyph glyph-name="Aogonek" unicode="&#x104;" horiz-adv-x="1146" 
d="M942 0l-113 297h-512l-112 -297h-205l492 1290h163l492 -1290h-82q-8 -9 -20 -25t-32 -59.5t-20 -79.5q0 -38 27 -65t65 -27q18 0 38.5 2.5t32.5 5.5l11 2v-102q-51 -10 -102 -10q-91 0 -143 48t-52 126q0 45 18 91t36 69zM389 481h369l-185 512z" />
    <glyph glyph-name="aogonek" unicode="&#x105;" horiz-adv-x="952" 
d="M707 0l-41 92q-3 -4 -10 -11t-31 -24.5t-52.5 -31t-75 -24.5t-98.5 -11q-151 0 -234 75t-83 201q0 58 16 103t56 84.5t104.5 65t164 40t232.5 14.5v31q0 70 -45.5 112t-128.5 42q-86 0 -131 -31.5t-53 -81.5h-184q8 127 106 207t262 80q159 0 259 -94t100 -234v-604h-11
q-8 -9 -20 -25t-31.5 -59.5t-19.5 -79.5q0 -38 27 -65t65 -27q18 0 38.5 2.5t31.5 5.5l12 2v-102q-52 -10 -103 -10q-91 0 -142.5 48t-51.5 126q0 45 18 91t36 69zM410 154q113 0 179 58.5t66 147.5v50q-120 0 -199 -10.5t-119.5 -32.5t-55.5 -47.5t-15 -63.5
q0 -41 39 -71.5t105 -30.5z" />
    <glyph glyph-name="Cacute" unicode="&#x106;" horiz-adv-x="1310" 
d="M266 645q0 -101 35.5 -191.5t94 -153t134.5 -99.5t156 -37q140 0 232.5 77t125.5 199h205q-48 -194 -198.5 -322t-364.5 -128q-162 0 -303 86t-226 237.5t-85 331.5t85 331.5t226 237.5t303 86q207 0 356 -128.5t197 -321.5h-205q-32 121 -123.5 198.5t-224.5 77.5
q-80 0 -156 -37t-134.5 -99.5t-94 -153t-35.5 -191.5zM625 1444l123 246h174l-174 -246h-123z" />
    <glyph glyph-name="cacute" unicode="&#x107;" horiz-adv-x="983" 
d="M727 338h195q-32 -151 -142.5 -249.5t-267.5 -98.5q-187 0 -313.5 133t-126.5 338t126.5 338t313.5 133q157 0 267.5 -98.5t142.5 -249.5h-195q-24 80 -78.5 127t-136.5 47q-103 0 -179.5 -85t-76.5 -212t76.5 -212t179.5 -85q82 0 136.5 47t78.5 127zM451 1073l122 246
h175l-175 -246h-122z" />
    <glyph glyph-name="Ccircumflex" unicode="&#x108;" horiz-adv-x="1310" 
d="M266 645q0 -101 35.5 -191.5t94 -153t134.5 -99.5t156 -37q140 0 232.5 77t125.5 199h205q-48 -194 -198.5 -322t-364.5 -128q-162 0 -303 86t-226 237.5t-85 331.5t85 331.5t226 237.5t303 86q207 0 356 -128.5t197 -321.5h-205q-32 121 -123.5 198.5t-224.5 77.5
q-80 0 -156 -37t-134.5 -99.5t-94 -153t-35.5 -191.5zM768 1679l184 -245h-164l-102 143l-102 -143h-164l184 245h164z" />
    <glyph glyph-name="ccircumflex" unicode="&#x109;" horiz-adv-x="983" 
d="M727 338h195q-32 -151 -142.5 -249.5t-267.5 -98.5q-187 0 -313.5 133t-126.5 338t126.5 338t313.5 133q157 0 267.5 -98.5t142.5 -249.5h-195q-24 80 -78.5 127t-136.5 47q-103 0 -179.5 -85t-76.5 -212t76.5 -212t179.5 -85q82 0 136.5 47t78.5 127zM594 1311l184 -246
h-164l-102 143l-102 -143h-164l184 246h164z" />
    <glyph glyph-name="Ccaron" unicode="&#x10c;" horiz-adv-x="1310" 
d="M266 645q0 -101 35.5 -191.5t94 -153t134.5 -99.5t156 -37q140 0 232.5 77t125.5 199h205q-48 -194 -198.5 -322t-364.5 -128q-162 0 -303 86t-226 237.5t-85 331.5t85 331.5t226 237.5t303 86q207 0 356 -128.5t197 -321.5h-205q-32 121 -123.5 198.5t-224.5 77.5
q-80 0 -156 -37t-134.5 -99.5t-94 -153t-35.5 -191.5zM942 1679l-184 -245h-164l-184 245h163l103 -143l102 143h164z" />
    <glyph glyph-name="ccaron" unicode="&#x10d;" horiz-adv-x="983" 
d="M727 338h195q-32 -151 -142.5 -249.5t-267.5 -98.5q-187 0 -313.5 133t-126.5 338t126.5 338t313.5 133q157 0 267.5 -98.5t142.5 -249.5h-195q-24 80 -78.5 127t-136.5 47q-103 0 -179.5 -85t-76.5 -212t76.5 -212t179.5 -85q82 0 136.5 47t78.5 127zM778 1311
l-184 -246h-164l-184 246h164l102 -144l102 144h164z" />
    <glyph glyph-name="Dcaron" unicode="&#x10e;" horiz-adv-x="1239" 
d="M348 184h195q107 0 203.5 59t156.5 166t60 236t-60 236t-156.5 166t-203.5 59h-195v-922zM543 0h-389v1290h389q121 0 234 -51t196.5 -137t133.5 -206t50 -251t-50 -251t-133.5 -206t-196.5 -137t-234 -51zM881 1679l-185 -245h-164l-184 245h164l102 -143l103 143h164z
" />
    <glyph glyph-name="dcaron" unicode="&#x10f;" horiz-adv-x="1198" 
d="M1065 1044l72 246h163l-122 -246h-113zM512 -10q-187 0 -313.5 133t-126.5 338t126.5 338t313.5 133q49 0 93 -10.5t72.5 -26t50 -30.5t30.5 -25l10 -11v461h184v-1290h-133l-41 92q-3 -4 -10 -11t-31 -24.5t-52 -31t-74.5 -24.5t-98.5 -11zM522 758q-110 0 -188 -84.5
t-78 -212.5t78 -212.5t188 -84.5t188 84.5t78 212.5t-78 212.5t-188 84.5z" />
    <glyph glyph-name="Dcroat" unicode="&#x110;" horiz-adv-x="1300" 
d="M604 0h-389v543h-174v184h174v563h389q121 0 234 -51t196.5 -137t134 -206t50.5 -251t-50.5 -251t-134 -206t-196.5 -137t-234 -51zM410 184h194q107 0 203.5 59t156.5 166t60 236t-60 236t-156.5 166t-203.5 59h-194v-379h245v-184h-245v-359z" />
    <glyph glyph-name="dcroat" unicode="&#x111;" horiz-adv-x="1075" 
d="M1075 1137v-164h-153v-973h-134l-40 92q-3 -4 -10 -11t-31 -24.5t-52.5 -31t-75 -24.5t-98.5 -11q-170 0 -289.5 123.5t-119.5 306.5t119.5 306.5t289.5 123.5q49 0 93 -10.5t72.5 -25.5t50 -30t31.5 -26l9 -10v225h-256v164h256v153h187v-153h151zM502 164
q101 0 173.5 75t72.5 181t-72.5 181t-173.5 75t-173.5 -75t-72.5 -181t72.5 -181t173.5 -75z" />
    <glyph glyph-name="Emacron" unicode="&#x112;" horiz-adv-x="1126" 
d="M348 184h676v-184h-870v1290h850v-184h-656v-348h604v-185h-604v-389zM840 1608v-133h-512v133h512z" />
    <glyph glyph-name="emacron" unicode="&#x113;" horiz-adv-x="1013" 
d="M727 266h195q-50 -125 -149 -200.5t-251 -75.5q-187 0 -313.5 133t-126.5 338q0 204 125 337.5t305 133.5t305 -133.5t125 -337.5q0 -18 -2.5 -38.5t-5.5 -32.5l-2 -11h-656q8 -87 78.5 -151t167.5 -64q128 0 205 102zM512 758q-92 0 -156.5 -62.5t-79.5 -163.5h492
q-15 102 -83 164t-173 62zM768 1239v-133h-512v133h512z" />
    <glyph glyph-name="Edotaccent" unicode="&#x116;" horiz-adv-x="1126" 
d="M348 184h676v-184h-870v1290h850v-184h-656v-348h604v-185h-604v-389zM707 1546q0 -46 -33.5 -79t-79.5 -33t-79.5 33t-33.5 79t33.5 79.5t79.5 33.5t79.5 -33.5t33.5 -79.5z" />
    <glyph glyph-name="edotaccent" unicode="&#x117;" horiz-adv-x="1013" 
d="M727 266h195q-50 -125 -149 -200.5t-251 -75.5q-187 0 -313.5 133t-126.5 338q0 204 125 337.5t305 133.5t305 -133.5t125 -337.5q0 -18 -2.5 -38.5t-5.5 -32.5l-2 -11h-656q8 -87 78.5 -151t167.5 -64q128 0 205 102zM512 758q-92 0 -156.5 -62.5t-79.5 -163.5h492
q-15 102 -83 164t-173 62zM625 1178q0 -46 -33.5 -79.5t-79.5 -33.5t-79.5 33.5t-33.5 79.5t33.5 79t79.5 33t79.5 -33t33.5 -79z" />
    <glyph glyph-name="Eogonek" unicode="&#x118;" horiz-adv-x="1126" 
d="M901 0h-747v1290h850v-184h-656v-348h604v-185h-604v-389h676v-184q-8 -9 -20 -25t-32 -59.5t-20 -79.5q0 -38 27 -65t65 -27q18 0 38.5 2.5t31.5 5.5l12 2v-102q-51 -10 -102 -10q-91 0 -143 48t-52 126q0 45 18 91t36 69z" />
    <glyph glyph-name="eogonek" unicode="&#x119;" horiz-adv-x="1013" 
d="M727 266h195q-101 -238 -318 -266q-8 -9 -20 -25t-32 -59.5t-20 -79.5q0 -38 27.5 -65t65.5 -27q18 0 38.5 2.5t32.5 5.5l11 2v-102q-52 -10 -103 -10q-91 0 -142.5 48t-51.5 126q0 41 15 84.5t31 66.5l15 23q-160 16 -274.5 147t-114.5 324q0 204 125 337.5t305 133.5
t305 -133.5t125 -337.5q0 -18 -2.5 -38.5t-5.5 -32.5l-2 -11h-656q8 -87 78.5 -151t167.5 -64q128 0 205 102zM512 758q-92 0 -156.5 -62.5t-79.5 -163.5h492q-15 102 -83 164t-173 62z" />
    <glyph glyph-name="Ecaron" unicode="&#x11a;" horiz-adv-x="1126" 
d="M348 184h676v-184h-870v1290h850v-184h-656v-348h604v-185h-604v-389zM860 1679l-184 -245h-164l-184 245h164l102 -143l102 143h164z" />
    <glyph glyph-name="ecaron" unicode="&#x11b;" horiz-adv-x="1013" 
d="M727 266h195q-50 -125 -149 -200.5t-251 -75.5q-187 0 -313.5 133t-126.5 338q0 204 125 337.5t305 133.5t305 -133.5t125 -337.5q0 -18 -2.5 -38.5t-5.5 -32.5l-2 -11h-656q8 -87 78.5 -151t167.5 -64q128 0 205 102zM512 758q-92 0 -156.5 -62.5t-79.5 -163.5h492
q-15 102 -83 164t-173 62zM778 1311l-184 -246h-164l-184 246h164l102 -144l102 144h164z" />
    <glyph glyph-name="Gbreve" unicode="&#x11e;" horiz-adv-x="1372" 
d="M686 -10q-162 0 -303 86t-226 237.5t-85 331.5t85 331.5t226 237.5t303 86q104 0 198 -35.5t163.5 -95.5t119 -136.5t72.5 -162.5h-205q-33 108 -125 182t-223 74q-80 0 -156 -37t-134.5 -99.5t-94 -153t-35.5 -191.5t35.5 -191.5t94 -153t134.5 -99.5t156 -37
q149 0 252 90.5t127 226.5h-389v185h573v-666h-143l-51 123q-5 -5 -15.5 -14t-46.5 -32t-75.5 -40.5t-102.5 -32t-129 -14.5zM686 1556q44 0 79.5 31.5t43.5 71.5h143q-15 -102 -88 -169t-178 -67t-178 67t-88 169h143q8 -40 43.5 -71.5t79.5 -31.5z" />
    <glyph glyph-name="gbreve" unicode="&#x11f;" horiz-adv-x="1054" 
d="M799 922h133v-881q0 -171 -115 -280t-305 -109q-160 0 -263 81.5t-136 205.5h184q63 -123 215 -123q107 0 171.5 62.5t64.5 162.5v92q-3 -4 -9.5 -11t-30.5 -24.5t-51 -31t-71.5 -24.5t-93.5 -11q-171 0 -295.5 130.5t-124.5 319.5q0 94 34 178t91.5 143.5t134.5 94.5
t160 35q52 0 98 -10.5t75.5 -26t51.5 -30.5t31 -25l10 -11zM514 205q100 0 177 81t77 195t-77.5 195.5t-178.5 81.5t-178.5 -81.5t-77.5 -195.5t77.5 -195t180.5 -81zM512 1188q44 0 79.5 31t43.5 71h143q-15 -102 -88 -168.5t-178 -66.5t-178 66.5t-88 168.5h143
q8 -40 43.5 -71t79.5 -31z" />
    <glyph glyph-name="Gcommaaccent" unicode="&#x122;" horiz-adv-x="1372" 
d="M686 -10q-162 0 -303 86t-226 237.5t-85 331.5t85 331.5t226 237.5t303 86q104 0 198 -35.5t163.5 -95.5t119 -136.5t72.5 -162.5h-205q-33 108 -125 182t-223 74q-80 0 -156 -37t-134.5 -99.5t-94 -153t-35.5 -191.5t35.5 -191.5t94 -153t134.5 -99.5t156 -37
q149 0 252 90.5t127 226.5h-389v185h573v-666h-143l-51 123q-5 -5 -15.5 -14t-46.5 -32t-75.5 -40.5t-102.5 -32t-129 -14.5zM686 -133q47 0 80 -35t33 -88q0 -55 -17 -103.5t-41 -78.5t-48 -52.5t-41 -31.5l-17 -10l-31 40q8 6 20.5 17t37.5 46t34 71q-53 0 -88 32.5
t-35 79.5q0 46 33.5 79.5t79.5 33.5z" />
    <glyph glyph-name="gcommaaccent" unicode="&#x123;" horiz-adv-x="1054" 
d="M522 1055q-47 0 -79.5 35t-32.5 88q0 55 17 103.5t41 78.5t47.5 52.5t40.5 31.5l17 10l31 -41q-8 -6 -20.5 -16.5t-37.5 -45.5t-34 -71q53 0 88 -33t35 -80q0 -46 -33.5 -79t-79.5 -33zM799 922h133v-881q0 -171 -115 -280t-305 -109q-160 0 -263 81.5t-136 205.5h184
q63 -123 215 -123q107 0 171.5 62.5t64.5 162.5v92q-3 -4 -9.5 -11t-30.5 -24.5t-51 -31t-71.5 -24.5t-93.5 -11q-171 0 -295.5 130.5t-124.5 319.5q0 94 34 178t91.5 143.5t134.5 94.5t160 35q52 0 98 -10.5t75.5 -26t51.5 -30.5t31 -25l10 -11zM514 205q100 0 177 81
t77 195t-77.5 195.5t-178.5 81.5t-178.5 -81.5t-77.5 -195.5t77.5 -195t180.5 -81z" />
    <glyph glyph-name="Imacron" unicode="&#x12a;" horiz-adv-x="501" 
d="M348 1290v-1290h-194v1290h194zM512 1597v-133h-512v133h512z" />
    <glyph glyph-name="imacron" unicode="&#x12b;" horiz-adv-x="430" 
d="M307 922v-922h-184v922h184zM471 1239v-133h-512v133h512z" />
    <glyph glyph-name="Iogonek" unicode="&#x12e;" horiz-adv-x="501" 
d="M154 0v1290h194v-1290h-72q-8 -9 -20 -25t-31.5 -59.5t-19.5 -79.5q0 -38 27 -65t65 -27q18 0 38.5 2.5t32.5 5.5l11 2v-102q-52 -10 -103 -10q-91 0 -142.5 48t-51.5 126q0 45 18 91t36 69z" />
    <glyph glyph-name="iogonek" unicode="&#x12f;" horiz-adv-x="430" 
d="M123 0v922h184v-922h-61q-8 -9 -20 -25t-32 -59.5t-20 -79.5q0 -38 27 -65t65 -27q18 0 38.5 2.5t31.5 5.5l12 2v-102q-51 -10 -102 -10q-91 0 -143 48t-52 126q0 45 18 91t36 69zM215 1065q-46 0 -79.5 33.5t-33.5 79.5t33.5 79t79.5 33t79.5 -33t33.5 -79t-33.5 -79.5
t-79.5 -33.5z" />
    <glyph glyph-name="Idotaccent" unicode="&#x130;" horiz-adv-x="501" 
d="M348 1290v-1290h-194v1290h194zM369 1546q0 -46 -33.5 -79t-79.5 -33t-79.5 33t-33.5 79t33.5 79.5t79.5 33.5t79.5 -33.5t33.5 -79.5z" />
    <glyph glyph-name="dotlessi" unicode="&#x131;" horiz-adv-x="430" 
d="M307 922v-922h-184v922h184z" />
    <glyph glyph-name="ij" unicode="&#x133;" horiz-adv-x="901" 
d="M307 922v-615q0 -61 41 -102t103 -41q32 0 67.5 10t55.5 20l20 11v717h184v-942q0 -144 -80.5 -231t-205.5 -87q-27 0 -53 5t-38 11l-12 5v163q31 -10 62 -10q61 0 102 41t41 103v51q-7 -5 -20.5 -11.5t-61 -18t-102.5 -11.5q-125 0 -206 86.5t-81 230.5v615h184z
M215 1065q-46 0 -79.5 33.5t-33.5 79.5t33.5 79t79.5 33t79.5 -33t33.5 -79t-33.5 -79.5t-79.5 -33.5zM686 1065q-46 0 -79.5 33.5t-33.5 79.5t33.5 79t79.5 33t79.5 -33t33.5 -79t-33.5 -79.5t-79.5 -33.5z" />
    <glyph glyph-name="Kcommaaccent" unicode="&#x136;" horiz-adv-x="1075" 
d="M1096 0h-236l-512 604v-604h-194v1290h194v-594l471 594h236l-523 -635zM573 -133q47 0 80 -35t33 -88q0 -55 -17 -103.5t-41 -78.5t-48 -52.5t-41 -31.5l-17 -10l-30 40q8 6 20.5 17t37.5 46t34 71q-53 0 -88 32.5t-35 79.5q0 46 33 79.5t79 33.5z" />
    <glyph glyph-name="kcommaaccent" unicode="&#x137;" horiz-adv-x="880" 
d="M901 0h-225l-359 440v-440h-184v1290h184v-768l318 400h215l-358 -430zM481 -133q47 0 80 -35t33 -88q0 -55 -17 -103.5t-41 -78.5t-48 -52.5t-41 -31.5l-17 -10l-31 40q8 6 21 17t38 46t34 71q-53 0 -88 32.5t-35 79.5q0 46 33 79.5t79 33.5z" />
    <glyph glyph-name="Lacute" unicode="&#x139;" horiz-adv-x="983" 
d="M348 184h615v-184h-809v1290h194v-1106zM184 1444l123 246h174l-174 -246h-123z" />
    <glyph glyph-name="lacute" unicode="&#x13a;" horiz-adv-x="460" 
d="M317 1290v-1290h-184v1290h184zM164 1444l123 246h174l-174 -246h-123z" />
    <glyph glyph-name="Lcommaaccent" unicode="&#x13b;" horiz-adv-x="983" 
d="M348 184h615v-184h-809v1290h194v-1106zM573 -133q47 0 80 -35t33 -88q0 -55 -17 -103.5t-41 -78.5t-48 -52.5t-41 -31.5l-17 -10l-30 40q8 6 20.5 17t37.5 46t34 71q-53 0 -88 32.5t-35 79.5q0 46 33 79.5t79 33.5z" />
    <glyph glyph-name="lcommaaccent" unicode="&#x13c;" horiz-adv-x="450" 
d="M317 1290v-1290h-184v1290h184zM225 -133q47 0 80 -35t33 -88q0 -55 -17 -103.5t-41 -78.5t-48 -52.5t-41 -31.5l-17 -10l-31 40q8 6 21 17t38 46t34 71q-53 0 -88 32.5t-35 79.5q0 46 33 79.5t79 33.5z" />
    <glyph glyph-name="Lcaron" unicode="&#x13d;" horiz-adv-x="983" 
d="M481 1044l72 246h164l-123 -246h-113zM348 184h615v-184h-809v1290h194v-1106z" />
    <glyph glyph-name="lcaron" unicode="&#x13e;" horiz-adv-x="563" 
d="M430 1044l72 246h164l-123 -246h-113zM317 1290v-1290h-184v1290h184z" />
    <glyph glyph-name="Lslash" unicode="&#x141;" horiz-adv-x="1013" 
d="M379 184h614v-184h-809v389l-143 -92v184l143 92v717h195v-594l307 205v-184l-307 -205v-328z" />
    <glyph glyph-name="lslash" unicode="&#x142;" horiz-adv-x="532" 
d="M512 911v-174l-164 -102v-635h-184v512l-144 -92v174l144 92v598h184v-475z" />
    <glyph glyph-name="Nacute" unicode="&#x143;" horiz-adv-x="1290" 
d="M942 1290h195v-1290h-164l-625 922v-922h-194v1290h163l625 -921v921zM584 1444l123 246h174l-174 -246h-123z" />
    <glyph glyph-name="nacute" unicode="&#x144;" horiz-adv-x="1044" 
d="M563 932q156 0 262.5 -112.5t106.5 -287.5v-532h-184v532q0 91 -65 158.5t-151 67.5q-92 0 -158.5 -67t-66.5 -159v-532h-184v922h133l41 -93q3 4 10 11t31 25t52 31.5t74.5 24.5t98.5 11zM471 1075l123 246h174l-174 -246h-123z" />
    <glyph glyph-name="Ncommaaccent" unicode="&#x145;" horiz-adv-x="1290" 
d="M942 1290h195v-1290h-164l-625 922v-922h-194v1290h163l625 -921v921zM645 -133q47 0 80 -35t33 -88q0 -55 -17 -103.5t-41 -78.5t-48 -52.5t-41 -31.5l-17 -10l-31 40q8 6 20.5 17t37.5 46t34 71q-53 0 -88 32.5t-35 79.5q0 46 33.5 79.5t79.5 33.5z" />
    <glyph glyph-name="ncommaaccent" unicode="&#x146;" horiz-adv-x="1044" 
d="M563 932q156 0 262.5 -112.5t106.5 -287.5v-532h-184v532q0 91 -65 158.5t-151 67.5q-92 0 -158.5 -67t-66.5 -159v-532h-184v922h133l41 -93q3 4 10 11t31 25t52 31.5t74.5 24.5t98.5 11zM532 -133q47 0 80 -35t33 -88q0 -55 -17 -103.5t-41 -78.5t-48 -52.5t-41 -31.5
l-17 -10l-30 40q8 6 20.5 17t37.5 46t34 71q-53 0 -88 32.5t-35 79.5q0 46 33 79.5t79 33.5z" />
    <glyph glyph-name="Ncaron" unicode="&#x147;" horiz-adv-x="1290" 
d="M942 1290h195v-1290h-164l-625 922v-922h-194v1290h163l625 -921v921zM911 1679l-184 -245h-164l-184 245h164l102 -143l103 143h163z" />
    <glyph glyph-name="ncaron" unicode="&#x148;" horiz-adv-x="1044" 
d="M563 932q156 0 262.5 -112.5t106.5 -287.5v-532h-184v532q0 91 -65 158.5t-151 67.5q-92 0 -158.5 -67t-66.5 -159v-532h-184v922h133l41 -93q3 4 10 11t31 25t52 31.5t74.5 24.5t98.5 11zM788 1311l-184 -246h-164l-184 246h164l102 -144l103 144h163z" />
    <glyph glyph-name="Omacron" unicode="&#x14c;" horiz-adv-x="1372" 
d="M1106 645q0 101 -35.5 191.5t-94 153t-134.5 99.5t-156 37t-156 -37t-134.5 -99.5t-94 -153t-35.5 -191.5t35.5 -191.5t94 -153t134.5 -99.5t156 -37t156 37t134.5 99.5t94 153t35.5 191.5zM1300 645q0 -180 -85 -331.5t-226 -237.5t-303 -86t-303 86t-226 237.5
t-85 331.5t85 331.5t226 237.5t303 86t303 -86t226 -237.5t85 -331.5zM942 1597v-133h-512v133h512z" />
    <glyph glyph-name="omacron" unicode="&#x14d;" 
d="M768 461q0 127 -76.5 212t-179.5 85t-179.5 -85t-76.5 -212t76.5 -212t179.5 -85t179.5 85t76.5 212zM952 461q0 -205 -126.5 -338t-313.5 -133t-313.5 133t-126.5 338t126.5 338t313.5 133t313.5 -133t126.5 -338zM768 1239v-133h-512v133h512z" />
    <glyph glyph-name="Ohungarumlaut" unicode="&#x150;" horiz-adv-x="1372" 
d="M1106 645q0 101 -35.5 191.5t-94 153t-134.5 99.5t-156 37t-156 -37t-134.5 -99.5t-94 -153t-35.5 -191.5t35.5 -191.5t94 -153t134.5 -99.5t156 -37t156 37t134.5 99.5t94 153t35.5 191.5zM1300 645q0 -180 -85 -331.5t-226 -237.5t-303 -86t-303 86t-226 237.5
t-85 331.5t85 331.5t226 237.5t303 86t303 -86t226 -237.5t85 -331.5zM502 1444l133 246h174l-184 -246h-123zM788 1444l134 246h174l-185 -246h-123z" />
    <glyph glyph-name="ohungarumlaut" unicode="&#x151;" 
d="M768 461q0 127 -76.5 212t-179.5 85t-179.5 -85t-76.5 -212t76.5 -212t179.5 -85t179.5 85t76.5 212zM952 461q0 -205 -126.5 -338t-313.5 -133t-313.5 133t-126.5 338t126.5 338t313.5 133t313.5 -133t126.5 -338zM317 1065l134 246h174l-185 -246h-123zM604 1065
l133 246h174l-184 -246h-123z" />
    <glyph glyph-name="OE" unicode="&#x152;" horiz-adv-x="1730" 
d="M1628 0h-942q-121 0 -234 51t-196.5 137t-133.5 206t-50 251t50 251t133.5 206t196.5 137t234 51h922v-184h-584v-348h532v-185h-532v-389h604v-184zM686 184h143v922h-143q-107 0 -203.5 -59t-156.5 -166t-60 -236t60 -236t156.5 -166t203.5 -59z" />
    <glyph glyph-name="oe" unicode="&#x153;" horiz-adv-x="1648" 
d="M1362 266h194q-50 -125 -147 -200.5t-242 -75.5q-57 0 -111 18t-89.5 43.5t-63 51t-40.5 43.5l-13 18q-5 -7 -13.5 -19t-41 -42t-69 -52.5t-97.5 -41.5t-127 -19q-180 0 -305 133.5t-125 337.5t125 337.5t305 133.5q66 0 126 -18t99 -43.5t68 -51t42 -43.5l13 -18
q5 7 13.5 19t38.5 42t63 52.5t85 41.5t107 19q80 0 154.5 -35t131 -96.5t90.5 -150t34 -189.5q0 -18 -2.5 -38.5t-5.5 -32.5l-3 -11h-634q15 -87 85 -151t160 -64q118 0 195 102zM748 461q0 133 -74.5 220t-171.5 87t-171.5 -87t-74.5 -220t74.5 -220t171.5 -87t171.5 87
t74.5 220zM1157 758q-84 0 -152 -66.5t-83 -159.5h471q-15 101 -79.5 163.5t-156.5 62.5z" />
    <glyph glyph-name="Racute" unicode="&#x154;" horiz-adv-x="1146" 
d="M870 0l-297 512h-225v-512h-194v1290h512q161 0 275 -114t114 -275q0 -83 -29.5 -151.5t-71.5 -107t-84.5 -65.5t-71.5 -36l-30 -9l317 -532h-215zM348 1106v-410h318q77 0 135.5 60.5t58.5 144.5t-58.5 144.5t-135.5 60.5h-318zM512 1444l123 246h174l-174 -246h-123z
" />
    <glyph glyph-name="racute" unicode="&#x155;" horiz-adv-x="634" 
d="M532 932q18 0 33.5 -2.5t22.5 -5.5l6 -2v-185q-31 11 -62 11q-92 0 -158.5 -67t-66.5 -159v-522h-184v922h133l41 -93q3 4 9.5 11t29 25t47.5 31.5t65.5 24.5t83.5 11zM297 1065l123 246h174l-174 -246h-123z" />
    <glyph glyph-name="Rcommaaccent" unicode="&#x156;" horiz-adv-x="1146" 
d="M870 0l-297 512h-225v-512h-194v1290h512q161 0 275 -114t114 -275q0 -83 -29.5 -151.5t-71.5 -107t-84.5 -65.5t-71.5 -36l-30 -9l317 -532h-215zM348 1106v-410h318q77 0 135.5 60.5t58.5 144.5t-58.5 144.5t-135.5 60.5h-318zM594 -115q47 0 80 -35t33 -88
q0 -55 -17 -103.5t-41 -78.5t-48 -52.5t-41 -31.5l-17 -10l-31 41q8 6 20.5 16.5t37.5 45.5t34 71q-53 0 -88 33t-35 80q0 46 33.5 79t79.5 33z" />
    <glyph glyph-name="rcommaaccent" unicode="&#x157;" horiz-adv-x="634" 
d="M532 932q18 0 33.5 -2.5t22.5 -5.5l6 -2v-185q-31 11 -62 11q-92 0 -158.5 -67t-66.5 -159v-522h-184v922h133l41 -93q3 4 9.5 11t29 25t47.5 31.5t65.5 24.5t83.5 11zM215 -133q47 0 80 -35t33 -88q0 -55 -17 -103.5t-41 -78.5t-48 -52.5t-41 -31.5l-17 -10l-31 40
q8 6 20.5 17t37.5 46t34 71q-53 0 -88 32.5t-35 79.5q0 46 33.5 79.5t79.5 33.5z" />
    <glyph glyph-name="Rcaron" unicode="&#x158;" horiz-adv-x="1146" 
d="M870 0l-297 512h-225v-512h-194v1290h512q161 0 275 -114t114 -275q0 -83 -29.5 -151.5t-71.5 -107t-84.5 -65.5t-71.5 -36l-30 -9l317 -532h-215zM348 1106v-410h318q77 0 135.5 60.5t58.5 144.5t-58.5 144.5t-135.5 60.5h-318zM850 1679l-184 -245h-164l-185 245h164
l103 -143l102 143h164z" />
    <glyph glyph-name="rcaron" unicode="&#x159;" horiz-adv-x="634" 
d="M532 932q18 0 33.5 -2.5t22.5 -5.5l6 -2v-185q-31 11 -62 11q-92 0 -158.5 -67t-66.5 -159v-522h-184v922h133l41 -93q3 4 9.5 11t29 25t47.5 31.5t65.5 24.5t83.5 11zM645 1311l-184 -246h-164l-184 246h163l103 -144l102 144h164z" />
    <glyph glyph-name="Sacute" unicode="&#x15a;" 
d="M82 942q0 143 122 250.5t308 107.5q183 0 301.5 -114.5t118.5 -284.5h-195q0 100 -62.5 162.5t-162.5 62.5q-103 0 -169.5 -56t-66.5 -128q0 -42 23.5 -74.5t63.5 -54t91.5 -39t108.5 -35t113.5 -37.5t108 -50t91.5 -69.5t63.5 -99.5t23.5 -135q0 -69 -32 -133.5
t-89.5 -114.5t-143.5 -80t-186 -30q-204 0 -322 109.5t-118 289.5h194q0 -109 62 -167t184 -58q125 0 190.5 51.5t65.5 132.5q0 46 -23.5 81t-63 58t-91 42t-108.5 36.5t-114 37.5t-108.5 49t-91 66t-63 94.5t-23.5 129.5zM461 1444l123 246h174l-174 -246h-123z" />
    <glyph glyph-name="sacute" unicode="&#x15b;" horiz-adv-x="829" 
d="M72 297h184q16 -133 164 -133q81 0 122.5 31.5t41.5 80.5q0 26 -17 45t-45.5 31t-65 22t-77.5 20t-82 22t-77.5 31.5t-65 46t-45.5 67.5t-17 94q0 118 87.5 197.5t230.5 79.5q158 0 244 -76.5t94 -210.5h-185q-8 49 -47.5 81t-105.5 32t-105 -31t-39 -72q0 -26 17 -45
t45.5 -31t65 -22t77.5 -20t82 -22t77.5 -31.5t65 -46t45.5 -67.5t17 -94q0 -126 -90 -206t-248 -80q-166 0 -253 79t-95 228zM348 1065l123 246h174l-174 -246h-123z" />
    <glyph glyph-name="Scedilla" unicode="&#x15e;" 
d="M82 942q0 143 122 250.5t308 107.5q183 0 301.5 -114.5t118.5 -284.5h-195q0 100 -62.5 162.5t-162.5 62.5q-103 0 -169.5 -56t-66.5 -128q0 -42 23.5 -74.5t63.5 -54t91.5 -39t108.5 -35t113.5 -37.5t108 -50t91.5 -69.5t63.5 -99.5t23.5 -135q0 -86 -52 -167
t-142.5 -133.5t-195.5 -57.5l-30 -72q55 -8 89 -44t34 -89q0 -64 -49.5 -103.5t-145.5 -39.5q-23 0 -46 2.5t-35 5.5l-11 2v92q41 -10 82 -10q43 0 67.5 18t24.5 43t-24.5 43.5t-67.5 18.5q-14 0 -26.5 -2.5t-18.5 -5.5l-6 -3l61 144q-177 7 -288 118.5t-111 280.5h194
q0 -109 62 -167t184 -58q125 0 190.5 51.5t65.5 132.5q0 46 -23.5 81t-63 58t-91 42t-108.5 36.5t-114 37.5t-108.5 49t-91 66t-63 94.5t-23.5 129.5z" />
    <glyph glyph-name="scedilla" unicode="&#x15f;" horiz-adv-x="829" 
d="M72 297h184q16 -133 164 -133q81 0 122.5 31.5t41.5 80.5q0 26 -17 45t-45.5 31t-65 22t-77.5 20t-82 22t-77.5 31.5t-65 46t-45.5 67.5t-17 94q0 118 87.5 197.5t230.5 79.5q158 0 244 -76.5t94 -210.5h-185q-8 49 -47.5 81t-105.5 32t-105 -31t-39 -72q0 -26 17 -45
t45.5 -31t65 -22t77.5 -20t82 -22t77.5 -31.5t65 -46t45.5 -67.5t17 -94q0 -115 -76.5 -193t-200.5 -93l-30 -72q55 -8 88.5 -44t33.5 -89q0 -65 -49 -104t-145 -39q-23 0 -46 2.5t-35 5.5l-11 2v92q41 -10 82 -10q43 0 67.5 18t24.5 43t-24.5 43.5t-67.5 18.5
q-14 0 -27 -2.5t-19 -5.5l-6 -3l62 144q-140 8 -220 85.5t-87 221.5z" />
    <glyph glyph-name="Scaron" unicode="&#x160;" 
d="M82 942q0 143 122 250.5t308 107.5q183 0 301.5 -114.5t118.5 -284.5h-195q0 100 -62.5 162.5t-162.5 62.5q-103 0 -169.5 -56t-66.5 -128q0 -42 23.5 -74.5t63.5 -54t91.5 -39t108.5 -35t113.5 -37.5t108 -50t91.5 -69.5t63.5 -99.5t23.5 -135q0 -69 -32 -133.5
t-89.5 -114.5t-143.5 -80t-186 -30q-204 0 -322 109.5t-118 289.5h194q0 -109 62 -167t184 -58q125 0 190.5 51.5t65.5 132.5q0 46 -23.5 81t-63 58t-91 42t-108.5 36.5t-114 37.5t-108.5 49t-91 66t-63 94.5t-23.5 129.5zM788 1679l-184 -245h-164l-184 245h164l102 -143
l103 143h163z" />
    <glyph glyph-name="scaron" unicode="&#x161;" horiz-adv-x="829" 
d="M72 297h184q16 -133 164 -133q81 0 122.5 31.5t41.5 80.5q0 26 -17 45t-45.5 31t-65 22t-77.5 20t-82 22t-77.5 31.5t-65 46t-45.5 67.5t-17 94q0 118 87.5 197.5t230.5 79.5q158 0 244 -76.5t94 -210.5h-185q-8 49 -47.5 81t-105.5 32t-105 -31t-39 -72q0 -26 17 -45
t45.5 -31t65 -22t77.5 -20t82 -22t77.5 -31.5t65 -46t45.5 -67.5t17 -94q0 -126 -90 -206t-248 -80q-166 0 -253 79t-95 228zM676 1311l-184 -246h-164l-185 246h164l103 -144l102 144h164z" />
    <glyph glyph-name="Tcommaaccent" unicode="&#x162;" horiz-adv-x="1034" 
d="M31 1106v184h973v-184h-390v-1106h-194v1106h-389zM522 -133q47 0 80 -35t33 -88q0 -55 -17 -103.5t-41 -78.5t-48 -52.5t-41 -31.5l-17 -10l-31 40q8 6 20.5 17t37.5 46t34 71q-53 0 -87.5 32.5t-34.5 79.5q0 46 33 79.5t79 33.5z" />
    <glyph glyph-name="tcommaaccent" unicode="&#x163;" horiz-adv-x="686" 
d="M389 748v-441q0 -61 40.5 -102t102.5 -41q14 0 29.5 2.5t24.5 5.5l8 2v-164q-41 -20 -102 -20q-125 0 -206 86.5t-81 230.5v441h-164v174h72q54 0 88.5 34t34.5 88v123h153v-245h205v-174h-205zM420 -133q47 0 79.5 -35t32.5 -88q0 -55 -17 -103.5t-41 -78.5t-47.5 -52.5
t-40.5 -31.5l-17 -10l-31 40q8 6 20.5 17t37.5 46t34 71q-53 0 -88 32.5t-35 79.5q0 46 33.5 79.5t79.5 33.5z" />
    <glyph glyph-name="Tcaron" unicode="&#x164;" horiz-adv-x="1034" 
d="M31 1106v184h973v-184h-390v-1106h-194v1106h-389zM778 1679l-184 -245h-164l-184 245h164l102 -143l102 143h164z" />
    <glyph glyph-name="tcaron" unicode="&#x165;" horiz-adv-x="727" 
d="M594 1044l72 246h163l-122 -246h-113zM389 748v-441q0 -61 40.5 -102t102.5 -41q14 0 29.5 2.5t24.5 5.5l8 2v-164q-41 -20 -102 -20q-125 0 -206 86.5t-81 230.5v441h-164v174h72q54 0 88.5 34t34.5 88v123h153v-245h205v-174h-205z" />
    <glyph glyph-name="Umacron" unicode="&#x16a;" horiz-adv-x="1228" 
d="M614 164q124 0 205.5 85t81.5 222v819h195v-819q0 -207 -137.5 -344t-344.5 -137t-344 137t-137 344v819h195v-819q0 -137 81 -222t205 -85zM860 1597v-133h-512v133h512z" />
    <glyph glyph-name="umacron" unicode="&#x16b;" horiz-adv-x="1054" 
d="M492 -10q-156 0 -262.5 112t-106.5 287v533h184v-533q0 -91 64.5 -158t150.5 -67q92 0 159 66.5t67 158.5v533h184v-922h-133l-41 92q-3 -4 -10 -11t-31 -24.5t-52 -31t-74.5 -24.5t-98.5 -11zM788 1229v-133h-512v133h512z" />
    <glyph glyph-name="Uring" unicode="&#x16e;" horiz-adv-x="1228" 
d="M614 164q124 0 205.5 85t81.5 222v819h195v-819q0 -207 -137.5 -344t-344.5 -137t-344 137t-137 344v819h195v-819q0 -137 81 -222t205 -85zM686 1577q0 32 -21 57t-51 25t-50.5 -25t-20.5 -57t20.5 -57t50.5 -25t51 25t21 57zM788 1577q0 -71 -49.5 -122.5t-124.5 -51.5
t-124.5 51.5t-49.5 122.5t49.5 122.5t124.5 51.5t124.5 -51.5t49.5 -122.5z" />
    <glyph glyph-name="uring" unicode="&#x16f;" horiz-adv-x="1054" 
d="M492 -10q-156 0 -262.5 112t-106.5 287v533h184v-533q0 -91 64.5 -158t150.5 -67q92 0 159 66.5t67 158.5v533h184v-922h-133l-41 92q-3 -4 -10 -11t-31 -24.5t-52 -31t-74.5 -24.5t-98.5 -11zM604 1206q0 32 -21 57t-51 25t-50.5 -25t-20.5 -57t20.5 -57t50.5 -25t51 25
t21 57zM707 1206q0 -71 -50 -122.5t-125 -51.5t-124.5 51.5t-49.5 122.5t49.5 122.5t124.5 51.5t125 -51.5t50 -122.5z" />
    <glyph glyph-name="Uhungarumlaut" unicode="&#x170;" horiz-adv-x="1228" 
d="M614 164q124 0 205.5 85t81.5 222v819h195v-819q0 -207 -137.5 -344t-344.5 -137t-344 137t-137 344v819h195v-819q0 -137 81 -222t205 -85zM410 1444l133 246h174l-185 -246h-122zM696 1444l133 246h175l-185 -246h-123z" />
    <glyph glyph-name="uhungarumlaut" unicode="&#x171;" horiz-adv-x="1054" 
d="M492 -10q-156 0 -262.5 112t-106.5 287v533h184v-533q0 -91 64.5 -158t150.5 -67q92 0 159 66.5t67 158.5v533h184v-922h-133l-41 92q-3 -4 -10 -11t-31 -24.5t-52 -31t-74.5 -24.5t-98.5 -11zM328 1075l133 246h174l-184 -246h-123zM614 1075l134 246h174l-185 -246
h-123z" />
    <glyph glyph-name="Uogonek" unicode="&#x172;" horiz-adv-x="1228" 
d="M614 164q124 0 205.5 85t81.5 222v819h195v-819q0 -129 -57.5 -236.5t-148.5 -168.5t-194 -66q-7 -9 -17 -25t-27 -59.5t-17 -79.5q0 -38 27 -65t65 -27q18 0 38.5 2.5t32.5 5.5l11 2v-102q-51 -10 -102 -10q-91 0 -143 48t-52 126q0 41 15 84.5t31 66.5l15 23
q-188 15 -314 149.5t-126 331.5v819h195v-819q0 -137 81 -222t205 -85z" />
    <glyph glyph-name="uogonek" unicode="&#x173;" horiz-adv-x="1054" 
d="M799 0l-41 92q-3 -4 -10 -11t-31 -24.5t-52 -31t-74.5 -24.5t-98.5 -11q-156 0 -262.5 112t-106.5 287v533h184v-533q0 -91 64.5 -158t150.5 -67q92 0 159 66.5t67 158.5v533h184v-922h-10q-8 -9 -20 -25t-32 -59.5t-20 -79.5q0 -38 27 -65t65 -27q18 0 38.5 2.5
t31.5 5.5l12 2v-102q-51 -10 -102 -10q-91 0 -143 48t-52 126q0 45 18 91t36 69z" />
    <glyph glyph-name="Ydieresis" unicode="&#x178;" horiz-adv-x="1054" 
d="M522 707h10l297 583h205l-409 -788v-502h-195v502l-410 788h205zM461 1546q0 -46 -33.5 -79t-79.5 -33t-79 33t-33 79t33 79.5t79 33.5t79.5 -33.5t33.5 -79.5zM809 1546q0 -46 -33.5 -79t-79.5 -33t-79 33t-33 79t33 79.5t79 33.5t79.5 -33.5t33.5 -79.5z" />
    <glyph glyph-name="Zacute" unicode="&#x179;" 
d="M932 1157l-625 -973h656v-184h-902v133l625 973h-604v184h850v-133zM451 1444l122 246h175l-175 -246h-122z" />
    <glyph glyph-name="zacute" unicode="&#x17a;" horiz-adv-x="808" 
d="M61 164l441 584h-441v174h666v-164l-440 -584h461v-174h-687v164zM338 1075l123 246h174l-174 -246h-123z" />
    <glyph glyph-name="Zdotaccent" unicode="&#x17b;" 
d="M932 1157l-625 -973h656v-184h-902v133l625 973h-604v184h850v-133zM625 1546q0 -46 -33.5 -79t-79.5 -33t-79.5 33t-33.5 79t33.5 79.5t79.5 33.5t79.5 -33.5t33.5 -79.5z" />
    <glyph glyph-name="zdotaccent" unicode="&#x17c;" horiz-adv-x="808" 
d="M61 164l441 584h-441v174h666v-164l-440 -584h461v-174h-687v164zM522 1178q0 -46 -33 -79.5t-79 -33.5t-79.5 33.5t-33.5 79.5t33.5 79t79.5 33t79 -33t33 -79z" />
    <glyph glyph-name="Zcaron" unicode="&#x17d;" 
d="M932 1157l-625 -973h656v-184h-902v133l625 973h-604v184h850v-133zM778 1679l-184 -245h-164l-184 245h164l102 -143l102 143h164z" />
    <glyph glyph-name="zcaron" unicode="&#x17e;" horiz-adv-x="808" 
d="M61 164l441 584h-441v174h666v-164l-440 -584h461v-174h-687v164zM666 1311l-185 -246h-164l-184 246h164l102 -144l103 144h164z" />
    <glyph glyph-name="florin" unicode="&#x192;" horiz-adv-x="737" 
d="M440 625l-123 -645q-60 -318 -348 -318q-23 0 -46 2.5t-35 5.5l-11 2l41 176q31 -12 72 -12q61 0 100 37.5t53 106.5l123 645h-153l30 163h154l41 195q66 317 348 317q23 0 46 -2.5t34 -5.5l12 -2l-41 -176q-30 12 -71 12q-61 0 -100.5 -37t-53.5 -106l-41 -195h205
l-31 -163h-205z" />
    <glyph glyph-name="Scommaaccent" unicode="&#x218;" 
d="M82 942q0 143 122 250.5t308 107.5q183 0 301.5 -114.5t118.5 -284.5h-195q0 100 -62.5 162.5t-162.5 62.5q-103 0 -169.5 -56t-66.5 -128q0 -42 23.5 -74.5t63.5 -54t91.5 -39t108.5 -35t113.5 -37.5t108 -50t91.5 -69.5t63.5 -99.5t23.5 -135q0 -69 -32 -133.5
t-89.5 -114.5t-143.5 -80t-186 -30q-204 0 -322 109.5t-118 289.5h194q0 -109 62 -167t184 -58q125 0 190.5 51.5t65.5 132.5q0 46 -23.5 81t-63 58t-91 42t-108.5 36.5t-114 37.5t-108.5 49t-91 66t-63 94.5t-23.5 129.5zM512 -115q47 0 80 -35t33 -88q0 -55 -17 -103.5
t-41 -78.5t-48 -52.5t-41 -31.5l-17 -10l-31 41q8 6 20.5 16.5t37.5 45.5t34 71q-53 0 -88 33t-35 80q0 46 33.5 79t79.5 33z" />
    <glyph glyph-name="scommaaccent" unicode="&#x219;" horiz-adv-x="829" 
d="M72 297h184q16 -133 164 -133q81 0 122.5 31.5t41.5 80.5q0 26 -17 45t-45.5 31t-65 22t-77.5 20t-82 22t-77.5 31.5t-65 46t-45.5 67.5t-17 94q0 118 87.5 197.5t230.5 79.5q158 0 244 -76.5t94 -210.5h-185q-8 49 -47.5 81t-105.5 32t-105 -31t-39 -72q0 -26 17 -45
t45.5 -31t65 -22t77.5 -20t82 -22t77.5 -31.5t65 -46t45.5 -67.5t17 -94q0 -126 -90 -206t-248 -80q-166 0 -253 79t-95 228zM420 -133q47 0 79.5 -35t32.5 -88q0 -55 -17 -103.5t-41 -78.5t-47.5 -52.5t-40.5 -31.5l-17 -10l-31 40q8 6 20.5 17t37.5 46t34 71
q-53 0 -88 32.5t-35 79.5q0 46 33.5 79.5t79.5 33.5z" />
    <glyph glyph-name="uni021A" unicode="&#x21a;" horiz-adv-x="1034" 
d="M31 1106v184h973v-184h-390v-1106h-194v1106h-389zM522 -133q47 0 80 -35t33 -88q0 -55 -17 -103.5t-41 -78.5t-48 -52.5t-41 -31.5l-17 -10l-31 40q8 6 20.5 17t37.5 46t34 71q-53 0 -87.5 32.5t-34.5 79.5q0 46 33 79.5t79 33.5z" />
    <glyph glyph-name="uni021B" unicode="&#x21b;" horiz-adv-x="686" 
d="M389 748v-441q0 -61 40.5 -102t102.5 -41q14 0 29.5 2.5t24.5 5.5l8 2v-164q-41 -20 -102 -20q-125 0 -206 86.5t-81 230.5v441h-164v174h72q54 0 88.5 34t34.5 88v123h153v-245h205v-174h-205zM420 -133q47 0 79.5 -35t32.5 -88q0 -55 -17 -103.5t-41 -78.5t-47.5 -52.5
t-40.5 -31.5l-17 -10l-31 40q8 6 20.5 17t37.5 46t34 71q-53 0 -88 32.5t-35 79.5q0 46 33.5 79.5t79.5 33.5z" />
    <glyph glyph-name="afii57929" unicode="&#x2bc;" horiz-adv-x="348" 
d="M174 1290q47 0 80 -35t33 -88q0 -55 -17 -103.5t-41 -78.5t-48 -52.5t-41 -32.5l-17 -9l-31 41q8 6 20.5 16.5t37.5 45.5t34 71q-53 0 -88 33t-35 80q0 46 33.5 79t79.5 33z" />
    <glyph glyph-name="circumflex" unicode="&#x2c6;" horiz-adv-x="655" 
d="M410 1280l184 -246h-164l-102 144l-103 -144h-164l185 246h164z" />
    <glyph glyph-name="caron" unicode="&#x2c7;" horiz-adv-x="655" 
d="M594 1280l-184 -246h-164l-185 246h164l103 -143l102 143h164z" />
    <glyph glyph-name="breve" unicode="&#x2d8;" horiz-adv-x="655" 
d="M328 1178q44 0 79.5 31t43.5 71h143q-15 -102 -88 -169t-178 -67t-178.5 67t-88.5 169h144q8 -40 43.5 -71t79.5 -31z" />
    <glyph glyph-name="dotaccent" unicode="&#x2d9;" horiz-adv-x="348" 
d="M287 1178q0 -46 -33.5 -79.5t-79.5 -33.5t-79.5 33.5t-33.5 79.5t33.5 79t79.5 33t79.5 -33t33.5 -79z" />
    <glyph glyph-name="ring" unicode="&#x2da;" horiz-adv-x="471" 
d="M307 1188q0 32 -20.5 57t-50.5 25t-51 -25t-21 -57t21 -57t51 -25t50.5 25t20.5 57zM410 1188q0 -71 -49.5 -122.5t-124.5 -51.5t-125 51.5t-50 122.5t50 122.5t125 51.5t124.5 -51.5t49.5 -122.5z" />
    <glyph glyph-name="ogonek" unicode="&#x2db;" horiz-adv-x="419" 
d="M133 0h123q-8 -9 -20 -25t-32 -59.5t-20 -79.5q0 -38 27 -65t65 -27q18 0 38.5 2.5t31.5 5.5l12 2v-102q-51 -10 -102 -10q-91 0 -143 48t-52 126q0 45 18 91t36 69z" />
    <glyph glyph-name="tilde" unicode="&#x2dc;" horiz-adv-x="718" 
d="M471 1034q-34 0 -63 12.5t-49 31t-37.5 36.5t-36.5 30.5t-39 12.5q-33 0 -57.5 -31t-24.5 -82h-103q0 118 52.5 182t134.5 64q42 0 76.5 -19t54.5 -42.5t45 -42.5t49 -19q33 0 57.5 31t24.5 82h102q0 -118 -52 -182t-134 -64z" />
    <glyph glyph-name="hungarumlaut" unicode="&#x2dd;" horiz-adv-x="716" 
d="M61 1044l134 246h174l-185 -246h-123zM348 1044l133 246h174l-184 -246h-123z" />
    <glyph glyph-name="afii10023" unicode="&#x401;" horiz-adv-x="1126" 
d="M348 184h676v-184h-870v1290h850v-184h-656v-348h604v-185h-604v-389zM522 1546q0 -46 -33 -79t-79 -33t-79.5 33t-33.5 79t33.5 79.5t79.5 33.5t79 -33.5t33 -79.5zM870 1546q0 -46 -33 -79t-79 -33t-79.5 33t-33.5 79t33.5 79.5t79.5 33.5t79 -33.5t33 -79.5z" />
    <glyph glyph-name="afii10051" unicode="&#x402;" horiz-adv-x="1269" 
d="M778 840q187 0 308.5 -129.5t121.5 -341.5q0 -216 -129.5 -343.5t-351.5 -127.5v184q123 0 205 82t82 205q0 121 -78.5 203.5t-187.5 82.5q-107 0 -181.5 -74.5t-74.5 -181.5v-399h-195v1106h-297v184h799v-184h-307v-389q4 5 12 13.5t35.5 29.5t58.5 37t79.5 29.5
t100.5 13.5z" />
    <glyph glyph-name="afii10052" unicode="&#x403;" horiz-adv-x="942" 
d="M922 1106h-574v-1106h-194v1290h768v-184zM471 1444l123 246h174l-174 -246h-123z" />
    <glyph glyph-name="afii10053" unicode="&#x404;" horiz-adv-x="1300" 
d="M686 1300q104 0 198 -35.5t162.5 -95.5t116 -137t66.5 -162h-205q-25 107 -116 181.5t-222 74.5q-152 0 -274 -118t-146 -281h502v-174h-502q24 -157 146.5 -273t273.5 -116q138 0 226.5 69t121.5 177h205q-49 -180 -195 -300t-358 -120q-163 0 -304 86t-225.5 237.5
t-84.5 331.5t85 331.5t226 237.5t303 86z" />
    <glyph glyph-name="afii10054" unicode="&#x405;" 
d="M82 942q0 143 122 250.5t308 107.5q183 0 301.5 -114.5t118.5 -284.5h-195q0 100 -62.5 162.5t-162.5 62.5q-103 0 -169.5 -56t-66.5 -128q0 -42 23.5 -74.5t63.5 -54t91.5 -39t108.5 -35t113.5 -37.5t108 -50t91.5 -69.5t63.5 -99.5t23.5 -135q0 -69 -32 -133.5
t-89.5 -114.5t-143.5 -80t-186 -30q-204 0 -322 109.5t-118 289.5h194q0 -109 62 -167t184 -58q125 0 190.5 51.5t65.5 132.5q0 46 -23.5 81t-63 58t-91 42t-108.5 36.5t-114 37.5t-108.5 49t-91 66t-63 94.5t-23.5 129.5z" />
    <glyph glyph-name="afii10055" unicode="&#x406;" horiz-adv-x="501" 
d="M348 1290v-1290h-194v1290h194z" />
    <glyph glyph-name="afii10056" unicode="&#x407;" horiz-adv-x="573" 
d="M389 1290v-1290h-194v1290h194zM225 1546q0 -46 -33 -79t-79 -33t-79.5 33t-33.5 79t33.5 79.5t79.5 33.5t79 -33.5t33 -79.5zM573 1546q0 -46 -33 -79t-79 -33t-79.5 33t-33.5 79t33.5 79.5t79.5 33.5t79 -33.5t33 -79.5z" />
    <glyph glyph-name="afii10057" unicode="&#x408;" horiz-adv-x="952" 
d="M625 1290h194v-921q0 -163 -112 -271t-287 -108t-287.5 108t-112.5 271h195q0 -92 56.5 -148.5t148.5 -56.5t148.5 56.5t56.5 148.5v921z" />
    <glyph glyph-name="afii10058" unicode="&#x409;" horiz-adv-x="1853" 
d="M1393 0h-482v1106h-419l-52 -717q-13 -188 -111 -293.5t-247 -105.5q-22 0 -42.5 2.5t-29.5 5.5l-10 2v164h20q92 0 155.5 62.5t70.5 162.5l71 901h789v-471h287q169 0 289 -120t120 -289t-120 -289.5t-289 -120.5zM1393 635h-287v-451h287q85 0 150 67t65 159
q0 91 -64.5 158t-150.5 67z" />
    <glyph glyph-name="afii10059" unicode="&#x40a;" horiz-adv-x="1843" 
d="M1382 0h-481v635h-553v-635h-194v1290h194v-471h553v471h195v-471h286q169 0 289.5 -120t120.5 -289t-120.5 -289.5t-289.5 -120.5zM1382 635h-286v-451h286q85 0 150 67t65 159q0 91 -64.5 158t-150.5 67z" />
    <glyph glyph-name="afii10060" unicode="&#x40b;" horiz-adv-x="1300" 
d="M768 840q179 0 294.5 -122t115.5 -319v-399h-195v399q0 106 -72.5 181t-173.5 75q-100 0 -172.5 -74.5t-72.5 -181.5v-399h-195v1106h-297v184h799v-184h-307v-389q4 5 12 13.5t35 29.5t57 37t76.5 29.5t95.5 13.5z" />
    <glyph glyph-name="afii10061" unicode="&#x40c;" horiz-adv-x="1075" 
d="M1096 0h-236l-512 604v-604h-194v1290h194v-594l471 594h236l-523 -635zM512 1444l123 246h174l-174 -246h-123z" />
    <glyph glyph-name="afii10062" unicode="&#x40e;" horiz-adv-x="1044" 
d="M840 1290h204l-450 -1024q-68 -155 -140 -220.5t-178 -65.5q-27 0 -57.5 5t-47.5 10l-17 5v164q41 -10 82 -10q58 0 99.5 31t63.5 81l41 92l-420 932h205l307 -696zM532 1567q44 0 79.5 31t43.5 71h144q-15 -102 -88.5 -168.5t-178.5 -66.5t-178 66.5t-88 168.5h144
q8 -40 43 -71t79 -31z" />
    <glyph glyph-name="afii10145" unicode="&#x40f;" horiz-adv-x="1259" 
d="M154 1290h194v-1106h563v1106h195v-1290h-379v-256h-195v256h-378v1290z" />
    <glyph glyph-name="afii10017" unicode="&#x410;" horiz-adv-x="1146" 
d="M317 297l-112 -297h-205l492 1290h163l492 -1290h-205l-113 297h-512zM389 481h369l-185 512z" />
    <glyph glyph-name="afii10018" unicode="&#x411;" horiz-adv-x="1146" 
d="M348 778h338q169 0 279 -110t110 -279t-110 -279t-279 -110h-532v1290h829v-184h-635v-328zM686 594h-338v-410h338q85 0 140 56.5t55 148.5t-55 148.5t-140 56.5z" />
    <glyph glyph-name="afii10019" unicode="&#x412;" horiz-adv-x="1157" 
d="M901 686q7 -4 19.5 -11.5t44.5 -35.5t56 -61t44 -89.5t20 -119.5q0 -149 -117.5 -259t-291.5 -110h-522v1290h512q153 0 260.5 -105.5t107.5 -252.5q0 -46 -13.5 -88t-33 -69.5t-39.5 -48.5t-34 -30zM348 1106v-348h318q76 0 130 52t54 122t-54 122t-130 52h-318z
M676 184q91 0 153 60t62 145t-62 145t-153 60h-328v-410h328z" />
    <glyph glyph-name="afii10020" unicode="&#x413;" horiz-adv-x="942" 
d="M922 1106h-574v-1106h-194v1290h768v-184z" />
    <glyph glyph-name="afii10021" unicode="&#x414;" horiz-adv-x="1269" 
d="M1085 184h144v-440h-185v256h-860v-256h-184v440h74q5 3 13.5 8.5t30.5 26.5t40 45t35 63.5t22 82.5l102 880h768v-1106zM891 184v922h-399l-82 -696q-8 -68 -34 -124.5t-48 -79.5l-21 -22h584z" />
    <glyph glyph-name="afii10022" unicode="&#x415;" horiz-adv-x="1126" 
d="M348 184h676v-184h-870v1290h850v-184h-656v-348h604v-185h-604v-389z" />
    <glyph glyph-name="afii10024" unicode="&#x416;" horiz-adv-x="1546" 
d="M676 1290h194v-594l420 594h236l-471 -635l512 -655h-236l-461 604v-604h-194v604l-461 -604h-235l512 655l-472 635h236l420 -594v594z" />
    <glyph glyph-name="afii10025" unicode="&#x417;" horiz-adv-x="1034" 
d="M276 922h-194q8 164 123 271t297 107q179 0 299.5 -107.5t120.5 -250.5q0 -52 -17 -98t-41 -75.5t-48 -51.5t-41 -31l-17 -10q8 -3 22 -10t49.5 -34t62.5 -60t49 -90.5t22 -123.5q0 -73 -32 -139.5t-89.5 -117.5t-143 -81t-186.5 -30q-194 0 -315 106.5t-136 272.5h195
q16 -89 84.5 -147t171.5 -58q119 0 187.5 58.5t68.5 146.5t-68.5 146t-187.5 58h-102v175h92q104 0 164.5 52.5t60.5 131.5q0 87 -60 140.5t-165 53.5q-99 0 -158.5 -55.5t-67.5 -148.5z" />
    <glyph glyph-name="afii10026" unicode="&#x418;" horiz-adv-x="1290" 
d="M1137 0h-195v922l-625 -922h-163v1290h194v-921l625 921h164v-1290z" />
    <glyph glyph-name="afii10027" unicode="&#x419;" horiz-adv-x="1290" 
d="M1137 0h-195v922l-625 -922h-163v1290h194v-921l625 921h164v-1290zM645 1423q-105 0 -178 67t-88 169h143q8 -47 43 -80t80 -33t80 33t43 80h143q-15 -102 -88 -169t-178 -67z" />
    <glyph glyph-name="afii10028" unicode="&#x41a;" horiz-adv-x="1075" 
d="M1096 0h-236l-512 604v-604h-194v1290h194v-594l471 594h236l-523 -635z" />
    <glyph glyph-name="afii10029" unicode="&#x41b;" horiz-adv-x="1290" 
d="M317 1290h820v-1290h-195v1106h-450l-52 -717q-13 -188 -111 -293.5t-247 -105.5q-22 0 -42.5 2.5t-29.5 5.5l-10 2v164h20q92 0 155.5 62.5t70.5 162.5z" />
    <glyph glyph-name="afii10030" unicode="&#x41c;" horiz-adv-x="1556" 
d="M1239 1290h164v-1290h-195v799l-368 -799h-123l-369 799v-799h-194v1290h163l461 -993z" />
    <glyph glyph-name="afii10031" unicode="&#x41d;" horiz-adv-x="1290" 
d="M942 1290h195v-1290h-195v563h-594v-563h-194v1290h194v-542h594v542z" />
    <glyph glyph-name="afii10032" unicode="&#x41e;" horiz-adv-x="1372" 
d="M1106 645q0 101 -35.5 191.5t-94 153t-134.5 99.5t-156 37t-156 -37t-134.5 -99.5t-94 -153t-35.5 -191.5t35.5 -191.5t94 -153t134.5 -99.5t156 -37t156 37t134.5 99.5t94 153t35.5 191.5zM1300 645q0 -180 -85 -331.5t-226 -237.5t-303 -86t-303 86t-226 237.5
t-85 331.5t85 331.5t226 237.5t303 86t303 -86t226 -237.5t85 -331.5z" />
    <glyph glyph-name="afii10033" unicode="&#x41f;" horiz-adv-x="1300" 
d="M154 1290h993v-1290h-195v1106h-604v-1106h-194v1290z" />
    <glyph glyph-name="afii10034" unicode="&#x420;" horiz-adv-x="1105" 
d="M154 1290h471q169 0 289 -120t120 -289t-120 -289.5t-289 -120.5h-277v-471h-194v1290zM348 655h277q85 0 150 67t65 159q0 91 -64.5 158t-150.5 67h-277v-451z" />
    <glyph glyph-name="afii10035" unicode="&#x421;" horiz-adv-x="1310" 
d="M266 645q0 -101 35.5 -191.5t94 -153t134.5 -99.5t156 -37q140 0 232.5 77t125.5 199h205q-48 -194 -198.5 -322t-364.5 -128q-162 0 -303 86t-226 237.5t-85 331.5t85 331.5t226 237.5t303 86q207 0 356 -128.5t197 -321.5h-205q-32 121 -123.5 198.5t-224.5 77.5
q-80 0 -156 -37t-134.5 -99.5t-94 -153t-35.5 -191.5z" />
    <glyph glyph-name="afii10036" unicode="&#x422;" horiz-adv-x="1034" 
d="M31 1106v184h973v-184h-390v-1106h-194v1106h-389z" />
    <glyph glyph-name="afii10037" unicode="&#x423;" horiz-adv-x="1044" 
d="M840 1290h204l-450 -1024q-68 -155 -140 -220.5t-178 -65.5q-27 0 -57.5 5t-47.5 10l-17 5v164q41 -10 82 -10q58 0 99.5 31t63.5 81l41 92l-420 932h205l307 -696z" />
    <glyph glyph-name="afii10038" unicode="&#x424;" horiz-adv-x="1505" 
d="M655 338v655q-173 -7 -276 -100t-103 -227t103 -227.5t276 -100.5zM850 1290v-123q271 -15 422 -152t151 -349t-151 -349.5t-422 -152.5v-174h-195v174q-271 15 -422 152.5t-151 349.5t151 349t422 152v123h195zM850 993v-655q173 7 276 100.5t103 227.5t-103 227
t-276 100z" />
    <glyph glyph-name="afii10039" unicode="&#x425;" horiz-adv-x="1085" 
d="M543 819l286 471h215l-389 -635l410 -655h-215l-307 492l-307 -492h-216l410 655l-389 635h215z" />
    <glyph glyph-name="afii10040" unicode="&#x426;" horiz-adv-x="1290" 
d="M1106 184h143v-440h-184v256h-911v1290h194v-1106h563v1106h195v-1106z" />
    <glyph glyph-name="afii10041" unicode="&#x427;" horiz-adv-x="1218" 
d="M870 1290h195v-1290h-195v461q-5 -3 -15 -8.5t-42.5 -20t-66.5 -25t-84 -19.5t-99 -9q-193 0 -311.5 120.5t-118.5 319.5v471h195v-471q0 -122 70 -194t186 -72q68 0 139.5 20.5t108.5 40.5l38 21v655z" />
    <glyph glyph-name="afii10042" unicode="&#x428;" horiz-adv-x="1730" 
d="M1382 1290h195v-1290h-1423v1290h194v-1106h420v1106h195v-1106h419v1106z" />
    <glyph glyph-name="afii10043" unicode="&#x429;" horiz-adv-x="1761" 
d="M1577 184h143v-440h-184v256h-1382v1290h194v-1106h420v1106h195v-1106h419v1106h195v-1106z" />
    <glyph glyph-name="afii10044" unicode="&#x42a;" horiz-adv-x="1249" 
d="M788 0h-481v1106h-307v184h502v-471h286q169 0 289.5 -120t120.5 -289t-120.5 -289.5t-289.5 -120.5zM788 635h-286v-451h286q86 0 151 67.5t65 158.5t-65 158t-151 67z" />
    <glyph glyph-name="afii10045" unicode="&#x42b;" horiz-adv-x="1515" 
d="M614 0h-460v1290h194v-471h266q169 0 289.5 -120t120.5 -289t-120.5 -289.5t-289.5 -120.5zM614 635h-266v-451h266q85 0 150 67t65 159q0 91 -64.5 158t-150.5 67zM1362 1290v-1290h-195v1290h195z" />
    <glyph glyph-name="afii10046" unicode="&#x42c;" horiz-adv-x="1095" 
d="M635 0h-481v1290h194v-471h287q169 0 289 -120t120 -289t-120 -289.5t-289 -120.5zM635 635h-287v-451h287q85 0 150 67t65 159q0 91 -64.5 158t-150.5 67z" />
    <glyph glyph-name="afii10047" unicode="&#x42d;" horiz-adv-x="1300" 
d="M614 1300q162 0 303.5 -86t226.5 -237.5t85 -331.5t-84.5 -331.5t-226 -237.5t-304.5 -86q-212 0 -358 120t-195 300h205q33 -108 121.5 -177t226.5 -69q151 0 273.5 116t146.5 273h-502v174h502q-24 163 -146 281t-274 118q-131 0 -222 -74.5t-116 -181.5h-204
q19 85 66.5 162t115.5 137t162 95.5t198 35.5z" />
    <glyph glyph-name="afii10048" unicode="&#x42e;" horiz-adv-x="1761" 
d="M1096 1300q114 0 220.5 -49.5t186.5 -135t128 -208.5t48 -262t-48 -262t-128 -208.5t-186.5 -135t-220.5 -49.5q-140 0 -267.5 76t-209.5 203t-97 274h-174v-543h-194v1290h194v-563h174q11 117 62.5 223t128 182.5t177 122t206.5 45.5zM1096 1126q-73 0 -143 -35.5
t-124.5 -97t-88 -153t-33.5 -195.5t33.5 -195.5t88 -153t124.5 -97t143 -35.5t143 35.5t124.5 97t88 153t33.5 195.5t-33.5 195.5t-88 153t-124.5 97t-143 35.5z" />
    <glyph glyph-name="afii10049" unicode="&#x42f;" horiz-adv-x="1146" 
d="M573 512l-297 -512h-215l318 532q-6 2 -16 5.5t-38.5 17.5t-55 31.5t-58.5 48.5t-54.5 67t-38.5 88t-16 111q0 161 114.5 275t275.5 114h501v-1290h-194v512h-226zM799 696v410h-307q-77 0 -136 -60.5t-59 -144.5t59 -144.5t136 -60.5h307z" />
    <glyph glyph-name="afii10065" unicode="&#x430;" horiz-adv-x="952" 
d="M481 932q159 0 259 -94t100 -234v-604h-133l-41 92q-3 -4 -10 -11t-31 -24.5t-52.5 -31t-75 -24.5t-98.5 -11q-151 0 -234 75t-83 201q0 58 16 103t56 84.5t104.5 65t164 40t232.5 14.5v31q0 70 -45.5 112t-128.5 42q-86 0 -131 -31.5t-53 -81.5h-184q8 127 106 207
t262 80zM410 154q113 0 179 58.5t66 147.5v50q-120 0 -199 -10.5t-119.5 -32.5t-55.5 -47.5t-15 -63.5q0 -41 39 -71.5t105 -30.5z" />
    <glyph glyph-name="afii10066" unicode="&#x431;" horiz-adv-x="1044" 
d="M553 891q83 0 160 -35t134.5 -94.5t91.5 -143.5t34 -178q0 -191 -128 -320.5t-313 -129.5q-200 0 -325 149t-125 424q0 203 39 339t131.5 226.5t239 132.5t368.5 50v-185q-165 -4 -272.5 -26.5t-173 -71t-96 -114t-42.5 -166.5q3 6 10 15.5t31.5 34t53.5 43.5t78 34.5
t104 15.5zM532 164q101 0 178.5 81t77.5 195t-77.5 195.5t-178.5 81.5t-178.5 -81.5t-77.5 -195.5t77.5 -195t178.5 -81z" />
    <glyph glyph-name="afii10067" unicode="&#x432;" horiz-adv-x="931" 
d="M727 481q5 -2 14 -7.5t32 -24t40.5 -41t32 -61t14.5 -81.5q0 -116 -77 -191t-199 -75h-461v922h430q121 0 198.5 -73.5t77.5 -182.5q0 -37 -10.5 -70t-25.5 -53t-30 -35t-25 -21zM532 768h-225v-225h225q46 0 79.5 33t33.5 79t-33.5 79.5t-79.5 33.5zM563 154
q47 0 80 34.5t33 87.5q0 46 -33.5 79.5t-79.5 33.5h-256v-235h256z" />
    <glyph glyph-name="afii10068" unicode="&#x433;" horiz-adv-x="768" 
d="M748 922v-174h-441v-748h-184v922h625z" />
    <glyph glyph-name="afii10069" unicode="&#x434;" 
d="M860 174h123v-389h-174v215h-635v-215h-174v389h61q4 2 11 7t25 21.5t32.5 35.5t28 48.5t16.5 61.5l62 574h624v-748zM399 748l-41 -400q-5 -50 -23 -93.5t-33 -62.5l-15 -18h389v574h-277z" />
    <glyph glyph-name="afii10070" unicode="&#x435;" horiz-adv-x="1013" 
d="M727 266h195q-50 -125 -149 -200.5t-251 -75.5q-187 0 -313.5 133t-126.5 338q0 204 125 337.5t305 133.5t305 -133.5t125 -337.5q0 -18 -2.5 -38.5t-5.5 -32.5l-2 -11h-656q8 -87 78.5 -151t167.5 -64q128 0 205 102zM512 758q-92 0 -156.5 -62.5t-79.5 -163.5h492
q-15 102 -83 164t-173 62z" />
    <glyph glyph-name="afii10072" unicode="&#x436;" horiz-adv-x="1249" 
d="M532 0v440l-327 -440h-225l378 492l-338 430h216l296 -400v400h185v-400l297 400h215l-338 -430l379 -492h-226l-327 440v-440h-185z" />
    <glyph glyph-name="afii10073" unicode="&#x437;" horiz-adv-x="819" 
d="M623 471q5 -3 13.5 -7.5t30 -22.5t38 -39t30 -55t13.5 -71q0 -126 -90 -206t-248 -80q-166 0 -253.5 79t-95.5 228h185q16 -133 164 -133q81 0 122 31.5t41 80.5t-41.5 81t-121.5 32h-82v164h82q71 0 107 30t36 72q0 43 -36 73t-107 30q-66 0 -106 -32t-48 -81h-184
q8 134 94 210.5t244 76.5q143 0 230 -79.5t87 -197.5q0 -34 -10.5 -66t-26 -52.5t-31 -36t-25.5 -22.5z" />
    <glyph glyph-name="afii10074" unicode="&#x438;" horiz-adv-x="1054" 
d="M748 922h184v-922h-184v645l-441 -645h-184v922h184v-646z" />
    <glyph glyph-name="afii10075" unicode="&#x439;" horiz-adv-x="1054" 
d="M748 922h184v-922h-184v645l-441 -645h-184v922h184v-646zM522 1055q-105 0 -178 66.5t-88 168.5h143q8 -47 43 -79.5t80 -32.5t80 32.5t43 79.5h143q-15 -102 -88 -168.5t-178 -66.5z" />
    <glyph glyph-name="afii10076" unicode="&#x43a;" horiz-adv-x="880" 
d="M901 0h-225l-359 440v-440h-184v922h184v-400l318 400h215l-358 -430z" />
    <glyph glyph-name="afii10077" unicode="&#x43b;" horiz-adv-x="1003" 
d="M225 922h656v-922h-185v748h-307l-31 -441q-10 -153 -88 -235t-209 -82q-14 0 -29 2.5t-24 5.5l-8 2v154h20q142 0 154 153z" />
    <glyph glyph-name="afii10078" unicode="&#x43c;" horiz-adv-x="1228" 
d="M676 0h-123l-246 512v-512h-184v922h164l327 -676l328 676h164v-922h-184v512z" />
    <glyph glyph-name="afii10079" unicode="&#x43d;" horiz-adv-x="1054" 
d="M748 922h184v-922h-184v379h-441v-379h-184v922h184v-369h441v369z" />
    <glyph glyph-name="afii10080" unicode="&#x43e;" 
d="M768 461q0 127 -76.5 212t-179.5 85t-179.5 -85t-76.5 -212t76.5 -212t179.5 -85t179.5 85t76.5 212zM952 461q0 -205 -126.5 -338t-313.5 -133t-313.5 133t-126.5 338t126.5 338t313.5 133t313.5 -133t126.5 -338z" />
    <glyph glyph-name="afii10081" unicode="&#x43f;" horiz-adv-x="1054" 
d="M123 922h809v-922h-184v748h-441v-748h-184v922z" />
    <glyph glyph-name="afii10082" unicode="&#x440;" horiz-adv-x="1075" 
d="M563 932q187 0 314 -133t127 -338t-127 -338t-314 -133q-49 0 -93 10.5t-72.5 25.5t-50 30t-31.5 26l-9 10v-420h-184v1250h133l41 -93q3 4 10 11t31 25t52 31.5t74.5 24.5t98.5 11zM553 164q110 0 188 84.5t78 212.5t-78 212.5t-188 84.5t-188 -84.5t-78 -212.5
t78 -212.5t188 -84.5z" />
    <glyph glyph-name="afii10083" unicode="&#x441;" horiz-adv-x="983" 
d="M727 338h195q-32 -151 -142.5 -249.5t-267.5 -98.5q-187 0 -313.5 133t-126.5 338t126.5 338t313.5 133q157 0 267.5 -98.5t142.5 -249.5h-195q-24 80 -78.5 127t-136.5 47q-103 0 -179.5 -85t-76.5 -212t76.5 -212t179.5 -85q82 0 136.5 47t78.5 127z" />
    <glyph glyph-name="afii10084" unicode="&#x442;" horiz-adv-x="819" 
d="M31 748v174h757v-174h-286v-748h-185v748h-286z" />
    <glyph glyph-name="afii10085" unicode="&#x443;" horiz-adv-x="942" 
d="M379 31l-359 891h195l256 -666l256 666h195l-390 -983q-62 -156 -126 -216.5t-170 -60.5q-14 0 -29.5 2.5t-24.5 5.5l-8 2v154q137 0 174 113z" />
    <glyph glyph-name="afii10086" unicode="&#x444;" horiz-adv-x="1536" 
d="M676 870v420h184v-420q9 7 26 17.5t68 27.5t101 17q107 0 200.5 -59.5t151 -168.5t57.5 -243t-57.5 -243t-151 -168.5t-200.5 -59.5q-50 0 -99 15t-72 31l-24 15v-379h-184v379q-9 -7 -26 -17t-68 -27t-101 -17q-107 0 -200.5 59.5t-151 168.5t-57.5 243t57.5 243
t151 168.5t200.5 59.5q50 0 99 -15.5t72 -30.5zM676 246v430l-8.5 8.5t-23.5 20t-37 25t-47.5 19.5t-57.5 9q-103 0 -174.5 -81.5t-71.5 -215.5t71.5 -215.5t174.5 -81.5q45 0 88.5 20.5t64.5 41.5zM860 676v-430l8.5 -8.5t23.5 -20t37 -25t47.5 -19.5t57.5 -9
q103 0 174.5 81.5t71.5 215.5t-71.5 215.5t-174.5 81.5q-45 0 -88.5 -20.5t-64.5 -41.5z" />
    <glyph glyph-name="afii10087" unicode="&#x445;" horiz-adv-x="860" 
d="M430 338l-225 -338h-205l317 471l-297 451h205l205 -308l205 308h205l-297 -451l317 -471h-205z" />
    <glyph glyph-name="afii10088" unicode="&#x446;" horiz-adv-x="1075" 
d="M911 174h123v-389h-174v215h-737v922h184v-748h420v748h184v-748z" />
    <glyph glyph-name="afii10089" unicode="&#x447;" horiz-adv-x="993" 
d="M686 922h184v-922h-184v328q-13 -7 -35.5 -17.5t-89.5 -27.5t-131 -17q-147 0 -237.5 92.5t-90.5 245.5v318h185v-318q0 -77 50 -125.5t134 -48.5q55 0 108.5 15.5t80.5 30.5l26 16v430z" />
    <glyph glyph-name="afii10090" unicode="&#x448;" horiz-adv-x="1413" 
d="M1106 922h184v-922h-1167v922h184v-748h307v748h185v-748h307v748z" />
    <glyph glyph-name="afii10091" unicode="&#x449;" horiz-adv-x="1454" 
d="M1413 -215h-174v215h-1116v922h184v-748h307v748h185v-748h307v748h184v-748h123v-389z" />
    <glyph glyph-name="afii10092" unicode="&#x44a;" horiz-adv-x="1003" 
d="M635 614q137 0 227 -88t90 -219t-90 -219t-227 -88h-410v748h-225v174h410v-308h225zM410 174h225q54 0 93.5 39.5t39.5 93.5t-39.5 93.5t-93.5 39.5h-225v-266z" />
    <glyph glyph-name="afii10093" unicode="&#x44b;" horiz-adv-x="1259" 
d="M952 922h185v-922h-185v922zM512 614q137 0 227 -88t90 -219t-90 -219t-227 -88h-389v922h184v-308h205zM307 174h205q54 0 93.5 39.5t39.5 93.5t-39.5 93.5t-93.5 39.5h-205v-266z" />
    <glyph glyph-name="afii10094" unicode="&#x44c;" horiz-adv-x="901" 
d="M532 614q137 0 227.5 -88t90.5 -219t-90.5 -219t-227.5 -88h-409v922h184v-308h225zM307 174h225q54 0 94 39.5t40 93.5t-40 93.5t-94 39.5h-225v-266z" />
    <glyph glyph-name="afii10095" unicode="&#x44d;" horiz-adv-x="972" 
d="M461 932q187 0 313.5 -133t126.5 -338t-126.5 -338t-313.5 -133q-156 0 -266 95.5t-134 231.5h195q16 -65 70 -109t135 -44q90 0 160.5 64t85.5 151h-308v153h308q-15 94 -85 160t-161 66q-81 0 -135 -44t-70 -110h-195q24 136 134.5 232t265.5 96z" />
    <glyph glyph-name="afii10096" unicode="&#x44e;" horiz-adv-x="1372" 
d="M870 932q172 0 296 -134t124 -337t-124 -337t-296 -134q-159 0 -272 107.5t-137 271.5h-154v-369h-184v922h184v-379h154q24 171 136.5 280t272.5 109zM870 164q89 0 162.5 86t73.5 211t-73.5 211t-162.5 86t-162 -86t-73 -211t73 -211t162 -86z" />
    <glyph glyph-name="afii10097" unicode="&#x44f;" horiz-adv-x="952" 
d="M410 922h419v-922h-184v307h-184l-195 -307h-205l215 338q-7 2 -19.5 7.5t-44.5 28t-56 50.5t-44 79t-20 111q0 131 90.5 219.5t227.5 88.5zM645 748h-235q-54 0 -94 -40t-40 -94t40 -93.5t94 -39.5h235v267z" />
    <glyph glyph-name="afii10071" unicode="&#x451;" horiz-adv-x="1013" 
d="M451 1178q0 -46 -33.5 -79.5t-79.5 -33.5t-79.5 33.5t-33.5 79.5t33.5 79t79.5 33t79.5 -33t33.5 -79zM799 1178q0 -46 -33.5 -79.5t-79.5 -33.5t-79.5 33.5t-33.5 79.5t33.5 79t79.5 33t79.5 -33t33.5 -79zM727 266h195q-50 -125 -149 -200.5t-251 -75.5
q-187 0 -313.5 133t-126.5 338q0 204 125 337.5t305 133.5t305 -133.5t125 -337.5q0 -18 -2.5 -38.5t-5.5 -32.5l-2 -11h-656q8 -87 78.5 -151t167.5 -64q128 0 205 102zM512 758q-92 0 -156.5 -62.5t-79.5 -163.5h492q-15 102 -83 164t-173 62z" />
    <glyph glyph-name="afii10099" unicode="&#x452;" horiz-adv-x="1044" 
d="M563 676q-92 0 -158.5 -66.5t-66.5 -158.5v-451h-184v973h-154v164h154v153h184v-153h256v-164h-256v-225l11 11t32 24.5t52.5 31t71 24.5t89.5 11q159 0 269 -126t110 -335q0 -233 -117 -362t-313 -129v174q104 0 174.5 84.5t70.5 232.5q0 126 -68 206.5t-157 80.5z" />
    <glyph glyph-name="afii10100" unicode="&#x453;" horiz-adv-x="768" 
d="M748 922v-174h-441v-748h-184v922h625zM373 1065l123 246h174l-174 -246h-123z" />
    <glyph glyph-name="afii10101" unicode="&#x454;" horiz-adv-x="972" 
d="M512 932q155 0 265 -95.5t134 -232.5h-194q-16 66 -70 110t-135 44q-91 0 -161 -66t-85 -160h307v-153h-307q15 -87 85.5 -151t160.5 -64q81 0 135 44t70 109h194q-24 -136 -133.5 -231.5t-265.5 -95.5q-187 0 -313.5 133t-126.5 338t126.5 338t313.5 133z" />
    <glyph glyph-name="afii10102" unicode="&#x455;" horiz-adv-x="829" 
d="M72 297h184q16 -133 164 -133q81 0 122.5 31.5t41.5 80.5q0 26 -17 45t-45.5 31t-65 22t-77.5 20t-82 22t-77.5 31.5t-65 46t-45.5 67.5t-17 94q0 118 87.5 197.5t230.5 79.5q158 0 244 -76.5t94 -210.5h-185q-8 49 -47.5 81t-105.5 32t-105 -31t-39 -72q0 -26 17 -45
t45.5 -31t65 -22t77.5 -20t82 -22t77.5 -31.5t65 -46t45.5 -67.5t17 -94q0 -126 -90 -206t-248 -80q-166 0 -253 79t-95 228z" />
    <glyph glyph-name="afii10103" unicode="&#x456;" horiz-adv-x="430" 
d="M307 922v-922h-184v922h184zM215 1065q-46 0 -79.5 33.5t-33.5 79.5t33.5 79t79.5 33t79.5 -33t33.5 -79t-33.5 -79.5t-79.5 -33.5z" />
    <glyph glyph-name="afii10104" unicode="&#x457;" horiz-adv-x="450" 
d="M317 922v-922h-184v922h184zM164 1178q0 -46 -33.5 -79.5t-79.5 -33.5t-79 33.5t-33 79.5t33 79t79 33t79.5 -33t33.5 -79zM512 1178q0 -46 -33.5 -79.5t-79.5 -33.5t-79 33.5t-33 79.5t33 79t79 33t79.5 -33t33.5 -79z" />
    <glyph glyph-name="afii10105" unicode="&#x458;" horiz-adv-x="430" 
d="M123 -20v942h184v-942q0 -144 -81 -231t-206 -87q-27 0 -52.5 5t-37.5 11l-12 5v163q31 -10 62 -10q61 0 102 41t41 103zM215 1065q-46 0 -79.5 33.5t-33.5 79.5t33.5 79t79.5 33t79.5 -33t33.5 -79t-33.5 -79.5t-79.5 -33.5z" />
    <glyph glyph-name="afii10106" unicode="&#x459;" horiz-adv-x="1423" 
d="M1065 594q130 0 218.5 -86.5t88.5 -210.5t-88.5 -210.5t-218.5 -86.5h-410v748h-266l-31 -441q-10 -153 -88 -235t-209 -82q-14 0 -29 2.5t-24 5.5l-8 2v154h20q142 0 154 153l51 615h615v-328h225zM840 174h225q54 0 88.5 34.5t34.5 88.5t-34.5 88.5t-88.5 34.5h-225
v-246z" />
    <glyph glyph-name="afii10107" unicode="&#x45a;" horiz-adv-x="1474" 
d="M707 922h184v-328h225q130 0 218.5 -86.5t88.5 -210.5t-88.5 -210.5t-218.5 -86.5h-409v420h-400v-420h-184v922h184v-328h400v328zM891 174h225q54 0 88.5 34.5t34.5 88.5t-34.5 88.5t-88.5 34.5h-225v-246z" />
    <glyph glyph-name="afii10108" unicode="&#x45b;" horiz-adv-x="1075" 
d="M594 850q156 0 262.5 -112t106.5 -287v-451h-185v451q0 91 -64.5 158t-150.5 67q-92 0 -158.5 -66.5t-66.5 -158.5v-451h-184v973h-154v164h154v153h184v-153h256v-164h-256v-225l11 11t32 24.5t52.5 31t71 24.5t89.5 11z" />
    <glyph glyph-name="afii10109" unicode="&#x45c;" horiz-adv-x="870" 
d="M891 0h-225l-359 440v-440h-184v922h184v-400l318 400h215l-359 -430zM399 1065l123 246h174l-174 -246h-123z" />
    <glyph glyph-name="afii10110" unicode="&#x45e;" horiz-adv-x="942" 
d="M379 31l-359 891h195l256 -666l256 666h195l-390 -983q-62 -156 -126 -216.5t-170 -60.5q-14 0 -29.5 2.5t-24.5 5.5l-8 2v154q137 0 174 113zM471 1188q44 0 79.5 31t43.5 71h143q-15 -102 -88 -168.5t-178 -66.5t-178 66.5t-88 168.5h143q8 -40 43.5 -71t79.5 -31z" />
    <glyph glyph-name="afii10193" unicode="&#x45f;" horiz-adv-x="1034" 
d="M911 922v-922h-307v-215h-174v215h-307v922h184v-748h420v748h184z" />
    <glyph glyph-name="afii10050" unicode="&#x490;" horiz-adv-x="942" 
d="M748 1536h174v-430h-574v-1106h-194v1290h594v246z" />
    <glyph glyph-name="afii10098" unicode="&#x491;" horiz-adv-x="768" 
d="M573 1126h175v-378h-441v-748h-184v922h450v204z" />
    <glyph glyph-name="uni1E9E" unicode="&#x1e9e;" horiz-adv-x="1239" 
d="M1085 1116l-235 -358q6 -1 17.5 -3.5t43 -14.5t60.5 -27.5t64.5 -45.5t61 -66t43 -91.5t17.5 -120.5q0 -162 -115.5 -275.5t-283.5 -113.5h-113v184h113q85 0 145 60t60 145q0 84 -59.5 144.5t-141.5 60.5h-117v164l225 338h-327q-84 0 -139.5 -54t-55.5 -131v-911h-194
v911q0 155 114.5 267t274.5 112h542v-174z" />
    <glyph glyph-name="endash" unicode="&#x2013;" horiz-adv-x="962" 
d="M901 604v-164h-840v164h840z" />
    <glyph glyph-name="emdash" unicode="&#x2014;" horiz-adv-x="1464" 
d="M1403 604v-164h-1342v164h1342z" />
    <glyph glyph-name="quoteleft" unicode="&#x2018;" horiz-adv-x="348" 
d="M174 891q-47 0 -80 35t-33 88q0 57 17 108t41 82t48 54t41 32l17 10l31 -40q-8 -6 -20.5 -17t-37.5 -48.5t-34 -78.5q53 0 88 -32.5t35 -79.5q0 -46 -33.5 -79.5t-79.5 -33.5z" />
    <glyph glyph-name="quoteright" unicode="&#x2019;" horiz-adv-x="348" 
d="M174 1300q47 0 80 -34.5t33 -87.5q0 -57 -17 -108t-41 -82t-48 -54.5t-41 -33.5l-17 -9l-31 41q8 6 20.5 17t37.5 48t34 78q-53 0 -88 33t-35 80q0 46 33.5 79t79.5 33z" />
    <glyph glyph-name="quotesinglbase" unicode="&#x201a;" horiz-adv-x="348" 
d="M174 215q47 0 80 -35t33 -88q0 -57 -17 -108t-41 -82t-48 -54.5t-41 -33.5l-17 -9l-31 41q8 6 20.5 17t37.5 48.5t34 78.5q-53 0 -88 32.5t-35 79.5q0 46 33.5 79.5t79.5 33.5z" />
    <glyph glyph-name="quotedblleft" unicode="&#x201c;" horiz-adv-x="645" 
d="M471 891q-47 0 -80 35t-33 88q0 57 17 108t41 82t48 54t41 32l17 10l31 -40q-8 -6 -20.5 -17t-37.5 -48.5t-34 -78.5q53 0 88 -32.5t35 -79.5q0 -46 -33.5 -79.5t-79.5 -33.5zM174 891q-47 0 -80 35t-33 88q0 57 17 108t41 82t48 54t41 32l17 10l31 -40q-8 -6 -20.5 -17
t-37.5 -48.5t-34 -78.5q53 0 88 -32.5t35 -79.5q0 -46 -33.5 -79.5t-79.5 -33.5z" />
    <glyph glyph-name="quotedblright" unicode="&#x201d;" horiz-adv-x="645" 
d="M174 1300q47 0 80 -34.5t33 -87.5q0 -57 -17 -108t-41 -82t-48 -54.5t-41 -33.5l-17 -9l-31 41q8 6 20.5 17t37.5 48t34 78q-53 0 -88 33t-35 80q0 46 33.5 79t79.5 33zM471 1300q47 0 80 -34.5t33 -87.5q0 -57 -17 -108t-41 -82t-48 -54.5t-41 -33.5l-17 -9l-31 41
q8 6 20.5 17t37.5 48t34 78q-53 0 -88 33t-35 80q0 46 33.5 79t79.5 33z" />
    <glyph glyph-name="quotedblbase" unicode="&#x201e;" horiz-adv-x="645" 
d="M174 215q47 0 80 -35t33 -88q0 -57 -17 -108t-41 -82t-48 -54.5t-41 -33.5l-17 -9l-31 41q8 6 20.5 17t37.5 48.5t34 78.5q-53 0 -88 32.5t-35 79.5q0 46 33.5 79.5t79.5 33.5zM471 215q47 0 80 -35t33 -88q0 -57 -17 -108t-41 -82t-48 -54.5t-41 -33.5l-17 -9l-31 41
q8 6 20.5 17t37.5 48.5t34 78.5q-53 0 -88 32.5t-35 79.5q0 46 33.5 79.5t79.5 33.5z" />
    <glyph glyph-name="dagger" unicode="&#x2020;" horiz-adv-x="716" 
d="M645 1044v-143h-215v-532h-143v532h-215v143h215v246h143v-246h215z" />
    <glyph glyph-name="daggerdbl" unicode="&#x2021;" horiz-adv-x="716" 
d="M72 922v133h215v235h143v-235h215v-133h-215v-185h215v-133h-215v-235h-143v235h-215v133h215v185h-215z" />
    <glyph glyph-name="bullet" unicode="&#x2022;" horiz-adv-x="798" 
d="M604 553q0 -85 -60 -145t-145 -60t-144.5 60t-59.5 145t59.5 145t144.5 60t145 -60t60 -145z" />
    <glyph glyph-name="ellipsis" unicode="&#x2026;" horiz-adv-x="1167" 
d="M287 102q0 -46 -33.5 -79t-79.5 -33t-79.5 33t-33.5 79t33.5 79.5t79.5 33.5t79.5 -33.5t33.5 -79.5zM696 102q0 -46 -33 -79t-79 -33t-79.5 33t-33.5 79t33.5 79.5t79.5 33.5t79 -33.5t33 -79.5zM1106 102q0 -46 -33.5 -79t-79.5 -33t-79 33t-33 79t33 79.5t79 33.5
t79.5 -33.5t33.5 -79.5z" />
    <glyph glyph-name="perthousand" unicode="&#x2030;" horiz-adv-x="1873" 
d="M307 0h-143l788 1290h144zM184 1024q0 -61 44.5 -107.5t99.5 -46.5t99 46.5t44 107.5t-44 107.5t-99 46.5t-99.5 -46.5t-44.5 -107.5zM594 1024q0 -107 -79.5 -186.5t-186.5 -79.5t-187 79.5t-80 186.5t80 186.5t187 79.5t186.5 -79.5t79.5 -186.5zM1065 266
q0 61 -44 107.5t-99 46.5t-99.5 -46.5t-44.5 -107.5t44.5 -107t99.5 -46t99 46t44 107zM655 266q0 107 80 186.5t187 79.5t186.5 -79.5t79.5 -186.5t-79.5 -186.5t-186.5 -79.5t-187 79.5t-80 186.5zM1690 266q0 61 -44.5 107.5t-99.5 46.5t-99 -46.5t-44 -107.5t44 -107
t99 -46t99.5 46t44.5 107zM1280 266q0 107 79.5 186.5t186.5 79.5t186.5 -79.5t79.5 -186.5t-79.5 -186.5t-186.5 -79.5t-186.5 79.5t-79.5 186.5z" />
    <glyph glyph-name="guilsinglleft" unicode="&#x2039;" horiz-adv-x="532" 
d="M246 461l225 -328h-184l-226 328l226 327h184z" />
    <glyph glyph-name="guilsinglright" unicode="&#x203a;" horiz-adv-x="532" 
d="M61 133l226 328l-226 327h185l225 -327l-225 -328h-185z" />
    <glyph glyph-name="fraction" unicode="&#x2044;" horiz-adv-x="194" 
d="M-225 0h-144l789 1290h143z" />
    <glyph glyph-name="zerosuperior" unicode="&#x2070;" horiz-adv-x="614" 
d="M430 1171q0 96 -36.5 147.5t-86.5 51.5t-86.5 -51.5t-36.5 -147.5t36.5 -147t86.5 -51t86.5 51t36.5 147zM553 1171q0 -144 -71 -227.5t-175 -83.5t-175 83.5t-71 227.5t71 228t175 84t175 -84t71 -228z" />
    <glyph glyph-name="foursuperior" unicode="&#x2074;" horiz-adv-x="512" 
d="M389 1475v-379h72v-113h-72v-113h-123v113h-256v92l246 400h133zM143 1096h123v194z" />
    <glyph glyph-name="fivesuperior" unicode="&#x2075;" horiz-adv-x="563" 
d="M307 1280q85 0 140 -56.5t55 -148.5t-61.5 -153.5t-153.5 -61.5q-89 0 -149.5 52t-76.5 132h123q17 -71 103 -71q39 0 65.5 28.5t26.5 73.5t-26.5 74t-65.5 29q-43 0 -69 -18t-34 -44h-102l41 359h338v-113h-236l-10 -102q31 20 92 20z" />
    <glyph glyph-name="sixsuperior" unicode="&#x2076;" horiz-adv-x="542" 
d="M410 1475l-134 -195q92 0 154 -60t62 -145q0 -92 -62 -153.5t-154 -61.5t-153.5 61.5t-61.5 153.5q0 45 23.5 99t46.5 85l23 31l122 185h134zM276 1178q-39 0 -65.5 -29t-26.5 -74t26.5 -73.5t65.5 -28.5t66 28.5t27 73.5t-27 74t-66 29z" />
    <glyph glyph-name="sevensuperior" unicode="&#x2077;" horiz-adv-x="481" 
d="M72 1362v113h399v-72l-246 -533h-123l226 492h-256z" />
    <glyph glyph-name="eightsuperior" unicode="&#x2078;" horiz-adv-x="532" 
d="M266 860q-91 0 -148 53t-57 131q0 29 8.5 54t20.5 41t24 27.5t20 16.5l9 5q-7 5 -17 14t-27 41t-17 68q0 70 54 122t130 52t130.5 -52t54.5 -122q0 -36 -15.5 -67t-31.5 -44l-15 -12q3 -2 8.5 -5.5t20 -16t25 -27.5t19.5 -40.5t9 -54.5q0 -78 -57 -131t-148 -53z
M266 1372q-31 0 -51 -20t-20 -49q0 -25 20.5 -44.5t50.5 -19.5t51 19.5t21 44.5q0 29 -20.5 49t-51.5 20zM266 1137q-37 0 -59.5 -24.5t-22.5 -57.5t22.5 -57.5t59.5 -24.5t59.5 24.5t22.5 57.5t-22.5 57.5t-59.5 24.5z" />
    <glyph glyph-name="ninesuperior" unicode="&#x2079;" horiz-adv-x="542" 
d="M133 870l133 195q-91 0 -153 60t-62 145q0 92 61.5 153.5t153.5 61.5t153.5 -61.5t61.5 -153.5q0 -45 -23 -99t-46 -85l-23 -31l-123 -185h-133zM266 1167q39 0 65.5 29t26.5 74t-26.5 73.5t-65.5 28.5t-65.5 -28.5t-26.5 -73.5t26.5 -74t65.5 -29z" />
    <glyph glyph-name="zeroinferior" unicode="&#x2080;" horiz-adv-x="614" 
d="M430 106q0 96 -36.5 147.5t-86.5 51.5t-86.5 -51.5t-36.5 -147.5t36.5 -147t86.5 -51t86.5 51t36.5 147zM553 106q0 -144 -71 -227.5t-175 -83.5t-175 83.5t-71 227.5t71 228t175 84t175 -84t71 -228z" />
    <glyph glyph-name="oneinferior" unicode="&#x2081;" horiz-adv-x="430" 
d="M41 307l164 103h92v-605h-123v451l-72 -41z" />
    <glyph glyph-name="twoinferior" unicode="&#x2082;" horiz-adv-x="532" 
d="M410 102l-174 -184h235v-113h-410v93l226 235q20 20 30.5 32t20.5 32t10 39q0 31 -22 51t-60 20q-92 0 -92 -92h-113q0 92 56.5 148.5t148.5 56.5q91 0 148 -53t57 -131q0 -73 -61 -134z" />
    <glyph glyph-name="threeinferior" unicode="&#x2083;" horiz-adv-x="552" 
d="M410 123q3 -2 8.5 -5t20 -16t25 -28t19.5 -40t9 -54q0 -79 -59.5 -132t-156.5 -53q-99 0 -157 56t-58 149h113q0 -41 25.5 -66.5t76.5 -25.5q43 0 68 24.5t25 57.5t-25 57.5t-68 24.5h-61v102h51q37 0 59.5 18.5t22.5 43.5q0 31 -22 51t-60 20t-60 -22t-22 -60h-112
q0 86 56.5 140.5t147.5 54.5q83 0 139 -51.5t56 -122.5q0 -41 -15.5 -71.5t-30.5 -40.5z" />
    <glyph glyph-name="fourinferior" unicode="&#x2084;" horiz-adv-x="512" 
d="M389 410v-379h72v-113h-72v-113h-123v113h-256v92l246 400h133zM143 31h123v194z" />
    <glyph glyph-name="fiveinferior" unicode="&#x2085;" horiz-adv-x="563" 
d="M307 215q85 0 140 -56.5t55 -148.5t-61.5 -153.5t-153.5 -61.5q-89 0 -149.5 52.5t-76.5 132.5h123q18 -72 103 -72q39 0 65.5 28.5t26.5 73.5t-26.5 74t-65.5 29q-43 0 -69 -18t-34 -44h-102l41 359h338v-113h-236l-10 -102q31 20 92 20z" />
    <glyph glyph-name="sixinferior" unicode="&#x2086;" horiz-adv-x="542" 
d="M410 410l-134 -195q92 0 154 -60t62 -145q0 -92 -62 -153.5t-154 -61.5t-153.5 61.5t-61.5 153.5q0 45 23.5 99t46.5 85l23 31l122 185h134zM276 113q-39 0 -65.5 -29t-26.5 -74t26.5 -73.5t65.5 -28.5t66 28.5t27 73.5t-27 74t-66 29z" />
    <glyph glyph-name="seveninferior" unicode="&#x2087;" horiz-adv-x="481" 
d="M72 297v113h399v-72l-246 -533h-123l226 492h-256z" />
    <glyph glyph-name="eightinferior" unicode="&#x2088;" horiz-adv-x="532" 
d="M266 -205q-91 0 -148 53.5t-57 131.5q0 29 8.5 54t20.5 40.5t24 27t20 16.5l9 5q-7 5 -17 14t-27 41t-17 68q0 70 54 122t130 52t130.5 -52t54.5 -122q0 -36 -15.5 -67t-31.5 -43l-15 -13q3 -2 8.5 -5t20 -16t25 -28t19.5 -40t9 -54q0 -78 -57 -131.5t-148 -53.5z
M266 307q-31 0 -51 -20t-20 -49q0 -25 20.5 -44.5t50.5 -19.5t51 19.5t21 44.5q0 29 -20.5 49t-51.5 20zM266 72q-37 0 -59.5 -24.5t-22.5 -57.5t22.5 -57.5t59.5 -24.5t59.5 24.5t22.5 57.5t-22.5 57.5t-59.5 24.5z" />
    <glyph glyph-name="nineinferior" unicode="&#x2089;" horiz-adv-x="542" 
d="M133 -195l133 195q-91 0 -153 60t-62 145q0 92 61.5 153.5t153.5 61.5t153.5 -61.5t61.5 -153.5q0 -45 -23 -99t-46 -85l-23 -31l-123 -185h-133zM266 102q39 0 65.5 29t26.5 74t-26.5 73.5t-65.5 28.5t-65.5 -28.5t-26.5 -73.5t26.5 -74t65.5 -29z" />
    <glyph glyph-name="Euro" unicode="&#x20ac;" horiz-adv-x="1392" 
d="M201 635l4 61h-144v154h172q3 9 8 25.5t26.5 63t48 89t73.5 94.5t101 89.5t132 63t166 25.5q200 0 347.5 -129t195.5 -321h-205q-32 121 -122 198.5t-216 77.5q-72 0 -134.5 -28.5t-100 -69t-65.5 -81t-39 -69.5l-11 -28h350v-154h-389q-6 -30 -6 -61l6 -72h389v-153
h-348q4 -10 11.5 -26.5t37.5 -59t66 -75t98.5 -59t134.5 -26.5q126 0 216 77.5t122 198.5h205q-48 -192 -195.5 -321t-347.5 -129q-88 0 -166 23t-132 60t-99.5 82t-73 90t-47 82t-26.5 60l-8 23h-175v153h144q-4 41 -4 72z" />
    <glyph glyph-name="uni20B4" unicode="&#x20b4;" horiz-adv-x="1105" 
d="M881 860h153v-153h-962v153h563q4 2 11 5t24.5 15t31 26t24.5 37.5t11 49.5q0 49 -50.5 91t-123.5 42q-88 0 -141 -43t-53 -100h-195q0 127 107.5 222t271.5 95q163 0 271 -93t108 -214q0 -36 -13 -69.5t-25 -48.5zM225 430h-153v154h962v-154h-563q-4 -2 -11 -5
t-24.5 -15t-31 -26t-24.5 -37.5t-11 -49.5q0 -49 50.5 -91t123.5 -42q88 0 141 43t53 100h195q0 -127 -107.5 -222t-271.5 -95q-163 0 -271 93t-108 214q0 36 13 69.5t25 48.5z" />
    <glyph glyph-name="uni20BD" unicode="&#x20bd;" horiz-adv-x="1146" 
d="M399 686h267q91 0 153 64t62 151t-62 151t-153 64h-267v-430zM1075 901q0 -102 -52.5 -191t-147 -143.5t-209.5 -54.5h-267v-133h389v-174h-389v-205h-194v205h-154v174h154v133h-154v174h154v604h461q115 0 209.5 -54.5t147 -143.5t52.5 -191z" />
    <glyph glyph-name="afii61352" unicode="&#x2116;" horiz-adv-x="1955" 
d="M1331 0v174h533v-174h-533zM942 1290h195v-1290h-164l-625 922v-922h-194v1290h163l625 -921v921zM1731 594q0 61 -39.5 102t-94.5 41t-94 -41t-39 -102t39 -102t94 -41t94.5 41t39.5 102zM1884 594q0 -116 -86 -201.5t-201 -85.5t-200.5 85.5t-85.5 201.5t85.5 201.5
t200.5 85.5t201 -85.5t86 -201.5z" />
    <glyph glyph-name="trademark" unicode="&#x2122;" horiz-adv-x="1105" 
d="M440 1290v-102h-153v-420h-113v420h-154v102h420zM799 932h-62l-112 164v-328h-113v522h92l164 -235l164 235h92v-522h-113v328z" />
    <glyph glyph-name="arrowleft" unicode="&#x2190;" horiz-adv-x="2048" 
d="M215 635l604 604v-246l-266 -266h1280v-184h-1280l266 -267v-245z" />
    <glyph glyph-name="arrowup" unicode="&#x2191;" horiz-adv-x="2048" 
d="M1024 1464l604 -604h-246l-266 266v-1280h-184v1280l-266 -266h-246z" />
    <glyph glyph-name="arrowright" unicode="&#x2192;" horiz-adv-x="2048" 
d="M1229 1239l604 -604l-604 -604v245l266 267h-1280v184h1280l-266 266v246z" />
    <glyph glyph-name="arrowdown" unicode="&#x2193;" horiz-adv-x="2048" 
d="M1628 451l-604 -605l-604 605h246l266 -267v1280h184v-1280l266 267h246z" />
    <glyph glyph-name="arrowboth" unicode="&#x2194;" horiz-adv-x="2048" 
d="M1229 1239l604 -604l-604 -604v245l266 267h-942l266 -267v-245l-604 604l604 604v-246l-266 -266h942l-266 266v246z" />
    <glyph glyph-name="arrowupdn" unicode="&#x2195;" horiz-adv-x="2048" 
d="M1628 451l-604 -605l-604 605h246l266 -267v942l-266 -266h-246l604 604l604 -604h-246l-266 266v-942l266 267h246z" />
    <glyph glyph-name="uni2196" unicode="&#x2196;" horiz-adv-x="2048" 
d="M717 1065l911 -911l-123 -123l-911 911v-379l-174 -174v850h850l-174 -174h-379z" />
    <glyph glyph-name="uni2197" unicode="&#x2197;" horiz-adv-x="2048" 
d="M420 154l911 911h-379l-174 174h850v-850l-174 174v379l-911 -911z" />
    <glyph glyph-name="uni2198" unicode="&#x2198;" horiz-adv-x="2048" 
d="M1331 205l-911 911l123 123l911 -911v379l174 174v-850h-850l174 174h379z" />
    <glyph glyph-name="uni2199" unicode="&#x2199;" horiz-adv-x="2048" 
d="M1628 1116l-911 -911h379l174 -174h-850v850l174 -174v-379l911 911z" />
    <glyph glyph-name="minus" unicode="&#x2212;" horiz-adv-x="911" 
d="M850 604v-164h-789v164h789z" />
    <glyph glyph-name="approxequal" unicode="&#x2248;" horiz-adv-x="921" 
d="M666 195q-57 0 -140 30.5t-158 61t-112 30.5q-47 0 -74.5 -29.5t-27.5 -82.5h-154q0 136 69.5 211.5t186.5 75.5q57 0 140 -31t158 -61.5t112 -30.5q47 0 74.5 29.5t27.5 82.5h154q0 -136 -69.5 -211t-186.5 -75zM666 594q-57 0 -140 31t-158 61.5t-112 30.5
q-46 0 -74 -30t-28 -83h-154q0 136 69.5 211.5t186.5 75.5q45 0 107 -19t113.5 -42.5t105.5 -42.5t84 -19q46 0 74 30t28 83h154q0 -136 -69.5 -211.5t-186.5 -75.5z" />
    <glyph glyph-name="notequal" unicode="&#x2260;" horiz-adv-x="921" 
d="M881 614h-297l-72 -184h369v-174h-441l-102 -246h-174l102 246h-225v174h297l72 184h-369v174h440l103 246h174l-103 -246h226v-174z" />
    <glyph glyph-name="lessequal" unicode="&#x2264;" horiz-adv-x="931" 
d="M82 0v174h768v-174h-768zM92 707l758 337v-184l-502 -205l502 -204v-185l-758 338v103z" />
    <glyph glyph-name="greaterequal" unicode="&#x2265;" horiz-adv-x="931" 
d="M850 174v-174h-768v174h768zM82 1044l758 -337v-103l-758 -338v185l502 204l-502 205v184z" />
    <glyph glyph-name="uni2460" unicode="&#x2460;" horiz-adv-x="2048" 
d="M164 655q0 173 68.5 332.5t184 275t275 184.5t332.5 69t332.5 -69t275 -184.5t184 -275t68.5 -332.5q0 -116 -31 -227t-87 -205.5t-135.5 -174t-174 -135.5t-205.5 -87t-227 -31q-174 0 -332.5 68t-274.5 182.5t-184.5 274.5t-68.5 335zM348 655q0 -181 91.5 -337
t247.5 -247t337 -91t337 91t247.5 247t91.5 337q0 182 -91.5 338t-247 247t-337.5 91q-181 0 -337 -91.5t-247.5 -247.5t-91.5 -337zM1004 1065h153v-819h-184v614l-113 -72l-82 123z" />
    <glyph glyph-name="uni2461" unicode="&#x2461;" horiz-adv-x="2048" 
d="M1034 410h277v-164h-563v123l296 307q32 32 45.5 47.5t25 41t11.5 54.5q0 39 -28.5 65.5t-73.5 26.5q-44 0 -74.5 -26t-38.5 -66h-174q8 110 87 183t200 73q127 0 207 -71.5t80 -174.5q0 -58 -15 -102.5t-32.5 -68t-55.5 -64.5zM164 655q0 173 68.5 332.5t184 275
t275 184.5t332.5 69t332.5 -69t275 -184.5t184 -275t68.5 -332.5q0 -116 -31 -227t-87 -205.5t-135.5 -174t-174 -135.5t-205.5 -87t-227 -31q-174 0 -332.5 68t-274.5 182.5t-184.5 274.5t-68.5 335zM348 655q0 -181 91.5 -337t247.5 -247t337 -91t337 91t247.5 247
t91.5 337q0 182 -91.5 338t-247 247t-337.5 91q-181 0 -337 -91.5t-247.5 -247.5t-91.5 -337z" />
    <glyph glyph-name="uni2462" unicode="&#x2462;" horiz-adv-x="2048" 
d="M1188 676q6 -1 15.5 -4t34 -16.5t43.5 -32t34.5 -53.5t15.5 -78q0 -111 -82.5 -183.5t-224.5 -72.5q-135 0 -213.5 68.5t-93.5 187.5h184q8 -41 40 -67t83 -26q60 0 91.5 28t31.5 75q0 40 -32 66t-91 26h-82v143h76q49 0 78.5 26t29.5 64q0 34 -29 59t-73 25
q-97 0 -113 -82h-174q8 100 88 173t199 73q130 0 208.5 -65t78.5 -160q0 -37 -12.5 -68.5t-30.5 -50.5t-36.5 -32t-31.5 -18zM164 655q0 173 68.5 332.5t184 275t275 184.5t332.5 69t332.5 -69t275 -184.5t184 -275t68.5 -332.5q0 -116 -31 -227t-87 -205.5t-135.5 -174
t-174 -135.5t-205.5 -87t-227 -31q-174 0 -332.5 68t-274.5 182.5t-184.5 274.5t-68.5 335zM348 655q0 -181 91.5 -337t247.5 -247t337 -91t337 91t247.5 247t91.5 337q0 182 -91.5 338t-247 247t-337.5 91q-181 0 -337 -91.5t-247.5 -247.5t-91.5 -337z" />
    <glyph glyph-name="uni2463" unicode="&#x2463;" horiz-adv-x="2048" 
d="M1290 573v-163h-82v-164h-184v164h-358v143l338 512h204v-492h82zM860 573h164v246zM164 655q0 173 68.5 332.5t184 275t275 184.5t332.5 69t332.5 -69t275 -184.5t184 -275t68.5 -332.5q0 -116 -31 -227t-87 -205.5t-135.5 -174t-174 -135.5t-205.5 -87t-227 -31
q-174 0 -332.5 68t-274.5 182.5t-184.5 274.5t-68.5 335zM348 655q0 -181 91.5 -337t247.5 -247t337 -91t337 91t247.5 247t91.5 337q0 182 -91.5 338t-247 247t-337.5 91q-181 0 -337 -91.5t-247.5 -247.5t-91.5 -337z" />
    <glyph glyph-name="uni2464" unicode="&#x2464;" horiz-adv-x="2048" 
d="M1044 788q122 0 204.5 -80t82.5 -196q0 -118 -85.5 -197t-221.5 -79q-119 0 -200 70.5t-97 174.5h184q8 -33 39 -57.5t74 -24.5q54 0 88.5 34.5t34.5 88.5q0 47 -35 80t-88 33q-21 0 -39 -5.5t-29 -12.5t-19 -14.5t-11 -12.5l-4 -6h-174l61 481h461v-164h-318l-20 -133
q51 20 112 20zM164 655q0 173 68.5 332.5t184 275t275 184.5t332.5 69t332.5 -69t275 -184.5t184 -275t68.5 -332.5q0 -116 -31 -227t-87 -205.5t-135.5 -174t-174 -135.5t-205.5 -87t-227 -31q-174 0 -332.5 68t-274.5 182.5t-184.5 274.5t-68.5 335zM348 655
q0 -181 91.5 -337t247.5 -247t337 -91t337 91t247.5 247t91.5 337q0 182 -91.5 338t-247 247t-337.5 91q-181 0 -337 -91.5t-247.5 -247.5t-91.5 -337z" />
    <glyph glyph-name="uni2465" unicode="&#x2465;" horiz-adv-x="2048" 
d="M1024 236q-129 0 -218 84.5t-89 201.5q0 50 15.5 99t30.5 73l15 23l236 348h184l-184 -256h10q129 0 218 -85t89 -202t-89 -201.5t-218 -84.5zM901 522q0 -54 34.5 -88.5t88.5 -34.5t88.5 34.5t34.5 88.5t-34.5 88.5t-88.5 34.5t-88.5 -34.5t-34.5 -88.5zM164 655
q0 173 68.5 332.5t184 275t275 184.5t332.5 69t332.5 -69t275 -184.5t184 -275t68.5 -332.5q0 -116 -31 -227t-87 -205.5t-135.5 -174t-174 -135.5t-205.5 -87t-227 -31q-174 0 -332.5 68t-274.5 182.5t-184.5 274.5t-68.5 335zM348 655q0 -181 91.5 -337t247.5 -247
t337 -91t337 91t247.5 247t91.5 337q0 182 -91.5 338t-247 247t-337.5 91q-181 0 -337 -91.5t-247.5 -247.5t-91.5 -337z" />
    <glyph glyph-name="uni2466" unicode="&#x2466;" horiz-adv-x="2048" 
d="M768 1065h543v-133l-328 -686h-184l317 655h-348v164zM164 655q0 173 68.5 332.5t184 275t275 184.5t332.5 69t332.5 -69t275 -184.5t184 -275t68.5 -332.5q0 -116 -31 -227t-87 -205.5t-135.5 -174t-174 -135.5t-205.5 -87t-227 -31q-174 0 -332.5 68t-274.5 182.5
t-184.5 274.5t-68.5 335zM348 655q0 -181 91.5 -337t247.5 -247t337 -91t337 91t247.5 247t91.5 337q0 182 -91.5 338t-247 247t-337.5 91q-181 0 -337 -91.5t-247.5 -247.5t-91.5 -337z" />
    <glyph glyph-name="uni2467" unicode="&#x2467;" horiz-adv-x="2048" 
d="M1024 389q54 0 88.5 28.5t34.5 74.5t-34.5 74t-88.5 28t-88.5 -28t-34.5 -74t34.5 -74.5t88.5 -28.5zM1024 758q39 0 65.5 22.5t26.5 59.5t-26.5 59.5t-65.5 22.5t-65.5 -22.5t-26.5 -59.5t26.5 -59.5t65.5 -22.5zM164 655q0 173 68.5 332.5t184 275t275 184.5t332.5 69
t332.5 -69t275 -184.5t184 -275t68.5 -332.5q0 -116 -31 -227t-87 -205.5t-135.5 -174t-174 -135.5t-205.5 -87t-227 -31q-174 0 -332.5 68t-274.5 182.5t-184.5 274.5t-68.5 335zM348 655q0 -181 91.5 -337t247.5 -247t337 -91t337 91t247.5 247t91.5 337q0 182 -91.5 338
t-247 247t-337.5 91q-181 0 -337 -91.5t-247.5 -247.5t-91.5 -337zM1024 236q-141 0 -224 70.5t-83 174.5q0 40 14.5 75t35.5 56t42.5 36.5t36.5 21.5l14 6q-5 2 -12.5 6t-26.5 19.5t-34 34t-27 49.5t-12 65q0 96 74.5 160.5t201.5 64.5t201.5 -64.5t74.5 -160.5
q0 -34 -11.5 -65t-28 -50t-33 -33t-27.5 -20l-12 -6q6 -2 15.5 -6.5t34 -21t43.5 -37t34.5 -55.5t15.5 -75q0 -104 -83 -174.5t-224 -70.5z" />
    <glyph glyph-name="uni2468" unicode="&#x2468;" horiz-adv-x="2048" 
d="M1024 1075q129 0 218 -85t89 -202q0 -50 -15.5 -98.5t-30.5 -71.5l-15 -24l-236 -348h-184l184 256h-10q-129 0 -218 84.5t-89 201.5t89 202t218 85zM1147 788q0 54 -34.5 88.5t-88.5 34.5t-88.5 -34.5t-34.5 -88.5t34.5 -88t88.5 -34t88.5 34t34.5 88zM1884 655
q0 -116 -31 -227t-87 -205.5t-135.5 -174t-174 -135.5t-205.5 -87t-227 -31t-227 31t-205.5 87t-174 135.5t-135.5 174t-87 205.5t-31 227q0 173 68.5 332.5t184 275t275 184.5t332.5 69q139 0 270 -43.5t237 -123t185.5 -185t123.5 -237t44 -272.5zM1700 655
q0 181 -91.5 337t-247.5 247.5t-337 91.5t-337 -91.5t-247.5 -247.5t-91.5 -337q0 -109 34.5 -212t97.5 -186t146.5 -146t186 -97t211.5 -34q181 0 337 91t247.5 247t91.5 337z" />
    <glyph glyph-name="uni24EA" unicode="&#x24ea;" horiz-adv-x="2048" 
d="M860 655q0 -131 45 -193.5t119 -62.5t119 62.5t45 193.5t-45 193.5t-119 62.5t-119 -62.5t-45 -193.5zM1372 655q0 -194 -98.5 -306.5t-249.5 -112.5t-249.5 112.5t-98.5 306.5t98.5 307t249.5 113t249.5 -113t98.5 -307zM164 655q0 173 68.5 332.5t184 275t275 184.5
t332.5 69t332.5 -69t275 -184.5t184 -275t68.5 -332.5q0 -116 -31 -227t-87 -205.5t-135.5 -174t-174 -135.5t-205.5 -87t-227 -31q-174 0 -332.5 68t-274.5 182.5t-184.5 274.5t-68.5 335zM348 655q0 -181 91.5 -337t247.5 -247t337 -91t337 91t247.5 247t91.5 337
q0 182 -91.5 338t-247 247t-337.5 91q-181 0 -337 -91.5t-247.5 -247.5t-91.5 -337z" />
    <glyph glyph-name="uni24FF" unicode="&#x24ff;" horiz-adv-x="2048" 
d="M860 655q0 131 45 193.5t119 62.5t119 -62.5t45 -193.5t-45 -193.5t-119 -62.5t-119 62.5t-45 193.5zM1372 655q0 194 -98.5 307t-249.5 113t-249.5 -113t-98.5 -307t98.5 -306.5t249.5 -112.5t249.5 112.5t98.5 306.5zM164 655q0 173 68.5 332.5t184 275t275 184.5
t332.5 69t332.5 -69t275 -184.5t184 -275t68.5 -332.5q0 -116 -31 -227t-87 -205.5t-135.5 -174t-174 -135.5t-205.5 -87t-227 -31q-174 0 -332.5 68t-274.5 182.5t-184.5 274.5t-68.5 335z" />
    <glyph glyph-name="uni2776" unicode="&#x2776;" horiz-adv-x="2048" 
d="M164 655q0 173 68.5 332.5t184 275t275 184.5t332.5 69t332.5 -69t275 -184.5t184 -275t68.5 -332.5q0 -116 -31 -227t-87 -205.5t-135.5 -174t-174 -135.5t-205.5 -87t-227 -31q-174 0 -332.5 68t-274.5 182.5t-184.5 274.5t-68.5 335zM1157 1065h-153l-226 -154
l82 -123l113 72v-614h184v819z" />
    <glyph glyph-name="uni2777" unicode="&#x2777;" horiz-adv-x="2048" 
d="M164 655q0 173 68.5 332.5t184 275t275 184.5t332.5 69t332.5 -69t275 -184.5t184 -275t68.5 -332.5q0 -116 -31 -227t-87 -205.5t-135.5 -174t-174 -135.5t-205.5 -87t-227 -31q-174 0 -332.5 68t-274.5 182.5t-184.5 274.5t-68.5 335zM1311 410h-277l174 184
q38 41 55.5 64.5t32.5 68t15 102.5q0 103 -80 174.5t-207 71.5q-121 0 -200 -73t-87 -183h174q8 40 38.5 66t74.5 26q45 0 73.5 -26.5t28.5 -65.5q0 -29 -11.5 -54.5t-25 -41t-45.5 -47.5l-296 -307v-123h563v164z" />
    <glyph glyph-name="uni2778" unicode="&#x2778;" horiz-adv-x="2048" 
d="M164 655q0 173 68.5 332.5t184 275t275 184.5t332.5 69t332.5 -69t275 -184.5t184 -275t68.5 -332.5q0 -116 -31 -227t-87 -205.5t-135.5 -174t-174 -135.5t-205.5 -87t-227 -31q-174 0 -332.5 68t-274.5 182.5t-184.5 274.5t-68.5 335zM1188 676q5 2 13.5 5.5t29.5 17.5
t37 32t29.5 50t13.5 69q0 95 -78.5 160t-208.5 65q-119 0 -199 -73t-88 -173h174q16 82 113 82q44 0 73 -25t29 -59q0 -38 -29.5 -64t-78.5 -26h-76v-143h82q59 0 91 -26t32 -66q0 -47 -31.5 -75t-91.5 -28q-51 0 -83 26t-40 67h-184q15 -119 93.5 -187.5t213.5 -68.5
q142 0 224.5 72.5t82.5 183.5q0 31 -8 58.5t-20.5 45.5t-27.5 33t-30.5 23.5t-28 14t-20.5 7.5z" />
    <glyph glyph-name="uni2779" unicode="&#x2779;" horiz-adv-x="2048" 
d="M1290 410v163h-82v492h-204l-338 -512v-143h358v-164h184v164h82zM1024 573h-164l164 246v-246zM164 655q0 173 68.5 332.5t184 275t275 184.5t332.5 69t332.5 -69t275 -184.5t184 -275t68.5 -332.5q0 -116 -31 -227t-87 -205.5t-135.5 -174t-174 -135.5t-205.5 -87
t-227 -31q-174 0 -332.5 68t-274.5 182.5t-184.5 274.5t-68.5 335z" />
    <glyph glyph-name="uni277A" unicode="&#x277a;" horiz-adv-x="2048" 
d="M164 655q0 173 68.5 332.5t184 275t275 184.5t332.5 69t332.5 -69t275 -184.5t184 -275t68.5 -332.5q0 -116 -31 -227t-87 -205.5t-135.5 -174t-174 -135.5t-205.5 -87t-227 -31q-174 0 -332.5 68t-274.5 182.5t-184.5 274.5t-68.5 335zM1044 788q-27 0 -55 -5t-43 -10
l-14 -5l20 133h318v164h-461l-61 -481h174q3 6 10 14.5t33 22.5t59 14q53 0 88 -33t35 -80q0 -54 -34.5 -88.5t-88.5 -34.5q-43 0 -74 24.5t-39 57.5h-184q16 -104 97 -174.5t200 -70.5q136 0 221.5 79t85.5 197q0 116 -82.5 196t-204.5 80z" />
    <glyph glyph-name="uni277B" unicode="&#x277b;" horiz-adv-x="2048" 
d="M1024 236q129 0 218 84.5t89 201.5t-89 202t-218 85h-10l184 256h-184l-236 -348q-7 -9 -17 -26t-27 -68t-17 -101q0 -117 89 -201.5t218 -84.5zM901 522q0 54 34.5 88.5t88.5 34.5t88.5 -34.5t34.5 -88.5t-34.5 -88.5t-88.5 -34.5t-88.5 34.5t-34.5 88.5zM164 655
q0 173 68.5 332.5t184 275t275 184.5t332.5 69t332.5 -69t275 -184.5t184 -275t68.5 -332.5q0 -116 -31 -227t-87 -205.5t-135.5 -174t-174 -135.5t-205.5 -87t-227 -31q-174 0 -332.5 68t-274.5 182.5t-184.5 274.5t-68.5 335z" />
    <glyph glyph-name="uni277C" unicode="&#x277c;" horiz-adv-x="2048" 
d="M1311 1065h-543v-164h348l-317 -655h184l328 686v133zM164 655q0 173 68.5 332.5t184 275t275 184.5t332.5 69t332.5 -69t275 -184.5t184 -275t68.5 -332.5q0 -116 -31 -227t-87 -205.5t-135.5 -174t-174 -135.5t-205.5 -87t-227 -31q-174 0 -332.5 68t-274.5 182.5
t-184.5 274.5t-68.5 335z" />
    <glyph glyph-name="uni277D" unicode="&#x277d;" horiz-adv-x="2048" 
d="M1024 389q-54 0 -88.5 28.5t-34.5 74.5t34.5 74t88.5 28t88.5 -28t34.5 -74t-34.5 -74.5t-88.5 -28.5zM1024 758q-39 0 -65.5 22.5t-26.5 59.5t26.5 59.5t65.5 22.5t65.5 -22.5t26.5 -59.5t-26.5 -59.5t-65.5 -22.5zM164 655q0 173 68.5 332.5t184 275t275 184.5
t332.5 69t332.5 -69t275 -184.5t184 -275t68.5 -332.5q0 -116 -31 -227t-87 -205.5t-135.5 -174t-174 -135.5t-205.5 -87t-227 -31q-174 0 -332.5 68t-274.5 182.5t-184.5 274.5t-68.5 335zM1024 236q141 0 224 70.5t83 174.5q0 40 -14.5 75t-35.5 56t-42.5 36.5t-36.5 21.5
l-14 6q5 2 12.5 6t26.5 19.5t34 34t27 49.5t12 65q0 96 -74.5 160.5t-201.5 64.5t-201.5 -64.5t-74.5 -160.5q0 -34 11.5 -65t28 -50t33 -33t27.5 -20l12 -6q-6 -2 -15.5 -6.5t-34 -21t-43.5 -37t-34.5 -55.5t-15.5 -75q0 -104 83 -174.5t224 -70.5z" />
    <glyph glyph-name="uni277E" unicode="&#x277e;" horiz-adv-x="2048" 
d="M1024 1075q-129 0 -218 -85t-89 -202t89 -201.5t218 -84.5h10l-184 -256h184l236 348q7 9 17 25.5t27 67.5t17 101q0 117 -89 202t-218 85zM1147 788q0 -54 -34.5 -88t-88.5 -34t-88.5 34t-34.5 88t34.5 88.5t88.5 34.5t88.5 -34.5t34.5 -88.5zM1884 655q0 -116 -31 -227
t-87 -205.5t-135.5 -174t-174 -135.5t-205.5 -87t-227 -31t-227 31t-205.5 87t-174 135.5t-135.5 174t-87 205.5t-31 227q0 173 68.5 332.5t184 275t275 184.5t332.5 69q139 0 270 -43.5t237 -123t185.5 -185t123.5 -237t44 -272.5z" />
    <glyph glyph-name="commaaccent" unicode="&#xf6c3;" horiz-adv-x="348" 
d="M174 -133q47 0 80 -35t33 -88q0 -55 -17 -103.5t-41 -78.5t-48 -52.5t-41 -31.5l-17 -10l-31 40q8 6 20.5 17t37.5 46t34 71q-53 0 -88 32.5t-35 79.5q0 46 33.5 79.5t79.5 33.5z" />
    <glyph glyph-name="cyrBreve" unicode="&#xf6d1;" horiz-adv-x="655" 
d="M328 1423q-105 0 -178.5 67t-88.5 169h144q8 -47 43 -80t80 -33t80 33t43 80h143q-15 -102 -88 -169t-178 -67z" />
    <glyph glyph-name="cyrbreve" unicode="&#xf6d4;" horiz-adv-x="655" 
d="M328 1055q-105 0 -178.5 66.5t-88.5 168.5h144q8 -47 43 -79.5t80 -32.5t80 32.5t43 79.5h143q-15 -102 -88 -168.5t-178 -66.5z" />
    <glyph glyph-name="s_t" unicode="&#xfb06;" horiz-adv-x="1484" 
d="M430 932q-10 21 -10 72q0 161 109 269.5t270 108.5q174 0 281.5 -99.5t107.5 -248.5v-112h205v-174h-205v-441q0 -61 41 -102t102 -41q14 0 29.5 2.5t23.5 5.5l9 2v-164q-42 -20 -103 -20q-125 0 -205.5 86.5t-80.5 230.5v441h-166v174h73q53 0 88 32.5t35 79.5
q0 71 -62.5 128t-152.5 57q-100 0 -162.5 -63t-62.5 -163q0 -42 14 -73.5t34.5 -54.5t42 -48t39.5 -69t24 -103h-185q-8 49 -47.5 81t-105.5 32t-105 -31t-39 -72q0 -26 17 -45t45.5 -31t65 -22t77.5 -20t82 -22t77.5 -31.5t65 -46t45.5 -67.5t17 -94q0 -126 -90 -206
t-248 -80q-166 0 -253 79t-95 228h184q16 -133 164 -133q77 0 120.5 29t43.5 83q0 26 -17 45t-45.5 31t-65 22t-77.5 20t-82 22t-77.5 31.5t-65 46t-45.5 67.5t-17 94q0 120 90.5 198.5t247.5 78.5z" />
    <glyph glyph-name="lslash.alt" horiz-adv-x="614" 
d="M369 1290v-481l163 102v-174l-163 -102v-328q0 -61 40.5 -102t102.5 -41q14 0 29 2.5t23 5.5l9 2v-164q-41 -20 -102 -20q-125 0 -206 86.5t-81 230.5v205l-143 -92v174l143 92v604h185z" />
    <glyph glyph-name="Germandbls" horiz-adv-x="1239" 
d="M1085 1116l-235 -358q6 -1 17.5 -3.5t43 -14.5t60.5 -27.5t64.5 -45.5t61 -66t43 -91.5t17.5 -120.5q0 -162 -115.5 -275.5t-283.5 -113.5h-113v184h113q85 0 145 60t60 145q0 84 -59.5 144.5t-141.5 60.5h-117v164l225 338h-327q-84 0 -139.5 -54t-55.5 -131v-911h-194
v911q0 155 114.5 267t274.5 112h542v-174z" />
    <glyph glyph-name="a.alt" horiz-adv-x="1075" 
d="M952 0h-133l-41 92q-3 -4 -10 -11t-31 -24.5t-52 -31t-74.5 -24.5t-98.5 -11q-187 0 -313.5 133t-126.5 338t126.5 338t313.5 133q52 0 98 -10.5t75.5 -26t51.5 -30.5t31 -25l10 -11l41 93h133v-922zM256 461q0 -128 78 -212.5t188 -84.5t188 84.5t78 212.5t-78 212.5
t-188 84.5t-188 -84.5t-78 -212.5z" />
    <glyph glyph-name="afii10085.alt" horiz-adv-x="942" 
d="M236 -328l143 359l-359 891h195l256 -666l256 666h195l-502 -1250h-184z" />
    <glyph glyph-name="l.alt" horiz-adv-x="542" 
d="M317 1290v-983q0 -61 41 -102t103 -41q14 0 29 2.5t24 5.5l8 2v-164q-41 -20 -102 -20q-125 0 -206 86.5t-81 230.5v983h184z" />
    <glyph glyph-name="y.alt" horiz-adv-x="1054" 
d="M748 41v102q-4 -5 -11 -13.5t-32 -29.5t-52.5 -37t-71 -29.5t-89.5 -13.5q-156 0 -262.5 112.5t-106.5 287.5v502h184v-502q0 -91 64.5 -158t150.5 -67q92 0 159 66.5t67 158.5v502h184v-881q0 -170 -113.5 -279.5t-296.5 -109.5q-154 0 -255 83.5t-134 213.5h184
q63 -123 205 -123q99 0 162.5 61t63.5 154z" />
    <glyph glyph-name="I.alt" horiz-adv-x="727" 
d="M266 184v922h-205v184h605v-184h-205v-922h205v-184h-605v184h205z" />
    <glyph glyph-name="c_t" horiz-adv-x="1638" 
d="M1341 1034v-112h205v-174h-205v-441q0 -61 41 -102t103 -41q14 0 29 2.5t24 5.5l8 2v-164q-41 -20 -102 -20q-125 0 -206 86.5t-81 230.5v441h-166v174h74q53 0 88 32.5t35 79.5q0 71 -62.5 128t-152.5 57q-100 0 -162.5 -63t-62.5 -163q0 -46 14 -86t36 -73.5t45 -67.5
t45.5 -81.5t33.5 -100.5h-195q-24 80 -78.5 127t-136.5 47q-103 0 -179.5 -85t-76.5 -212t76.5 -212t179.5 -85q82 0 136.5 47t78.5 127h195q-32 -151 -142.5 -249.5t-267.5 -98.5q-187 0 -313.5 133t-126.5 338t126.5 338t313.5 133q18 0 36 -2.5t27 -5.5l9 -2
q-11 31 -11 82q0 161 109 269.5t270 108.5q174 0 281.5 -99.5t107.5 -248.5z" />
    <glyph glyph-name="r_f" horiz-adv-x="1085" 
d="M1044 922v-174h-204v-748h-185v748h-123q-92 0 -158.5 -67t-66.5 -159v-522h-184v922h133l41 -93q3 4 8.5 10t27 22t46 28.5t66 22.5t87.5 10h123v61q0 144 81 230.5t206 86.5q27 0 52.5 -5t37.5 -10l12 -5v-164q-30 10 -61 10q-61 0 -102 -41t-41 -102v-61h204z" />
    <glyph glyph-name="r_t" horiz-adv-x="1136" 
d="M840 748v-441q0 -61 41 -102t102 -41q14 0 29 2.5t24 5.5l8 2v-164q-41 -20 -102 -20q-125 0 -206 86.5t-81 230.5v441h-123q-92 0 -158.5 -67t-66.5 -159v-522h-184v922h133l41 -93q3 4 8.5 10t27 22t46 28.5t66 22.5t87.5 10h31q54 0 88.5 34t34.5 88v123h154v-245h204
v-174h-204z" />
    <glyph glyph-name="afii10065.alt" horiz-adv-x="1075" 
d="M952 0h-133l-41 92q-3 -4 -10 -11t-31 -24.5t-52 -31t-74.5 -24.5t-98.5 -11q-187 0 -313.5 133t-126.5 338t126.5 338t313.5 133q52 0 98 -10.5t75.5 -26t51.5 -30.5t31 -25l10 -11l41 93h133v-922zM256 461q0 -128 78 -212.5t188 -84.5t188 84.5t78 212.5t-78 212.5
t-188 84.5t-188 -84.5t-78 -212.5z" />
    <glyph glyph-name="afii10110.alt" horiz-adv-x="942" 
d="M236 -328l143 359l-359 891h195l256 -666l256 666h195l-502 -1250h-184zM471 1188q44 0 79.5 31t43.5 71h143q-15 -102 -88 -168.5t-178 -66.5t-178 66.5t-88 168.5h143q8 -40 43.5 -71t79.5 -31z" />
    <glyph glyph-name="agrave.alt" horiz-adv-x="1075" 
d="M952 0h-133l-41 92q-3 -4 -10 -11t-31 -24.5t-52 -31t-74.5 -24.5t-98.5 -11q-187 0 -313.5 133t-126.5 338t126.5 338t313.5 133q52 0 98 -10.5t75.5 -26t51.5 -30.5t31 -25l10 -11l41 93h133v-922zM256 461q0 -128 78 -212.5t188 -84.5t188 84.5t78 212.5t-78 212.5
t-188 84.5t-188 -84.5t-78 -212.5zM492 1321l122 -246h-122l-175 246h175z" />
    <glyph glyph-name="aacute.alt" horiz-adv-x="1075" 
d="M952 0h-133l-41 92q-3 -4 -10 -11t-31 -24.5t-52 -31t-74.5 -24.5t-98.5 -11q-187 0 -313.5 133t-126.5 338t126.5 338t313.5 133q52 0 98 -10.5t75.5 -26t51.5 -30.5t31 -25l10 -11l41 93h133v-922zM256 461q0 -128 78 -212.5t188 -84.5t188 84.5t78 212.5t-78 212.5
t-188 84.5t-188 -84.5t-78 -212.5zM471 1075l123 246h174l-174 -246h-123z" />
    <glyph glyph-name="abreve.alt" horiz-adv-x="1075" 
d="M952 0h-133l-41 92q-3 -4 -10 -11t-31 -24.5t-52 -31t-74.5 -24.5t-98.5 -11q-187 0 -313.5 133t-126.5 338t126.5 338t313.5 133q52 0 98 -10.5t75.5 -26t51.5 -30.5t31 -25l10 -11l41 93h133v-922zM256 461q0 -128 78 -212.5t188 -84.5t188 84.5t78 212.5t-78 212.5
t-188 84.5t-188 -84.5t-78 -212.5zM543 1188q44 0 79.5 31t43.5 71h143q-15 -102 -88 -168.5t-178 -66.5t-178.5 66.5t-88.5 168.5h144q8 -40 43.5 -71t79.5 -31z" />
    <glyph glyph-name="acircumflex.alt" horiz-adv-x="1075" 
d="M952 0h-133l-41 92q-3 -4 -10 -11t-31 -24.5t-52 -31t-74.5 -24.5t-98.5 -11q-187 0 -313.5 133t-126.5 338t126.5 338t313.5 133q52 0 98 -10.5t75.5 -26t51.5 -30.5t31 -25l10 -11l41 93h133v-922zM256 461q0 -128 78 -212.5t188 -84.5t188 84.5t78 212.5t-78 212.5
t-188 84.5t-188 -84.5t-78 -212.5zM625 1311l184 -246h-164l-102 143l-103 -143h-164l185 246h164z" />
    <glyph glyph-name="adieresis.alt" horiz-adv-x="1075" 
d="M952 0h-133l-41 92q-3 -4 -10 -11t-31 -24.5t-52 -31t-74.5 -24.5t-98.5 -11q-187 0 -313.5 133t-126.5 338t126.5 338t313.5 133q52 0 98 -10.5t75.5 -26t51.5 -30.5t31 -25l10 -11l41 93h133v-922zM256 461q0 -128 78 -212.5t188 -84.5t188 84.5t78 212.5t-78 212.5
t-188 84.5t-188 -84.5t-78 -212.5zM481 1178q0 -46 -33 -79.5t-79 -33.5t-79.5 33.5t-33.5 79.5t33.5 79t79.5 33t79 -33t33 -79zM829 1178q0 -46 -33 -79.5t-79 -33.5t-79.5 33.5t-33.5 79.5t33.5 79t79.5 33t79 -33t33 -79z" />
    <glyph glyph-name="amacron.alt" horiz-adv-x="1075" 
d="M952 0h-133l-41 92q-3 -4 -10 -11t-31 -24.5t-52 -31t-74.5 -24.5t-98.5 -11q-187 0 -313.5 133t-126.5 338t126.5 338t313.5 133q52 0 98 -10.5t75.5 -26t51.5 -30.5t31 -25l10 -11l41 93h133v-922zM256 461q0 -128 78 -212.5t188 -84.5t188 84.5t78 212.5t-78 212.5
t-188 84.5t-188 -84.5t-78 -212.5zM799 1239v-133h-512v133h512z" />
    <glyph glyph-name="aogonek.alt" horiz-adv-x="1075" 
d="M819 0l-41 92q-3 -4 -10 -11t-31 -24.5t-52 -31t-74.5 -24.5t-98.5 -11q-187 0 -313.5 133t-126.5 338t126.5 338t313.5 133q52 0 98 -10.5t75.5 -26t51.5 -30.5t31 -25l10 -11l41 93h133v-922h-10q-8 -9 -20 -25t-32 -59.5t-20 -79.5q0 -38 27.5 -65t65.5 -27
q18 0 38.5 2.5t31.5 5.5l11 2v-102q-51 -10 -102 -10q-91 0 -142.5 48t-51.5 126q0 45 18 91t36 69zM256 461q0 -128 78 -212.5t188 -84.5t188 84.5t78 212.5t-78 212.5t-188 84.5t-188 -84.5t-78 -212.5z" />
    <glyph glyph-name="aring.alt" horiz-adv-x="1075" 
d="M952 0h-133l-41 92q-3 -4 -10 -11t-31 -24.5t-52 -31t-74.5 -24.5t-98.5 -11q-187 0 -313.5 133t-126.5 338t126.5 338t313.5 133q52 0 98 -10.5t75.5 -26t51.5 -30.5t31 -25l10 -11l41 93h133v-922zM256 461q0 -128 78 -212.5t188 -84.5t188 84.5t78 212.5t-78 212.5
t-188 84.5t-188 -84.5t-78 -212.5zM604 1208q0 32 -21 57t-51 25t-50.5 -25t-20.5 -57t20.5 -57t50.5 -25t51 25t21 57zM707 1208q0 -71 -50 -122.5t-125 -51.5t-124.5 51.5t-49.5 122.5t49.5 122.5t124.5 51.5t125 -51.5t50 -122.5z" />
    <glyph glyph-name="atilde.alt" horiz-adv-x="1075" 
d="M952 0h-133l-41 92q-3 -4 -10 -11t-31 -24.5t-52 -31t-74.5 -24.5t-98.5 -11q-187 0 -313.5 133t-126.5 338t126.5 338t313.5 133q52 0 98 -10.5t75.5 -26t51.5 -30.5t31 -25l10 -11l41 93h133v-922zM256 461q0 -128 78 -212.5t188 -84.5t188 84.5t78 212.5t-78 212.5
t-188 84.5t-188 -84.5t-78 -212.5zM666 1044q-34 0 -63 12.5t-49.5 31t-38 36.5t-36.5 30.5t-39 12.5q-33 0 -57.5 -30.5t-24.5 -81.5h-102q0 118 52 181.5t134 63.5q42 0 77 -19t54.5 -42t45 -42t49.5 -19q33 0 57.5 30.5t24.5 81.5h102q0 -118 -52 -182t-134 -64z" />
    <glyph glyph-name="lacute.alt" horiz-adv-x="542" 
d="M317 1290v-983q0 -61 41 -102t103 -41q14 0 29 2.5t24 5.5l8 2v-164q-41 -20 -102 -20q-125 0 -206 86.5t-81 230.5v983h184zM164 1444l123 246h174l-174 -246h-123z" />
    <glyph glyph-name="lcaron.alt" horiz-adv-x="563" 
d="M317 1290v-983q0 -61 41 -102t103 -41q14 0 29 2.5t24 5.5l8 2v-164q-41 -20 -102 -20q-125 0 -206 86.5t-81 230.5v983h184zM430 1044l72 246h164l-123 -246h-113z" />
    <glyph glyph-name="lcommaaccent.alt" horiz-adv-x="542" 
d="M317 1290v-983q0 -61 41 -102t103 -41q14 0 29 2.5t24 5.5l8 2v-164q-41 -20 -102 -20q-125 0 -206 86.5t-81 230.5v983h184zM328 -133q47 0 79.5 -35t32.5 -88q0 -55 -17 -103.5t-41 -78.5t-48 -52.5t-41 -31.5l-17 -10l-30 40q8 6 20.5 17t37.5 46t34 71
q-53 0 -88 32.5t-35 79.5q0 46 33.5 79.5t79.5 33.5z" />
    <glyph glyph-name="Igrave.alt" horiz-adv-x="727" 
d="M266 184v922h-205v184h605v-184h-205v-922h205v-184h-605v184h205zM307 1690l123 -246h-123l-174 246h174z" />
    <glyph glyph-name="Iacute.alt" horiz-adv-x="727" 
d="M266 184v922h-205v184h605v-184h-205v-922h205v-184h-605v184h205zM307 1444l123 246h174l-174 -246h-123z" />
    <glyph glyph-name="Icircumflex.alt" horiz-adv-x="727" 
d="M266 184v922h-205v184h605v-184h-205v-922h205v-184h-605v184h205zM442 1679l185 -245h-164l-103 143l-102 -143h-164l185 245h163z" />
    <glyph glyph-name="Idieresis.alt" horiz-adv-x="727" 
d="M266 184v922h-205v184h605v-184h-205v-922h205v-184h-605v184h205zM297 1546q0 -46 -33.5 -79t-79.5 -33t-79 33t-33 79t33 79.5t79 33.5t79.5 -33.5t33.5 -79.5zM645 1546q0 -46 -33.5 -79t-79.5 -33t-79 33t-33 79t33 79.5t79 33.5t79.5 -33.5t33.5 -79.5z" />
    <glyph glyph-name="Idotaccent.alt" horiz-adv-x="727" 
d="M266 184v922h-205v184h605v-184h-205v-922h205v-184h-605v184h205zM471 1546q0 -46 -33.5 -79t-79.5 -33t-79 33t-33 79t33 79.5t79 33.5t79.5 -33.5t33.5 -79.5z" />
    <glyph glyph-name="Imacron.alt" horiz-adv-x="727" 
d="M266 184v922h-205v184h605v-184h-205v-922h205v-184h-605v184h205zM614 1597v-133h-512v133h512z" />
    <glyph glyph-name="Iogonek.alt" horiz-adv-x="727" 
d="M543 0h-482v184h205v922h-205v184h605v-184h-205v-922h205v-184q-8 -9 -20 -25t-32 -59.5t-20 -79.5q0 -38 27 -65t65 -27q18 0 38.5 2.5t31.5 5.5l12 2v-102q-51 -10 -102 -10q-91 0 -143 48t-52 126q0 45 18 91t36 69z" />
    <glyph glyph-name="yacute.alt" horiz-adv-x="1054" 
d="M748 41v102q-4 -5 -11 -13.5t-32 -29.5t-52.5 -37t-71 -29.5t-89.5 -13.5q-156 0 -262.5 112.5t-106.5 287.5v502h184v-502q0 -91 64.5 -158t150.5 -67q92 0 159 66.5t67 158.5v502h184v-881q0 -170 -113.5 -279.5t-296.5 -109.5q-154 0 -255 83.5t-134 213.5h184
q63 -123 205 -123q99 0 162.5 61t63.5 154zM461 1075l123 246h174l-174 -246h-123z" />
    <glyph glyph-name="ydieresis.alt" horiz-adv-x="1054" 
d="M748 41v102q-4 -5 -11 -13.5t-32 -29.5t-52.5 -37t-71 -29.5t-89.5 -13.5q-156 0 -262.5 112.5t-106.5 287.5v502h184v-502q0 -91 64.5 -158t150.5 -67q92 0 159 66.5t67 158.5v502h184v-881q0 -170 -113.5 -279.5t-296.5 -109.5q-154 0 -255 83.5t-134 213.5h184
q63 -123 205 -123q99 0 162.5 61t63.5 154zM471 1178q0 -46 -33.5 -79.5t-79.5 -33.5t-79 33.5t-33 79.5t33 79t79 33t79.5 -33t33.5 -79zM819 1178q0 -46 -33 -79.5t-79 -33.5t-79.5 33.5t-33.5 79.5t33.5 79t79.5 33t79 -33t33 -79z" />
    <glyph glyph-name="zero.numr" horiz-adv-x="614" 
d="M430 987q0 96 -36.5 147.5t-86.5 51.5t-86.5 -51.5t-36.5 -147.5t36.5 -147.5t86.5 -51.5t86.5 51.5t36.5 147.5zM553 987q0 -144 -71 -227.5t-175 -83.5t-175 83.5t-71 227.5t71 227.5t175 83.5t175 -83.5t71 -227.5z" />
    <glyph glyph-name="one.numr" horiz-adv-x="430" 
d="M41 1188l164 102h92v-604h-123v451l-72 -41z" />
    <glyph glyph-name="two.numr" horiz-adv-x="532" 
d="M410 983l-174 -184h235v-113h-410v92l226 236q21 21 31 32.5t20 31t10 38.5q0 31 -22.5 51.5t-59.5 20.5q-92 0 -92 -92h-113q0 92 56.5 148t148.5 56q91 0 148 -53t57 -131q0 -72 -61 -133z" />
    <glyph glyph-name="three.numr" horiz-adv-x="552" 
d="M410 1004q3 -2 8.5 -5.5t20 -16t25 -27.5t19.5 -40.5t9 -54.5q0 -79 -59.5 -131.5t-156.5 -52.5q-99 0 -157 56t-58 149h113q0 -41 25.5 -67t76.5 -26q43 0 68 24.5t25 57.5t-25 57.5t-68 24.5h-61v103h51q37 0 59.5 18t22.5 43q0 31 -22.5 51.5t-59.5 20.5
q-38 0 -60 -22t-22 -60h-112q0 85 56 139.5t148 54.5q83 0 139 -51.5t56 -122.5q0 -41 -15.5 -71.5t-30.5 -40.5z" />
    <glyph glyph-name="four.numr" horiz-adv-x="512" 
d="M389 1290v-379h72v-112h-72v-113h-123v113h-256v92l246 399h133zM143 911h123v195z" />
    <glyph glyph-name="five.numr" horiz-adv-x="563" 
d="M307 1096q85 0 140 -56.5t55 -148.5t-61.5 -153.5t-153.5 -61.5q-89 0 -149.5 52t-76.5 132h123q18 -72 103 -72q39 0 65.5 29t26.5 74t-26.5 73.5t-65.5 28.5q-43 0 -69 -17.5t-34 -43.5h-102l41 358h338v-112h-236l-10 -103q31 21 92 21z" />
    <glyph glyph-name="six.numr" horiz-adv-x="542" 
d="M410 1290l-134 -194q92 0 154 -60t62 -145q0 -92 -62 -153.5t-154 -61.5t-153.5 61.5t-61.5 153.5q0 45 23.5 99t46.5 85l23 31l122 184h134zM276 993q-39 0 -65.5 -28.5t-26.5 -73.5t26.5 -74t65.5 -29t66 29t27 74t-27 73.5t-66 28.5z" />
    <glyph glyph-name="seven.numr" horiz-adv-x="481" 
d="M72 1178v112h399v-71l-246 -533h-123l226 492h-256z" />
    <glyph glyph-name="eight.numr" horiz-adv-x="532" 
d="M266 676q-91 0 -148 53t-57 131q0 29 8.5 54t20.5 41t24 27.5t20 16.5l9 5q-2 2 -6.5 5t-15 14.5t-18.5 24.5t-14.5 34t-6.5 44q0 70 54 122t130 52t130.5 -52t54.5 -122q0 -36 -15.5 -66.5t-31.5 -43.5l-15 -12q3 -2 8.5 -5.5t20 -16t25 -27.5t19.5 -40.5t9 -54.5
q0 -78 -57 -131t-148 -53zM266 1188q-30 0 -50.5 -20t-20.5 -50q0 -25 20.5 -44t50.5 -19t51 19t21 44q0 29 -20.5 49.5t-51.5 20.5zM266 952q-37 0 -59.5 -24.5t-22.5 -57.5t22.5 -57.5t59.5 -24.5t59.5 24.5t22.5 57.5t-22.5 57.5t-59.5 24.5z" />
    <glyph glyph-name="nine.numr" horiz-adv-x="542" 
d="M133 686l133 195q-92 0 -153.5 59.5t-61.5 144.5q0 92 61.5 153.5t153.5 61.5t153.5 -61.5t61.5 -153.5q0 -45 -23 -99t-46 -85l-23 -31l-123 -184h-133zM266 983q39 0 65.5 28.5t26.5 73.5t-26.5 74t-65.5 29t-65.5 -29t-26.5 -74t26.5 -73.5t65.5 -28.5z" />
    <glyph glyph-name="zero.dnom" horiz-adv-x="614" 
d="M430 301q0 96 -36.5 147.5t-86.5 51.5t-86.5 -51.5t-36.5 -147.5t36.5 -147.5t86.5 -51.5t86.5 51.5t36.5 147.5zM553 301q0 -144 -71 -227.5t-175 -83.5t-175 83.5t-71 227.5t71 227.5t175 83.5t175 -83.5t71 -227.5z" />
    <glyph glyph-name="one.dnom" horiz-adv-x="430" 
d="M41 502l164 102h92v-604h-123v451l-72 -41z" />
    <glyph glyph-name="two.dnom" horiz-adv-x="532" 
d="M410 297l-174 -184h235v-113h-410v92l226 236q21 21 31 32.5t20 31t10 38.5q0 31 -22.5 51.5t-59.5 20.5q-92 0 -92 -92h-113q0 92 56.5 148t148.5 56q91 0 148 -53t57 -131q0 -72 -61 -133z" />
    <glyph glyph-name="three.dnom" horiz-adv-x="552" 
d="M410 317q3 -2 8.5 -5t20 -16t25 -28t19.5 -40t9 -54q0 -79 -59.5 -131.5t-156.5 -52.5q-99 0 -157 56t-58 149h113q0 -41 25.5 -67t76.5 -26q43 0 68 24.5t25 57.5t-25 57.5t-68 24.5h-61v103h51q37 0 59.5 18t22.5 43q0 31 -22.5 51.5t-59.5 20.5q-38 0 -60 -22t-22 -60
h-112q0 85 56 139.5t148 54.5q83 0 139 -51.5t56 -122.5q0 -41 -15.5 -71.5t-30.5 -40.5z" />
    <glyph glyph-name="four.dnom" horiz-adv-x="512" 
d="M389 604v-379h72v-112h-72v-113h-123v113h-256v92l246 399h133zM143 225h123v195z" />
    <glyph glyph-name="five.dnom" horiz-adv-x="563" 
d="M307 410q85 0 140 -56.5t55 -148.5t-61.5 -153.5t-153.5 -61.5q-89 0 -149.5 52t-76.5 132h123q18 -72 103 -72q39 0 65.5 29t26.5 74t-26.5 73.5t-65.5 28.5q-43 0 -69 -17.5t-34 -43.5h-102l41 358h338v-112h-236l-10 -103q31 21 92 21z" />
    <glyph glyph-name="six.dnom" horiz-adv-x="542" 
d="M410 604l-134 -194q92 0 154 -60t62 -145q0 -92 -62 -153.5t-154 -61.5t-153.5 61.5t-61.5 153.5q0 45 23.5 99t46.5 85l23 31l122 184h134zM276 307q-39 0 -65.5 -28.5t-26.5 -73.5t26.5 -74t65.5 -29t66 29t27 74t-27 73.5t-66 28.5z" />
    <glyph glyph-name="seven.dnom" horiz-adv-x="481" 
d="M72 492v112h399v-72l-246 -532h-123l226 492h-256z" />
    <glyph glyph-name="eight.dnom" horiz-adv-x="532" 
d="M266 -10q-91 0 -148 53t-57 131q0 29 8.5 54t20.5 40.5t24 27t20 16.5l9 5q-7 5 -17 14t-27 41t-17 68q0 70 54 122t130 52t130.5 -52t54.5 -122q0 -36 -15.5 -67t-31.5 -43l-15 -13q3 -2 8.5 -5t20 -16t25 -28t19.5 -40t9 -54q0 -78 -57 -131t-148 -53zM266 502
q-30 0 -50.5 -20t-20.5 -50q0 -25 20.5 -44t50.5 -19t51 19t21 44q0 29 -20.5 49.5t-51.5 20.5zM266 266q-37 0 -59.5 -24.5t-22.5 -57.5t22.5 -57.5t59.5 -24.5t59.5 24.5t22.5 57.5t-22.5 57.5t-59.5 24.5z" />
    <glyph glyph-name="nine.dnom" horiz-adv-x="542" 
d="M133 0l133 195q-92 0 -153.5 59.5t-61.5 144.5q0 92 61.5 153.5t153.5 61.5t153.5 -61.5t61.5 -153.5q0 -45 -23 -99t-46 -85l-23 -31l-123 -184h-133zM266 297q39 0 65.5 28.5t26.5 73.5t-26.5 74t-65.5 29t-65.5 -29t-26.5 -74t26.5 -73.5t65.5 -28.5z" />
    <glyph glyph-name="zero.tab" 
d="M829 645q0 114 -27.5 208t-73.5 152t-101.5 89.5t-114.5 31.5t-114.5 -31.5t-101.5 -89.5t-73.5 -152t-27.5 -208t27.5 -208t73.5 -152t101.5 -89.5t114.5 -31.5t114.5 31.5t101.5 89.5t73.5 152t27.5 208zM1024 645q0 -153 -41 -278.5t-111.5 -207t-163 -125.5
t-196.5 -44t-196.5 44t-163 125.5t-111.5 207t-41 278.5t41 278.5t111.5 207t163 125.5t196.5 44t196.5 -44t163 -125.5t111.5 -207t41 -278.5z" />
    <glyph glyph-name="one.tab" 
d="M174 184h266v840l-174 -113l-92 154l328 225h133v-1106h266v-184h-727v184z" />
    <glyph glyph-name="two.tab" 
d="M381 184h551v-184h-830v143l512 553q5 5 13.5 14t29.5 36.5t37 54t29.5 63t13.5 68.5q0 87 -60 140.5t-165 53.5q-100 0 -162.5 -62.5t-62.5 -162.5h-195q0 170 118.5 284.5t301.5 114.5q181 0 300.5 -110.5t119.5 -267.5q0 -46 -19 -97.5t-46 -92.5t-54 -75.5t-46 -53.5
l-19 -19z" />
    <glyph glyph-name="three.tab" 
d="M276 942h-194q8 151 124 254.5t296 103.5q86 0 163 -30t130.5 -80t84.5 -115t31 -133q0 -52 -17 -98t-40.5 -75.5t-47.5 -51.5t-41 -31l-17 -10q8 -3 22 -10t49 -34t62 -60t49 -90.5t22 -123.5q0 -98 -54 -181.5t-158 -135t-238 -51.5q-187 0 -304.5 103.5t-125.5 254.5
h194q8 -73 74 -128.5t162 -55.5q119 0 187.5 58.5t68.5 146.5t-68.5 146t-187.5 58h-82v175h82q97 0 156 52.5t59 131.5q0 86 -58.5 140t-156.5 54q-97 0 -157.5 -52.5t-68.5 -131.5z" />
    <glyph glyph-name="four.tab" 
d="M963 440v-184h-144v-256h-194v256h-574v164l543 870h225v-850h144zM276 440h349v564z" />
    <glyph glyph-name="five.tab" 
d="M532 870q87 0 166.5 -34.5t137.5 -93t92.5 -140.5t34.5 -172q0 -185 -130 -312.5t-321 -127.5q-187 0 -304.5 103.5t-125.5 254.5h194q8 -73 74 -128.5t162 -55.5q108 0 182 75.5t74 190.5t-74 190.5t-182 75.5q-46 0 -87 -16t-67 -38t-45.5 -44.5t-28.5 -38.5l-8 -16
h-163l82 747h686v-184h-521l-32 -307q9 8 26 20t70 31.5t108 19.5z" />
    <glyph glyph-name="six.tab" 
d="M512 -10q-191 0 -321 127.5t-130 312.5q0 43 12.5 91.5t31 87.5t36.5 71t31 50l12 18l359 542h215l-287 -430q41 10 82 10q107 0 201 -58t151.5 -160t57.5 -222q0 -185 -130 -312.5t-321 -127.5zM256 430q0 -115 74 -190.5t182 -75.5t182 75.5t74 190.5t-74 190.5
t-182 75.5t-182 -75.5t-74 -190.5z" />
    <glyph glyph-name="seven.tab" 
d="M143 1290h809v-133l-532 -1157h-205l512 1106h-584v184z" />
    <glyph glyph-name="eight.tab" 
d="M512 -10q-195 0 -317.5 110.5t-122.5 268.5q0 69 21 128t51 94t60 60t51 35l21 10q-6 3 -16.5 9.5t-37 30.5t-46.5 51t-36.5 71.5t-16.5 93.5q0 141 112 244.5t277 103.5t277 -103.5t112 -244.5q0 -49 -16 -93t-38.5 -72.5t-44.5 -50t-38 -30.5l-16 -10q8 -3 22 -10
t49 -34.5t62 -61t49 -93t22 -128.5q0 -158 -122.5 -268.5t-317.5 -110.5zM512 594q-113 0 -179.5 -60.5t-66.5 -154.5t66.5 -154.5t179.5 -60.5t179.5 60.5t66.5 154.5t-66.5 154.5t-179.5 60.5zM512 768q83 0 139 51.5t56 122.5q0 77 -55.5 130.5t-139.5 53.5t-139.5 -53.5
t-55.5 -130.5q0 -71 56 -122.5t139 -51.5z" />
    <glyph glyph-name="nine.tab" 
d="M512 1300q191 0 321 -127.5t130 -312.5q0 -43 -12.5 -91.5t-30.5 -87t-36.5 -71t-31.5 -50.5l-12 -17l-359 -543h-215l287 430q-31 -10 -82 -10q-107 0 -201 58t-151.5 160t-57.5 222q0 185 130 312.5t321 127.5zM768 860q0 115 -74 190.5t-182 75.5t-182 -75.5
t-74 -190.5t74 -190.5t182 -75.5t182 75.5t74 190.5z" />
    <glyph glyph-name="at.case" horiz-adv-x="1536" 
d="M778 1300q143 0 272.5 -54t222.5 -144t147.5 -212.5t54.5 -254.5q0 -171 -83 -270t-204 -99q-46 0 -86 11.5t-64.5 28t-42 33.5t-25.5 29l-7 11q-3 -5 -8.5 -12.5t-26.5 -27t-45 -34.5t-63.5 -27t-82.5 -12q-133 0 -225 98.5t-92 249.5t92 250t225 99q37 0 72 -9.5
t58 -23.5t41 -27.5t26 -22.5l8 -10l31 82h112v-399q0 -154 103 -154q59 0 96 56.5t37 179.5q0 106 -43.5 204t-116.5 170t-173.5 115t-209.5 43q-110 0 -210 -43.5t-173 -117.5t-116 -176.5t-43 -215.5t43 -215.5t116 -176.5t173 -117.5t210 -43.5q77 0 150.5 23.5
t107.5 46.5l35 23l78 -117q-6 -4 -18 -11.5t-51 -26.5t-79.5 -33t-101.5 -26t-121 -12q-143 0 -272.5 54.5t-222 146t-147 218.5t-54.5 267t54.5 267t147 218.5t222 146t272.5 54.5zM758 399q86 0 140 58.5t54 156.5t-54 156.5t-140 58.5q-78 0 -136.5 -62.5t-58.5 -152.5
t58.5 -152.5t136.5 -62.5z" />
    <glyph glyph-name="parenleft.case" horiz-adv-x="563" 
d="M276 614q0 -123 25.5 -247.5t61.5 -214t72 -161.5t61 -109l26 -36l-133 -92q-12 14 -31 40.5t-68.5 114.5t-87.5 181.5t-69 237t-31 286.5q0 104 16 208t41 187t55.5 158.5t61.5 130.5t56 95.5t41 60.5l16 21l133 -93q-10 -13 -26.5 -38t-59 -105t-75 -165t-59 -211
t-26.5 -249z" />
    <glyph glyph-name="parenright.case" horiz-adv-x="563" 
d="M287 614q0 123 -25.5 247.5t-61.5 214t-72 161.5t-62 109l-25 36l133 93q12 -14 31 -40.5t68.5 -114.5t87.5 -182t69 -237.5t31 -286.5t-29.5 -284.5t-71.5 -241t-84.5 -178t-71.5 -117.5l-30 -39l-133 92q10 13 26.5 38t59 105t75 165t59 211t26.5 249z" />
    <glyph glyph-name="bracketleft.case" horiz-adv-x="604" 
d="M328 1280v-1331h235v-164h-409v1659h409v-164h-235z" />
    <glyph glyph-name="bracketright.case" horiz-adv-x="604" 
d="M276 -51v1331h-235v164h410v-1659h-410v164h235z" />
    <glyph glyph-name="braceleft.case" horiz-adv-x="634" 
d="M92 543v143q46 0 74.5 28t28.5 74v390q0 266 282 266h117v-164h-123q-46 0 -74 -28t-28 -74v-390q0 -40 -11.5 -72.5t-28.5 -50.5t-33.5 -30.5t-27.5 -16.5l-12 -4q5 -1 12.5 -4t27 -16t34.5 -30.5t27 -50.5t12 -73v-389q0 -46 28 -74t74 -28h123v-164h-117
q-282 0 -282 266v389q0 46 -28.5 74.5t-74.5 28.5z" />
    <glyph glyph-name="braceright.case" horiz-adv-x="634" 
d="M543 686v-143q-46 0 -74.5 -28.5t-28.5 -74.5v-389q0 -266 -282 -266h-117v164h123q46 0 74 28t28 74v389q0 40 11.5 72.5t28 50.5t33.5 30.5t29 16.5l11 4q-5 1 -12.5 4t-27 16t-34.5 30.5t-27 50.5t-12 73v390q0 46 -28 74t-74 28h-123v164h117q282 0 282 -266v-390
q0 -46 28.5 -74t74.5 -28z" />
    <glyph glyph-name="exclamdown.case" horiz-adv-x="512" 
d="M338 963l31 -963h-226l31 963h164zM369 1188q0 -46 -33.5 -79.5t-79.5 -33.5t-79.5 33.5t-33.5 79.5t33.5 79t79.5 33t79.5 -33t33.5 -79z" />
    <glyph glyph-name="questiondown.case" horiz-adv-x="880" 
d="M61 358q0 60 16.5 109t42.5 83.5t57.5 65t63.5 61.5t58 66t42.5 86t16.5 113v21h185v-21q0 -79 -16.5 -143t-42.5 -106t-57.5 -76t-63.5 -61.5t-58 -55t-42.5 -63.5t-16.5 -79q0 -77 55 -130.5t139 -53.5q87 0 141 62t54 174v20h184v-20q0 -189 -107.5 -304.5
t-271.5 -115.5q-161 0 -270 107t-109 261zM338 1188q0 46 33.5 79t79.5 33t79 -33t33 -79t-33 -79.5t-79 -33.5t-79.5 33.5t-33.5 79.5z" />
    <glyph glyph-name="guillemotleft.case" horiz-adv-x="911" 
d="M246 614l225 -327h-184l-226 327l226 328h184zM625 614l225 -327h-184l-226 327l226 328h184z" />
    <glyph glyph-name="guillemotright.case" horiz-adv-x="911" 
d="M440 287l226 327l-226 328h185l225 -328l-225 -327h-185zM61 287l226 327l-226 328h185l225 -328l-225 -327h-185z" />
    <glyph glyph-name="guilsinglleft.case" horiz-adv-x="532" 
d="M246 614l225 -327h-184l-226 327l226 328h184z" />
    <glyph glyph-name="guilsinglright.case" horiz-adv-x="532" 
d="M61 287l226 327l-226 328h185l225 -328l-225 -327h-185z" />
    <glyph glyph-name="hyphen.case" horiz-adv-x="716" 
d="M655 758v-164h-594v164h594z" />
    <glyph glyph-name="endash.case" horiz-adv-x="962" 
d="M901 758v-164h-840v164h840z" />
    <glyph glyph-name="emdash.case" horiz-adv-x="1464" 
d="M1403 758v-164h-1342v164h1342z" />
    <glyph glyph-name="foundryicon" horiz-adv-x="3149" 
d="M569 942v-63h-147v-408h-72v408h-145v63h364zM1063 811q65 0 111.5 -51t46.5 -121q0 -73 -46.5 -123.5t-111.5 -50.5q-59 0 -96 43v-162h-70v459h49l19 -39q38 45 98 45zM1057 528q39 0 67.5 33t28.5 78q0 43 -29 74.5t-67 31.5q-40 0 -68 -31.5t-28 -74.5
q0 -46 28 -78.5t68 -32.5zM682 567l90 238h76l-158 -389q-33 -70 -100 -70q-15 0 -21 2v58q49 0 64 40l12 33l-129 326h76zM1436 811q64 0 109.5 -49.5t45.5 -120.5l-2 -31h-243q3 -34 29 -59t61 -25q55 0 75 35h72q-18 -46 -58.5 -71t-88.5 -25q-66 0 -113 50.5t-47 123.5
q0 71 47 121.5t113 50.5zM1346 666h180q-1 34 -29 58t-61 24q-34 0 -60 -22.5t-30 -59.5zM1923 942v-63h-147v-408h-72v408h-145v63h364zM2417 811q64 0 110.5 -50.5t46.5 -121.5q0 -73 -46 -123.5t-111 -50.5q-60 0 -97 43v-162h-69v459h49l18 -39q38 45 99 45zM2410 528
q39 0 68 33t29 78q0 43 -29.5 74.5t-67.5 31.5q-40 0 -68 -31.5t-28 -74.5q0 -46 28 -78.5t68 -32.5zM2036 567l90 238h76l-158 -389q-33 -70 -100 -70q-15 0 -21 2v58q49 0 64 40l12 33l-129 326h76zM2789 811q65 0 110.5 -50t45.5 -120l-2 -31h-244q3 -34 29 -59t61 -25
q56 0 76 35h72q-18 -46 -59 -71t-89 -25q-66 0 -112.5 50.5t-46.5 123.5q0 71 46.5 121.5t112.5 50.5zM2699 666h180q-1 34 -29 58t-61 24q-34 0 -60 -22.5t-30 -59.5z" />
    <glyph glyph-name="bullet.case" horiz-adv-x="798" 
d="M604 686q0 -85 -60 -145t-145 -60t-144.5 60t-59.5 145t59.5 145t144.5 60t145 -60t60 -145z" />
    <glyph glyph-name="periodcentered.case" horiz-adv-x="450" 
d="M338 686q0 -46 -33.5 -79.5t-79.5 -33.5t-79 33.5t-33 79.5t33 79.5t79 33.5t79.5 -33.5t33.5 -79.5z" />
    <glyph glyph-name="zero.osf" horiz-adv-x="1167" 
d="M307 461q0 -129 80 -213t197 -84t196.5 84t79.5 213t-79.5 213t-196.5 84t-197 -84t-80 -213zM1055 461q0 -199 -135.5 -335t-335.5 -136t-335.5 136t-135.5 335t135.5 335t335.5 136t335.5 -136t135.5 -335z" />
    <glyph glyph-name="one.osf" horiz-adv-x="645" 
d="M379 922h133v-922h-195v655l-174 -112l-92 153z" />
    <glyph glyph-name="two.osf" horiz-adv-x="942" 
d="M481 184h369v-184h-758v123l410 287q70 47 106.5 92t36.5 102q0 63 -49.5 108.5t-124.5 45.5q-163 0 -195 -164h-194q15 150 119.5 244t269.5 94q157 0 263 -95.5t106 -222.5q0 -56 -14 -101.5t-45 -85t-65.5 -70t-90.5 -70.5z" />
    <glyph glyph-name="three.osf" horiz-adv-x="1003" 
d="M727 31q0 100 -69.5 167.5t-176.5 67.5q-32 0 -60 -5t-40 -10l-12 -5l-93 92l318 399h-471v185h747v-123l-297 -369q151 -24 250 -133t99 -266q0 -171 -125.5 -290.5t-315.5 -119.5q-193 0 -312.5 103.5t-127.5 255.5h195q8 -74 75.5 -129.5t169.5 -55.5q106 0 176 68
t70 168z" />
    <glyph glyph-name="four.osf" horiz-adv-x="1015" 
d="M952 184v-184h-143v-369h-195v369h-573v164l543 758h225v-738h143zM266 184h348v492z" />
    <glyph glyph-name="five.osf" horiz-adv-x="1034" 
d="M532 502q116 0 215.5 -58.5t157.5 -160t58 -222.5q0 -185 -130 -312.5t-321 -127.5q-186 0 -304 104t-126 255h194q8 -73 74.5 -129t161.5 -56q108 0 182 75.5t74 190.5t-74 191t-182 76q-46 0 -87 -16t-67 -38.5t-45.5 -45t-28.5 -38.5l-8 -16h-163l82 748h686v-185
h-521l-32 -307q9 8 26 20t70 32t108 20z" />
    <glyph glyph-name="six.osf" 
d="M512 -10q-191 0 -321 127.5t-130 312.5q0 43 12.5 91.5t31 87.5t36.5 71t31 50l12 18l359 542h215l-287 -430q41 10 82 10q107 0 201 -58t151.5 -160t57.5 -222q0 -185 -130 -312.5t-321 -127.5zM256 430q0 -115 74 -190.5t182 -75.5t182 75.5t74 190.5t-74 190.5
t-182 75.5t-182 -75.5t-74 -190.5z" />
    <glyph glyph-name="seven.osf" horiz-adv-x="911" 
d="M61 922h809v-134l-532 -1157h-205l512 1106h-584v185z" />
    <glyph glyph-name="eight.osf" horiz-adv-x="1003" 
d="M502 -10q-195 0 -318 110.5t-123 268.5q0 50 11.5 95.5t29.5 77.5t39.5 59t43.5 44t40 29t29 17l12 5q-6 3 -16.5 9.5t-37 30.5t-46.5 51t-36.5 71.5t-16.5 93.5q0 141 112 244.5t277 103.5t277 -103.5t112 -244.5q0 -49 -16 -93t-38.5 -72.5t-45 -50t-38.5 -30.5
l-16 -10q8 -3 22 -10t49.5 -34.5t62.5 -61t49 -93t22 -128.5q0 -158 -122.5 -268.5t-317.5 -110.5zM502 594q-113 0 -179.5 -60.5t-66.5 -154.5t66.5 -154.5t179.5 -60.5t179.5 60.5t66.5 154.5t-66.5 154.5t-179.5 60.5zM502 768q83 0 138.5 51.5t55.5 122.5
q0 77 -55 130.5t-139 53.5t-139.5 -53.5t-55.5 -130.5q0 -71 56 -122.5t139 -51.5z" />
    <glyph glyph-name="nine.osf" 
d="M512 932q191 0 321 -127.5t130 -312.5q0 -43 -12.5 -91.5t-30.5 -87.5t-36.5 -71t-31.5 -50l-12 -18l-359 -543h-215l287 430q-31 -10 -82 -10q-106 0 -200.5 58t-152 160.5t-57.5 222.5q0 185 130 312.5t321 127.5zM768 492q0 115 -74 190.5t-182 75.5t-182 -75.5
t-74 -190.5t74 -191t182 -76t182 76t74 191z" />
    <glyph glyph-name="zero.osftab" 
d="M236 461q0 -129 79.5 -213t196.5 -84t196.5 84t79.5 213t-79.5 213t-196.5 84t-196.5 -84t-79.5 -213zM983 461q0 -199 -135.5 -335t-335.5 -136t-335.5 136t-135.5 335t135.5 335t335.5 136t335.5 -136t135.5 -335z" />
    <glyph glyph-name="one.osftab" 
d="M522 922h133v-738h267v-184h-727v184h266v471l-174 -112l-92 153z" />
    <glyph glyph-name="two.osftab" 
d="M522 184h369v-184h-758v123l410 287q70 47 106.5 92t36.5 102q0 63 -49.5 108.5t-124.5 45.5q-163 0 -195 -164h-194q15 150 119.5 244t269.5 94q157 0 263 -95.5t106 -222.5q0 -56 -14 -101.5t-45 -85t-65.5 -70t-90.5 -70.5z" />
    <glyph glyph-name="three.osftab" 
d="M737 31q0 100 -69.5 167.5t-175.5 67.5q-32 0 -60 -5t-40 -10l-13 -5l-92 92l317 399h-471v185h748v-123l-297 -369q150 -24 249 -133t99 -266q0 -171 -125.5 -290.5t-314.5 -119.5q-193 0 -313 103.5t-128 255.5h195q8 -74 76 -129.5t170 -55.5q106 0 175.5 67.5
t69.5 168.5z" />
    <glyph glyph-name="four.osftab" 
d="M963 184v-184h-144v-369h-194v369h-574v164l543 758h225v-738h144zM276 184h349v492z" />
    <glyph glyph-name="five.osftab" 
d="M522 498q178 0 304 -128.5t126 -312.5q0 -185 -129.5 -312.5t-320.5 -127.5q-187 0 -304.5 103.5t-125.5 254.5h194q8 -73 74 -128.5t162 -55.5q108 0 182 75.5t74 190.5t-74 191t-182 76q-46 0 -87 -16t-67 -38.5t-45.5 -45t-28.5 -38.5l-8 -16h-164l82 748h686v-185
h-520l-33 -307q9 8 26 20t70.5 32t108.5 20z" />
    <glyph glyph-name="six.osftab" 
d="M512 -10q-191 0 -321 127.5t-130 312.5q0 43 12.5 91.5t31 87.5t36.5 71t31 50l12 18l359 542h215l-287 -430q41 10 82 10q107 0 201 -58t151.5 -160t57.5 -222q0 -185 -130 -312.5t-321 -127.5zM256 430q0 -115 74 -190.5t182 -75.5t182 75.5t74 190.5t-74 190.5
t-182 75.5t-182 -75.5t-74 -190.5z" />
    <glyph glyph-name="seven.osftab" 
d="M123 918h809v-134l-533 -1157h-204l512 1106h-584v185z" />
    <glyph glyph-name="eight.osftab" 
d="M512 -10q-195 0 -317.5 110.5t-122.5 268.5q0 69 21 128t51 94t60 60t51 35l21 10q-6 3 -16.5 9.5t-37 30.5t-46.5 51t-36.5 71.5t-16.5 93.5q0 141 112 244.5t277 103.5t277 -103.5t112 -244.5q0 -49 -16 -93t-38.5 -72.5t-44.5 -50t-38 -30.5l-16 -10q8 -3 22 -10
t49 -34.5t62 -61t49 -93t22 -128.5q0 -158 -122.5 -268.5t-317.5 -110.5zM512 594q-113 0 -179.5 -60.5t-66.5 -154.5t66.5 -154.5t179.5 -60.5t179.5 60.5t66.5 154.5t-66.5 154.5t-179.5 60.5zM512 768q83 0 139 51.5t56 122.5q0 77 -55.5 130.5t-139.5 53.5t-139.5 -53.5
t-55.5 -130.5q0 -71 56 -122.5t139 -51.5z" />
    <glyph glyph-name="nine.osftab" 
d="M512 932q191 0 321 -127.5t130 -312.5q0 -43 -12.5 -91.5t-30.5 -87.5t-36.5 -71t-31.5 -50l-12 -18l-359 -543h-215l287 430q-31 -10 -82 -10q-106 0 -200.5 58t-152 160.5t-57.5 222.5q0 185 130 312.5t321 127.5zM768 492q0 115 -74 190.5t-182 75.5t-182 -75.5
t-74 -190.5t74 -191t182 -76t182 76t74 191z" />
    <glyph glyph-name="plus.lf" horiz-adv-x="931" 
d="M379 1034h174v-327h317v-164h-317v-328h-174v328h-318v164h318v327z" />
    <glyph glyph-name="less.lf" horiz-adv-x="911" 
d="M307 553l522 -266v-185l-747 390v122l747 390v-185z" />
    <glyph glyph-name="equal.lf" horiz-adv-x="921" 
d="M61 901h799v-174h-799v174zM61 348v174h799v-174h-799z" />
    <glyph glyph-name="greater.lf" horiz-adv-x="911" 
d="M82 287l522 266l-522 266v185l747 -390v-122l-747 -390v185z" />
    <glyph glyph-name="asciitilde.lf" horiz-adv-x="921" 
d="M666 502q-57 0 -140 31t-158 61.5t-112 30.5q-46 0 -74 -30t-28 -83h-154q0 136 69.5 211.5t186.5 75.5q45 0 107 -19t113.5 -42.5t105.5 -42.5t84 -19q47 0 74.5 29.5t27.5 82.5h154q0 -136 -69.5 -211t-186.5 -75z" />
    <glyph glyph-name="logicalnot.lf" horiz-adv-x="952" 
d="M41 891h870v-430h-174v266h-696v164z" />
    <glyph glyph-name="plusminus.lf" horiz-adv-x="931" 
d="M379 799v327h174v-327h317v-164h-317v-318h317v-174h-809v174h318v318h-318v164h318z" />
    <glyph glyph-name="minus.lf" horiz-adv-x="911" 
d="M850 707v-164h-789v164h789z" />
    <glyph glyph-name="multiply.lf" horiz-adv-x="921" 
d="M573 625l236 -246l-113 -103l-235 246l-236 -246l-112 103l235 246l-235 245l112 103l236 -246l235 246l113 -103z" />
    <glyph glyph-name="divide.lf" horiz-adv-x="921" 
d="M850 707v-164h-778v164h778zM573 963q0 -46 -33 -79.5t-79 -33.5t-79.5 33.5t-33.5 79.5t33.5 79t79.5 33t79 -33t33 -79zM573 287q0 -46 -33 -79.5t-79 -33.5t-79.5 33.5t-33.5 79.5t33.5 79t79.5 33t79 -33t33 -79z" />
    <glyph glyph-name="notequal.lf" horiz-adv-x="921" 
d="M881 717h-297l-72 -185h369v-174h-441l-102 -245h-174l102 245h-225v174h297l72 185h-369v174h440l103 246h174l-103 -246h226v-174z" />
    <glyph glyph-name="approxequal.lf" horiz-adv-x="921" 
d="M666 297q-45 0 -107 19t-113.5 42.5t-105.5 42.5t-84 19q-46 0 -74 -30t-28 -83h-154q0 136 69.5 211.5t186.5 75.5q57 0 140 -31t158 -61.5t112 -30.5q46 0 74 30t28 83h154q0 -136 -69.5 -211.5t-186.5 -75.5zM666 696q-57 0 -140 31t-158 61.5t-112 30.5
q-47 0 -74.5 -29.5t-27.5 -82.5h-154q0 136 69.5 211t186.5 75q45 0 107 -19t113.5 -42.5t105.5 -42.5t84 -19q46 0 74 30t28 83h154q0 -136 -69.5 -211.5t-186.5 -75.5z" />
    <glyph glyph-name="lessequal.lf" horiz-adv-x="931" 
d="M82 102v174h768v-174h-768zM92 809l758 338v-184l-502 -205l502 -205v-184l-758 338v102z" />
    <glyph glyph-name="greaterequal.lf" horiz-adv-x="931" 
d="M850 276v-174h-768v174h768zM82 1147l758 -338v-102l-758 -338v184l502 205l-502 205v184z" />
    <glyph glyph-name="colon.lf" horiz-adv-x="348" 
d="M287 891q0 -46 -33.5 -79.5t-79.5 -33.5t-79.5 33.5t-33.5 79.5t33.5 79.5t79.5 33.5t79.5 -33.5t33.5 -79.5zM287 358q0 -46 -33.5 -79t-79.5 -33t-79.5 33t-33.5 79t33.5 79.5t79.5 33.5t79.5 -33.5t33.5 -79.5z" />
    <glyph glyph-name="a.smcp" horiz-adv-x="1064" 
d="M645 1126l420 -1126h-205l-82 246h-491l-82 -246h-205l420 1126h225zM717 410l-185 512l-184 -512h369z" />
    <glyph glyph-name="agrave.smcp" horiz-adv-x="1064" 
d="M471 1516l123 -246h-123l-174 246h174zM645 1126l420 -1126h-205l-82 246h-491l-82 -246h-205l420 1126h225zM717 410l-185 512l-184 -512h369z" />
    <glyph glyph-name="aacute.smcp" horiz-adv-x="1064" 
d="M471 1270l123 246h174l-174 -246h-123zM645 1126l420 -1126h-205l-82 246h-491l-82 -246h-205l420 1126h225zM717 410l-185 512l-184 -512h369z" />
    <glyph glyph-name="abreve.smcp" horiz-adv-x="1064" 
d="M532 1403q44 0 79.5 31t43.5 71h144q-15 -102 -88.5 -168.5t-178.5 -66.5t-178 66.5t-88 168.5h144q8 -40 43 -71t79 -31zM645 1126l420 -1126h-205l-82 246h-491l-82 -246h-205l420 1126h225zM717 410l-185 512l-184 -512h369z" />
    <glyph glyph-name="acircumflex.smcp" horiz-adv-x="1064" 
d="M645 1126l420 -1126h-205l-82 246h-491l-82 -246h-205l420 1126h225zM717 410l-185 512l-184 -512h369zM614 1505l185 -245h-164l-103 143l-102 -143h-164l185 245h163z" />
    <glyph glyph-name="adieresis.smcp" horiz-adv-x="1064" 
d="M645 1126l420 -1126h-205l-82 246h-491l-82 -246h-205l420 1126h225zM717 410l-185 512l-184 -512h369zM471 1403q0 -46 -33.5 -79.5t-79.5 -33.5t-79 33.5t-33 79.5t33 79.5t79 33.5t79.5 -33.5t33.5 -79.5zM819 1403q0 -46 -33 -79.5t-79 -33.5t-79.5 33.5t-33.5 79.5
t33.5 79.5t79.5 33.5t79 -33.5t33 -79.5z" />
    <glyph glyph-name="amacron.smcp" horiz-adv-x="1064" 
d="M645 1126l420 -1126h-205l-82 246h-491l-82 -246h-205l420 1126h225zM717 410l-185 512l-184 -512h369zM788 1444v-133h-512v133h512z" />
    <glyph glyph-name="aogonek.smcp" horiz-adv-x="1064" 
d="M860 0l-82 246h-491l-82 -246h-205l420 1126h225l420 -1126h-82q-8 -9 -20 -25t-32 -59.5t-20 -79.5q0 -38 27.5 -65t65.5 -27q18 0 38.5 2.5t31.5 5.5l11 2v-102q-51 -10 -102 -10q-91 0 -143 48t-52 126q0 45 18 91t36 69zM717 410l-185 512l-184 -512h369z" />
    <glyph glyph-name="aring.smcp" horiz-adv-x="1064" 
d="M604 1413q0 32 -21 57t-51 25t-50.5 -25t-20.5 -57t20.5 -57t50.5 -25t51 25t21 57zM707 1413q0 -71 -50 -122.5t-125 -51.5t-124.5 51.5t-49.5 122.5t49.5 122.5t124.5 51.5t125 -51.5t50 -122.5zM645 1126l420 -1126h-205l-82 246h-491l-82 -246h-205l420 1126h225z
M717 410l-185 512l-184 -512h369z" />
    <glyph glyph-name="atilde.smcp" horiz-adv-x="1064" 
d="M645 1260q-42 0 -77 19t-55 42t-45 42t-48 19q-33 0 -57.5 -30.5t-24.5 -81.5h-102q0 118 52 182t134 64q42 0 76.5 -19t54.5 -42.5t45 -42.5t49 -19q33 0 57.5 30.5t24.5 81.5h102q0 -118 -52 -181.5t-134 -63.5zM645 1126l420 -1126h-205l-82 246h-491l-82 -246h-205
l420 1126h225zM717 410l-185 512l-184 -512h369z" />
    <glyph glyph-name="ae.smcp" horiz-adv-x="1536" 
d="M195 0h-215l612 1126h842v-184h-523v-266h482v-184h-482v-308h543v-184h-737v246h-389zM717 942h-21l-276 -512h297v512z" />
    <glyph glyph-name="b.smcp" horiz-adv-x="1064" 
d="M799 594q8 -3 22 -8t49.5 -27.5t62.5 -51t49 -79.5t22 -111q0 -134 -102 -225.5t-267 -91.5h-502v1126h481q158 0 248 -80t90 -206q0 -52 -16 -96t-38 -70.5t-44.5 -45.5t-38.5 -26zM635 492h-307v-308h307q68 0 116 46t48 108t-48 108t-116 46zM328 942v-266h286
q54 0 94 39.5t40 93.5t-40 93.5t-94 39.5h-286z" />
    <glyph glyph-name="c.smcp" horiz-adv-x="1198" 
d="M635 963q-148 0 -258.5 -117t-110.5 -283t110 -282.5t259 -116.5q117 0 196.5 64t120.5 171h195q-15 -81 -59 -154.5t-108.5 -130.5t-154.5 -90.5t-190 -33.5q-113 0 -217 45.5t-180 122t-121 182.5t-45 223t45 223t121 183t180 122.5t217 45.5q100 0 190 -33.5
t154.5 -90.5t108.5 -131t59 -155h-195q-41 107 -120.5 171.5t-196.5 64.5z" />
    <glyph glyph-name="cacute.smcp" horiz-adv-x="1198" 
d="M635 963q-148 0 -258.5 -117t-110.5 -283t110 -282.5t259 -116.5q117 0 196.5 64t120.5 171h195q-15 -81 -59 -154.5t-108.5 -130.5t-154.5 -90.5t-190 -33.5q-113 0 -217 45.5t-180 122t-121 182.5t-45 223t45 223t121 183t180 122.5t217 45.5q100 0 190 -33.5
t154.5 -90.5t108.5 -131t59 -155h-195q-41 107 -120.5 171.5t-196.5 64.5zM541 1270l123 246h174l-174 -246h-123z" />
    <glyph glyph-name="ccaron.smcp" horiz-adv-x="1198" 
d="M635 963q-148 0 -258.5 -117t-110.5 -283t110 -282.5t259 -116.5q117 0 196.5 64t120.5 171h195q-15 -81 -59 -154.5t-108.5 -130.5t-154.5 -90.5t-190 -33.5q-113 0 -217 45.5t-180 122t-121 182.5t-45 223t45 223t121 183t180 122.5t217 45.5q100 0 190 -33.5
t154.5 -90.5t108.5 -131t59 -155h-195q-41 107 -120.5 171.5t-196.5 64.5zM874 1505l-184 -245h-164l-184 245h164l102 -143l103 143h163z" />
    <glyph glyph-name="ccedilla.smcp" horiz-adv-x="1198" 
d="M635 963q-148 0 -258.5 -117t-110.5 -283t110 -282.5t259 -116.5q117 0 196.5 64t120.5 171h195q-31 -164 -149.5 -274.5t-295.5 -130.5l-36 -76q55 -8 88.5 -44t33.5 -89q0 -65 -49 -104t-145 -39q-23 0 -46 2.5t-34 5.5l-12 2v92q41 -10 82 -10q43 0 67.5 18t24.5 43
t-24.5 43.5t-67.5 18.5q-14 0 -27 -2.5t-19 -5.5l-6 -3l60 146q-143 10 -262 88t-188.5 206t-69.5 277q0 117 45 223t121 183t180 122.5t217 45.5q100 0 190 -33.5t154.5 -90.5t108.5 -131t59 -155h-195q-41 107 -120.5 171.5t-196.5 64.5z" />
    <glyph glyph-name="ccircumflex.smcp" horiz-adv-x="1198" 
d="M635 963q-148 0 -258.5 -117t-110.5 -283t110 -282.5t259 -116.5q117 0 196.5 64t120.5 171h195q-15 -81 -59 -154.5t-108.5 -130.5t-154.5 -90.5t-190 -33.5q-113 0 -217 45.5t-180 122t-121 182.5t-45 223t45 223t121 183t180 122.5t217 45.5q100 0 190 -33.5
t154.5 -90.5t108.5 -131t59 -155h-195q-41 107 -120.5 171.5t-196.5 64.5zM690 1505l184 -245h-163l-103 143l-102 -143h-164l184 245h164z" />
    <glyph glyph-name="d.smcp" horiz-adv-x="1116" 
d="M328 184h143q168 0 278.5 108.5t110.5 270.5t-110.5 270.5t-278.5 108.5h-143v-758zM1055 563q0 -114 -44 -217.5t-120.5 -179.5t-186 -121t-233.5 -45h-338v1126h338q124 0 233.5 -45t186 -121t120.5 -179.5t44 -217.5z" />
    <glyph glyph-name="dcaron.smcp" horiz-adv-x="1116" 
d="M823 1505l-184 -245h-164l-184 245h164l102 -143l102 143h164zM328 184h143q168 0 278.5 108.5t110.5 270.5t-110.5 270.5t-278.5 108.5h-143v-758zM1055 563q0 -114 -44 -217.5t-120.5 -179.5t-186 -121t-233.5 -45h-338v1126h338q124 0 233.5 -45t186 -121
t120.5 -179.5t44 -217.5z" />
    <glyph glyph-name="dcroat.smcp" horiz-adv-x="1157" 
d="M1096 563q0 -114 -44 -217.5t-120.5 -179.5t-186 -121t-233.5 -45h-338v471h-143v164h143v491h338q124 0 233.5 -45t186 -121t120.5 -179.5t44 -217.5zM369 184h143q168 0 278.5 108.5t110.5 270.5t-110.5 270.5t-278.5 108.5h-143v-307h215v-164h-215v-287z" />
    <glyph glyph-name="eth.smcp" horiz-adv-x="1157" 
d="M1096 563q0 -114 -44 -217.5t-120.5 -179.5t-186 -121t-233.5 -45h-338v471h-143v164h143v491h338q124 0 233.5 -45t186 -121t120.5 -179.5t44 -217.5zM369 184h143q168 0 278.5 108.5t110.5 270.5t-110.5 270.5t-278.5 108.5h-143v-307h215v-164h-215v-287z" />
    <glyph glyph-name="e.smcp" horiz-adv-x="1003" 
d="M328 184h594v-184h-789v1126h768v-184h-573v-266h532v-184h-532v-308z" />
    <glyph glyph-name="eacute.smcp" horiz-adv-x="1003" 
d="M328 184h594v-184h-789v1126h768v-184h-573v-266h532v-184h-532v-308zM451 1270l122 246h175l-175 -246h-122z" />
    <glyph glyph-name="ecaron.smcp" horiz-adv-x="1003" 
d="M328 184h594v-184h-789v1126h768v-184h-573v-266h532v-184h-532v-308zM778 1505l-184 -245h-164l-184 245h164l102 -143l102 143h164z" />
    <glyph glyph-name="ecircumflex.smcp" horiz-adv-x="1003" 
d="M328 184h594v-184h-789v1126h768v-184h-573v-266h532v-184h-532v-308zM594 1505l184 -245h-164l-102 143l-102 -143h-164l184 245h164z" />
    <glyph glyph-name="edieresis.smcp" horiz-adv-x="1003" 
d="M328 184h594v-184h-789v1126h768v-184h-573v-266h532v-184h-532v-308zM451 1403q0 -46 -33.5 -79.5t-79.5 -33.5t-79.5 33.5t-33.5 79.5t33.5 79.5t79.5 33.5t79.5 -33.5t33.5 -79.5zM799 1403q0 -46 -33.5 -79.5t-79.5 -33.5t-79.5 33.5t-33.5 79.5t33.5 79.5t79.5 33.5
t79.5 -33.5t33.5 -79.5z" />
    <glyph glyph-name="edotaccent.smcp" horiz-adv-x="1003" 
d="M328 184h594v-184h-789v1126h768v-184h-573v-266h532v-184h-532v-308zM625 1403q0 -46 -33.5 -79.5t-79.5 -33.5t-79.5 33.5t-33.5 79.5t33.5 79.5t79.5 33.5t79.5 -33.5t33.5 -79.5z" />
    <glyph glyph-name="egrave.smcp" horiz-adv-x="1003" 
d="M328 184h594v-184h-789v1126h768v-184h-573v-266h532v-184h-532v-308zM492 1516l122 -246h-122l-175 246h175z" />
    <glyph glyph-name="emacron.smcp" horiz-adv-x="1003" 
d="M328 184h594v-184h-789v1126h768v-184h-573v-266h532v-184h-532v-308zM768 1444v-133h-512v133h512z" />
    <glyph glyph-name="eogonek.smcp" horiz-adv-x="1003" 
d="M799 0h-666v1126h768v-184h-573v-266h532v-184h-532v-308h594v-184q-8 -9 -20 -25t-32 -59.5t-20 -79.5q0 -38 27 -65t65 -27q18 0 38.5 2.5t31.5 5.5l12 2v-102q-51 -10 -102 -10q-91 0 -143 48t-52 126q0 45 18 91t36 69z" />
    <glyph glyph-name="f.smcp" horiz-adv-x="931" 
d="M328 0h-195v1126h758v-184h-563v-307h460v-184h-460v-451z" />
    <glyph glyph-name="g.smcp" horiz-adv-x="1269" 
d="M645 410v184h512v-594h-133l-31 143q-5 -6 -14 -16.5t-42 -37t-72 -46.5t-103.5 -36.5t-136.5 -16.5q-147 0 -274 76.5t-203 209t-76 287.5q0 117 45 223t121 183t180 122.5t217 45.5q100 0 188.5 -31.5t151 -84t104.5 -118t58 -135.5h-195q-35 80 -114.5 137.5
t-192.5 57.5q-148 0 -258.5 -117t-110.5 -283t110 -282.5t259 -116.5q125 0 213 74t104 172h-307z" />
    <glyph glyph-name="gbreve.smcp" horiz-adv-x="1269" 
d="M645 410v184h512v-594h-133l-31 143q-5 -6 -14 -16.5t-42 -37t-72 -46.5t-103.5 -36.5t-136.5 -16.5q-147 0 -274 76.5t-203 209t-76 287.5q0 117 45 223t121 183t180 122.5t217 45.5q100 0 188.5 -31.5t151 -84t104.5 -118t58 -135.5h-195q-35 80 -114.5 137.5
t-192.5 57.5q-148 0 -258.5 -117t-110.5 -283t110 -282.5t259 -116.5q125 0 213 74t104 172h-307zM614 1403q44 0 79.5 31t43.5 71h144q-15 -102 -88.5 -168.5t-178.5 -66.5t-178 66.5t-88 168.5h144q8 -40 43 -71t79 -31z" />
    <glyph glyph-name="gcommaaccent.smcp" horiz-adv-x="1269" 
d="M645 410v184h512v-594h-133l-31 143q-5 -6 -14 -16.5t-42 -37t-72 -46.5t-103.5 -36.5t-136.5 -16.5q-147 0 -274 76.5t-203 209t-76 287.5q0 117 45 223t121 183t180 122.5t217 45.5q100 0 188.5 -31.5t151 -84t104.5 -118t58 -135.5h-195q-35 80 -114.5 137.5
t-192.5 57.5q-148 0 -258.5 -117t-110.5 -283t110 -282.5t259 -116.5q125 0 213 74t104 172h-307zM645 -133q47 0 80 -35t33 -88q0 -55 -17 -103.5t-41 -78.5t-48 -52.5t-41 -31.5l-17 -10l-31 40q8 6 20.5 17t37.5 46t34 71q-53 0 -88 32.5t-35 79.5q0 46 33.5 79.5
t79.5 33.5z" />
    <glyph glyph-name="h.smcp" horiz-adv-x="1167" 
d="M133 1126h195v-450h512v450h194v-1126h-194v492h-512v-492h-195v1126z" />
    <glyph glyph-name="i.smcp" horiz-adv-x="460" 
d="M328 1126v-1126h-195v1126h195z" />
    <glyph glyph-name="iacute.smcp" horiz-adv-x="460" 
d="M328 1126v-1126h-195v1126h195zM164 1270l123 246h174l-174 -246h-123z" />
    <glyph glyph-name="icircumflex.smcp" horiz-adv-x="460" 
d="M328 1126v-1126h-195v1126h195zM307 1505l185 -245h-164l-103 143l-102 -143h-164l184 245h164z" />
    <glyph glyph-name="idieresis.smcp" horiz-adv-x="460" 
d="M328 1126v-1126h-195v1126h195zM164 1403q0 -46 -33.5 -79.5t-79.5 -33.5t-79 33.5t-33 79.5t33 79.5t79 33.5t79.5 -33.5t33.5 -79.5zM512 1403q0 -46 -33.5 -79.5t-79.5 -33.5t-79 33.5t-33 79.5t33 79.5t79 33.5t79.5 -33.5t33.5 -79.5z" />
    <glyph glyph-name="igrave.smcp" horiz-adv-x="460" 
d="M328 1126v-1126h-195v1126h195zM164 1516l123 -246h-123l-174 246h174z" />
    <glyph glyph-name="dotlessi.smcp" horiz-adv-x="460" 
d="M328 1126v-1126h-195v1126h195zM348 1403q0 -46 -33 -79.5t-79 -33.5t-79.5 33.5t-33.5 79.5t33.5 79.5t79.5 33.5t79 -33.5t33 -79.5z" />
    <glyph glyph-name="imacron.smcp" horiz-adv-x="460" 
d="M328 1126v-1126h-195v1126h195zM481 1444v-133h-512v133h512z" />
    <glyph glyph-name="iogonek.smcp" horiz-adv-x="460" 
d="M133 0v1126h195v-1126h-72q-8 -9 -20 -25t-32 -59.5t-20 -79.5q0 -38 27 -65t65 -27q18 0 38.5 2.5t31.5 5.5l12 2v-102q-51 -10 -102 -10q-91 0 -143 48t-52 126q0 45 18 91t36 69z" />
    <glyph glyph-name="j.smcp" horiz-adv-x="921" 
d="M604 1126h195v-737q0 -176 -109.5 -287.5t-279.5 -111.5q-172 0 -281 102.5t-109 245.5h195q0 -71 52.5 -117.5t142.5 -46.5q93 0 143.5 54.5t50.5 160.5v737z" />
    <glyph glyph-name="k.smcp" horiz-adv-x="983" 
d="M1004 0h-236l-440 522v-522h-195v1126h195v-512l420 512h225l-461 -553z" />
    <glyph glyph-name="kcommaaccent.smcp" horiz-adv-x="983" 
d="M1004 0h-236l-440 522v-522h-195v1126h195v-512l420 512h225l-461 -553zM512 -133q47 0 80 -35t33 -88q0 -55 -17 -103.5t-41 -78.5t-48 -52.5t-41 -31.5l-17 -10l-31 40q8 6 20.5 17t37.5 46t34 71q-53 0 -88 32.5t-35 79.5q0 46 33.5 79.5t79.5 33.5z" />
    <glyph glyph-name="l.smcp" horiz-adv-x="911" 
d="M328 184h553v-184h-748v1126h195v-942z" />
    <glyph glyph-name="lacute.smcp" horiz-adv-x="911" 
d="M164 1270l123 246h174l-174 -246h-123zM328 184h553v-184h-748v1126h195v-942z" />
    <glyph glyph-name="lcaron.smcp" horiz-adv-x="911" 
d="M430 860l102 266h185l-164 -266h-123zM328 184h553v-184h-748v1126h195v-942z" />
    <glyph glyph-name="lcommaaccent.smcp" horiz-adv-x="911" 
d="M328 184h553v-184h-748v1126h195v-942zM512 -133q47 0 80 -35t33 -88q0 -55 -17 -103.5t-41 -78.5t-48 -52.5t-41 -31.5l-17 -10l-31 40q8 6 20.5 17t37.5 46t34 71q-53 0 -88 32.5t-35 79.5q0 46 33.5 79.5t79.5 33.5z" />
    <glyph glyph-name="lslash.smcp" horiz-adv-x="942" 
d="M31 246v184l133 82v614h194v-501l256 153v-184l-256 -154v-256h553v-184h-747v328z" />
    <glyph glyph-name="m.smcp" horiz-adv-x="1433" 
d="M666 0l-338 737v-737h-195v1126h215l369 -798l368 798h215v-1126h-194v737l-338 -737h-102z" />
    <glyph glyph-name="n.smcp" horiz-adv-x="1187" 
d="M860 1126h195v-1126h-185l-542 778v-778h-195v1126h184l543 -778v778z" />
    <glyph glyph-name="nacute.smcp" horiz-adv-x="1187" 
d="M860 1126h195v-1126h-185l-542 778v-778h-195v1126h184l543 -778v778zM492 1270l122 246h174l-174 -246h-122z" />
    <glyph glyph-name="ncaron.smcp" horiz-adv-x="1187" 
d="M860 1126h195v-1126h-185l-542 778v-778h-195v1126h184l543 -778v778zM860 1505l-184 -245h-164l-184 245h164l102 -143l102 143h164z" />
    <glyph glyph-name="ncommaaccent.smcp" horiz-adv-x="1187" 
d="M860 1126h195v-1126h-185l-542 778v-778h-195v1126h184l543 -778v778zM604 -133q47 0 80 -35t33 -88q0 -55 -17 -103.5t-41 -78.5t-48 -52.5t-41 -31.5l-17 -10l-31 40q8 6 20.5 17t37.5 46t34 71q-53 0 -87.5 32.5t-34.5 79.5q0 46 33 79.5t79 33.5z" />
    <glyph glyph-name="ntilde.smcp" horiz-adv-x="1187" 
d="M860 1126h195v-1126h-185l-542 778v-778h-195v1126h184l543 -778v778zM707 1260q-34 0 -63 12.5t-49.5 30.5t-38 36t-36.5 30.5t-39 12.5q-33 0 -57.5 -30.5t-24.5 -81.5h-102q0 118 52 182t134 64q34 0 63 -12.5t49 -31t37.5 -36.5t37 -30.5t39.5 -12.5q33 0 57.5 30.5
t24.5 81.5h102q0 -118 -52 -181.5t-134 -63.5z" />
    <glyph glyph-name="o.smcp" horiz-adv-x="1269" 
d="M1004 563q0 166 -110.5 283t-258.5 117t-258.5 -117t-110.5 -283t110 -282.5t259 -116.5t259 116.5t110 282.5zM1198 563q0 -117 -45 -223t-121 -182.5t-180 -122t-217 -45.5t-217 45.5t-180 122t-121 182.5t-45 223t45 223t121 183t180 122.5t217 45.5t217 -45.5
t180 -122.5t121 -183t45 -223z" />
    <glyph glyph-name="oacute.smcp" horiz-adv-x="1269" 
d="M1004 563q0 166 -110.5 283t-258.5 117t-258.5 -117t-110.5 -283t110 -282.5t259 -116.5t259 116.5t110 282.5zM1198 563q0 -117 -45 -223t-121 -182.5t-180 -122t-217 -45.5t-217 45.5t-180 122t-121 182.5t-45 223t45 223t121 183t180 122.5t217 45.5t217 -45.5
t180 -122.5t121 -183t45 -223zM582 1270l123 246h174l-174 -246h-123z" />
    <glyph glyph-name="ocircumflex.smcp" horiz-adv-x="1269" 
d="M1004 563q0 166 -110.5 283t-258.5 117t-258.5 -117t-110.5 -283t110 -282.5t259 -116.5t259 116.5t110 282.5zM1198 563q0 -117 -45 -223t-121 -182.5t-180 -122t-217 -45.5t-217 45.5t-180 122t-121 182.5t-45 223t45 223t121 183t180 122.5t217 45.5t217 -45.5
t180 -122.5t121 -183t45 -223zM717 1505l184 -245h-164l-102 143l-103 -143h-163l184 245h164z" />
    <glyph glyph-name="odieresis.smcp" horiz-adv-x="1269" 
d="M1004 563q0 166 -110.5 283t-258.5 117t-258.5 -117t-110.5 -283t110 -282.5t259 -116.5t259 116.5t110 282.5zM1198 563q0 -117 -45 -223t-121 -182.5t-180 -122t-217 -45.5t-217 45.5t-180 122t-121 182.5t-45 223t45 223t121 183t180 122.5t217 45.5t217 -45.5
t180 -122.5t121 -183t45 -223zM573 1403q0 -46 -33 -79.5t-79 -33.5t-79.5 33.5t-33.5 79.5t33.5 79.5t79.5 33.5t79 -33.5t33 -79.5zM922 1403q0 -46 -33.5 -79.5t-79.5 -33.5t-79.5 33.5t-33.5 79.5t33.5 79.5t79.5 33.5t79.5 -33.5t33.5 -79.5z" />
    <glyph glyph-name="ograve.smcp" horiz-adv-x="1269" 
d="M1004 563q0 166 -110.5 283t-258.5 117t-258.5 -117t-110.5 -283t110 -282.5t259 -116.5t259 116.5t110 282.5zM1198 563q0 -117 -45 -223t-121 -182.5t-180 -122t-217 -45.5t-217 45.5t-180 122t-121 182.5t-45 223t45 223t121 183t180 122.5t217 45.5t217 -45.5
t180 -122.5t121 -183t45 -223zM565 1516l123 -246h-123l-174 246h174z" />
    <glyph glyph-name="ohungarumlaut.smcp" horiz-adv-x="1269" 
d="M1004 563q0 166 -110.5 283t-258.5 117t-258.5 -117t-110.5 -283t110 -282.5t259 -116.5t259 116.5t110 282.5zM1198 563q0 -117 -45 -223t-121 -182.5t-180 -122t-217 -45.5t-217 45.5t-180 122t-121 182.5t-45 223t45 223t121 183t180 122.5t217 45.5t217 -45.5
t180 -122.5t121 -183t45 -223zM410 1270l133 246h174l-185 -246h-122zM696 1270l133 246h175l-185 -246h-123z" />
    <glyph glyph-name="omacron.smcp" horiz-adv-x="1269" 
d="M1004 563q0 166 -110.5 283t-258.5 117t-258.5 -117t-110.5 -283t110 -282.5t259 -116.5t259 116.5t110 282.5zM1198 563q0 -117 -45 -223t-121 -182.5t-180 -122t-217 -45.5t-217 45.5t-180 122t-121 182.5t-45 223t45 223t121 183t180 122.5t217 45.5t217 -45.5
t180 -122.5t121 -183t45 -223zM891 1444v-133h-512v133h512z" />
    <glyph glyph-name="oslash.smcp" horiz-adv-x="1269" 
d="M635 1137q60 0 118 -12.5t98 -30.5t71 -36.5t46 -31.5l15 -12l102 92l134 -133l-113 -103q4 -5 10 -15t22 -42.5t28 -66.5t22 -84t10 -99q0 -117 -45 -223t-121 -182.5t-180 -122t-217 -45.5q-60 0 -118 12.5t-98 31t-71 36.5t-46 30l-15 13l-103 -93l-133 134l113 102
q-4 5 -10 15t-22 42.5t-28 66.5t-22 84t-10 99q0 117 45 223t121 183t180 122.5t217 45.5zM297 389l553 502q-8 8 -24 20t-71.5 32t-119.5 20q-148 0 -258.5 -117t-110.5 -283q0 -55 8 -98.5t16 -59.5zM973 737l-553 -501q8 -8 24 -20t71.5 -32t119.5 -20q149 0 259 116.5
t110 282.5q0 55 -8 98.5t-16 59.5z" />
    <glyph glyph-name="otilde.smcp" horiz-adv-x="1269" 
d="M1004 563q0 166 -110.5 283t-258.5 117t-258.5 -117t-110.5 -283t110 -282.5t259 -116.5t259 116.5t110 282.5zM1198 563q0 -117 -45 -223t-121 -182.5t-180 -122t-217 -45.5t-217 45.5t-180 122t-121 182.5t-45 223t45 223t121 183t180 122.5t217 45.5t217 -45.5
t180 -122.5t121 -183t45 -223zM748 1260q-34 0 -63 12.5t-49.5 30.5t-38 36t-36.5 30.5t-39 12.5q-33 0 -57.5 -30.5t-24.5 -81.5h-102q0 118 52 182t134 64q34 0 63 -12.5t49 -31t37.5 -36.5t37 -30.5t39.5 -12.5q33 0 57 30.5t24 81.5h103q0 -118 -52 -181.5t-134 -63.5z
" />
    <glyph glyph-name="oe.smcp" horiz-adv-x="1587" 
d="M952 184h553v-184h-839q-128 0 -239 43.5t-188.5 119t-122 179t-44.5 221.5t44.5 221.5t122 179t188.5 119t239 43.5h819v-184h-533v-266h492v-184h-492v-308zM266 563q0 -170 112 -279.5t288 -109.5h92v778h-92q-176 0 -288 -109.5t-112 -279.5z" />
    </font>
</defs>
</svg>
